<svg version="1.2" xmlns="http://www.w3.org/2000/svg" viewBox="0 0 7600 2000" width="1520" height="400">
	<title>880-ai</title>
	<defs>
		<linearGradient id="g1" x2="1" gradientUnits="userSpaceOnUse" gradientTransform="matrix(-9187.062,387.092,-116.88,-2773.982,8532.339,1811.693)">
			<stop offset=".321" stop-color="#68bcd1"/>
			<stop offset="1" stop-color="#2980b5"/>
		</linearGradient>
		<clipPath clipPathUnits="userSpaceOnUse" id="cp1">
			<path d="m7600 0v2000h-7600v-2000z"/>
		</clipPath>
		<linearGradient id="g2" x2="1" gradientUnits="userSpaceOnUse" gradientTransform="matrix(0,-1156.062,1767.574,0,5708.381,1670.945)">
			<stop offset="0" stop-color="#ffffff"/>
			<stop offset="1" stop-color="#ffffff"/>
		</linearGradient>
	</defs>
	<style>
		.s0 { fill: url(#g1) } 
		.s1 { fill: #000000 } 
		.s2 { mix-blend-mode: soft-light;fill: #e2e2e2 } 
		.s3 { fill: #355d89 } 
		.s4 { fill: #f7c07f } 
		.s5 { fill: #fad9b2 } 
		.s6 { fill: #e5b183 } 
		.s7 { fill: #134e5b } 
		.s8 { fill: #356e89 } 
		.s9 { fill: #b27d56 } 
		.s10 { fill: #fe735e } 
		.s11 { fill: #feb65e } 
		.s12 { fill: #f7e57f } 
		.s13 { mix-blend-mode: multiply;fill: #feb65e } 
		.s14 { mix-blend-mode: soft-light;fill: url(#g2) } 
	</style>
	<g id="_Artboards_">
	</g>
	<g id="Object">
		<g id="&lt;Group&gt;">
			<g id="&lt;Group&gt;">
				<path id="&lt;Path&gt;" class="s0" d="m7600 0v2000h-7600v-2000z"/>
				<g id="&lt;Clip Group&gt;" clip-path="url(#cp1)">
					<g id="&lt;Group&gt;" style="mix-blend-mode: soft-light">
						<g id="&lt;Group&gt;">
							<g id="&lt;Group&gt;">
								<path id="&lt;Path&gt;" class="s1" d="m124.2 2136.6c0-1-2.5-98.1 15-231.9 16.1-123.7 53-305.2 137.2-467.5l19.3 9.9c-82.7 159.5-119.1 338.2-135 460-17.3 132.2-14.9 227.9-14.8 228.9z"/>
							</g>
							<g id="&lt;Group&gt;">
								<path id="&lt;Path&gt;" class="s1" d="m65.7 2143.6c-0.3-6.5-32.7-654.4-120-843.7l19.7-9.1c89.1 193.2 120.7 825 122 851.8z"/>
							</g>
							<g id="&lt;Group&gt;">
								<path id="&lt;Path&gt;" class="s1" d="m0 2152.6c-0.1-0.8-14.6-82.4-57.2-176-39-85.7-110.4-199.5-228.7-254.7l9.2-19.6c124.5 58.1 198.9 176.6 239.5 265.8 43.6 96.1 58 177.4 58.6 180.8z"/>
							</g>
							<g id="&lt;Group&gt;">
								<path id="&lt;Path&gt;" class="s1" d="m80 2141.8c-0.1-2.2-8.3-224.5-15.6-266.8-3.7-21.4 6.1-50.2 17.5-83.6 13.9-40.8 29.7-87.2 20.4-122.4-19.3-72.9-3-98.5 41.6-143.6 8.6-8.7 16.2-15.7 23-21.9 28.3-26 42.4-39 61.6-114.3 7.8-30.9 27.5-50.9 55.4-56.4 33-6.4 74.2 9.4 93.9 36.1 11.7 16 13.7 34 5.4 49.5-22.5 41.7-22.2 44.4-17.8 89.3 0.9 8.6 1.8 18.3 2.8 30.1 4 48-7.7 58.3-27.1 71.1-11.4 7.5-24.3 16.1-38.4 41.5-24.2 43.6-21 54.9-11.6 88.5 3.9 13.9 8.8 31.1 13 55 8.6 48.7-12.9 63.5-33.6 77.8-18.5 12.7-37.6 25.8-43.6 68-13.4 94.3-24.5 190.3-24.6 191.2l-21.6-2.5c0.1-0.9 11.2-97.2 24.7-191.7 7.3-51.6 32.5-69 52.8-82.9 19.2-13.2 30.7-21.1 24.6-56.2-4.1-22.7-8.8-39.4-12.5-52.8-10.8-38.1-14-55.5 13.4-104.9 16.7-30.1 33.4-41.1 45.5-49.1 14.5-9.6 20.5-13.6 17.4-51.2-1-11.6-1.9-21.2-2.8-29.7-4.8-48.9-4.5-55.8 20.3-101.8 4.4-8.1 3.1-17-3.8-26.4-12.9-17.5-44.2-33.1-72.2-27.6-19.8 3.9-32.8 17.5-38.6 40.4-20.7 81.6-38.5 97.9-67.9 125-6.6 6-14.1 12.9-22.3 21.2-43.1 43.5-52.3 61.3-36.1 122.7 11 41.6-5.9 91.2-20.8 135-10 29.3-19.4 57-16.6 72.9 7.6 43.8 15.6 260.5 15.9 269.7z"/>
							</g>
							<g id="&lt;Group&gt;">
								<path id="&lt;Path&gt;" class="s1" d="m-35.9 2158.1c-9.8-32.9-44.1-123-84-144.6-56.4-30.4-75.2-56-87.7-118.9-1.7-8.4-3-15.9-4.3-22.6-7.5-40.9-8.4-46.2-35.6-55.2-9.9-3.3-19.2-4.6-28.1-5.8-23.3-3.2-47.3-6.4-58.6-49.4-4.8-18.1-13.7-24.7-25-32.9-16.2-11.9-34.5-25.3-36.6-70.8-1.3-26.4 13.7-36.7 22.8-40.5 43.9-18.4 135.5 30 159.2 55.5 18.1 19.5 30.4 22.3 45.9 25.9 8.7 2 18.4 4.2 29.5 9.6q3.7 1.8 7.6 3.6c28 13.2 62.9 29.6 73.4 76.5l1.4 6.2c9.3 41.8 14.5 64.8 41.1 80.1 35 20.2 37.8 66.4 40.4 111.2q0.3 4.8 0.6 9.5c2.9 45.6 19.3 149.7 19.5 150.7l-21.4 3.4c-0.7-4.3-16.8-106.1-19.7-152.7q-0.3-4.8-0.6-9.6c-2.5-40.8-4.8-79.4-29.7-93.7-34.8-20-41.7-51.1-51.4-94.2l-1.3-6.1c-8.2-36.6-35.3-49.4-61.6-61.7q-3.9-1.9-7.8-3.7c-8.8-4.3-16.6-6.1-24.8-8-16.9-3.9-34.3-7.9-56.9-32.2-21.9-23.6-104.1-63.3-135-50.3-4.8 2-10.2 6.1-9.6 19.4 1.7 35.2 13.2 43.7 27.8 54.4 12.4 9.1 26.4 19.3 33.1 44.8 7.7 29 18 30.4 40.6 33.5 9.5 1.3 20.2 2.8 32.1 6.7 39.3 13.1 42.4 30.3 50.1 71.9 1.2 6.6 2.5 14 4.2 22.2 11.2 56.5 26.2 76.9 76.7 104.1 56 30.3 92.9 152.3 94.5 157.5z"/>
							</g>
							<g id="&lt;Group&gt;">
								<path id="&lt;Path&gt;" class="s1" d="m-3.1 1916c0-0.7-9-73.6-39.1-131.6-32.6-62.9-40.7-91.7-35.4-174.7 2.7-40.8-13.1-68.7-29.8-98.2-15.5-27.3-31.5-55.5-34.9-95.3-3.4-39.8 5.9-58.1 13.4-72.9 8-15.8 14.3-28.2 1.2-69.9-10.2-32.3 18.1-64.8 50.1-76.4 32.8-11.9 79.5-5.6 102.7 51.3 27.3 66.4 34.2 108.5 38.8 136.4 4.6 27.9 6.7 40.7 23 54.5 25.8 21.9 24.8 51.5 23.7 82.9-0.8 22.1-1.7 47.2 6.6 73.7l-20.7 6.5c-9.4-30-8.5-57.1-7.6-81 1-29.3 1.8-50.4-16.1-65.6-22.3-18.9-25.5-38.2-30.3-67.5-4.7-28.5-11.1-67.5-37.4-131.7-22-53.6-63.2-43.5-75.4-39.1-22.6 8.2-42.8 30.1-36.7 49.5 15.8 50.1 6.9 67.7-2.6 86.3-6.9 13.5-14 27.5-11.1 61.1 3 35.1 17.2 60.1 32.1 86.5 17.6 31 35.7 63 32.7 110.3-5.1 80 2.1 103.8 33 163.3 31.9 61.6 41 136 41.4 139.1z"/>
							</g>
						</g>
						<g id="&lt;Group&gt;">
							<g id="&lt;Group&gt;">
								<path id="&lt;Path&gt;" class="s1" d="m612.6 2134.6l-14.4-4.7c0.3-0.8 24.8-75.6 67.4-153.7 57.8-105.9 119.4-167.1 183.3-181.9l3.4 14.8c-142.8 32.9-238.7 322.5-239.7 325.5z"/>
							</g>
							<g id="&lt;Group&gt;">
								<path id="&lt;Path&gt;" class="s1" d="m567.8 2135l-14.6-4c0.3-0.9 24.7-91 41.7-213.5 15.6-112.8 27.9-277-2.3-418.4l14.8-3.2c30.7 143.7 18.3 309.8 2.5 423.9-17.1 123.4-41.8 214.3-42.1 215.2z"/>
							</g>
							<g id="&lt;Group&gt;">
								<path id="&lt;Path&gt;" class="s1" d="m526.6 2131.5l-14.5 4.5c-0.5-2-59.2-191.5-141.5-219.2-20.3-6.8-39.9-3.1-60.1 11.4l-8.8-12.2c24.1-17.4 48.9-21.9 73.7-13.5 89.6 30.2 148.7 220.9 151.2 229z"/>
							</g>
							<g id="&lt;Group&gt;">
								<path id="&lt;Path&gt;" class="s1" d="m545.5 2131.7l-14.8 3.4c-2.7-11.7-26.4-115.3-21.2-140.2 2-9.3 0-22.4-32.8-41.6-23.4-13.8-25.3-15.7-33.6-26.7-3.5-4.7-8.3-11.1-17.7-21.7-18.1-20.5-23.5-24.1-87.3-16.5-31 3.7-51.1 27.7-58.3 37.9-7 9.9-10.8 18.7-12.3 24.2 15.6-7.5 31.2-4.9 46.4-2.5 10.6 1.7 21.5 3.4 33.3 2.3 12.3-1.2 21.2 1.1 27.4 6.8 11.4 10.6 10.9 30.4 10.1 60.2l-0.1 3.8c-0.4 18.9 6.5 20.2 21.8 22.8 11.9 2.1 26.7 4.7 37.4 18.8 21 27.6 46.2 67.2 46.4 67.6l-12.8 8.1c-0.2-0.4-25-39.5-45.7-66.6-7.1-9.3-17.2-11.1-27.9-13-15.6-2.7-35.1-6.1-34.3-38.1l0.1-3.8c0.6-23.9 1.1-42.7-5.3-48.7-2.8-2.6-8-3.5-15.7-2.8-13.7 1.3-26.1-0.7-37.1-2.5-15.7-2.5-28.1-4.5-40.2 2.7-7.6 4.6-12.7 2.3-15 0.5-4.8-3.6-5.9-10.3-3.3-19.9 7.2-26.2 38.6-67.5 83.3-72.8 64.7-7.7 76.9-5.1 100.4 21.5 9.8 11.1 14.8 17.7 18.5 22.6 6.8 9.1 7.5 10 29.2 22.7 31.6 18.6 44.3 37 40 57.8-3.5 16.4 10.7 88.9 21.1 133.7z"/>
							</g>
							<g id="&lt;Group&gt;">
								<path id="&lt;Path&gt;" class="s1" d="m531.7 2069.8l-14.5-4.6c0.2-0.4 13-41 17.5-95.6 2-24.2-4.9-37.5-12.1-51.6-8.6-16.8-17.5-34.2-9.3-66.9 8.1-31.8 20.2-37.9 29-42.3 6.7-3.3 10.8-5.3 12.2-25.4 1.3-19.4-4.4-26-11.1-33.7-10.4-12-17.6-23.7-8.1-55.1 7.2-23.7 15.6-34.1 21.7-41.8 7.9-9.9 12.3-15.3 7.9-49.5-3.6-28.1-12.5-38.6-20.3-47.9-8.9-10.6-17.4-20.6-9.3-48.7 11.3-39.4 26.4-76.8 74.9-63.3 38.9 10.8 55.4 51.9 43 107.3-4 18.3 4.9 41.9 14.4 66.9 12.7 33.6 27.2 71.7 13.4 107.6-7.3 19-12.9 29.7-16.6 36.8-7.1 13.7-7.1 13.7-1 50.7 2.4 14.6 4.3 24.6 5.9 32.6 4.9 24.5 5.1 27.6-1.9 57l-14.7-3.5c6.4-27 6.3-27.9 1.8-50.5-1.6-7.8-3.7-18.4-6.1-33.1-6.4-38.9-6.9-42.1 2.6-60.3 3.8-7.1 8.9-16.9 15.9-35.1 11.7-30.5-1.1-64.2-13.5-96.8-10.3-27.2-20-52.9-14.9-75.6 3.9-17.7 13.4-76.7-32.4-89.4-29.5-8.2-42.1 3.6-56.3 52.9-5.8 20.3-1.7 25.1 6.4 34.8 8.2 9.7 19.5 23.2 23.7 55.6 5 38.7-0.7 48-11.1 61-5.9 7.4-12.7 15.8-19 36.7-7.8 25.9-2.4 32.1 5.1 40.8 7.3 8.5 16.4 19 14.7 44.7-1.8 26.6-9.7 32.5-20.6 37.9-7.2 3.6-14.7 7.3-21 32.4-6.9 27.2 0 40.7 8.1 56.3 7.5 14.7 16 31.3 13.7 59.8-4.7 56.4-17.6 97.2-18.1 98.9z"/>
							</g>
							<g id="&lt;Group&gt;">
								<path id="&lt;Path&gt;" class="s1" d="m640.9 2133.2l-14.9-2.9c13.5-68.2 35.7-89.9 53.6-107.3 9.9-9.6 18.5-18 24.3-33 3-7.7 5.4-14.3 7.6-20 10.9-29 14.6-38.8 30.7-59.7 10.7-13.9 20-15 29.9-16.2 9.5-1.1 21.3-2.5 41.6-18.7 20.2-16 19.5-26.2 19-34.4-0.5-7.2-1.2-18.2 16.7-22.3 8.3-1.9 18.8-2.4 29-2.7 12.5-0.5 31.5-1.3 34.7-6.3 1-1.5 0-4.7-0.7-6.4-2.8-7.2-8.6-12.2-17.2-15-17.3-5.6-43.2-1-61.6 10.8-16.2 10.4-28.9 6.4-39.2 3.1-11.5-3.6-20.5-6.5-37.1 7.1-14 11.5-19 25-23.5 36.9-6.3 16.7-12.7 34-42 33.1-17.6-0.6-21.3 10.8-27.5 34.4-4.4 17.2-9.5 36.7-24 53.1-29.9 33.7-55.3 166-55.5 167.3l-14.9-2.8c1-5.6 26.4-137.8 59.1-174.5 12.1-13.7 16.7-31.3 20.7-46.9 5.9-23 12.1-46.7 42.5-45.8 18.5 0.6 21.3-6.9 27.4-23.2 4.9-13 11-29.2 28.1-43.3 22.9-18.8 38.7-13.8 51.3-9.8 9.4 3 16.2 5.2 26.4-1.4 22.3-14.3 52.8-19.5 74.4-12.5 13 4.2 22.2 12.4 26.7 23.8 3.2 8 2.9 14.8-0.7 20.3-7.5 11.6-26.6 12.3-46.8 13.1-9.5 0.4-19.3 0.7-26.2 2.3-4.2 1-5.1 1.9-5.1 1.9-0.2 0.6 0 3 0.1 4.7 0.6 9.8 1.8 26.3-24.6 47.3-23.7 18.8-38.6 20.6-49.4 21.9-8.5 1-12.8 1.5-19.5 10.3-14.8 19.2-18 27.7-28.6 55.8-2.2 5.8-4.7 12.5-7.7 20.1-7 18.2-17.1 28-27.8 38.5-17.2 16.7-36.7 35.7-49.3 99.3z"/>
							</g>
						</g>
						<g id="&lt;Group&gt;">
							<path id="&lt;Compound Path&gt;" fill-rule="evenodd" class="s1" d="m2123 1664.3c-30 0-54.4-24.4-54.4-54.4 0-30.1 24.4-54.5 54.4-54.5 30 0 54.5 24.4 54.5 54.5 0 30-24.5 54.4-54.5 54.4zm0-90.4c-19.8 0-35.9 16.1-35.9 36 0 19.8 16.1 35.9 35.9 35.9 19.8 0 36-16.1 36-35.9 0-19.9-16.2-36-36-36z"/>
						</g>
						<g id="&lt;Group&gt;">
							<g id="&lt;Group&gt;">
								<g id="&lt;Group&gt;">
									<path id="&lt;Compound Path&gt;" fill-rule="evenodd" class="s1" d="m3318.4 2386.2c-5.7 0-11.3-2.2-15.5-6.2l-20.6-19.9 130.8-51.7-1.5 28.6c-0.4 8.7-5.9 16.4-14 19.6l-71 28.1c-2.7 1-5.5 1.5-8.2 1.5zm-2.6-19.5c1.1 1 2.6 1.3 3.9 0.8l71.1-28.1c1.3-0.6 2.2-1.8 2.4-3.2z"/>
								</g>
								<g id="&lt;Group&gt;">
									<g id="&lt;Group&gt;">
										<path id="&lt;Compound Path&gt;" fill-rule="evenodd" class="s1" d="m3286.1 2374.6c-8.3 0-16.5-1.9-23.9-5.9l-43.4-22.8c-10.9-5.7-19.4-15.1-23.9-26.5l-42.8-108.4 254-100.4 42.8 108.3c4.5 11.4 4.8 24.1 0.8 35.7l-16.1 46.3c-4.9 14.2-15.7 25.5-29.6 31l-99 39.1c-6.1 2.4-12.5 3.6-18.9 3.6zm-110-153.2l36 91.2c2.9 7.3 8.3 13.3 15.3 17l43.4 22.8c8.5 4.4 18.5 5 27.4 1.4l99-39.1c8.9-3.6 15.8-10.8 18.9-19.8l16.1-46.3c2.6-7.5 2.4-15.6-0.5-22.9l-36-91.1z"/>
									</g>
									<g id="&lt;Group&gt;">
										<path id="&lt;Compound Path&gt;" fill-rule="evenodd" class="s1" d="m3160 2225.4c-12.1 0-23.8-6.8-29.4-18.1l-0.2-0.6c-32.1-64.8-60-80-102.2-102.9-20.8-11.3-44.4-24.1-73.4-45l-1.6-1.2q-2.3-1.6-4.6-3.3l-1.2-1q-2.1-1.6-4.1-3.2l-1.8-1.4q-2.1-1.7-4.2-3.5l-1-0.8q-2.5-2.1-5-4.2l-1.5-1.4q-1.9-1.7-3.8-3.4l-1.4-1.3q-2.4-2.2-4.8-4.5l-1.1-1.1q-1.9-1.9-3.8-3.8l-1.5-1.5q-2-2.1-4.1-4.3l-0.6-0.6q-2.3-2.5-4.5-5l-1.3-1.5q-1.8-1.9-3.5-3.9l-1.1-1.4q-2.2-2.6-4.4-5.2l-0.9-1.1q-1.7-2.2-3.4-4.4l-1.2-1.6q-1.9-2.5-3.8-5.1l-0.4-0.5q-2-2.7-3.9-5.6l-1.1-1.6q-1.6-2.2-3.1-4.5l-0.9-1.4q-1.9-2.9-3.7-5.9l-0.8-1.2q-1.5-2.5-2.9-4.9l-1-1.7q-1.7-3-3.4-6c-1.2-2.2-2.3-4.3-3.4-6.4l-0.9-1.7q-1.3-2.6-2.6-5.1l-0.7-1.5q-1.5-3.2-3-6.4l-0.7-1.4q-1.1-2.6-2.3-5.3l-0.8-1.8q-1.4-3.4-2.7-6.7-1.5-3.8-2.8-7.5-0.3-0.7-0.6-1.4l-0.4-1.2q-0.9-2.4-1.7-4.8-0.3-1-0.6-2l-0.6-1.7q-0.6-1.9-1.2-3.8-0.3-1.1-0.7-2.2l-0.4-1.5q-0.6-1.9-1.1-3.8-0.4-1.1-0.7-2.3l-0.4-1.7q-0.5-1.7-1-3.5-0.3-1.4-0.7-2.7l-0.2-1.1q-0.5-1.9-0.9-3.7-0.3-1.4-0.6-2.9l-0.2-0.6q-0.4-2-0.9-4.1-0.2-1.4-0.5-2.7l-0.2-1.1q-0.4-1.9-0.7-3.7-0.3-1.8-0.6-3.5-0.4-2.1-0.7-4.1-0.3-1.7-0.5-3.5-0.3-2-0.6-4-0.2-1.8-0.4-3.6-0.2-2-0.5-4-0.1-1.8-0.3-3.5-0.2-2.1-0.4-4.1-0.1-1.7-0.2-3.5-0.2-2-0.3-4-0.1-1.8-0.2-3.6 0-2-0.1-4-0.1-1.7-0.1-3.5 0-2-0.1-4 0-1.8 0-3.5 0-2 0.1-4 0-1.8 0.1-3.5 0-2 0.1-4 0.1-1.8 0.1-3.5 0.2-2 0.3-4v-0.5q0.1-1.5 0.2-3 0.2-2 0.4-4v-0.9q0.1-1.3 0.3-2.5 0.2-2.1 0.4-4.1l0.1-0.8q0.1-1.2 0.3-2.5 0.2-1.9 0.5-3.7l0.2-1.3q0.1-1.2 0.3-2.4 0.3-1.7 0.5-3.5l0.3-1.7q0.2-1 0.4-2.1 0.3-1.8 0.6-3.5l0.3-1.9q0.2-1 0.4-1.9 0.5-2.3 1-4.5l0.2-1.2q0.2-0.8 0.3-1.6 0.8-3.6 1.7-7.2l0.5-1.7q0.6-2.7 1.4-5.4 0.2-0.9 0.5-1.9l0.5-1.7q0.5-1.8 1-3.6 0.3-1 0.7-2.1l0.3-1.2q0.6-1.9 1.2-3.7 0.3-1.1 0.7-2.2l0.6-1.9q0.5-1.5 1-2.9 0.5-1.3 0.9-2.5l0.4-1.1q0.6-1.7 1.2-3.4 0.6-1.4 1.1-2.7l0.4-1.2q0.6-1.4 1.2-2.9 0.5-1.3 1.1-2.6l0.2-0.7q0.8-1.8 1.5-3.6 0.6-1.3 1.3-2.7l0.2-0.5q0.7-1.7 1.5-3.5 0.7-1.4 1.3-2.7l0.2-0.5q0.8-1.7 1.7-3.5 0.8-1.6 1.6-3.2 0.8-1.7 1.7-3.4 0.8-1.6 1.6-3.1 0.9-1.7 1.8-3.4 0.9-1.6 1.8-3.1 0.9-1.7 1.9-3.4 0.9-1.5 1.8-3.1 0.9-1.6 1.9-3.2 1-1.6 1.9-3.1 1-1.6 2-3.2 1-1.5 2-3 1-1.6 2.1-3.2 1-1.5 2-3 1.1-1.5 2.2-3.1 1.1-1.5 2.1-2.9 1.1-1.5 2.2-2.9l0.3-0.5q1-1.3 2-2.6 0.9-1.3 2-2.6l0.8-1q0.8-1.1 1.7-2.2 1.1-1.3 2.1-2.6l1-1.2q0.8-1 1.7-2 1-1.2 2-2.4l1.1-1.3q0.9-1 1.7-1.9 1.1-1.2 2.1-2.4l1.2-1.3q0.9-1 1.7-1.9 1.1-1.1 2.2-2.3l1.3-1.3q0.8-0.9 1.7-1.8 1.1-1.1 2.2-2.2l1.5-1.5q0.8-0.8 1.5-1.6 1.4-1.3 2.8-2.6l1.3-1.3q0.7-0.6 1.4-1.3 2.7-2.5 5.5-5 0.7-0.6 1.4-1.3l1.5-1.3q1.4-1.2 2.7-2.3 0.9-0.8 1.7-1.5l1.7-1.3q1.2-1 2.5-2.1 0.9-0.8 1.9-1.5l1.5-1.2q1.3-1 2.5-2 1.1-0.7 2.1-1.5l1.4-1.1q1.3-1 2.6-1.9 1.1-0.8 2.2-1.6l1.3-0.9q1.4-1 2.7-1.9 1.2-0.9 2.5-1.7l1.1-0.8q1.4-0.9 2.7-1.8 1.4-0.9 2.8-1.8l0.6-0.4q1.6-1 3.1-1.9 1.5-1 3.1-1.9c1.3-0.8 2.4-1.5 3.5-2.1q1.7-1 3.3-2 1.7-0.9 3.4-1.9 1.7-0.9 3.4-1.8 1.7-1 3.5-1.9 1.7-0.9 3.4-1.8 1.8-0.8 3.5-1.7 1.8-0.9 3.5-1.7l3.4-1.6q2.3-1.1 4.6-2.1 1.6-0.7 3.2-1.4 2.3-1 4.5-1.9l0.6-0.3q1.4-0.5 2.8-1.1l1.2-0.5q1.2-0.4 2.4-0.9l2.1-0.8q1-0.4 2-0.8 3.2-1.1 6.3-2.2l1.4-0.5c150.6-51.4 315.8 18.2 384.2 161.8l0.7 1.4q1.3 2.8 2.6 5.8 0.6 1.3 1.2 2.6 1 2.4 2 4.8 0.7 1.6 1.4 3.3l0.8 1.9q0.3 0.8 0.6 1.6l0.3 0.9q0.7 1.7 1.3 3.5 0.9 2.3 1.7 4.6l0.2 0.5q0.5 1.4 1 2.8 0.9 2.6 1.7 5.2l1.5 4.7q0.9 3 1.7 5.9l0.3 0.9q0.9 3.3 1.8 6.5l0.4 1.8q0.8 3.2 1.6 6.4l0.3 1.4q0.6 2.9 1.2 5.7l0.3 1.6q0.7 3.1 1.2 6.4l0.3 1.7q0.6 3.3 1.1 6.5l0.1 0.9q0.5 3 0.9 6l0.2 1.8q0.4 3.2 0.7 6.4l0.2 1.6q0.2 2.9 0.5 5.7l0.1 1.3q0.2 3.2 0.4 6.4l0.1 1.9q0.1 3.2 0.2 6.4v1.3q0.1 2.8 0.1 5.6v1.7q0 3.1-0.1 6.3v1.8q-0.1 2.9-0.2 5.8l-0.1 1.3q-0.1 3-0.3 6l-0.2 1.9q-0.2 3.1-0.5 6.2l-0.2 1.7q-0.2 2.6-0.5 5.2l-0.2 1.7q-0.4 3.1-0.8 6.1l-0.3 2q-0.5 3-1 6l-0.3 1.9q-0.3 1.4-0.5 2.8l-0.7 3.3c-6.8 35.4-15.4 61.2-23.1 83.9-15.4 45.8-25.6 76.1-4.5 145.3 4.8 15.9-3.3 33.1-18.5 39.5-71.4 40.3-148.3 70.7-228.7 90.4-3.6 1.4-7.4 2-11.1 2zm-12.7-26.2c3.3 6.4 11 9.4 17.7 6.7l1.2-0.3c79.1-19.4 154.8-49.3 225-89l1.1-0.6c6.8-2.6 10.4-10.2 8.3-17.1-22.8-74.9-11.3-109.2 4.7-156.6 7.5-22.2 15.9-47.3 22.5-81.5l0.6-3.2q0.2-1.2 0.4-2.6l0.4-1.8q0.4-2.8 0.9-5.6l0.2-1.9q0.5-2.9 0.8-5.8l0.2-1.6q0.3-2.4 0.5-4.8l0.2-1.6q0.3-2.9 0.5-5.8l0.1-1.9q0.2-2.8 0.4-5.7v-1.2q0.1-2.7 0.2-5.3l0.1-1.8q0-3 0-5.9v-1.6q0-2.7-0.1-5.3v-1.2q-0.1-3-0.2-6l-0.1-1.8q-0.2-3-0.4-6l-0.1-1.2q-0.2-2.7-0.4-5.4l-0.2-1.6q-0.3-2.9-0.7-6l-0.2-1.6q-0.3-2.9-0.8-5.7l-0.1-0.9q-0.5-3-1-6l-0.3-1.7q-0.5-3-1.1-6l-0.3-1.4q-0.6-2.7-1.2-5.4l-0.3-1.3q-0.7-3-1.4-6.1l-0.5-1.6q-0.7-3.1-1.6-6.1l-0.3-0.9q-0.7-2.8-1.6-5.6l-1.4-4.4q-0.8-2.4-1.6-4.9-0.5-1.3-1-2.6l-0.1-0.5q-0.8-2.2-1.6-4.3-0.6-1.7-1.2-3.3l-1.7-4.2q-0.6-1.6-1.3-3.1-0.9-2.3-1.9-4.5-0.5-1.3-1.1-2.5-1.2-2.7-2.5-5.5l-0.6-1.3c-64.4-135.1-219.8-200.6-361.5-152.2l-1.3 0.5q-3 1-5.9 2.1-1 0.3-1.9 0.7l-2.2 0.8q-1.1 0.4-2.1 0.8l-1.2 0.5q-1.2 0.5-2.5 1l-0.6 0.3q-2.1 0.9-4.3 1.8-1.5 0.6-3 1.3-2.2 1-4.3 2l-3.2 1.5q-1.7 0.8-3.3 1.6-1.7 0.8-3.3 1.6-1.6 0.9-3.2 1.7-1.7 0.9-3.3 1.7-1.6 0.9-3.2 1.8-1.6 0.9-3.2 1.8-1.5 0.9-3.1 1.8-1.6 0.9-3.1 1.9c-1.2 0.7-2.1 1.3-3.1 1.9q-1.4 0.9-2.9 1.8l-0.6 0.4q-1.3 0.8-2.6 1.7-1.3 0.8-2.5 1.7l-1.2 0.7q-1.1 0.8-2.2 1.6-1.3 0.9-2.5 1.7l-1.4 1q-1 0.7-2 1.4-1.2 0.9-2.4 1.8l-1.4 1.1q-1 0.7-1.9 1.4-1.2 0.9-2.3 1.8l-1.6 1.2q-0.8 0.7-1.7 1.4-1.2 1-2.3 1.9l-1.7 1.4q-0.8 0.6-1.5 1.3-1.2 1-2.5 2.1l-1.6 1.4q-0.6 0.6-1.2 1.1-2.7 2.3-5.2 4.7-0.6 0.6-1.2 1.1l-1.4 1.4q-1.2 1.2-2.5 2.4-0.7 0.7-1.4 1.4l-1.5 1.6q-1.1 1-2.1 2-0.7 0.8-1.5 1.6l-1.3 1.4q-1 1-2 2.1-0.8 0.8-1.5 1.7l-1.3 1.3q-0.9 1.1-1.9 2.2-0.8 0.9-1.5 1.8l-1.2 1.3q-0.9 1.1-1.9 2.2-0.7 0.9-1.5 1.8l-1 1.3q-1 1.2-1.9 2.3-0.9 1.1-1.7 2.1l-0.8 1q-0.9 1.2-1.8 2.5-1 1.2-1.9 2.4l-0.2 0.3c-0.8 1-1.4 1.9-2.1 2.8q-1 1.4-2 2.8-1 1.5-2 3-1 1.3-1.9 2.8-1 1.4-2 2.9-1 1.5-1.9 2.9-0.9 1.5-1.9 3-0.9 1.4-1.8 2.9-0.9 1.5-1.8 3.1-0.9 1.4-1.7 2.9-0.9 1.5-1.8 3.1-0.8 1.5-1.6 3-0.9 1.5-1.7 3.1-0.8 1.5-1.6 3-0.8 1.6-1.6 3.2-0.7 1.5-1.5 3-0.8 1.6-1.5 3.3l-0.2 0.4q-0.7 1.3-1.2 2.6-0.8 1.6-1.5 3.3l-0.2 0.5q-0.6 1.2-1.2 2.5-0.7 1.7-1.4 3.4l-0.3 0.7q-0.4 1.2-0.9 2.4-0.6 1.3-1.1 2.7l-0.5 1.2q-0.5 1.3-0.9 2.5-0.6 1.6-1.2 3.1l-0.4 1.2q-0.4 1.2-0.8 2.3-0.5 1.3-0.9 2.7l-0.7 1.9q-0.3 1-0.6 2-0.6 1.7-1.1 3.4l-0.4 1.3q-0.3 1-0.6 1.9-0.5 1.6-0.9 3.3l-0.5 1.9q-0.3 0.7-0.5 1.5-0.7 2.6-1.3 5.1l-0.4 1.7q-0.9 3.3-1.6 6.7l-0.6 2.6q-0.4 2.1-0.8 4.2-0.2 0.9-0.3 1.7l-0.4 2q-0.3 1.6-0.6 3.2-0.2 1-0.3 1.9l-0.3 1.8q-0.3 1.6-0.5 3.2-0.2 1.1-0.3 2.2l-0.2 1.3q-0.2 1.7-0.4 3.5-0.2 1.1-0.3 2.3l-0.1 0.8q-0.2 1.9-0.4 3.8-0.1 1.2-0.2 2.3l-0.1 0.9q-0.2 1.9-0.3 3.8-0.1 1.4-0.2 2.8l-0.1 0.5q-0.1 1.9-0.2 3.7-0.1 1.6-0.1 3.3-0.1 1.9-0.2 3.8 0 1.6 0 3.3-0.1 1.9-0.1 3.7 0 1.7 0 3.4 0.1 1.8 0.1 3.7 0 1.7 0.1 3.3 0 1.9 0.1 3.8 0.1 1.7 0.2 3.3 0.1 1.9 0.2 3.8 0.1 1.7 0.3 3.3 0.1 1.9 0.3 3.8 0.2 1.7 0.3 3.3 0.2 1.9 0.5 3.8 0.2 1.7 0.4 3.4 0.2 1.9 0.5 3.8 0.2 1.6 0.5 3.3 0.3 1.9 0.6 3.8 0.3 1.7 0.6 3.3 0.3 1.7 0.6 3.5l0.3 1q0.2 1.3 0.5 2.6 0.4 1.9 0.8 3.8l0.1 0.7q0.3 1.3 0.6 2.6 0.4 1.7 0.9 3.5l0.2 1.1q0.3 1.2 0.6 2.5 0.5 1.6 0.9 3.2l0.5 1.8q0.3 1 0.6 2 0.5 1.8 1 3.5l0.5 1.6q0.3 1 0.6 2 0.5 1.8 1.1 3.5l0.6 1.9q0.3 0.8 0.5 1.6 0.8 2.3 1.6 4.5l0.9 2.5q1.3 3.5 2.7 7 1.2 3.2 2.6 6.4l0.7 1.7q1.1 2.5 2.2 5l0.6 1.3q1.4 3.1 2.9 6.1l0.6 1.3q1.2 2.4 2.4 4.8l0.9 1.6q1.5 3 3.1 5.9l0.2 0.3c0.9 1.8 2 3.6 3.1 5.5l0.9 1.6q1.4 2.3 2.8 4.6l0.7 1.1q1.7 2.9 3.5 5.6l0.8 1.3q1.5 2.1 2.9 4.3l1.1 1.5q1.8 2.6 3.7 5.3l0.3 0.4q1.8 2.4 3.6 4.8l1.2 1.5q1.6 2.1 3.2 4.1l0.8 1.1q2 2.5 4.1 4.9l1.1 1.2q1.6 1.9 3.2 3.8l1.3 1.4q2.1 2.4 4.2 4.7l0.6 0.5q1.9 2.1 3.9 4.1l1.4 1.4q1.7 1.8 3.5 3.6l1.1 1q2.2 2.1 4.5 4.2l1.3 1.3q1.8 1.6 3.5 3.1l1.5 1.3q2.3 2.1 4.7 4.1l0.9 0.7q2 1.7 4 3.3l1.6 1.3q2 1.5 3.9 3l1.2 0.9q2.1 1.6 4.3 3.2l1.5 1.1c28 20.2 51.1 32.7 71.4 43.7 43.8 23.8 75.5 41 110.2 111.6z"/>
									</g>
									<g id="&lt;Group&gt;">
										<path id="&lt;Compound Path&gt;" fill-rule="evenodd" class="s1" d="m3242.9 2193.9c-0.1-0.3-14.5-38.6-100.8-214.8-8.1-16.6-16.4-30.1-24.5-40.8-51.6 7.1-76.5-5.6-82.3-22.6-4-11.9 2.4-24.3 15.3-29.7 15.1-6.2 43.9-3.4 74.7 32.3 9.2-1.6 19.5-3.9 30.8-7 32.6-8.9 57.3-19.1 75.5-29.6-3.1-25.2-2.8-45.8 2.8-58.2 9.3-20.2 24.5-25 35.6-22.8 13.3 2.7 22.6 14.7 23.1 29.9 0.3 9.6-3.1 34.8-41.7 60.6 13.4 80.5 59.9 210.2 82.2 266.8l-17.2 6.8c-8.4-21.2-64.6-165.9-81.8-263.6-18.3 9.8-42.3 19.4-73.6 28q-12.2 3.3-23.1 5.6c7 10.1 14 22.1 20.9 36.2 87 177.9 100.9 215 101.5 216.5zm-177.6-292.2c-2.9 0-5.5 0.5-7.7 1.4-2.9 1.2-5.8 3.7-4.8 6.6 2.1 6.2 17 14 49.8 11.6-14.5-14.1-27.7-19.6-37.3-19.6zm199.5-83c-4.9 0-10 4.7-13.6 12.5-3.7 8.3-4.3 22-2.6 39.4 18.8-14.4 26.3-28.4 26-39.3-0.3-7.5-4.4-11.6-8.3-12.4q-0.7-0.2-1.5-0.2z"/>
									</g>
									<g id="&lt;Group&gt;">
										<path id="&lt;Path&gt;" class="s1" d="m3176.6 2251l-4.6-17.9 248.5-64 4.6 17.9z"/>
									</g>
									<g id="&lt;Group&gt;">
										<path id="&lt;Path&gt;" class="s1" d="m3186.3 2275.4l-4.7-17.9 248.5-64.1 4.7 18z"/>
									</g>
									<g id="&lt;Group&gt;">
										<path id="&lt;Path&gt;" class="s1" d="m3195.9 2299.8l-4.6-17.9 248.5-64.1 4.6 18z"/>
									</g>
									<g id="&lt;Group&gt;">
										<path id="&lt;Path&gt;" class="s1" d="m3205.5 2324.2l-4.6-17.9 236.8-61.1 4.7 17.9z"/>
									</g>
								</g>
							</g>
							<g id="&lt;Group&gt;">
								<path id="&lt;Path&gt;" class="s1" d="m3473.8 1681.3l-6.8-17.2 91.3-36.1 6.8 17.2z"/>
							</g>
							<g id="&lt;Group&gt;">
								<path id="&lt;Path&gt;" class="s1" d="m3367.4 1529.8l-14.5-11.5 61-76.9 14.5 11.5z"/>
							</g>
							<g id="&lt;Group&gt;">
								<path id="&lt;Path&gt;" class="s1" d="m3199.5 1451.9l-18.3-2.7 14.4-97.1 18.3 2.7z"/>
							</g>
							<g id="&lt;Group&gt;">
								<path id="&lt;Path&gt;" class="s1" d="m2998 1475.1l-36.1-91.3 17.2-6.8 36.1 91.3z"/>
							</g>
							<g id="&lt;Group&gt;">
								<path id="&lt;Path&gt;" class="s1" d="m2852.3 1589.2l-76.9-61 11.5-14.5 76.9 61z"/>
							</g>
							<g id="&lt;Group&gt;">
								<path id="&lt;Path&gt;" class="s1" d="m2783.1 1760.9l-97.1-14.4 2.7-18.3 97.1 14.4z"/>
							</g>
							<g id="&lt;Group&gt;">
								<path id="&lt;Path&gt;" class="s1" d="m2717.8 1980.2l-6.8-17.2 91.3-36.1 6.8 17.2z"/>
							</g>
						</g>
						<g id="&lt;Group&gt;">
							<g id="&lt;Group&gt;">
								<path id="&lt;Compound Path&gt;" fill-rule="evenodd" class="s1" d="m101.6 446.8l-284.2-140.1-8.7-543.4 412.2 168.9zm-265.9-151.8l253.2 124.9 110.5-476.6-371.7-152.2z"/>
							</g>
							<g id="&lt;Group&gt;">
								<path id="&lt;Compound Path&gt;" fill-rule="evenodd" class="s1" d="m138.5 455.2l115.1-515.6 444.7 26.2-242.9 486.1zm129.7-496.2l-106.6 477.4 282.3-3 225.3-450.9z"/>
							</g>
							<g id="&lt;Group&gt;">
								<path id="&lt;Compound Path&gt;" fill-rule="evenodd" class="s1" d="m155 456.5l-68.8-15.7 117-514.1 68.8 15.7zm-46.7-29.6l32.8 7.4 108.7-478-32.7-7.4z"/>
							</g>
							<g id="&lt;Group&gt;">
								<path id="&lt;Path&gt;" class="s1" d="m636.7-28.9l-27.6-31.8c-196.9-65.5-332.2-29.6-358.2-21.4l-6.3 27.7-18.1-4.1 8.6-37.6 4.6-1.7c1.5-0.6 38.3-14.5 103.5-18.9 59.8-4 155.9-0.5 274.2 39.3l2.4 0.8 30.9 35.6z"/>
							</g>
							<g id="&lt;Group&gt;">
								<path id="&lt;Path&gt;" class="s1" d="m244.6-54.4l-18.1-4.1 6.3-27.7c-19.9-18.6-126.3-109.6-332.3-135.7l-38.6 16.7-7.4-16.9 43.3-18.8 2.5 0.3c123.9 15.3 212.1 53.7 264.2 83.2 56.9 32.2 84.1 60.7 85.2 61.9l3.4 3.5z"/>
							</g>
							<g id="&lt;Group&gt;">
								<path id="&lt;Path&gt;" class="s1" d="m621.6-62.8l-14.3-11.7 35.2-42.9c-30.2 3.3-89.5 4.5-193.3-11.4-81.3-12.4-131 0.5-158.4 13.4-29.2 13.9-39.8 30.8-39.9 31l-15.9-9.5c1.9-3.2 48.6-78.9 217-53.2 160 24.4 210 7.7 210.5 7.5l31.3-11z"/>
							</g>
							<g id="&lt;Group&gt;">
								<path id="&lt;Path&gt;" class="s1" d="m246.6 12.2l-51.5-11.7 4.1-18.1 51.5 11.7z"/>
							</g>
							<g id="&lt;Group&gt;">
								<path id="&lt;Path&gt;" class="s1" d="m237 54.3l-51.4-11.7 4.1-18.1 51.4 11.8z"/>
							</g>
							<g id="&lt;Group&gt;">
								<path id="&lt;Path&gt;" class="s1" d="m159.3 392.7l-51.3-12.1 4.2-18 51.4 12.1z"/>
							</g>
							<g id="&lt;Group&gt;">
								<path id="&lt;Path&gt;" class="s1" d="m169.2 350.7l-51.4-12.1 4.3-18 51.4 12.1z"/>
							</g>
							<path id="&lt;Path&gt;" class="s1" d="m259-70.9c12.7-5 26-8 39.4-10.4 6.7-1.3 13.4-2.2 20.1-3 3.4-0.4 6.8-0.7 10.2-1 3.4-0.3 6.7-0.6 10.1-0.8 13.6-0.8 27.2-1 40.7-0.4 6.8 0.1 13.6 0.8 20.3 1.3 6.8 0.7 13.5 1.5 20.2 2.5-6.8 0.5-13.5 0.6-20.3 0.9l-10.1 0.3c-3.4 0.1-6.7 0.2-10.1 0.4q-5 0.2-10.1 0.3c-3.3 0.1-6.7 0.4-10 0.5-6.7 0.3-13.4 0.7-20.1 1.1-6.7 0.4-13.4 0.8-20.1 1.4-6.7 0.5-13.4 1.2-20.1 1.8-13.3 1.4-26.7 2.9-40.1 5.1z"/>
							<path id="&lt;Path&gt;" class="s1" d="m374.9-65c18.2-3.5 36.6-4.9 55.1-5.6 18.5-0.6 37-0.2 55.4 0.9 18.4 1.5 36.8 3.2 55 6.3 9.2 1.3 18.2 3.2 27.3 5 9 1.9 18 4.1 26.9 6.5-9.2-0.8-18.3-2.2-27.5-3.2l-13.7-1.5q-6.8-0.8-13.7-1.5-6.8-0.6-13.6-1.4l-13.7-1.1-6.9-0.7-6.8-0.5-13.7-1c-9.2-0.5-18.3-1.1-27.5-1.4-4.6-0.3-9.1-0.5-13.7-0.6-4.6-0.1-9.2-0.3-13.8-0.4-18.3-0.3-36.7-0.5-55.1 0.2z"/>
							<path id="&lt;Path&gt;" class="s1" d="m235-80.9c-12.8-6.9-25.3-14-37.8-21.3l-37.5-21.6q-9.3-5.4-18.7-10.8c-6.2-3.7-12.6-7-18.8-10.7l-37.8-21.2c13.8 4.5 27.2 10.2 40.3 16.4q5 2.3 9.8 4.8 4.9 2.4 9.7 5c6.4 3.4 12.7 7 19 10.5 6.2 3.7 12.5 7.4 18.6 11.2 6.1 3.9 12.3 7.8 18.3 11.9 12 8.1 23.7 16.6 34.9 25.8z"/>
							<path id="&lt;Path&gt;" class="s1" d="m162.4-102.2c-18.6-8.3-37-16.8-55.3-25.4l-55.1-25.6c-9.1-4.3-18.3-8.6-27.5-12.7-9.2-4.3-18.5-8.3-27.6-12.6-18.5-8.1-37.1-16.2-55.8-24.1 19.6 5.2 38.9 11.9 57.8 19.2 19 7.3 37.6 15.4 56.1 23.9 18.4 8.6 36.6 17.5 54.5 27.1 17.9 9.5 35.7 19.4 52.9 30.2z"/>
						</g>
						<g id="&lt;Group&gt;">
							<path id="&lt;Compound Path&gt;" fill-rule="evenodd" class="s1" d="m926.3 547.8c-31.2 0-56.6-25.4-56.6-56.7 0-31.2 25.4-56.6 56.6-56.6 31.3 0 56.7 25.4 56.7 56.6 0 31.3-25.4 56.7-56.7 56.7zm0-94.8c-21 0-38.1 17.1-38.1 38.1 0 21.1 17.1 38.2 38.1 38.2 21.1 0 38.2-17.1 38.2-38.2 0-21-17.1-38.1-38.2-38.1z"/>
						</g>
						<g id="&lt;Group&gt;">
							<path id="&lt;Compound Path&gt;" fill-rule="evenodd" class="s1" d="m2179 92.9c-46 0-83.4-37.4-83.4-83.4 0-46.1 37.4-83.5 83.4-83.5 46.1 0 83.5 37.4 83.5 83.5 0 46-37.4 83.4-83.5 83.4zm0-148.4c-35.8 0-64.9 29.1-64.9 65 0 35.8 29.1 64.9 64.9 64.9 35.9 0 65-29.1 65-64.9 0-35.9-29.1-65-65-65z"/>
						</g>
						<g id="&lt;Group&gt;">
							<g id="&lt;Group&gt;">
								<path id="&lt;Compound Path&gt;" fill-rule="evenodd" class="s1" d="m3408.8 525.5q-0.3-2.9-0.5-5.8c-9.8-112.6 24.9-222.2 97.6-308.6 72.7-86.5 174.7-139.4 287.3-149.1 112.5-9.8 222.1 24.9 308.6 97.6 86.4 72.7 139.4 174.7 149.1 287.3 9.7 112.5-25 222.1-97.7 308.6-72.7 86.4-174.7 139.4-287.2 149.1-112.5 9.7-222.1-25-308.6-97.7-84.9-71.4-137.6-171.1-148.6-281.4zm825.7-82.8c-10.2-101.9-58.5-200-142.9-271-83.2-70-188.7-103.4-297.1-94-108.3 9.3-206.5 60.3-276.5 143.5-144.5 171.9-122.2 429.2 49.6 573.7 171.8 144.4 429.1 122.2 573.6-49.6 73.5-87.4 103.9-197 93.3-302.6z"/>
							</g>
							<g id="&lt;Group&gt;">
								<path id="&lt;Compound Path&gt;" fill-rule="evenodd" class="s1" d="m3493.7 517q-0.2-2.3-0.4-4.7c-7.8-89.8 19.9-177.3 77.9-246.3 58.1-69 139.5-111.3 229.3-119 89.9-7.8 177.3 19.9 246.3 77.9 69.1 58.1 111.4 139.5 119.1 229.3 7.8 89.9-19.9 177.3-78 246.3-58 69-139.4 111.3-229.3 119.1-89.8 7.7-177.3-19.9-246.3-78-67.8-57-109.8-136.6-118.6-224.6zm656.1-65.9c-8.4-83.9-48.5-159.7-113.1-214.1-65.8-55.3-149.2-81.7-234.8-74.3-85.6 7.4-163.3 47.7-218.6 113.5-114.2 135.8-96.6 339.2 39.2 453.4 135.8 114.2 339.2 96.6 453.4-39.2 55.3-65.8 81.7-149.2 74.3-234.8q-0.2-2.3-0.4-4.5z"/>
							</g>
							<g id="&lt;Group&gt;">
								<path id="&lt;Path&gt;" class="s1" d="m3646.7 700.2l10.4-11.9c19.7 17.3 41.7 31.6 65.3 42.4l-6.6 14.4c-25-11.5-48.2-26.6-69.1-44.9z"/>
							</g>
							<g id="&lt;Group&gt;">
								<path id="&lt;Path&gt;" class="s1" d="m3781.6 764.1l2.6-15.6c93.8 16 190.1-19.3 251.3-92.1l12.1 10.2c-32.6 38.7-74.8 68.1-122.2 84.9-46 16.4-95.7 20.7-143.8 12.6z"/>
							</g>
							<g id="&lt;Group&gt;">
								<path id="&lt;Path&gt;" class="s1" d="m3379.2 190.9l93-110.6 94.8 79.7-10.2 12.1-82.7-69.6-72.7 86.5 81.3 68.3-10.2 12.1z"/>
							</g>
							<g id="&lt;Group&gt;">
								<path id="&lt;Compound Path&gt;" fill-rule="evenodd" class="s1" d="m2769.3-277.5l136.8-162.7 600 504.6-136.8 162.7zm138.8-140.5l-116.5 138.6 575.8 484.3 116.5-138.6z"/>
							</g>
						</g>
					</g>
				</g>
				<path id="&lt;Path&gt;" class="s2" d="m2520 696c-213.9 137.3-301.7 258-344.1 372.9-64 172.9-25.3 332.5-159.9 515.1-39.8 53.9-81.5 105.8-126.5 154.8-94.5 103-203.1 193-336.6 261.2h-1552.9v-2000h2923.1c50.3 245.6-54.9 472.5-403.1 696z"/>
				<path id="&lt;Path&gt;" class="s2" d="m3112 432c-80 352-424 480-720 568-71.8 21.4-146.1 43.2-216.1 68.9-218.5 79.8-396.5 196.6-335.9 451.1 19.5 82 36.7 154 49.5 218.8 20.2 101.1 30 184.6 22.3 261.2h-1911.8v-2000h3029.7c72.8 146.8 115 288.1 82.3 432z"/>
				<g id="&lt;Group&gt;">
					<path id="&lt;Compound Path&gt;" class="s1" d="m530.7 417.8h57.7v202.3h125v47h-182.7z"/>
					<path id="&lt;Compound Path&gt;" class="s1" d="m938.8 620.8v46.3h-193v-249.3h188.4v46.3h-131.1v54.1h115.8v44.9h-115.8v57.7z"/>
					<path id="&lt;Compound Path&gt;" fill-rule="evenodd" class="s1" d="m1148.9 613.7h-115.7l-22.1 53.4h-59.1l111.1-249.3h57l111.5 249.3h-60.6zm-18.2-43.8l-39.5-95.5-39.5 95.5z"/>
					<path id="&lt;Compound Path&gt;" fill-rule="evenodd" class="s1" d="m1416.4 667.1l-48.1-69.5h-53.1v69.5h-57.6v-249.3h107.9q33.1 0 57.5 11 24.4 11.1 37.6 31.4 13.1 20.3 13.1 48 0 27.8-13.3 48-13.4 20.1-37.9 30.8l55.9 80.1zm-14.6-191.1q-13.6-11.2-39.6-11.2h-47v86.9h47q26 0 39.6-11.4 13.5-11.4 13.5-32.1 0-21-13.5-32.2z"/>
					<path id="&lt;Compound Path&gt;" class="s1" d="m1748 417.8v249.3h-47.4l-124.3-151.4v151.4h-57v-249.3h47.7l124 151.4v-151.4z"/>
					<path id="&lt;Compound Path&gt;" class="s1" d="m1807.1 417.8h57.7v249.3h-57.7z"/>
					<path id="&lt;Compound Path&gt;" class="s1" d="m2152.6 417.8v249.3h-47.4l-124.3-151.4v151.4h-57v-249.3h47.7l124 151.4v-151.4z"/>
					<path id="&lt;Compound Path&gt;" class="s1" d="m2380.1 538.5h52.8v101.2q-20.4 15.3-47.1 23.5-26.7 8.2-53.7 8.2-38.9 0-69.8-16.6-31-16.6-48.7-45.9-17.6-29.4-17.6-66.5 0-37 17.6-66.4 17.7-29.4 49-45.9 31.3-16.6 70.5-16.6 32.8 0 59.5 11.1 26.7 11 44.9 32l-37.1 34.2q-26.7-28.1-64.4-28.1-23.9 0-42.4 9.9-18.5 10-28.9 28.2-10.3 18.1-10.3 41.6 0 23.2 10.3 41.4 10.4 18.1 28.7 28.3 18.4 10.1 41.9 10.1 24.9 0 44.8-10.7z"/>
					<path id="&lt;Compound Path&gt;" fill-rule="evenodd" class="s1" d="m2751.2 613.7h-115.7l-22.1 53.4h-59.1l111.1-249.3h57l111.5 249.3h-60.6zm-18.1-43.8l-39.6-95.5-39.5 95.5z"/>
					<path id="&lt;Compound Path&gt;" class="s1" d="m3088.5 417.8v249.3h-47.3l-124.3-151.4v151.4h-57v-249.3h47.7l123.9 151.4v-151.4z"/>
					<path id="&lt;Compound Path&gt;" fill-rule="evenodd" class="s1" d="m3147.6 417.8h113.3q40.6 0 71.8 15.5 31.1 15.5 48.4 43.6 17.3 28.1 17.3 65.5 0 37.4-17.3 65.6-17.3 28.1-48.4 43.6-31.2 15.5-71.8 15.5h-113.3zm110.4 201.9q37.4 0 59.7-20.8 22.3-20.8 22.3-56.5 0-35.6-22.3-56.4-22.3-20.8-59.7-20.8h-52.7v154.5z"/>
					<path id="&lt;Compound Path&gt;" class="s1" d="m723.7 908.8v46.3h-193v-249.3h188.4v46.3h-131.1v54.1h115.7v44.9h-115.7v57.7z"/>
					<path id="&lt;Compound Path&gt;" fill-rule="evenodd" class="s1" d="m769.6 705.8h113.3q40.6 0 71.8 15.5 31.1 15.5 48.4 43.6 17.3 28.1 17.3 65.5 0 37.4-17.3 65.6-17.3 28.1-48.4 43.6-31.2 15.5-71.8 15.5h-113.3zm110.4 201.9q37.4 0 59.7-20.8 22.2-20.8 22.3-56.5-0.1-35.6-22.3-56.4-22.3-20.8-59.7-20.8h-52.7v154.5z"/>
					<path id="&lt;Compound Path&gt;" class="s1" d="m1091.4 929.8q-29.7-29.6-29.7-84.4v-139.6h57.7v137.5q0 66.9 55.5 66.9 27.1 0 41.3-16.2 14.3-16.2 14.3-50.7v-137.5h57v139.6q0 54.8-29.8 84.4-29.7 29.6-83.1 29.6-53.5 0-83.2-29.6z"/>
					<path id="&lt;Compound Path&gt;" class="s1" d="m1394.9 942.8q-30.9-16.6-48.5-45.9-17.6-29.4-17.6-66.5 0-37 17.6-66.4 17.6-29.4 48.5-45.9 30.8-16.6 69.2-16.6 32.4 0 58.6 11.4 26.2 11.4 44 32.8l-37 34.2q-25.3-29.2-62.7-29.2-23.2 0-41.3 10.1-18.2 10.2-28.4 28.3-10.1 18.2-10.1 41.3 0 23.2 10.1 41.4 10.2 18.1 28.4 28.3 18.1 10.1 41.3 10.1 37.4 0 62.7-29.5l37 34.1q-17.8 21.8-44.2 33.2-26.3 11.4-58.7 11.4-38.1 0-68.9-16.6z"/>
					<path id="&lt;Compound Path&gt;" fill-rule="evenodd" class="s1" d="m1764.7 901.7h-115.7l-22.1 53.4h-59.1l111.1-249.3h57l111.4 249.3h-60.5zm-18.2-43.8l-39.5-95.5-39.5 95.5z"/>
					<path id="&lt;Compound Path&gt;" class="s1" d="m1912.5 752.8h-79.8v-47h217.3v47h-79.8v202.3h-57.7z"/>
					<path id="&lt;Compound Path&gt;" class="s1" d="m2081 705.8h57.7v249.3h-57.7z"/>
					<path id="&lt;Compound Path&gt;" fill-rule="evenodd" class="s1" d="m2248.5 942.6q-31.1-16.7-48.7-46.1-17.7-29.4-17.7-66.1 0-36.6 17.7-66 17.6-29.4 48.7-46.1 31.2-16.8 70-16.8 38.8 0 69.8 16.8 31 16.7 48.8 46.1 17.8 29.4 17.8 66 0 36.7-17.8 66.1-17.8 29.4-48.8 46.1-31 16.8-69.8 16.8-38.8 0-70-16.8zm109.9-42.5q17.8-10.2 28-28.3 10.1-18.2 10.1-41.4 0-23.1-10.1-41.3-10.2-18.1-28-28.3-17.8-10.1-39.9-10.1-22.1 0-39.9 10.1-17.8 10.2-27.9 28.3-10.2 18.2-10.2 41.3 0 23.2 10.2 41.4 10.1 18.1 27.9 28.3 17.8 10.1 39.9 10.1 22.1 0 39.9-10.1z"/>
					<path id="&lt;Compound Path&gt;" class="s1" d="m2727 705.8v249.3h-47.3l-124.3-151.4v151.4h-57v-249.3h47.7l124 151.4v-151.4z"/>
				</g>
			</g>
			<path id="&lt;Path&gt;" class="s2" d="m5227.3 1829c0 0-80.1-402.6-109.7-859.8-29.6-457.2 426.4-705.2 826.4-665.2 400 40 432 376 616 576 184 200 520 608 416 952z"/>
			<g id="OBJECT 7 ">
				<path id="&lt;Path&gt;" class="s2" d="m5227.3 1829c0 0-267.3-301-211.3-653 56-352 344-504 600-528 256-24 464-352 792-360 328-8 624 112 720 472 96 360-152 1072-152 1072z"/>
				<g id="&lt;Group&gt;">
					<g id="&lt;Group&gt;">
						<path id="&lt;Compound Path&gt;" fill-rule="evenodd" class="s3" d="m5380.8 981.1c-15.4 0-28-12.6-28-28 0-15.5 12.6-28.1 28-28.1 15.5 0 28.1 12.6 28.1 28.1 0 15.4-12.6 28-28.1 28zm0-44.2c-8.9 0-16.1 7.3-16.1 16.2 0 8.9 7.2 16.1 16.1 16.1 8.9 0 16.2-7.2 16.2-16.1 0-8.9-7.3-16.2-16.2-16.2z"/>
					</g>
					<g id="&lt;Group&gt;">
						<path id="&lt;Compound Path&gt;" fill-rule="evenodd" class="s3" d="m6068.3 297.5c-15.4 0-28-12.6-28-28 0-15.5 12.6-28.1 28-28.1 15.5 0 28.1 12.6 28.1 28.1 0 15.4-12.6 28-28.1 28zm0-44.2c-8.9 0-16.1 7.3-16.1 16.2 0 8.9 7.2 16.1 16.1 16.1 8.9 0 16.2-7.2 16.2-16.1 0-8.9-7.3-16.2-16.2-16.2z"/>
					</g>
					<g id="&lt;Group&gt;">
						<path id="&lt;Compound Path&gt;" fill-rule="evenodd" class="s3" d="m6268.7 786.1c-19.5 0-35.4-15.9-35.4-35.4 0-19.6 15.9-35.5 35.4-35.5 19.6 0 35.5 15.9 35.5 35.5 0 19.5-15.9 35.4-35.5 35.4zm0-59c-13 0-23.5 10.6-23.5 23.6 0 13 10.5 23.5 23.5 23.5 13 0 23.6-10.5 23.6-23.5 0-13-10.6-23.6-23.6-23.6z"/>
					</g>
					<g id="&lt;Group&gt;">
						<path id="&lt;Compound Path&gt;" fill-rule="evenodd" class="s3" d="m6974.9 859.1c-19.6 0-35.5-15.9-35.5-35.5 0-19.5 15.9-35.4 35.5-35.4 19.6 0 35.5 15.9 35.5 35.4 0 19.6-15.9 35.5-35.5 35.5zm0-59c-13 0-23.6 10.5-23.6 23.5 0 13 10.6 23.6 23.6 23.6 13 0 23.6-10.6 23.6-23.6 0-13-10.6-23.5-23.6-23.5z"/>
					</g>
					<g id="&lt;Group&gt;">
						<g id="&lt;Group&gt;">
							<path id="&lt;Path&gt;" class="s3" d="m6968.2 1847.7l-7.9-8.9c2.3-2 3.6-6.2 3.4-10.8-0.1-4.8-1.9-9.1-4.4-11-18.7-14.2-61.8-2.3-93.3 6.3-27.6 7.6-44.3 12.2-50.8 3.8-4.9-6.2-0.1-14.9 1.5-17.7 10.8-19.2 47.7-29 90.5-40.4 57.1-15.2 121.8-32.5 120.2-73.2-0.3-9.1-3.2-15.8-8.7-20.5-15.4-13.2-49.2-9.1-73.9-6.1-22.1 2.6-35.5 4.2-39.7-4.3-3.5-7.1 3.1-15.4 10.8-23.4 17.8-18.4 36.2-54.5 46.7-92.1 11.6-41 12.2-75.8 1.7-95.5-8-15-22.1-20.5-43.1-16.8-49.7 8.9-58.6 66.2-66.5 116.7-3.3 21.5-6.5 41.9-12.7 56.5-7.6 17.9-19.5 25.8-35.6 23.6-35.4-4.8-42.7-38.2-48.5-65.1-3.5-16.3-6.9-31.7-15.3-36-4.7-2.5-11.8-1.6-21.1 2.4-28.5 12.3-20.9 62.5-13.4 111.1 3.7 24.6 7.6 50.1 6.6 70.5-1.2 24.9-9.7 39.9-25.8 46-34.2 13.1-47.8-14.1-57.7-33.9-5.9-11.7-11.4-22.7-18.9-24-6-1-14.5 3.6-25.4 13.9-29 27.3-16.4 82.7 3.2 121.9l-10.6 5.3c-5.1-10.2-17.3-37-20.7-66.5-3.5-30.2 3.2-53.6 19.9-69.4 14.2-13.3 25.5-18.7 35.7-16.9 13.4 2.4 20.5 16.6 27.4 30.3 11.6 23.3 20.3 36.8 42.9 28.2 25.9-9.9 18.6-57.5 11.6-103.6-8.1-53-16.5-107.9 20.5-123.8 12.9-5.6 23.1-6.3 31.3-2.1 13.4 6.9 17.3 24.9 21.4 44.1 5.6 25.6 11.3 52.1 38.5 55.9 22.4 3 27.9-24.7 35-70.3 8.1-51.7 18.1-116.1 76.1-126.5 32.9-5.8 48.5 9.3 55.7 22.9 11.9 22.4 11.6 60.4-0.7 104.3-11.2 39.9-30.3 77.2-49.7 97.2-4.7 4.9-6.8 7.8-7.7 9.4 5 0.8 17.4-0.7 26.7-1.9 28.3-3.4 63.6-7.6 83 8.9 8.1 6.9 12.4 16.7 12.9 29.2 1.9 50.2-67.6 68.7-129 85-36.8 9.9-74.9 20-83.2 34.8-1.2 2.2-1.8 3.6-2 4.5 5.6 1 24.1-4.1 37.8-7.9 35.7-9.8 80.3-22 103.6-4.3 5.4 4.1 8.8 11.6 9.1 20 0.4 8.2-2.4 15.8-7.4 20.2z"/>
						</g>
						<g id="&lt;Group&gt;">
							<path id="&lt;Path&gt;" class="s3" d="m6768.5 1846.7l-9.7-6.7c49.8-72.1 116.5-188.1 151.3-331.9l11.5 2.8c-35.1 145.6-102.6 263-153.1 335.8z"/>
						</g>
						<g id="&lt;Group&gt;">
							<path id="&lt;Path&gt;" class="s3" d="m6828.9 1744.3l-2.7-11.6 135.3-30.9 2.7 11.6z"/>
						</g>
						<g id="&lt;Group&gt;">
							<path id="&lt;Path&gt;" class="s3" d="m6784.3 1804.3l-30-145.8 11.7-2.4 30 145.8z"/>
						</g>
						<g id="&lt;Group&gt;">
							<path id="&lt;Path&gt;" class="s3" d="m6657.4 1846.6l-27-40.2 9.8-6.6 27.1 40.2z"/>
						</g>
					</g>
					<g id="&lt;Group&gt;">
						<g id="&lt;Group&gt;">
							<path id="&lt;Path&gt;" class="s3" d="m5307.3 1845.6c-58.3 0-107.7-21.9-132.2-58.5-14.4-21.6-17.8-45.9-9.2-66.5 6.8-16.6 41.1-9.9 96.5 2.4 19.7 4.4 40 8.9 55.8 10.9 22.7 2.9 26.1-0.7 26.4-1.2 0.3-0.3 0.5-2.4-2.1-7-10.7-19-56.5-31.2-105-44.1-76.2-20.3-162.6-43.3-160.2-104.9 0.5-15.2 5.8-27.1 15.6-35.4 23.7-20.3 69.3-14.8 102.6-10.8 13.2 1.6 30.8 3.7 35.7 2-0.5-1.6-2.6-5.6-10.7-13.9-24.1-24.9-47.8-71.2-61.7-121-15.4-54.6-15.8-101.7-1.1-129.3 8.9-16.7 27.9-35.1 68.1-27.9 32.2 5.8 55.2 25.4 70.5 59.9 13 29.2 18.6 65.3 23.5 97.1 9.1 57.9 16.1 93.1 45.4 89.1 35.1-4.8 42.4-38.5 49.5-71 5.1-23.6 9.9-45.9 26-54.2 9.8-5 22.2-4.1 37.9 2.7 45.2 19.5 34.8 87.5 24.7 153.3-4.6 30.1-9.3 61.3-8.1 85.5 1.2 25.5 8.7 40 23.6 45.7 32.1 12.2 48-8.8 63.3-29.2 10.2-13.6 19.8-26.4 33.8-26 11.8 0.4 23.6 10.1 38 31.7 14.2 21.3 19.7 46.3 16.5 74.2-2.5 21.9-10.4 45.7-23.6 70.6-22.1 42.1-51.1 72.7-52.4 74l-8.6-8.2c0.3-0.3 29.2-30.9 50.6-71.5 28.1-53.3 30.6-97.9 7.6-132.5-11.6-17.3-21.2-26.2-28.5-26.4-7.8-0.2-15.2 9.7-23.9 21.3-15.4 20.5-36.5 48.5-77.1 33.1-19.5-7.4-29.7-25.8-31.2-56.2-1.3-25.4 3.6-57.2 8.3-87.9 9.3-61.3 19-124.7-17.7-140.6-12.3-5.3-21.3-6.3-27.7-3-11.1 5.7-15.4 25.3-19.9 46.1-7.2 33.1-16.1 74.4-59.4 80.3-19.6 2.7-33.7-6.7-43-28.7-7.7-18.1-11.6-43.5-15.8-70.3-9.9-63.7-21.2-135.8-84.3-147.1-26.7-4.8-45.4 2.5-55.6 21.7-28.2 53.1 12.2 186.2 60.9 236.4 9.2 9.5 17.2 19.5 13.1 27.6-4.8 9.7-21.1 7.7-48.1 4.5-31.1-3.8-73.7-8.9-93.5 7.9-7.3 6.2-11 15-11.5 26.8-2 52.1 79.6 73.8 151.5 93 53.2 14.2 99.2 26.4 112.3 49.8 4.6 8.2 5 14.9 1.3 19.9-9.6 12.9-42.1 6.5-94.4-5.1-20.6-4.6-41.9-9.4-58.1-11.2-22.8-2.7-24.8 1.6-24.8 1.6-7.1 17-4.1 37.1 8.1 55.4 22.3 33.3 68 53.2 122.3 53.2z"/>
						</g>
						<g id="&lt;Group&gt;">
							<path id="&lt;Path&gt;" class="s3" d="m5475.5 1843.6c-0.5-0.5-45.7-51.8-98.9-138.4-31.2-50.8-59.1-103.7-82.9-157.2-29.7-67-53-135.1-69.3-202.5l11.5-2.8c36.5 151 102.1 277 150.7 356.1 52.7 85.7 97.3 136.4 97.8 136.9z"/>
						</g>
						<g id="&lt;Group&gt;">
							<path id="&lt;Path&gt;" class="s3" d="m5339.3 1636.4l-169.2-38.7 2.6-11.6 169.3 38.7z"/>
						</g>
						<g id="&lt;Group&gt;">
							<path id="&lt;Path&gt;" class="s3" d="m5393.2 1712.6l-11.6-2.4 37.5-182.4 11.7 2.4z"/>
						</g>
						<g id="&lt;Group&gt;">
							<path id="&lt;Path&gt;" class="s3" d="m5499.7 1843l-9.9-6.6 86.4-128.4 9.8 6.7z"/>
						</g>
						<g id="&lt;Group&gt;">
							<path id="&lt;Path&gt;" class="s3" d="m5423.1 1845.3l-146.9-46.1 3.5-11.3 147 46.1z"/>
						</g>
					</g>
					<g id="&lt;Group&gt;">
						<g id="&lt;Group&gt;">
							<g id="&lt;Group&gt;">
								<path id="&lt;Compound Path&gt;" fill-rule="evenodd" class="s3" d="m5337.5 785.2c-4.2 0-8.2-1.8-11-5.1l-11.9-14 87-24.9-2.7 18.2c-0.9 5.6-4.9 10.2-10.3 11.7l-47.2 13.5q-2 0.6-3.9 0.6zm-1.9-12.7c0.7 0.6 1.6 0.9 2.5 0.7l47.2-13.5c0.9-0.3 1.6-1 1.8-1.9z"/>
							</g>
							<g id="&lt;Group&gt;">
								<g id="&lt;Group&gt;">
									<path id="&lt;Compound Path&gt;" fill-rule="evenodd" class="s3" d="m5319.3 775.8c-6.3 0-12.6-1.9-18.1-5.4l-26.3-17.4c-6.6-4.3-11.5-10.9-13.6-18.5l-20.6-72 168.9-48.3 20.6 72c2.1 7.6 1.5 15.8-1.8 22.9l-13.2 28.7c-4 8.7-11.7 15.2-20.9 17.9l-65.9 18.8c-3 0.9-6 1.3-9.1 1.3zm-63.9-105.1l17.3 60.6c1.4 4.8 4.5 9 8.7 11.8l26.3 17.3c5.2 3.4 11.5 4.4 17.5 2.7l65.8-18.8c5.9-1.7 10.8-5.9 13.4-11.5l13.2-28.6c2.1-4.6 2.5-9.8 1.1-14.7l-17.3-60.6z"/>
								</g>
								<g id="&lt;Group&gt;">
									<path id="&lt;Compound Path&gt;" fill-rule="evenodd" class="s3" d="m5246.8 672.3c-8.5 0-16.5-5.3-19.6-13.6l-0.1-0.1c-16.4-43.7-33.4-55.2-59-72.5-12.6-8.6-26.9-18.3-44.1-33.5l-1-0.8q0 0 0 0-1.3-1.2-2.7-2.5l-0.7-0.7q-1.2-1.1-2.4-2.3-0.6-0.5-1.1-1-1.2-1.2-2.5-2.5l-0.5-0.5q-1.5-1.5-3-3.1l-0.9-0.9q-1.1-1.2-2.2-2.4l-0.8-1q-1.4-1.5-2.8-3.2l-0.6-0.7q-1.1-1.3-2.2-2.7l-0.9-1q-1.1-1.5-2.3-3l-0.4-0.5q-1.3-1.7-2.6-3.4l-0.7-1.1q-1-1.4-2-2.7l-0.6-1q-1.3-1.8-2.4-3.6l-0.6-0.8q-0.9-1.5-1.9-3l-0.7-1.1q-1-1.7-2.1-3.5l-0.2-0.3q-1.1-1.9-2.2-3.9l-0.6-1q-0.8-1.6-1.6-3.2l-0.5-0.9q-1.1-2-2-4l-0.4-0.8q-0.8-1.7-1.6-3.4l-0.5-1.1q-1-2-1.8-4l-0.1-0.1q-0.9-2.1-1.7-4.3l-0.5-1.1q-0.7-1.7-1.3-3.4l-0.4-1q-0.8-2.1-1.5-4.3l-0.3-1q-0.6-1.7-1.2-3.5l-0.4-1.2q-0.7-2.2-1.3-4.5-0.7-2.4-1.3-4.9-0.2-0.5-0.3-1l-0.2-0.8q-0.4-1.6-0.8-3.1-0.1-0.7-0.2-1.3l-0.3-1.1q-0.3-1.3-0.5-2.6-0.2-0.7-0.3-1.4l-0.2-1.2q-0.3-1.1-0.5-2.3-0.1-0.8-0.3-1.5l-0.1-1q-0.2-1.2-0.4-2.5-0.2-0.8-0.3-1.6l-0.1-0.9q-0.2-1.2-0.3-2.4-0.1-0.9-0.3-1.8v-0.4c-0.1-1-0.2-1.9-0.3-2.7q-0.1-1-0.2-2v-0.3q-0.2-1.3-0.3-2.6-0.1-1.1-0.1-2.2v-0.1q-0.1-1.3-0.2-2.7-0.1-1.1-0.1-2.3-0.1-1.3-0.1-2.6-0.1-1.1-0.1-2.3 0-1.3 0-2.6 0-1.1 0-2.3 0-1.3 0-2.5 0-1.2 0.1-2.3 0-1.3 0.1-2.6 0-1.2 0.1-2.3 0-1.3 0.1-2.6 0.1-1.1 0.2-2.2 0.1-1.3 0.2-2.6 0.1-1.1 0.2-2.3 0.1-1.2 0.3-2.5 0.1-1.1 0.3-2.3 0.1-1.2 0.3-2.5v-0.3q0.2-1 0.3-1.9 0.2-1.2 0.4-2.4l0.1-0.5q0.1-0.9 0.3-1.9 0.2-1.2 0.5-2.4l0.1-0.6q0.1-0.9 0.3-1.7 0.2-1.1 0.5-2.2l0.1-0.8q0.2-0.8 0.4-1.7 0.2-1.1 0.5-2.1l0.2-1.1q0.2-0.7 0.4-1.4 0.3-1.1 0.5-2.2l0.3-1.1q0.2-0.7 0.4-1.4 0.3-1.1 0.6-2.2l0.4-1.1q0.1-0.6 0.3-1.2 0.4-1.4 0.9-2.8l0.3-0.9q0.1-0.4 0.2-0.9 0.8-2.2 1.6-4.5 0.1-0.3 0.2-0.7l0.2-0.4q0.6-1.7 1.2-3.3 0.2-0.6 0.4-1.1l0.5-1.1q0.4-1.2 0.9-2.3 0.2-0.6 0.5-1.3l0.4-1q0.4-1 0.9-2.1 0.3-0.7 0.6-1.3l0.5-1q0.4-1 0.8-2 0.4-0.7 0.7-1.5l0.5-0.8q0.4-1 0.9-2 0.4-0.7 0.7-1.5l0.4-0.7q0.5-1 1-2 0.4-0.8 0.9-1.6l0.3-0.6q0.5-1 1.1-2 0.4-0.9 0.9-1.7l0.2-0.3q0.6-1 1.2-2.1 0.6-1 1.1-1.9 0.7-1.2 1.3-2.2 0.6-1 1.3-1.9 0.6-1.1 1.3-2.1 0.6-1 1.2-1.9 0.7-1.1 1.4-2.1 0.6-0.9 1.3-1.9 0.7-1 1.4-2 0.7-0.9 1.4-1.8 0.7-1 1.4-2 0.7-0.9 1.4-1.9 0.8-0.9 1.5-1.9 0.8-0.9 1.5-1.8 0.7-0.9 1.5-1.9 0.8-0.9 1.5-1.8 0.8-0.9 1.6-1.8l0.1-0.1q0.7-0.8 1.4-1.7 0.9-0.9 1.7-1.8c0.5-0.6 1-1.2 1.5-1.7q0.9-0.9 1.7-1.7l0.3-0.4q0.7-0.7 1.3-1.4 0.8-0.7 1.6-1.5l0.6-0.6q0.6-0.6 1.2-1.2 0.7-0.7 1.5-1.4l0.8-0.8q0.6-0.6 1.2-1.2 0.7-0.6 1.4-1.3l0.9-0.8q0.6-0.5 1.2-1.1 0.8-0.6 1.5-1.3l1-0.8q0.6-0.5 1.2-1 0.8-0.7 1.5-1.3l1.1-0.9q0.5-0.4 1.1-0.9 0.9-0.7 1.9-1.5l1-0.7q0.4-0.4 0.9-0.8 1.9-1.4 3.8-2.8 0.5-0.4 1-0.8l1.1-0.8q0.9-0.6 1.9-1.2 0.6-0.5 1.2-0.9l1.1-0.7q0.9-0.6 1.7-1.2 0.7-0.4 1.3-0.8l1.1-0.7q0.8-0.6 1.7-1.1 0.7-0.4 1.4-0.9l1.1-0.6q0.8-0.5 1.7-1 0.8-0.5 1.5-0.9l1-0.6q0.9-0.5 1.7-1 0.8-0.4 1.7-0.9l0.8-0.4q0.9-0.5 1.9-1 0.9-0.5 1.8-0.9l0.6-0.3q1-0.5 2-1 1-0.6 2.1-1.1h0.1q1.1-0.6 2.2-1.1 1.2-0.5 2.3-1 1.1-0.5 2.3-1 1.1-0.5 2.3-1 1.1-0.5 2.3-1 1.1-0.4 2.3-0.9 1.2-0.4 2.4-0.9 1.1-0.4 2.3-0.9l0.5-0.1q0.4-0.2 0.7-0.3 0.4-0.1 0.7-0.2l0.4-0.2q1.5-0.5 3-1 1.1-0.4 2.2-0.7 1.5-0.5 3-0.9l0.3-0.1q1-0.3 1.9-0.6l0.8-0.2q0.8-0.3 1.6-0.5l1.4-0.4q0.7-0.1 1.4-0.3 2.1-0.6 4.2-1.1l0.9-0.2c99.6-23.4 200.9 31.5 235.7 127.7l0.3 1q0.7 1.9 1.3 3.8 0.3 0.9 0.6 1.8 0.5 1.6 1 3.2 0.4 1.1 0.7 2.2l0.1 0.5q0.2 0.4 0.3 0.8 0.1 0.5 0.3 1l0.1 0.6q0.3 1.2 0.7 2.4 0.4 1.5 0.7 3l0.1 0.4q0.3 0.9 0.5 1.8 0.4 1.7 0.7 3.4l0.2 0.6q0.1 0.4 0.2 0.9l0.3 1.6q0.4 2 0.8 3.9l0.1 0.6q0.3 2.2 0.7 4.3l0.1 1.2q0.4 2.1 0.6 4.2l0.2 0.9q0.2 1.9 0.4 3.7l0.1 1q0.2 2.1 0.4 4.2v1.1q0.2 2.2 0.3 4.3v0.5q0.1 2 0.2 3.9v1.2q0.1 2 0.1 4.1v1.1q0 1.8-0.1 3.6v0.9q0 2.1-0.1 4.1l-0.1 1.2q-0.1 2.1-0.2 4.1l-0.1 0.9q-0.1 1.8-0.3 3.5l-0.1 1.2q-0.2 2-0.4 4l-0.2 1.2q-0.2 1.8-0.5 3.6l-0.1 0.8q-0.3 2-0.6 3.9l-0.2 1.2q-0.4 2-0.7 3.9l-0.3 1.1q-0.3 1.7-0.6 3.3l-0.3 1.1q-0.4 1.9-0.9 3.8l-0.3 1.3q-0.5 1.9-1 3.7l-0.3 1.2q-0.3 0.9-0.5 1.8l-0.6 2.1c-6.6 22.2-13.8 38.1-20.1 52.2-12.8 28.4-21.2 47.1-12.1 92.7 2.1 10.5-4.1 21-14.3 24.1-48.2 21.3-99.3 35.9-152 43.5q-2.6 0.7-5.3 0.7zm-8.5-17.7c1.7 4.3 6.5 6.7 10.9 5.4l0.4-0.1h0.4c51.9-7.4 102.2-21.8 149.6-42.8l0.4-0.2 0.4-0.1c4.5-1.3 7.3-5.8 6.4-10.4-9.9-49.4-0.4-70.6 12.9-100 6.1-13.7 13.1-29.2 19.5-50.7l0.5-2q0.3-0.8 0.5-1.7l0.3-1.1q0.5-1.8 1-3.5l0.3-1.2q0.4-1.8 0.8-3.6l0.2-1q0.4-1.6 0.7-3.1l0.2-1.1q0.3-1.8 0.7-3.6l0.2-1.2q0.3-1.8 0.5-3.6l0.2-0.8q0.2-1.7 0.4-3.4l0.2-1.2q0.2-1.8 0.4-3.7l0.1-1.1q0.1-1.6 0.3-3.3v-0.8q0.2-2 0.2-3.9l0.1-1.1q0.1-2 0.1-3.9l0.1-0.8q0-1.7 0-3.4v-1q0-2-0.1-3.9v-1.1q0-1.9-0.1-3.7l-0.1-0.5q-0.1-2-0.2-4l-0.1-1.1q-0.2-1.9-0.4-3.9v-0.9q-0.2-1.8-0.5-3.5l-0.1-0.9q-0.2-2-0.5-4l-0.2-1q-0.3-2.1-0.7-4.1l-0.1-0.5q-0.3-1.9-0.7-3.7l-0.3-1.6q-0.1-0.3-0.1-0.6l-0.2-0.7q-0.3-1.7-0.7-3.3-0.2-0.8-0.4-1.6l-0.1-0.4q-0.4-1.5-0.7-2.9-0.3-1.1-0.6-2.2l-0.2-0.7q-0.1-0.4-0.3-0.8-0.1-0.3-0.1-0.6l-0.2-0.7q-0.3-1-0.7-2-0.4-1.5-0.9-3-0.3-0.9-0.5-1.7-0.7-1.8-1.3-3.6l-0.3-0.9c-32.7-90.6-128.1-142.2-221.8-120.2l-0.9 0.2q-1.9 0.5-3.9 1-0.6 0.1-1.2 0.3l-1.5 0.4q-0.7 0.2-1.4 0.4l-0.8 0.2q-0.8 0.3-1.7 0.6l-0.4 0.1q-1.4 0.4-2.8 0.8-1 0.4-2 0.7-1.5 0.5-2.9 1l-2.1 0.7q-1.1 0.4-2.2 0.9-1.2 0.4-2.3 0.8-1.1 0.4-2.1 0.9-1.1 0.4-2.2 0.9-1.1 0.4-2.2 0.9-1.1 0.5-2.1 1-1.1 0.4-2.2 0.9-1 0.5-2.1 1l-0.1 0.1q-1 0.4-2 0.9-0.9 0.5-1.8 1l-0.6 0.3q-0.9 0.4-1.7 0.8-0.9 0.5-1.7 1l-0.9 0.4q-0.7 0.4-1.5 0.8-0.8 0.5-1.6 1l-1 0.5q-0.7 0.4-1.4 0.8-0.8 0.5-1.5 1l-1.1 0.6q-0.7 0.4-1.3 0.8-0.8 0.5-1.6 1l-1.1 0.7q-0.6 0.4-1.2 0.8-0.7 0.5-1.5 1l-1.2 0.8q-0.5 0.4-1.1 0.7-0.8 0.6-1.6 1.2l-1.2 0.9q-0.4 0.3-0.9 0.6-1.8 1.3-3.6 2.7-0.4 0.3-0.8 0.6l-1 0.8q-0.9 0.7-1.7 1.4-0.5 0.4-1 0.8l-1.1 0.9q-0.7 0.6-1.4 1.2-0.6 0.4-1.1 0.8l-1 0.9q-0.7 0.6-1.4 1.2-0.5 0.5-1.1 1l-0.9 0.8q-0.6 0.6-1.3 1.3-0.5 0.5-1.1 1l-0.8 0.8q-0.7 0.6-1.4 1.3-0.5 0.5-1.1 1.1l-0.6 0.6q-0.7 0.7-1.4 1.5-0.7 0.6-1.3 1.3l-0.2 0.2c-0.6 0.6-1.1 1.2-1.6 1.7q-0.8 0.8-1.5 1.5c-0.5 0.7-1.1 1.3-1.6 1.8q-0.7 0.8-1.3 1.6l-0.1 0.1q-0.8 0.8-1.5 1.7-0.7 0.9-1.4 1.7-0.7 0.9-1.5 1.8-0.6 0.8-1.3 1.7-0.7 0.9-1.4 1.8-0.7 0.9-1.4 1.7-0.6 1-1.3 1.9-0.7 0.9-1.3 1.7-0.7 1-1.3 1.9-0.6 0.9-1.3 1.8-0.6 1-1.2 1.9-0.6 0.9-1.2 1.8-0.7 1-1.3 2-0.5 0.9-1.1 1.8-0.6 1-1.2 2c-0.4 0.7-0.8 1.3-1.1 1.9q-0.6 1-1.2 2l-0.1 0.3q-0.5 0.8-0.9 1.5-0.5 1-1 1.9l-0.4 0.6q-0.3 0.8-0.7 1.5-0.5 0.9-1 1.9l-0.3 0.7q-0.4 0.7-0.7 1.4-0.5 0.9-0.9 1.8l-0.4 0.9q-0.4 0.6-0.7 1.3-0.4 0.9-0.8 1.8l-0.4 1q-0.3 0.7-0.6 1.3-0.4 0.9-0.8 1.9l-0.5 1.1q-0.2 0.5-0.4 1.1-0.4 1-0.9 2.1l-0.4 1.1q-0.2 0.5-0.4 1-0.6 1.6-1.1 3.2l-0.4 1q-0.8 2.1-1.4 4.2-0.2 0.4-0.3 0.8l-0.3 0.9q-0.4 1.3-0.8 2.6-0.2 0.5-0.3 1.1l-0.3 1.1q-0.3 1.1-0.6 2.1-0.2 0.6-0.4 1.2l-0.3 1.2q-0.2 1-0.5 2-0.1 0.6-0.3 1.3l-0.2 1q-0.3 1-0.5 2-0.2 0.8-0.3 1.5l-0.2 0.9q-0.2 1-0.5 2-0.1 0.8-0.2 1.6l-0.2 0.6q-0.2 1.1-0.4 2.3-0.1 0.8-0.3 1.7v0.5q-0.2 1.1-0.4 2.2-0.1 0.9-0.3 1.9v0.2q-0.2 1.2-0.3 2.4-0.2 1.1-0.3 2.1-0.1 1.3-0.2 2.4-0.2 1.1-0.2 2.2-0.2 1.2-0.3 2.4 0 1.1-0.1 2.1-0.1 1.2-0.1 2.4-0.1 1.1-0.2 2.2 0 1.2 0 2.4-0.1 1.1-0.1 2.2 0 1.2 0 2.4 0 1.1 0 2.2 0 1.2 0 2.4 0 1.1 0.1 2.2 0 1.2 0.1 2.4 0 1.1 0.1 2.2 0 1.2 0.1 2.5v0.1q0.1 1 0.2 2 0.1 1.2 0.2 2.5v0.3q0.1 0.9 0.2 1.8 0.2 1.3 0.3 2.5l0.1 0.5q0.1 0.8 0.2 1.7 0.1 1.1 0.3 2.2l0.1 0.9q0.1 0.8 0.2 1.5 0.2 1.1 0.4 2.3l0.2 1q0.1 0.7 0.2 1.4 0.2 1 0.4 2.1l0.3 1.3q0.1 0.6 0.2 1.2 0.3 1.2 0.5 2.4l0.3 1.2q0.1 0.5 0.2 1.1 0.4 1.4 0.8 2.9l0.2 0.9q0.1 0.4 0.2 0.8 0.6 2.3 1.2 4.6 0.6 2.2 1.3 4.3l0.4 1.1q0.5 1.7 1.1 3.3l0.3 0.9q0.7 2.1 1.4 4.1l0.3 0.9q0.6 1.6 1.3 3.2l0.4 1.1q0.8 2 1.6 4l0.1 0.1q0.8 1.9 1.7 3.8l0.5 1.1q0.7 1.5 1.5 3.1l0.3 0.8q1 1.8 1.9 3.7l0.5 0.9q0.8 1.5 1.6 2.9l0.5 1.1q1.1 1.8 2.1 3.6l0.2 0.3q1 1.6 2 3.3l0.6 1q0.9 1.4 1.8 2.8l0.5 0.8q1.1 1.7 2.3 3.4l0.6 0.9q0.9 1.3 1.8 2.6l0.7 0.9q1.2 1.7 2.5 3.3l0.3 0.4q1.1 1.4 2.2 2.8l0.8 1q1.1 1.3 2.1 2.5l0.6 0.7q1.3 1.6 2.6 3l0.8 0.9q1 1.2 2 2.3l0.9 0.9q1.4 1.4 2.8 2.9l0.5 0.5q1.2 1.2 2.3 2.3 0.5 0.5 1 1 1.1 1.1 2.3 2.1l0.7 0.7q1.3 1.2 2.5 2.3l0.5 0.4 0.4 0.4c16.7 14.7 30.7 24.2 43 32.5 26.5 18 45.7 31 63.5 78.3z"/>
								</g>
								<g id="&lt;Group&gt;">
									<path id="&lt;Compound Path&gt;" fill-rule="evenodd" class="s3" d="m5299.9 657.3c-0.1-0.3-6.9-25.7-51-143.9-4.2-11.1-8.6-20.3-13.1-27.6-33.6 1.3-48.6-8.5-51.3-19.7-1.8-7.8 3.1-15.4 11.7-18 9.3-2.9 20.8 0.5 31.3 9.2q7.7 6.4 14.5 16.2c6-0.5 12.7-1.3 20.1-2.6 21.4-3.6 37.8-8.6 50.1-14.1-0.5-17.6 1.3-29.8 5.6-37.1 7.2-12.4 17.2-14.5 24.2-12.4 8.3 2.6 13.5 10.8 12.9 20.6-0.4 6.2-4.2 22-30.4 36.1 1.1 17.9 4.6 43.6 12.3 80.2 10.3 49.6 23.2 95.3 23.4 95.8l-11.5 3.2c-0.1-0.4-13.2-46.6-23.6-96.5-6.1-29.5-10.1-54.4-11.9-74.3q-0.1-1.5-0.3-3c-12.3 5.1-28.2 9.7-48.8 13.2q-8 1.4-15.1 2.2 6 10.8 11.1 24.5c44.5 119.3 51 144 51.3 145zm-96.8-198.3q-1.9 0-3.5 0.5c-1.9 0.6-3.9 1.9-3.5 3.9 1 4.1 10 10 31.2 10.5-9.1-10.7-17.9-14.9-24.2-14.9zm134-40.5c-3.1 0-6.4 2.6-9 7.2-2 3.4-4.1 10.4-4.1 24.9 12.9-8 18.6-16.5 19-23.5 0.3-4.7-2-7.6-4.5-8.4q-0.7-0.2-1.4-0.2z"/>
								</g>
								<g id="&lt;Group&gt;">
									<path id="&lt;Path&gt;" class="s3" d="m5253.8 689.6l-1.8-11.7 163.1-25.4 1.8 11.8z"/>
								</g>
								<g id="&lt;Group&gt;">
									<path id="&lt;Path&gt;" class="s3" d="m5258.5 705.8l-1.8-11.7 163-25.4 1.9 11.8z"/>
								</g>
								<g id="&lt;Group&gt;">
									<path id="&lt;Path&gt;" class="s3" d="m5263.1 722.1l-1.8-11.8 163.1-25.3 1.8 11.7z"/>
								</g>
								<g id="&lt;Group&gt;">
									<path id="&lt;Path&gt;" class="s3" d="m5267.8 738.3l-1.9-11.8 155.4-24.1 1.9 11.7z"/>
								</g>
							</g>
						</g>
						<g id="&lt;Group&gt;">
							<path id="&lt;Path&gt;" class="s3" d="m5479.9 343.7l-3.3-11.5 60.7-17.3 3.3 11.4z"/>
						</g>
						<g id="&lt;Group&gt;">
							<path id="&lt;Path&gt;" class="s3" d="m5421.4 240.1l-8.6-8.3 43.9-45.4 8.5 8.3z"/>
						</g>
						<g id="&lt;Group&gt;">
							<path id="&lt;Path&gt;" class="s3" d="m5318.8 179.6l-11.5-2.9 15.3-61.2 11.5 2.9z"/>
						</g>
						<g id="&lt;Group&gt;">
							<path id="&lt;Path&gt;" class="s3" d="m5188.4 181.8l-17.4-60.7 11.5-3.3 17.3 60.7z"/>
						</g>
						<g id="&lt;Group&gt;">
							<path id="&lt;Path&gt;" class="s3" d="m5087.9 245.6l-45.3-43.8 8.2-8.6 45.4 43.9z"/>
						</g>
						<g id="&lt;Group&gt;">
							<path id="&lt;Path&gt;" class="s3" d="m5032.9 351.2l-61.3-15.4 2.9-11.5 61.3 15.3z"/>
						</g>
						<g id="&lt;Group&gt;">
							<path id="&lt;Path&gt;" class="s3" d="m4977.2 487.4l-3.2-11.4 60.7-17.4 3.2 11.5z"/>
						</g>
					</g>
					<g id="&lt;Group&gt;">
						<g id="&lt;Group&gt;">
							<path id="&lt;Compound Path&gt;" fill-rule="evenodd" class="s3" d="m6675.6 681.9l-227.7-265.1 273.3-86 152.6 303.5zm-206.9-259.1l211.2 245.8 176.5-42.3-141.3-281.1z"/>
						</g>
						<g id="&lt;Group&gt;">
							<path id="&lt;Compound Path&gt;" fill-rule="evenodd" class="s3" d="m6895.5 623.3l-155.1-302.3 230.6-169.9 79.8 340.2zm-139.9-298.7l143.6 279.9 138.4-117.6-74.1-315.6z"/>
						</g>
						<g id="&lt;Group&gt;">
							<path id="&lt;Compound Path&gt;" fill-rule="evenodd" class="s3" d="m6863.7 637.7l-153.6-302.3 40.5-20.6 153.6 302.3zm-137.6-297.1l142.8 281.1 19.2-9.8-142.8-281z"/>
						</g>
						<g id="&lt;Group&gt;">
							<path id="&lt;Path&gt;" class="s3" d="m6727.8 333.1l-11.3-22.1 1.6-2.8c0.5-0.9 13-22.9 43.4-51.9 27.9-26.6 76.9-64.3 151.8-93.3l1.5-0.6 29.9 4.9-1.9 11.7-26.8-4.4c-71.9 28.1-119 64.4-145.8 89.9-23.4 22.2-35.9 40.3-40.1 46.9l8.3 16.3z"/>
						</g>
						<g id="&lt;Group&gt;">
							<path id="&lt;Path&gt;" class="s3" d="m6487.2 410.5l-10.7-5.4 13.7-27 1.4-0.9c67.6-43.4 126.9-60.6 164.8-67.5 41.4-7.5 66.5-4.6 67.6-4.5l3.1 0.4 11.3 22.1-10.6 5.4-8.3-16.3c-7.8-0.5-29.9-1.1-61.5 4.7-36.5 6.7-93.5 23.3-158.6 64.8z"/>
						</g>
						<g id="&lt;Group&gt;">
							<path id="&lt;Path&gt;" class="s3" d="m6717.4 312.1c-0.4-2.4-8.4-59 85.4-115.5 88.2-53.2 107-82.6 107.2-82.9l10.9-17.7 0.1 20.7 0.3 51.8h-11.8l-0.3-35.6c-13.6 14-42.4 39-100.3 73.9-45.3 27.3-64.6 54.1-72.7 71.7-8.8 18.9-7.1 31.6-7 31.7z"/>
						</g>
						<g id="&lt;Group&gt;">
							<path id="&lt;Path&gt;" class="s3" d="m6736.5 375.1l-5.4-10.6 30.3-15.3 5.4 10.6z"/>
						</g>
						<g id="&lt;Group&gt;">
							<path id="&lt;Path&gt;" class="s3" d="m6749.1 399.9l-5.4-10.6 30.3-15.4 5.3 10.6z"/>
						</g>
						<g id="&lt;Group&gt;">
							<path id="&lt;Path&gt;" class="s3" d="m6849.7 599l-5.3-10.7 30.4-15.1 5.3 10.6z"/>
						</g>
						<g id="&lt;Group&gt;">
							<path id="&lt;Path&gt;" class="s3" d="m6837.3 574.1l-5.3-10.6 30.4-15.2 5.3 10.6z"/>
						</g>
						<path id="&lt;Path&gt;" class="s3" d="m6738.7 313.6c2.1-3.9 4.6-7.5 7.1-11.1q3.9-5.3 8.1-10.3c5.6-6.6 11.7-13 18-19l4.8-4.4c1.7-1.5 3.3-2.9 5-4.3 3.3-2.8 6.7-5.6 10.2-8.2 3.4-2.7 7-5.2 10.5-7.7 3.7-2.4 7.3-4.8 11.1-7-3.2 3-6.5 5.8-9.7 8.7l-4.9 4.4c-1.6 1.4-3.2 2.8-4.8 4.3q-2.4 2.2-4.8 4.3c-1.7 1.4-3.2 2.9-4.8 4.4-3.2 2.9-6.4 5.8-9.5 8.8-6.3 5.9-12.5 11.9-18.5 18.1-6.1 6.2-12 12.4-17.8 19z"/>
						<path id="&lt;Path&gt;" class="s3" d="m6798.5 268.8c7.5-9.2 16-17.5 24.9-25.4 8.9-7.9 18.2-15.3 27.8-22.3 2.4-1.8 4.8-3.4 7.2-5.2l3.7-2.5 3.7-2.4 7.5-4.9q3.8-2.3 7.6-4.6c5.1-3.1 10.4-5.8 15.6-8.7q1.9-1.1 3.9-2l4-2q4-2 8-3.8c-4.9 3.3-9.9 6.4-14.8 9.7l-7.4 4.9c-1.3 0.8-2.5 1.6-3.7 2.4l-3.7 2.5q-3.7 2.5-7.3 4.9l-7.3 5.1-3.6 2.5-3.6 2.6c-2.4 1.7-4.8 3.4-7.2 5.1-9.5 6.9-18.9 14-28.2 21.4-9.2 7.3-18.3 14.8-27.1 22.7z"/>
						<path id="&lt;Path&gt;" class="s3" d="m6722.8 318.5c-9.2 1.9-18.3 3.5-27.5 5.1l-27.4 4.7-27.4 4.8-27.4 5c8.7-3.4 17.6-6.1 26.7-8.4 9-2.3 18.1-4.3 27.3-5.8q13.8-2.4 27.7-3.8c9.3-0.9 18.6-1.6 28-1.6z"/>
						<path id="&lt;Path&gt;" class="s3" d="m6678 337.8c-12.5 3.6-25.1 6.9-37.7 10.2l-18.9 5-9.4 2.5-9.5 2.5c-6.3 1.7-12.6 3.3-18.8 5.1-3.2 0.8-6.3 1.6-9.4 2.5q-4.7 1.4-9.4 2.6c-12.5 3.6-25 7.2-37.5 11 11.8-5.5 24.1-10.1 36.4-14.3 6.2-2.1 12.5-4 18.7-5.9q4.7-1.4 9.4-2.7l9.5-2.6c6.3-1.6 12.6-3.3 19-4.8q4.7-1.1 9.5-2.2 4.8-1.1 9.6-2c12.8-2.7 25.6-5.1 38.5-6.9z"/>
					</g>
				</g>
				<g id="&lt;Group&gt;">
					<g id="&lt;Group&gt;">
						<path id="&lt;Path&gt;" class="s4" d="m6574.8 1589l82 81.9c0 0-13.1 10.8-190.1-54-177-64.9-286.7-54.9-395.1 0 0 0 108.7-115.6 304.4-67.4 81.9 20.3 148.8 32.3 198.8 39.5z"/>
						<path id="&lt;Path&gt;" class="s5" d="m6376 1549.5c-195.7-48.2-304.4 67.4-304.4 67.4v-28.2c4.2-42.2 30.1-119.6 158.3-146.3 179.5-37.4 289.2 63.6 361.5 43l89.8 114c0 0-37-0.5-106.4-10.4-50-7.2-116.9-19.2-198.8-39.5z"/>
						<path id="&lt;Path&gt;" class="s6" d="m6733.2 1794.3l-495.8-61-35-4.2c0 0-24.9 69.8-129.6 69.8-104.7 0-132.2-69.8-132.2-69.8l-530.6 65.2 76.4-123.4c0 0 1.8 1.5 13.3 0 19.3-2.5 65.8-13.4 176.7-54 177-64.9 286.7-54.9 395.2 0 108.4-54.9 218.1-64.9 395.1 0 110.9 40.6 157.4 51.5 176.7 54 11.5 1.5 13.4 0 13.4 0z"/>
						<path id="&lt;Path&gt;" class="s5" d="m6071.6 1588.7c0 16.7 0 28.2 0 28.2-108.5-54.9-218.2-64.9-395.2 0-177 64.8-190 54-190 54l104.6-104.5c0 0 46.2-10.3 188-64.2 144.2-54.9 292.6 86.5 292.6 86.5z"/>
						<path id="&lt;Path&gt;" class="s7" d="m5940.7 1729.1c0 0 49.8-46 130.8-46 81.1 0 130.9 46 130.9 46 0 0-21.1 70.9-133.6 70.9-69.2 0-113.4-35.2-128.1-70.9z"/>
						<path id="&lt;Path&gt;" class="s8" d="m6752.6 1796.6c10.1 1.3 17.3 10.5 16.1 20.6-1.3 10.1-10.5 17.3-20.6 16l-515.1-63.2-11-1.4c-20.4 28-64.1 67.2-149.2 67.2-85.5 0-130.2-39.6-151-67.3l-526.8 64.7c-10.1 1.3-19.3-5.9-20.6-16-0.1-0.7-0.1-1.5-0.1-2.2 0-9.2 6.8-17.2 16.2-18.4l19.5-2.3 530.6-65.2c0 0 27.5 69.8 132.2 69.8 104.7 0 129.6-69.8 129.6-69.8l35.1 4.2 495.7 61z"/>
					</g>
					<g id="&lt;Group&gt;">
						<path id="&lt;Path&gt;" class="s9" d="m5549.2 1696.7c34.2-13.8 69-26.2 103.8-38.2 17.4-6.1 34.9-11.7 52.4-17.4 17.6-5.7 35-11.5 53.1-16.3 9-2.2 18.2-3.8 27.3-5.5 9.2-1.1 18.4-2.9 27.7-3.4l13.9-1.1 13.9-0.4c9.2-0.5 18.5 0 27.8 0.3 36.9 1.9 73.8 7.5 109 18.8-18-4.2-36.1-7.3-54.4-9.3-18.2-2.3-36.5-3.6-54.8-3.9-36.6-0.2-73.3 2.5-108.6 11.7-17.6 4.4-35.3 10-52.8 15.5l-52.8 16.4z"/>
						<path id="&lt;Path&gt;" class="s9" d="m5676.4 1696.7c18.1-9.1 37.3-15.8 56.7-21.3 19.5-5.6 39.4-9.6 59.4-12.5 20.2-2.5 40.5-3.9 60.9-3 20.3 1.1 40.7 4.2 59.8 11-20.3-0.8-40-0.5-59.7 0.5-19.7 1.5-39.4 3.4-59 6.1-19.6 2.5-39.2 5.8-58.8 9.1z"/>
						<path id="&lt;Path&gt;" class="s9" d="m6107.7 1657c32.9-17.9 70.1-27.1 107.3-31.3 18.7-2.1 37.6-2 56.4-1.2 18.8 1.2 37.5 3.6 55.9 7.3 36.7 7.4 73.1 16.9 108.2 29.8 35.2 12.8 69.2 28.4 106 35.1-18.6-1.9-36.9-6.5-54.8-11.9-17.8-5.6-35.3-12.1-53-17.8-35.3-11.7-71.3-21.2-107.8-28-18.2-3.8-36.5-6.4-54.9-7.9-18.5-1.1-37-1-55.5 0.2-18.4 1.4-36.8 4.1-54.8 8.4-18.1 4.1-36 9.6-53 17.3z"/>
						<path id="&lt;Path&gt;" class="s9" d="m6324.6 1670.9c28.2 3.8 56 10.2 83.5 17.8 13.7 3.8 27.2 8.4 40.7 13 13.5 4.9 26.6 9.6 40.2 13.3 27 7.9 54.9 12.4 83 14.7 14 1.2 28.2 1.7 42.3 1.5 14.2 0 28.3-0.8 42.5-2.1-27.9 5.7-56.6 7.4-85.2 6.2-28.5-1.1-57-5.7-84.7-13.2-13.7-4-27.3-9.1-40.4-14.1-13.2-4.9-26.7-9.3-40.1-13.8-13.4-4.5-27-8.5-40.6-12.4-13.6-4-27.4-7.5-41.2-10.9z"/>
						<path id="&lt;Path&gt;" class="s9" d="m6163.9 1682c7.4-5.3 16.2-8.4 24.7-11.2 8.7-2.7 17.5-4.6 26.4-6.2 17.7-2.9 35.7-4.4 53.7-3.3-8.7 2.4-17.5 4.2-26.2 5.8-8.8 1.8-17.6 3.2-26.3 4.8l-26.2 4.5c-8.7 1.7-17.5 3.1-26.1 5.6z"/>
						<path id="&lt;Path&gt;" class="s9" d="m5428.2 1764.7c23.5-9.8 48.1-16.6 72.9-22.1 24.8-5.2 50.1-9 75.5-9.3-24.7 6.1-49.3 11.1-74 16.6-24.7 5.1-49.3 10.5-74.4 14.8z"/>
					</g>
					<path id="&lt;Path&gt;" class="s10" d="m5851.9 1783.8c-20.7-35.6-25.6-80.4-12.9-119.6q-47.2 5.1-94.3 10.2c-12.7 39.2-7.8 83.9 12.9 119.5 10-11.3 21.3-23.4 33.8-35.8 18.9 9 39.1 17.7 60.5 25.7z"/>
					<g id="&lt;Group&gt;">
						<g id="&lt;Group&gt;">
							<path id="&lt;Path&gt;" class="s7" d="m6185.2 1342c-169.7-26.6-289.4-120.8-289.4-120.8 0 0 89.8 15.4 152.6 41.6 55.6 23.2 136.8 79.2 136.8 79.2z"/>
							<path id="&lt;Path&gt;" class="s8" d="m6222.9 1251.7l-37.7 90.3c0 0-81.2-56-136.8-79.2-62.8-26.2-152.6-41.6-152.6-41.6l37.7-90.2 37.6-90.3c0 0 88-12.5 162.2 18.5 68.8 28.7 127.2 102.2 127.2 102.2z"/>
							<path id="&lt;Path&gt;" class="s7" d="m6400.2 1247.3l-174.9 5.4-2.4-1 37.6-90.3c0 0-58.4-73.5-127.2-102.2-74.2-31-162.2-18.5-162.2-18.5l-37.6 90.3-2.4-1-119.3-128.1 347.3-4.6z"/>
							<path id="&lt;Path&gt;" class="s8" d="m6156.3 972.1l-334.6 6.2-9.9 23.6 334.1-4.5c8.4-0.1 16.6 3.3 22.4 9.4l231.9 240.5 9.9-23.6-231.1-242.1c-5.9-6.2-14.2-9.7-22.7-9.5z"/>
						</g>
						<path id="&lt;Path&gt;" class="s11" d="m5828.6 1163.7c0 0-18 17.8-21.4 36-3.4 18.3-1.1 36.8-1.1 36.8l4.1 1.7 3.6-20.3-2 28 7.5 0.3 7.2-38.8-2.2 33.9c0 0 8.1-0.9 9.1-3.3 1-2.4 3.2-33.1 3.2-33.1l-1.2 36.8c0 0 3.8 4.3 17.5-28.5 13.7-32.9-11.8-52.7-11.8-52.7z"/>
						<g id="&lt;Group&gt;">
							<path id="&lt;Path&gt;" class="s11" d="m6026.5 974.5l-24.1 0.5c-3.4-2-7.8-4.1-12.7-6.2-22.4-9.3-58-16.9-89.8 8.1q-3.3 2.6-6.6 5.7c-6.2 5.9-11.5 12.1-16 18.4-22 31.3-24.6 67.2-27.2 104.9-1.4 20.5-2.9 41.7-7.8 62.2-1 4.1-5.1 6.7-9.2 5.7q-0.6-0.2-1.2-0.4c-3.4-1.4-5.4-5.1-4.5-8.8 4.5-19.3 6-39.9 7.4-59.8 2.5-35 5-71 24.1-103.5 4.9-8.3 10.8-16.3 18.1-24 1.8-2 3.7-3.9 5.7-5.8 60.7-57.7 137.6-3.6 138.4-3 2.1 1.5 3.8 3.7 5.4 6z"/>
						</g>
						<path id="&lt;Path&gt;" class="s12" d="m5851.4 1156c3.7 8 0.2 17.5-7.9 21.2-8 3.7-17.5 0.2-21.2-7.8-3.7-8-0.2-17.5 7.8-21.2 8.1-3.7 17.6-0.2 21.3 7.8z"/>
					</g>
					<g id="&lt;Group&gt;">
						<path id="&lt;Path&gt;" class="s8" d="m5717.5 844c48-23.8 112.8 12.3 112.8 12.3-3.4-11.1-33.9-35.1-33.9-35.1 7.2-6.2 30.5-9.2 30.5-9.2-43.5-17-100.8 10.1-100.8 10.1z"/>
						<path id="&lt;Path&gt;" class="s7" d="m5714.1 848.8c0 0 6.8 61.5 45.1 88.1 0 0-10.4-21-9.3-30.4 0 0 36.9 11.9 48 8.6 0 0-66-33.8-72.9-86.9z"/>
						<g id="&lt;Group&gt;">
							<path id="&lt;Path&gt;" class="s4" d="m5555.1 994l-27.6-21.9c52.7-52.8 90.3-108.7 117.1-160.7l4.7 2.5z"/>
							<path id="&lt;Path&gt;" class="s5" d="m5655.7 1051c0 0-76.4 29.3-108.3-42.2l7.7-14.8 94.2-180.1 102.1-195.2c-9.1 17-2.7 38.1 14.3 47.2 18.8 10 41.5 4.9 54.4-11-23.6 36.3-130.9 209.1-164.4 396.1z"/>
							<path id="&lt;Path&gt;" class="s6" d="m5789.1 607.3l-23.4 58.6c-17-9.1-23.4-30.2-14.3-47.2 7.2-13.6 24.1-18.7 37.7-11.4z"/>
							<path id="&lt;Path&gt;" class="s4" d="m5751.4 618.7l-102.1 195.2-4.7-2.5c58.9-114.2 65.6-209.2 65.6-209.2 17.7-33.1 58.9-45.6 92.1-28 26.5 14.2 36.6 47.2 22.4 73.8q0 0-0.1 0.1c-0.4 0.6-1.9 2.8-4.3 6.5q-0.1 0.2-0.2 0.3c-12.9 15.9-35.6 21-54.4 11l23.4-58.6c-13.6-7.3-30.5-2.2-37.7 11.4z"/>
						</g>
						<path id="&lt;Path&gt;" class="s7" d="m5647.7 805.3c0 0 14.6 38.9 66.9 51.6l17.7-40.6c-52.3-12.7-66.1-51-66.1-51z"/>
					</g>
					<g id="&lt;Group&gt;">
						<path id="&lt;Path&gt;" class="s10" d="m6641 894.4l29.8 6.8-190.6 118.2 6.2-27.6z"/>
						<path id="&lt;Path&gt;" class="s4" d="m6558.1 762.9l82.9 131.5-154.6 97.4-82.9-131.5z"/>
						<path id="&lt;Path&gt;" class="s10" d="m6558.1 762.9l-154.6 97.4 19.9-33.1 96.2-60.7z"/>
						<path id="&lt;Path&gt;" class="s4" d="m6512.9 755.8l6.7 10.7-96.2 60.7-6.8-10.8z"/>
						<path id="&lt;Path&gt;" class="s10" d="m6494 747l18.6 8.4-96 61 0.7-21z"/>
						<path id="&lt;Path&gt;" class="s11" d="m6436.9 622.1c-3 6.6-8 21.5 0.9 35.7l56.2 89.2-76.7 48.4-56.2-89.2c-9-14.2-24.6-16.2-31.9-16.3 21.5-1.3 43-7.8 62.6-20.1 19.5-12.3 34.7-28.9 45.1-47.7z"/>
						<path id="&lt;Compound Path&gt;" fill-rule="evenodd" class="s11" d="m6222.5 620.2l6.4 10.2-11.4 7.2c-35.7 22.4-82.8 11.7-105.2-23.9l-25.1-39.8c-5-8-6.3-17.2-4.4-25.7 2-8.6 7.1-16.4 15.1-21.4 26-16.4 60.3-8.6 76.7 17.4zm-14.8 5.3l-46.1-73.2c-11.8-18.7-36.7-24.4-55.5-12.5-8.8 5.5-11.4 17.1-5.9 25.9l25.1 39.8c17.5 27.9 54.2 36.6 82.4 20z"/>
						<path id="&lt;Compound Path&gt;" fill-rule="evenodd" class="s11" d="m6436.8 353.7l25 39.8c22.5 35.6 11.8 82.7-23.9 105.2l-11.4 7.2-6.4-10.2-47.9-76.1c-16.3-25.9-8.5-60.2 17.5-76.6 7.9-5 17.2-6.3 25.7-4.4 8.5 2 16.3 7.1 21.4 15.1zm12 48l-25-39.8c-5.5-8.8-17.2-11.4-26-5.9-18.7 11.8-24.4 36.7-12.6 55.5l46.1 73.2c27.2-18.3 35.1-55.2 17.5-83z"/>
						<path id="&lt;Path&gt;" class="s11" d="m6343 344.5l90.1 143c25.9 41.1 26.4 90.9 5.6 131.1q0 0 0 0.1c-0.2 0.2-0.8 1.3-1.6 3-0.1 0.2-0.1 0.2-0.2 0.4-10.4 18.8-25.6 35.4-45.1 47.7-19.6 12.3-41.1 18.8-62.6 20.1-0.1 0-0.2 0-0.3 0-1.9 0-3.2 0.1-3.5 0.1q-0.1 0-0.1 0c-45.2 1.4-90-20.6-115.8-61.6l-90.1-143.1z"/>
						<path id="&lt;Path&gt;" class="s13" d="m6427.2 478.2l5.9 9.3c25.9 41.1 26.4 90.9 5.6 131.1q0 0 0 0.1c-0.2 0.2-0.8 1.3-1.6 3-0.1 0.2-0.1 0.2-0.2 0.4-10.4 18.8-25.6 35.4-45.1 47.7-19.6 12.3-41.1 18.8-62.6 20.1-0.1 0-0.2 0-0.3 0-1.9 0-3.2 0.1-3.5 0.1q-0.1 0-0.1 0c-45.2 1.4-90-20.6-115.8-61.6l-5.9-9.3c25.9 41 70.6 63 115.9 61.6q0 0 0.1 0c0.2 0 1.5-0.1 3.4-0.1 0.1 0 0.2 0 0.4 0 21.5-1.3 43-7.8 62.5-20.1 19.5-12.3 34.7-28.9 45.2-47.7 0-0.2 0.1-0.2 0.1-0.4 0.8-1.7 1.5-2.8 1.6-3q0-0.1 0.1-0.1c20.7-40.2 20.2-90-5.7-131.1z"/>
					</g>
					<g id="&lt;Group&gt;">
						<path id="&lt;Path&gt;" class="s14" d="m6970.2 514.9l-313.4 1156h-13.4c-19.3-2.5-65.8-13.4-176.7-54-177-64.9-286.7-54.9-395.1 0-108.5-54.9-218.2-64.9-395.2 0-110.9 40.6-157.4 51.5-176.7 54h-13.3l-283.8-1156z"/>
					</g>
					<path id="&lt;Path&gt;" class="s8" d="m7022.1 1883.2h-1885.2v-48.8c0-3 2.4-5.4 5.4-5.4h1874.4c3 0 5.4 2.4 5.4 5.4z"/>
				</g>
			</g>
		</g>
	</g>
</svg>