<svg version="1.2" xmlns="http://www.w3.org/2000/svg" viewBox="0 0 7600 2000" width="1520" height="400">
	<title>881-ai</title>
	<defs>
		<linearGradient id="g1" x2="1" gradientUnits="userSpaceOnUse" gradientTransform="matrix(-9187.062,387.092,-116.88,-2773.982,8532.339,1811.693)">
			<stop offset=".321" stop-color="#68bcd1"/>
			<stop offset="1" stop-color="#2980b5"/>
		</linearGradient>
		<clipPath clipPathUnits="userSpaceOnUse" id="cp1">
			<path d="m7600 0v2000h-7600v-2000z"/>
		</clipPath>
		<clipPath clipPathUnits="userSpaceOnUse" id="cp2">
			<path d="m6975.13 772.2v676.18c0 31.91-18.76 59.49-45.88 72.24-10.32 4.9-21.8 7.62-33.92 7.62h-1239.73c-44.02 0-79.85-35.83-79.85-79.86v-676.18c0-44.02 35.83-79.85 79.85-79.85h1239.73c44.02 0 79.8 35.83 79.8 79.85z"/>
		</clipPath>
	</defs>
	<style>
		tspan { white-space:pre } 
		.s0 { fill: url(#g1) } 
		.s1 { fill: #000000 } 
		.s2 { mix-blend-mode: soft-light;fill: #e2e2e2 } 
		.s3 { fill: #357289 } 
		.s4 { fill: #4697b6 } 
		.s5 { fill: #86d8f2 } 
		.s6 { fill: #efefef } 
		.s7 { fill: #feb45e } 
		.s8 { fill: #fe705e } 
		.s9 { fill: #fad7b2 } 
		.s10 { fill: #50bf7d } 
		.s11 { fill: #3c8f5e } 
		.s12 { fill: #f7be7f } 
		.s13 { fill: #13515b } 
		.s14 { fill: #13185b } 
		.s15 { fill: #9be3f9 } 
		.s16 { fill: #172a51 } 
		.s17 { fill: #ffffff } 
		.s18 { fill: #f78d8d } 
		.s19 { fill: #f45e58 } 
		.s20 { fill: #e5af83 } 
		.s21 { fill: #f8b558 } 
		.s22 { fill: #18554e } 
		.s23 { fill: #58b3f8 } 
		.s24 { fill: #e9cafe } 
		.s25 { fill: #d1d1d1 } 
		.s26 { fill: #9e9e9e } 
		.s27 { fill: #f4f4f4 } 
		.s28 { fill: #11441d } 
	</style>
	<g id="_Artboards_">
	</g>
	<g id="Object">
		<g id="&lt;Group&gt;">
			<g id="&lt;Group&gt;">
				<g id="&lt;Group&gt;">
					<path id="&lt;Path&gt;" class="s0" d="m7600 0v2000h-7600v-2000z"/>
					<g id="&lt;Clip Group&gt;" clip-path="url(#cp1)">
						<g id="&lt;Group&gt;" style="mix-blend-mode: soft-light">
							<g id="&lt;Group&gt;">
								<g id="&lt;Group&gt;">
									<path id="&lt;Path&gt;" class="s1" d="m124.2 2136.6c0-1-2.5-98.1 15-231.9 16.1-123.7 53-305.2 137.2-467.5l19.3 9.9c-82.7 159.5-119.1 338.2-135 460-17.3 132.2-14.9 227.9-14.8 228.9z"/>
								</g>
								<g id="&lt;Group&gt;">
									<path id="&lt;Path&gt;" class="s1" d="m65.7 2143.6c-0.3-6.5-32.7-654.4-120-843.7l19.7-9.1c89.1 193.2 120.7 825 122 851.8z"/>
								</g>
								<g id="&lt;Group&gt;">
									<path id="&lt;Path&gt;" class="s1" d="m0 2152.6c-0.1-0.8-14.6-82.4-57.2-176-39-85.7-110.4-199.5-228.7-254.7l9.2-19.6c124.5 58.1 198.9 176.6 239.5 265.8 43.6 96.1 58 177.4 58.6 180.8z"/>
								</g>
								<g id="&lt;Group&gt;">
									<path id="&lt;Path&gt;" class="s1" d="m80 2141.8c-0.1-2.2-8.3-224.5-15.6-266.8-3.7-21.4 6.1-50.2 17.5-83.6 13.9-40.8 29.7-87.2 20.4-122.4-19.3-72.9-3-98.5 41.6-143.6 8.6-8.7 16.2-15.7 23-21.9 28.3-26 42.4-39 61.6-114.3 7.8-30.9 27.5-50.9 55.4-56.4 33-6.4 74.2 9.4 93.9 36.1 11.7 16 13.7 34 5.4 49.5-22.5 41.7-22.2 44.4-17.8 89.3 0.9 8.6 1.8 18.3 2.8 30.1 4 48-7.7 58.3-27.1 71.1-11.4 7.5-24.3 16.1-38.4 41.5-24.2 43.6-21 54.9-11.6 88.5 3.9 13.9 8.8 31.1 13 55 8.6 48.7-12.9 63.5-33.6 77.8-18.5 12.7-37.6 25.8-43.6 68-13.4 94.3-24.5 190.3-24.6 191.2l-21.6-2.5c0.1-0.9 11.2-97.2 24.7-191.7 7.3-51.6 32.5-69 52.8-82.9 19.2-13.2 30.7-21.1 24.6-56.2-4.1-22.7-8.8-39.4-12.5-52.8-10.8-38.1-14-55.5 13.4-104.9 16.7-30.1 33.4-41.1 45.5-49.1 14.5-9.6 20.5-13.6 17.4-51.2-1-11.6-1.9-21.2-2.8-29.7-4.8-48.9-4.5-55.8 20.3-101.8 4.4-8.1 3.1-17-3.8-26.4-12.9-17.5-44.2-33.1-72.2-27.6-19.8 3.9-32.8 17.5-38.6 40.4-20.7 81.6-38.5 97.9-67.9 125-6.6 6-14.1 12.9-22.3 21.2-43.1 43.5-52.3 61.3-36.1 122.7 11 41.6-5.9 91.2-20.8 135-10 29.3-19.4 57-16.6 72.9 7.6 43.8 15.6 260.5 15.9 269.7z"/>
								</g>
								<g id="&lt;Group&gt;">
									<path id="&lt;Path&gt;" class="s1" d="m-35.9 2158.1c-9.8-32.9-44.1-123-84-144.6-56.4-30.4-75.2-56-87.7-118.9-1.7-8.4-3-15.9-4.3-22.6-7.5-40.9-8.4-46.2-35.6-55.2-9.9-3.3-19.2-4.6-28.1-5.8-23.3-3.2-47.3-6.4-58.6-49.4-4.8-18.1-13.7-24.7-25-32.9-16.2-11.9-34.5-25.3-36.6-70.8-1.3-26.4 13.7-36.7 22.8-40.5 43.9-18.4 135.5 30 159.2 55.5 18.1 19.5 30.4 22.3 45.9 25.9 8.7 2 18.4 4.2 29.5 9.6q3.7 1.8 7.6 3.6c28 13.2 62.9 29.6 73.4 76.5l1.4 6.2c9.3 41.8 14.5 64.8 41.1 80.1 35 20.2 37.8 66.4 40.4 111.2q0.3 4.8 0.6 9.5c2.9 45.6 19.3 149.7 19.5 150.7l-21.4 3.4c-0.7-4.3-16.8-106.1-19.7-152.7q-0.3-4.8-0.6-9.6c-2.5-40.8-4.8-79.4-29.7-93.7-34.8-20-41.7-51.1-51.4-94.2l-1.3-6.1c-8.2-36.6-35.3-49.4-61.6-61.7q-3.9-1.9-7.8-3.7c-8.8-4.3-16.6-6.1-24.8-8-16.9-3.9-34.3-7.9-56.9-32.2-21.9-23.6-104.1-63.3-135-50.3-4.8 2-10.2 6.1-9.6 19.4 1.7 35.2 13.2 43.7 27.8 54.4 12.4 9.1 26.4 19.3 33.1 44.8 7.7 29 18 30.4 40.6 33.5 9.5 1.3 20.2 2.8 32.1 6.7 39.3 13.1 42.4 30.3 50.1 71.9 1.2 6.6 2.5 14 4.2 22.2 11.2 56.5 26.2 76.9 76.7 104.1 56 30.3 92.9 152.3 94.5 157.5z"/>
								</g>
								<g id="&lt;Group&gt;">
									<path id="&lt;Path&gt;" class="s1" d="m-3.1 1916c0-0.7-9-73.6-39.1-131.6-32.6-62.9-40.7-91.7-35.4-174.7 2.7-40.8-13.1-68.7-29.8-98.2-15.5-27.3-31.5-55.5-34.9-95.3-3.4-39.8 5.9-58.1 13.4-72.9 8-15.8 14.3-28.2 1.2-69.9-10.2-32.3 18.1-64.8 50.1-76.4 32.8-11.9 79.5-5.6 102.7 51.3 27.3 66.4 34.2 108.5 38.8 136.4 4.6 27.9 6.7 40.7 23 54.5 25.8 21.9 24.8 51.5 23.7 82.9-0.8 22.1-1.7 47.2 6.6 73.7l-20.7 6.5c-9.4-30-8.5-57.1-7.6-81 1-29.3 1.8-50.4-16.1-65.6-22.3-18.9-25.5-38.2-30.3-67.5-4.7-28.5-11.1-67.5-37.4-131.7-22-53.6-63.2-43.5-75.4-39.1-22.6 8.2-42.8 30.1-36.7 49.5 15.8 50.1 6.9 67.7-2.6 86.3-6.9 13.5-14 27.5-11.1 61.1 3 35.1 17.2 60.1 32.1 86.5 17.6 31 35.7 63 32.7 110.3-5.1 80 2.1 103.8 33 163.3 31.9 61.6 41 136 41.4 139.1z"/>
								</g>
							</g>
							<g id="&lt;Group&gt;">
								<g id="&lt;Group&gt;">
									<path id="&lt;Path&gt;" class="s1" d="m612.6 2134.6l-14.4-4.7c0.3-0.8 24.8-75.6 67.4-153.7 57.8-105.9 119.4-167.1 183.3-181.9l3.4 14.8c-142.8 32.9-238.7 322.5-239.7 325.5z"/>
								</g>
								<g id="&lt;Group&gt;">
									<path id="&lt;Path&gt;" class="s1" d="m567.8 2135l-14.6-4c0.3-0.9 24.7-91 41.7-213.5 15.6-112.8 27.9-277-2.3-418.4l14.8-3.2c30.7 143.7 18.3 309.8 2.5 423.9-17.1 123.4-41.8 214.3-42.1 215.2z"/>
								</g>
								<g id="&lt;Group&gt;">
									<path id="&lt;Path&gt;" class="s1" d="m526.6 2131.5l-14.5 4.5c-0.5-2-59.2-191.5-141.5-219.2-20.3-6.8-39.9-3.1-60.1 11.4l-8.8-12.2c24.1-17.4 48.9-21.9 73.7-13.5 89.6 30.2 148.7 220.9 151.2 229z"/>
								</g>
								<g id="&lt;Group&gt;">
									<path id="&lt;Path&gt;" class="s1" d="m545.5 2131.7l-14.8 3.4c-2.7-11.7-26.4-115.3-21.2-140.2 2-9.3 0-22.4-32.8-41.6-23.4-13.8-25.3-15.7-33.6-26.7-3.5-4.7-8.3-11.1-17.7-21.7-18.1-20.5-23.5-24.1-87.3-16.5-31 3.7-51.1 27.7-58.3 37.9-7 9.9-10.8 18.7-12.3 24.2 15.6-7.5 31.2-4.9 46.4-2.5 10.6 1.7 21.5 3.4 33.3 2.3 12.3-1.2 21.2 1.1 27.4 6.8 11.4 10.6 10.9 30.4 10.1 60.2l-0.1 3.8c-0.4 18.9 6.5 20.2 21.8 22.8 11.9 2.1 26.7 4.7 37.4 18.8 21 27.6 46.2 67.2 46.4 67.6l-12.8 8.1c-0.2-0.4-25-39.5-45.7-66.6-7.1-9.3-17.2-11.1-27.9-13-15.6-2.7-35.1-6.1-34.3-38.1l0.1-3.8c0.6-23.9 1.1-42.7-5.3-48.7-2.8-2.6-8-3.5-15.7-2.8-13.7 1.3-26.1-0.7-37.1-2.5-15.7-2.5-28.1-4.5-40.2 2.7-7.6 4.6-12.7 2.3-15 0.5-4.8-3.6-5.9-10.3-3.3-19.9 7.2-26.2 38.6-67.5 83.3-72.8 64.7-7.7 76.9-5.1 100.4 21.5 9.8 11.1 14.8 17.7 18.5 22.6 6.8 9.1 7.5 10 29.2 22.7 31.6 18.6 44.3 37 40 57.8-3.5 16.4 10.7 88.9 21.1 133.7z"/>
								</g>
								<g id="&lt;Group&gt;">
									<path id="&lt;Path&gt;" class="s1" d="m531.7 2069.8l-14.5-4.6c0.2-0.4 13-41 17.5-95.6 2-24.2-4.9-37.5-12.1-51.6-8.6-16.8-17.5-34.2-9.3-66.9 8.1-31.8 20.2-37.9 29-42.3 6.7-3.3 10.8-5.3 12.2-25.4 1.3-19.4-4.4-26-11.1-33.7-10.4-12-17.6-23.7-8.1-55.1 7.2-23.7 15.6-34.1 21.7-41.8 7.9-9.9 12.3-15.3 7.9-49.5-3.6-28.1-12.5-38.6-20.3-47.9-8.9-10.6-17.4-20.6-9.3-48.7 11.3-39.4 26.4-76.8 74.9-63.3 38.9 10.8 55.4 51.9 43 107.3-4 18.3 4.9 41.9 14.4 66.9 12.7 33.6 27.2 71.7 13.4 107.6-7.3 19-12.9 29.7-16.6 36.8-7.1 13.7-7.1 13.7-1 50.7 2.4 14.6 4.3 24.6 5.9 32.6 4.9 24.5 5.1 27.6-1.9 57l-14.7-3.5c6.4-27 6.3-27.9 1.8-50.5-1.6-7.8-3.7-18.4-6.1-33.1-6.4-38.9-6.9-42.1 2.6-60.3 3.8-7.1 8.9-16.9 15.9-35.1 11.7-30.5-1.1-64.2-13.5-96.8-10.3-27.2-20-52.9-14.9-75.6 3.9-17.7 13.4-76.7-32.4-89.4-29.5-8.2-42.1 3.6-56.3 52.9-5.8 20.3-1.7 25.1 6.4 34.8 8.2 9.7 19.5 23.2 23.7 55.6 5 38.7-0.7 48-11.1 61-5.9 7.4-12.7 15.8-19 36.7-7.8 25.9-2.4 32.1 5.1 40.8 7.3 8.5 16.4 19 14.7 44.7-1.8 26.6-9.7 32.5-20.6 37.9-7.2 3.6-14.7 7.3-21 32.4-6.9 27.2 0 40.7 8.1 56.3 7.5 14.7 16 31.3 13.7 59.8-4.7 56.4-17.6 97.2-18.1 98.9z"/>
								</g>
								<g id="&lt;Group&gt;">
									<path id="&lt;Path&gt;" class="s1" d="m640.9 2133.2l-14.9-2.9c13.5-68.2 35.7-89.9 53.6-107.3 9.9-9.6 18.5-18 24.3-33 3-7.7 5.4-14.3 7.6-20 10.9-29 14.6-38.8 30.7-59.7 10.7-13.9 20-15 29.9-16.2 9.5-1.1 21.3-2.5 41.6-18.7 20.2-16 19.5-26.2 19-34.4-0.5-7.2-1.2-18.2 16.7-22.3 8.3-1.9 18.8-2.4 29-2.7 12.5-0.5 31.5-1.3 34.7-6.3 1-1.5 0-4.7-0.7-6.4-2.8-7.2-8.6-12.2-17.2-15-17.3-5.6-43.2-1-61.6 10.8-16.2 10.4-28.9 6.4-39.2 3.1-11.5-3.6-20.5-6.5-37.1 7.1-14 11.5-19 25-23.5 36.9-6.3 16.7-12.7 34-42 33.1-17.6-0.6-21.3 10.8-27.5 34.4-4.4 17.2-9.5 36.7-24 53.1-29.9 33.7-55.3 166-55.5 167.3l-14.9-2.8c1-5.6 26.4-137.8 59.1-174.5 12.1-13.7 16.7-31.3 20.7-46.9 5.9-23 12.1-46.7 42.5-45.8 18.5 0.6 21.3-6.9 27.4-23.2 4.9-13 11-29.2 28.1-43.3 22.9-18.8 38.7-13.8 51.3-9.8 9.4 3 16.2 5.2 26.4-1.4 22.3-14.3 52.8-19.5 74.4-12.5 13 4.2 22.2 12.4 26.7 23.8 3.2 8 2.9 14.8-0.7 20.3-7.5 11.6-26.6 12.3-46.8 13.1-9.5 0.4-19.3 0.7-26.2 2.3-4.2 1-5.1 1.9-5.1 1.9-0.2 0.6 0 3 0.1 4.7 0.6 9.8 1.8 26.3-24.6 47.3-23.7 18.8-38.6 20.6-49.4 21.9-8.5 1-12.8 1.5-19.5 10.3-14.8 19.2-18 27.7-28.6 55.8-2.2 5.8-4.7 12.5-7.7 20.1-7 18.2-17.1 28-27.8 38.5-17.2 16.7-36.7 35.7-49.3 99.3z"/>
								</g>
							</g>
							<g id="&lt;Group&gt;">
								<path id="&lt;Compound Path&gt;" fill-rule="evenodd" class="s1" d="m2123 1664.3c-30 0-54.4-24.4-54.4-54.4 0-30.1 24.4-54.5 54.4-54.5 30 0 54.5 24.4 54.5 54.5 0 30-24.5 54.4-54.5 54.4zm0-90.4c-19.8 0-35.9 16.1-35.9 36 0 19.8 16.1 35.9 35.9 35.9 19.8 0 36-16.1 36-35.9 0-19.9-16.2-36-36-36z"/>
							</g>
							<g id="&lt;Group&gt;">
								<g id="&lt;Group&gt;">
									<g id="&lt;Group&gt;">
										<path id="&lt;Compound Path&gt;" fill-rule="evenodd" class="s1" d="m3318.4 2386.2c-5.7 0-11.3-2.2-15.5-6.2l-20.6-19.9 130.8-51.7-1.5 28.6c-0.4 8.7-5.9 16.4-14 19.6l-71 28.1c-2.7 1-5.5 1.5-8.2 1.5zm-2.6-19.5c1.1 1 2.6 1.3 3.9 0.8l71.1-28.1c1.3-0.6 2.2-1.8 2.4-3.2z"/>
									</g>
									<g id="&lt;Group&gt;">
										<g id="&lt;Group&gt;">
											<path id="&lt;Compound Path&gt;" fill-rule="evenodd" class="s1" d="m3286.1 2374.6c-8.3 0-16.5-1.9-23.9-5.9l-43.4-22.8c-10.9-5.7-19.4-15.1-23.9-26.5l-42.8-108.4 254-100.4 42.8 108.3c4.5 11.4 4.8 24.1 0.8 35.7l-16.1 46.3c-4.9 14.2-15.7 25.5-29.6 31l-99 39.1c-6.1 2.4-12.5 3.6-18.9 3.6zm-110-153.2l36 91.2c2.9 7.3 8.3 13.3 15.3 17l43.4 22.8c8.5 4.4 18.5 5 27.4 1.4l99-39.1c8.9-3.6 15.8-10.8 18.9-19.8l16.1-46.3c2.6-7.5 2.4-15.6-0.5-22.9l-36-91.1z"/>
										</g>
										<g id="&lt;Group&gt;">
											<path id="&lt;Compound Path&gt;" fill-rule="evenodd" class="s1" d="m3160 2225.4c-12.1 0-23.8-6.8-29.4-18.1l-0.2-0.6c-32.1-64.8-60-80-102.2-102.9-20.8-11.3-44.4-24.1-73.4-45l-1.6-1.2q-2.3-1.6-4.6-3.3l-1.2-1q-2.1-1.6-4.1-3.2l-1.8-1.4q-2.1-1.7-4.2-3.5l-1-0.8q-2.5-2.1-5-4.2l-1.5-1.4q-1.9-1.7-3.8-3.4l-1.4-1.3q-2.4-2.2-4.8-4.5l-1.1-1.1q-1.9-1.9-3.8-3.8l-1.5-1.5q-2-2.1-4.1-4.3l-0.6-0.6q-2.3-2.5-4.5-5l-1.3-1.5q-1.8-1.9-3.5-3.9l-1.1-1.4q-2.2-2.6-4.4-5.2l-0.9-1.1q-1.7-2.2-3.4-4.4l-1.2-1.6q-1.9-2.5-3.8-5.1l-0.4-0.5q-2-2.7-3.9-5.6l-1.1-1.6q-1.6-2.2-3.1-4.5l-0.9-1.4q-1.9-2.9-3.7-5.9l-0.8-1.2q-1.5-2.5-2.9-4.9l-1-1.7q-1.7-3-3.4-6c-1.2-2.2-2.3-4.3-3.4-6.4l-0.9-1.7q-1.3-2.6-2.6-5.1l-0.7-1.5q-1.5-3.2-3-6.4l-0.7-1.4q-1.1-2.6-2.3-5.3l-0.8-1.8q-1.4-3.4-2.7-6.7-1.5-3.8-2.8-7.5-0.3-0.7-0.6-1.4l-0.4-1.2q-0.9-2.4-1.7-4.8-0.3-1-0.6-2l-0.6-1.7q-0.6-1.9-1.2-3.8-0.3-1.1-0.7-2.2l-0.4-1.5q-0.6-1.9-1.1-3.8-0.4-1.1-0.7-2.3l-0.4-1.7q-0.5-1.7-1-3.5-0.3-1.4-0.7-2.7l-0.2-1.1q-0.5-1.9-0.9-3.7-0.3-1.4-0.6-2.9l-0.2-0.6q-0.4-2-0.9-4.1-0.2-1.4-0.5-2.7l-0.2-1.1q-0.4-1.9-0.7-3.7-0.3-1.8-0.6-3.5-0.4-2.1-0.7-4.1-0.3-1.7-0.5-3.5-0.3-2-0.6-4-0.2-1.8-0.4-3.6-0.2-2-0.5-4-0.1-1.8-0.3-3.5-0.2-2.1-0.4-4.1-0.1-1.7-0.2-3.5-0.2-2-0.3-4-0.1-1.8-0.2-3.6 0-2-0.1-4-0.1-1.7-0.1-3.5 0-2-0.1-4 0-1.8 0-3.5 0-2 0.1-4 0-1.8 0.1-3.5 0-2 0.1-4 0.1-1.8 0.1-3.5 0.2-2 0.3-4v-0.5q0.1-1.5 0.2-3 0.2-2 0.4-4v-0.9q0.1-1.3 0.3-2.5 0.2-2.1 0.4-4.1l0.1-0.8q0.1-1.2 0.3-2.5 0.2-1.9 0.5-3.7l0.2-1.3q0.1-1.2 0.3-2.4 0.3-1.7 0.5-3.5l0.3-1.7q0.2-1 0.4-2.1 0.3-1.8 0.6-3.5l0.3-1.9q0.2-1 0.4-1.9 0.5-2.3 1-4.5l0.2-1.2q0.2-0.8 0.3-1.6 0.8-3.6 1.7-7.2l0.5-1.7q0.6-2.7 1.4-5.4 0.2-0.9 0.5-1.9l0.5-1.7q0.5-1.8 1-3.6 0.3-1 0.7-2.1l0.3-1.2q0.6-1.9 1.2-3.7 0.3-1.1 0.7-2.2l0.6-1.9q0.5-1.5 1-2.9 0.5-1.3 0.9-2.5l0.4-1.1q0.6-1.7 1.2-3.4 0.6-1.4 1.1-2.7l0.4-1.2q0.6-1.4 1.2-2.9 0.5-1.3 1.1-2.6l0.2-0.7q0.8-1.8 1.5-3.6 0.6-1.3 1.3-2.7l0.2-0.5q0.7-1.7 1.5-3.5 0.7-1.4 1.3-2.7l0.2-0.5q0.8-1.7 1.7-3.5 0.8-1.6 1.6-3.2 0.8-1.7 1.7-3.4 0.8-1.6 1.6-3.1 0.9-1.7 1.8-3.4 0.9-1.6 1.8-3.1 0.9-1.7 1.9-3.4 0.9-1.5 1.8-3.1 0.9-1.6 1.9-3.2 1-1.6 1.9-3.1 1-1.6 2-3.2 1-1.5 2-3 1-1.6 2.1-3.2 1-1.5 2-3 1.1-1.5 2.2-3.1 1.1-1.5 2.1-2.9 1.1-1.5 2.2-2.9l0.3-0.5q1-1.3 2-2.6 0.9-1.3 2-2.6l0.8-1q0.8-1.1 1.7-2.2 1.1-1.3 2.1-2.6l1-1.2q0.8-1 1.7-2 1-1.2 2-2.4l1.1-1.3q0.9-1 1.7-1.9 1.1-1.2 2.1-2.4l1.2-1.3q0.9-1 1.7-1.9 1.1-1.1 2.2-2.3l1.3-1.3q0.8-0.9 1.7-1.8 1.1-1.1 2.2-2.2l1.5-1.5q0.8-0.8 1.5-1.6 1.4-1.3 2.8-2.6l1.3-1.3q0.7-0.6 1.4-1.3 2.7-2.5 5.5-5 0.7-0.6 1.4-1.3l1.5-1.3q1.4-1.2 2.7-2.3 0.9-0.8 1.7-1.5l1.7-1.3q1.2-1 2.5-2.1 0.9-0.8 1.9-1.5l1.5-1.2q1.3-1 2.5-2 1.1-0.7 2.1-1.5l1.4-1.1q1.3-1 2.6-1.9 1.1-0.8 2.2-1.6l1.3-0.9q1.4-1 2.7-1.9 1.2-0.9 2.5-1.7l1.1-0.8q1.4-0.9 2.7-1.8 1.4-0.9 2.8-1.8l0.6-0.4q1.6-1 3.1-1.9 1.5-1 3.1-1.9c1.3-0.8 2.4-1.5 3.5-2.1q1.7-1 3.3-2 1.7-0.9 3.4-1.9 1.7-0.9 3.4-1.8 1.7-1 3.5-1.9 1.7-0.9 3.4-1.8 1.8-0.8 3.5-1.7 1.8-0.9 3.5-1.7l3.4-1.6q2.3-1.1 4.6-2.1 1.6-0.7 3.2-1.4 2.3-1 4.5-1.9l0.6-0.3q1.4-0.5 2.8-1.1l1.2-0.5q1.2-0.4 2.4-0.9l2.1-0.8q1-0.4 2-0.8 3.2-1.1 6.3-2.2l1.4-0.5c150.6-51.4 315.8 18.2 384.2 161.8l0.7 1.4q1.3 2.8 2.6 5.8 0.6 1.3 1.2 2.6 1 2.4 2 4.8 0.7 1.6 1.4 3.3l0.8 1.9q0.3 0.8 0.6 1.6l0.3 0.9q0.7 1.7 1.3 3.5 0.9 2.3 1.7 4.6l0.2 0.5q0.5 1.4 1 2.8 0.9 2.6 1.7 5.2l1.5 4.7q0.9 3 1.7 5.9l0.3 0.9q0.9 3.3 1.8 6.5l0.4 1.8q0.8 3.2 1.6 6.4l0.3 1.4q0.6 2.9 1.2 5.7l0.3 1.6q0.7 3.1 1.2 6.4l0.3 1.7q0.6 3.3 1.1 6.5l0.1 0.9q0.5 3 0.9 6l0.2 1.8q0.4 3.2 0.7 6.4l0.2 1.6q0.2 2.9 0.5 5.7l0.1 1.3q0.2 3.2 0.4 6.4l0.1 1.9q0.1 3.2 0.2 6.4v1.3q0.1 2.8 0.1 5.6v1.7q0 3.1-0.1 6.3v1.8q-0.1 2.9-0.2 5.8l-0.1 1.3q-0.1 3-0.3 6l-0.2 1.9q-0.2 3.1-0.5 6.2l-0.2 1.7q-0.2 2.6-0.5 5.2l-0.2 1.7q-0.4 3.1-0.8 6.1l-0.3 2q-0.5 3-1 6l-0.3 1.9q-0.3 1.4-0.5 2.8l-0.7 3.3c-6.8 35.4-15.4 61.2-23.1 83.9-15.4 45.8-25.6 76.1-4.5 145.3 4.8 15.9-3.3 33.1-18.5 39.5-71.4 40.3-148.3 70.7-228.7 90.4-3.6 1.4-7.4 2-11.1 2zm-12.7-26.2c3.3 6.4 11 9.4 17.7 6.7l1.2-0.3c79.1-19.4 154.8-49.3 225-89l1.1-0.6c6.8-2.6 10.4-10.2 8.3-17.1-22.8-74.9-11.3-109.2 4.7-156.6 7.5-22.2 15.9-47.3 22.5-81.5l0.6-3.2q0.2-1.2 0.4-2.6l0.4-1.8q0.4-2.8 0.9-5.6l0.2-1.9q0.5-2.9 0.8-5.8l0.2-1.6q0.3-2.4 0.5-4.8l0.2-1.6q0.3-2.9 0.5-5.8l0.1-1.9q0.2-2.8 0.4-5.7v-1.2q0.1-2.7 0.2-5.3l0.1-1.8q0-3 0-5.9v-1.6q0-2.7-0.1-5.3v-1.2q-0.1-3-0.2-6l-0.1-1.8q-0.2-3-0.4-6l-0.1-1.2q-0.2-2.7-0.4-5.4l-0.2-1.6q-0.3-2.9-0.7-6l-0.2-1.6q-0.3-2.9-0.8-5.7l-0.1-0.9q-0.5-3-1-6l-0.3-1.7q-0.5-3-1.1-6l-0.3-1.4q-0.6-2.7-1.2-5.4l-0.3-1.3q-0.7-3-1.4-6.1l-0.5-1.6q-0.7-3.1-1.6-6.1l-0.3-0.9q-0.7-2.8-1.6-5.6l-1.4-4.4q-0.8-2.4-1.6-4.9-0.5-1.3-1-2.6l-0.1-0.5q-0.8-2.2-1.6-4.3-0.6-1.7-1.2-3.3l-1.7-4.2q-0.6-1.6-1.3-3.1-0.9-2.3-1.9-4.5-0.5-1.3-1.1-2.5-1.2-2.7-2.5-5.5l-0.6-1.3c-64.4-135.1-219.8-200.6-361.5-152.2l-1.3 0.5q-3 1-5.9 2.1-1 0.3-1.9 0.7l-2.2 0.8q-1.1 0.4-2.1 0.8l-1.2 0.5q-1.2 0.5-2.5 1l-0.6 0.3q-2.1 0.9-4.3 1.8-1.5 0.6-3 1.3-2.2 1-4.3 2l-3.2 1.5q-1.7 0.8-3.3 1.6-1.7 0.8-3.3 1.6-1.6 0.9-3.2 1.7-1.7 0.9-3.3 1.7-1.6 0.9-3.2 1.8-1.6 0.9-3.2 1.8-1.5 0.9-3.1 1.8-1.6 0.9-3.1 1.9c-1.2 0.7-2.1 1.3-3.1 1.9q-1.4 0.9-2.9 1.8l-0.6 0.4q-1.3 0.8-2.6 1.7-1.3 0.8-2.5 1.7l-1.2 0.7q-1.1 0.8-2.2 1.6-1.3 0.9-2.5 1.7l-1.4 1q-1 0.7-2 1.4-1.2 0.9-2.4 1.8l-1.4 1.1q-1 0.7-1.9 1.4-1.2 0.9-2.3 1.8l-1.6 1.2q-0.8 0.7-1.7 1.4-1.2 1-2.3 1.9l-1.7 1.4q-0.8 0.6-1.5 1.3-1.2 1-2.5 2.1l-1.6 1.4q-0.6 0.6-1.2 1.1-2.7 2.3-5.2 4.7-0.6 0.6-1.2 1.1l-1.4 1.4q-1.2 1.2-2.5 2.4-0.7 0.7-1.4 1.4l-1.5 1.6q-1.1 1-2.1 2-0.7 0.8-1.5 1.6l-1.3 1.4q-1 1-2 2.1-0.8 0.8-1.5 1.7l-1.3 1.3q-0.9 1.1-1.9 2.2-0.8 0.9-1.5 1.8l-1.2 1.3q-0.9 1.1-1.9 2.2-0.7 0.9-1.5 1.8l-1 1.3q-1 1.2-1.9 2.3-0.9 1.1-1.7 2.1l-0.8 1q-0.9 1.2-1.8 2.5-1 1.2-1.9 2.4l-0.2 0.3c-0.8 1-1.4 1.9-2.1 2.8q-1 1.4-2 2.8-1 1.5-2 3-1 1.3-1.9 2.8-1 1.4-2 2.9-1 1.5-1.9 2.9-0.9 1.5-1.9 3-0.9 1.4-1.8 2.9-0.9 1.5-1.8 3.1-0.9 1.4-1.7 2.9-0.9 1.5-1.8 3.1-0.8 1.5-1.6 3-0.9 1.5-1.7 3.1-0.8 1.5-1.6 3-0.8 1.6-1.6 3.2-0.7 1.5-1.5 3-0.8 1.6-1.5 3.3l-0.2 0.4q-0.7 1.3-1.2 2.6-0.8 1.6-1.5 3.3l-0.2 0.5q-0.6 1.2-1.2 2.5-0.7 1.7-1.4 3.4l-0.3 0.7q-0.4 1.2-0.9 2.4-0.6 1.3-1.1 2.7l-0.5 1.2q-0.5 1.3-0.9 2.5-0.6 1.6-1.2 3.1l-0.4 1.2q-0.4 1.2-0.8 2.3-0.5 1.3-0.9 2.7l-0.7 1.9q-0.3 1-0.6 2-0.6 1.7-1.1 3.4l-0.4 1.3q-0.3 1-0.6 1.9-0.5 1.6-0.9 3.3l-0.5 1.9q-0.3 0.7-0.5 1.5-0.7 2.6-1.3 5.1l-0.4 1.7q-0.9 3.3-1.6 6.7l-0.6 2.6q-0.4 2.1-0.8 4.2-0.2 0.9-0.3 1.7l-0.4 2q-0.3 1.6-0.6 3.2-0.2 1-0.3 1.9l-0.3 1.8q-0.3 1.6-0.5 3.2-0.2 1.1-0.3 2.2l-0.2 1.3q-0.2 1.7-0.4 3.5-0.2 1.1-0.3 2.3l-0.1 0.8q-0.2 1.9-0.4 3.8-0.1 1.2-0.2 2.3l-0.1 0.9q-0.2 1.9-0.3 3.8-0.1 1.4-0.2 2.8l-0.1 0.5q-0.1 1.9-0.2 3.7-0.1 1.6-0.1 3.3-0.1 1.9-0.2 3.8 0 1.6 0 3.3-0.1 1.9-0.1 3.7 0 1.7 0 3.4 0.1 1.8 0.1 3.7 0 1.7 0.1 3.3 0 1.9 0.1 3.8 0.1 1.7 0.2 3.3 0.1 1.9 0.2 3.8 0.1 1.7 0.3 3.3 0.1 1.9 0.3 3.8 0.2 1.7 0.3 3.3 0.2 1.9 0.5 3.8 0.2 1.7 0.4 3.4 0.2 1.9 0.5 3.8 0.2 1.6 0.5 3.3 0.3 1.9 0.6 3.8 0.3 1.7 0.6 3.3 0.3 1.7 0.6 3.5l0.3 1q0.2 1.3 0.5 2.6 0.4 1.9 0.8 3.8l0.1 0.7q0.3 1.3 0.6 2.6 0.4 1.7 0.9 3.5l0.2 1.1q0.3 1.2 0.6 2.5 0.5 1.6 0.9 3.2l0.5 1.8q0.3 1 0.6 2 0.5 1.8 1 3.5l0.5 1.6q0.3 1 0.6 2 0.5 1.8 1.1 3.5l0.6 1.9q0.3 0.8 0.5 1.6 0.8 2.3 1.6 4.5l0.9 2.5q1.3 3.5 2.7 7 1.2 3.2 2.6 6.4l0.7 1.7q1.1 2.5 2.2 5l0.6 1.3q1.4 3.1 2.9 6.1l0.6 1.3q1.2 2.4 2.4 4.8l0.9 1.6q1.5 3 3.1 5.9l0.2 0.3c0.9 1.8 2 3.6 3.1 5.5l0.9 1.6q1.4 2.3 2.8 4.6l0.7 1.1q1.7 2.9 3.5 5.6l0.8 1.3q1.5 2.1 2.9 4.3l1.1 1.5q1.8 2.6 3.7 5.3l0.3 0.4q1.8 2.4 3.6 4.8l1.2 1.5q1.6 2.1 3.2 4.1l0.8 1.1q2 2.5 4.1 4.9l1.1 1.2q1.6 1.9 3.2 3.8l1.3 1.4q2.1 2.4 4.2 4.7l0.6 0.5q1.9 2.1 3.9 4.1l1.4 1.4q1.7 1.8 3.5 3.6l1.1 1q2.2 2.1 4.5 4.2l1.3 1.3q1.8 1.6 3.5 3.1l1.5 1.3q2.3 2.1 4.7 4.1l0.9 0.7q2 1.7 4 3.3l1.6 1.3q2 1.5 3.9 3l1.2 0.9q2.1 1.6 4.3 3.2l1.5 1.1c28 20.2 51.1 32.7 71.4 43.7 43.8 23.8 75.5 41 110.2 111.6z"/>
										</g>
										<g id="&lt;Group&gt;">
											<path id="&lt;Compound Path&gt;" fill-rule="evenodd" class="s1" d="m3242.9 2193.9c-0.1-0.3-14.5-38.6-100.8-214.8-8.1-16.6-16.4-30.1-24.5-40.8-51.6 7.1-76.5-5.6-82.3-22.6-4-11.9 2.4-24.3 15.3-29.7 15.1-6.2 43.9-3.4 74.7 32.3 9.2-1.6 19.5-3.9 30.8-7 32.6-8.9 57.3-19.1 75.5-29.6-3.1-25.2-2.8-45.8 2.8-58.2 9.3-20.2 24.5-25 35.6-22.8 13.3 2.7 22.6 14.7 23.1 29.9 0.3 9.6-3.1 34.8-41.7 60.6 13.4 80.5 59.9 210.2 82.2 266.8l-17.2 6.8c-8.4-21.2-64.6-165.9-81.8-263.6-18.3 9.8-42.3 19.4-73.6 28q-12.2 3.3-23.1 5.6c7 10.1 14 22.1 20.9 36.2 87 177.9 100.9 215 101.5 216.5zm-177.6-292.2c-2.9 0-5.5 0.5-7.7 1.4-2.9 1.2-5.8 3.7-4.8 6.6 2.1 6.2 17 14 49.8 11.6-14.5-14.1-27.7-19.6-37.3-19.6zm199.5-83c-4.9 0-10 4.7-13.6 12.5-3.7 8.3-4.3 22-2.6 39.4 18.8-14.4 26.3-28.4 26-39.3-0.3-7.5-4.4-11.6-8.3-12.4q-0.7-0.2-1.5-0.2z"/>
										</g>
										<g id="&lt;Group&gt;">
											<path id="&lt;Path&gt;" class="s1" d="m3176.6 2251l-4.6-17.9 248.5-64 4.6 17.9z"/>
										</g>
										<g id="&lt;Group&gt;">
											<path id="&lt;Path&gt;" class="s1" d="m3186.3 2275.4l-4.7-17.9 248.5-64.1 4.7 18z"/>
										</g>
										<g id="&lt;Group&gt;">
											<path id="&lt;Path&gt;" class="s1" d="m3195.9 2299.8l-4.6-17.9 248.5-64.1 4.6 18z"/>
										</g>
										<g id="&lt;Group&gt;">
											<path id="&lt;Path&gt;" class="s1" d="m3205.5 2324.2l-4.6-17.9 236.8-61.1 4.7 17.9z"/>
										</g>
									</g>
								</g>
								<g id="&lt;Group&gt;">
									<path id="&lt;Path&gt;" class="s1" d="m3473.8 1681.3l-6.8-17.2 91.3-36.1 6.8 17.2z"/>
								</g>
								<g id="&lt;Group&gt;">
									<path id="&lt;Path&gt;" class="s1" d="m3367.4 1529.8l-14.5-11.5 61-76.9 14.5 11.5z"/>
								</g>
								<g id="&lt;Group&gt;">
									<path id="&lt;Path&gt;" class="s1" d="m3199.5 1451.9l-18.3-2.7 14.4-97.1 18.3 2.7z"/>
								</g>
								<g id="&lt;Group&gt;">
									<path id="&lt;Path&gt;" class="s1" d="m2998 1475.1l-36.1-91.3 17.2-6.8 36.1 91.3z"/>
								</g>
								<g id="&lt;Group&gt;">
									<path id="&lt;Path&gt;" class="s1" d="m2852.3 1589.2l-76.9-61 11.5-14.5 76.9 61z"/>
								</g>
								<g id="&lt;Group&gt;">
									<path id="&lt;Path&gt;" class="s1" d="m2783.1 1760.9l-97.1-14.4 2.7-18.3 97.1 14.4z"/>
								</g>
								<g id="&lt;Group&gt;">
									<path id="&lt;Path&gt;" class="s1" d="m2717.8 1980.2l-6.8-17.2 91.3-36.1 6.8 17.2z"/>
								</g>
							</g>
							<g id="&lt;Group&gt;">
								<g id="&lt;Group&gt;">
									<path id="&lt;Compound Path&gt;" fill-rule="evenodd" class="s1" d="m101.6 446.8l-284.2-140.1-8.7-543.4 412.2 168.9zm-265.9-151.8l253.2 124.9 110.5-476.6-371.7-152.2z"/>
								</g>
								<g id="&lt;Group&gt;">
									<path id="&lt;Compound Path&gt;" fill-rule="evenodd" class="s1" d="m138.5 455.2l115.1-515.6 444.7 26.2-242.9 486.1zm129.7-496.2l-106.6 477.4 282.3-3 225.3-450.9z"/>
								</g>
								<g id="&lt;Group&gt;">
									<path id="&lt;Compound Path&gt;" fill-rule="evenodd" class="s1" d="m155 456.5l-68.8-15.7 117-514.1 68.8 15.7zm-46.7-29.6l32.8 7.4 108.7-478-32.7-7.4z"/>
								</g>
								<g id="&lt;Group&gt;">
									<path id="&lt;Path&gt;" class="s1" d="m636.7-28.9l-27.6-31.8c-196.9-65.5-332.2-29.6-358.2-21.4l-6.3 27.7-18.1-4.1 8.6-37.6 4.6-1.7c1.5-0.6 38.3-14.5 103.5-18.9 59.8-4 155.9-0.5 274.2 39.3l2.4 0.8 30.9 35.6z"/>
								</g>
								<g id="&lt;Group&gt;">
									<path id="&lt;Path&gt;" class="s1" d="m244.6-54.4l-18.1-4.1 6.3-27.7c-19.9-18.6-126.3-109.6-332.3-135.7l-38.6 16.7-7.4-16.9 43.3-18.8 2.5 0.3c123.9 15.3 212.1 53.7 264.2 83.2 56.9 32.2 84.1 60.7 85.2 61.9l3.4 3.5z"/>
								</g>
								<g id="&lt;Group&gt;">
									<path id="&lt;Path&gt;" class="s1" d="m621.6-62.8l-14.3-11.7 35.2-42.9c-30.2 3.3-89.5 4.5-193.3-11.4-81.3-12.4-131 0.5-158.4 13.4-29.2 13.9-39.8 30.8-39.9 31l-15.9-9.5c1.9-3.2 48.6-78.9 217-53.2 160 24.4 210 7.7 210.5 7.5l31.3-11z"/>
								</g>
								<g id="&lt;Group&gt;">
									<path id="&lt;Path&gt;" class="s1" d="m246.6 12.2l-51.5-11.7 4.1-18.1 51.5 11.7z"/>
								</g>
								<g id="&lt;Group&gt;">
									<path id="&lt;Path&gt;" class="s1" d="m237 54.3l-51.4-11.7 4.1-18.1 51.4 11.8z"/>
								</g>
								<g id="&lt;Group&gt;">
									<path id="&lt;Path&gt;" class="s1" d="m159.3 392.7l-51.3-12.1 4.2-18 51.4 12.1z"/>
								</g>
								<g id="&lt;Group&gt;">
									<path id="&lt;Path&gt;" class="s1" d="m169.2 350.7l-51.4-12.1 4.3-18 51.4 12.1z"/>
								</g>
								<path id="&lt;Path&gt;" class="s1" d="m259-70.9c12.7-5 26-8 39.4-10.4 6.7-1.3 13.4-2.2 20.1-3 3.4-0.4 6.8-0.7 10.2-1 3.4-0.3 6.7-0.6 10.1-0.8 13.6-0.8 27.2-1 40.7-0.4 6.8 0.1 13.6 0.8 20.3 1.3 6.8 0.7 13.5 1.5 20.2 2.5-6.8 0.5-13.5 0.6-20.3 0.9l-10.1 0.3c-3.4 0.1-6.7 0.2-10.1 0.4q-5 0.2-10.1 0.3c-3.3 0.1-6.7 0.4-10 0.5-6.7 0.3-13.4 0.7-20.1 1.1-6.7 0.4-13.4 0.8-20.1 1.4-6.7 0.5-13.4 1.2-20.1 1.8-13.3 1.4-26.7 2.9-40.1 5.1z"/>
								<path id="&lt;Path&gt;" class="s1" d="m374.9-65c18.2-3.5 36.6-4.9 55.1-5.6 18.5-0.6 37-0.2 55.4 0.9 18.4 1.5 36.8 3.2 55 6.3 9.2 1.3 18.2 3.2 27.3 5 9 1.9 18 4.1 26.9 6.5-9.2-0.8-18.3-2.2-27.5-3.2l-13.7-1.5q-6.8-0.8-13.7-1.5-6.8-0.6-13.6-1.4l-13.7-1.1-6.9-0.7-6.8-0.5-13.7-1c-9.2-0.5-18.3-1.1-27.5-1.4-4.6-0.3-9.1-0.5-13.7-0.6-4.6-0.1-9.2-0.3-13.8-0.4-18.3-0.3-36.7-0.5-55.1 0.2z"/>
								<path id="&lt;Path&gt;" class="s1" d="m235-80.9c-12.8-6.9-25.3-14-37.8-21.3l-37.5-21.6q-9.3-5.4-18.7-10.8c-6.2-3.7-12.6-7-18.8-10.7l-37.8-21.2c13.8 4.5 27.2 10.2 40.3 16.4q5 2.3 9.8 4.8 4.9 2.4 9.7 5c6.4 3.4 12.7 7 19 10.5 6.2 3.7 12.5 7.4 18.6 11.2 6.1 3.9 12.3 7.8 18.3 11.9 12 8.1 23.7 16.6 34.9 25.8z"/>
								<path id="&lt;Path&gt;" class="s1" d="m162.4-102.2c-18.6-8.3-37-16.8-55.3-25.4l-55.1-25.6c-9.1-4.3-18.3-8.6-27.5-12.7-9.2-4.3-18.5-8.3-27.6-12.6-18.5-8.1-37.1-16.2-55.8-24.1 19.6 5.2 38.9 11.9 57.8 19.2 19 7.3 37.6 15.4 56.1 23.9 18.4 8.6 36.6 17.5 54.5 27.1 17.9 9.5 35.7 19.4 52.9 30.2z"/>
							</g>
							<g id="&lt;Group&gt;">
								<path id="&lt;Compound Path&gt;" fill-rule="evenodd" class="s1" d="m926.3 547.8c-31.2 0-56.6-25.4-56.6-56.7 0-31.2 25.4-56.6 56.6-56.6 31.3 0 56.7 25.4 56.7 56.6 0 31.3-25.4 56.7-56.7 56.7zm0-94.8c-21 0-38.1 17.1-38.1 38.1 0 21.1 17.1 38.2 38.1 38.2 21.1 0 38.2-17.1 38.2-38.2 0-21-17.1-38.1-38.2-38.1z"/>
							</g>
							<g id="&lt;Group&gt;">
								<path id="&lt;Compound Path&gt;" fill-rule="evenodd" class="s1" d="m2179 92.9c-46 0-83.4-37.4-83.4-83.4 0-46.1 37.4-83.5 83.4-83.5 46.1 0 83.5 37.4 83.5 83.5 0 46-37.4 83.4-83.5 83.4zm0-148.4c-35.8 0-64.9 29.1-64.9 65 0 35.8 29.1 64.9 64.9 64.9 35.9 0 65-29.1 65-64.9 0-35.9-29.1-65-65-65z"/>
							</g>
							<g id="&lt;Group&gt;">
								<g id="&lt;Group&gt;">
									<path id="&lt;Compound Path&gt;" fill-rule="evenodd" class="s1" d="m3408.8 525.5q-0.3-2.9-0.5-5.8c-9.8-112.6 24.9-222.2 97.6-308.6 72.7-86.5 174.7-139.4 287.3-149.1 112.5-9.8 222.1 24.9 308.6 97.6 86.4 72.7 139.4 174.7 149.1 287.3 9.7 112.5-25 222.1-97.7 308.6-72.7 86.4-174.7 139.4-287.2 149.1-112.5 9.7-222.1-25-308.6-97.7-84.9-71.4-137.6-171.1-148.6-281.4zm825.7-82.8c-10.2-101.9-58.5-200-142.9-271-83.2-70-188.7-103.4-297.1-94-108.3 9.3-206.5 60.3-276.5 143.5-144.5 171.9-122.2 429.2 49.6 573.7 171.8 144.4 429.1 122.2 573.6-49.6 73.5-87.4 103.9-197 93.3-302.6z"/>
								</g>
								<g id="&lt;Group&gt;">
									<path id="&lt;Compound Path&gt;" fill-rule="evenodd" class="s1" d="m3493.7 517q-0.2-2.3-0.4-4.7c-7.8-89.8 19.9-177.3 77.9-246.3 58.1-69 139.5-111.3 229.3-119 89.9-7.8 177.3 19.9 246.3 77.9 69.1 58.1 111.4 139.5 119.1 229.3 7.8 89.9-19.9 177.3-78 246.3-58 69-139.4 111.3-229.3 119.1-89.8 7.7-177.3-19.9-246.3-78-67.8-57-109.8-136.6-118.6-224.6zm656.1-65.9c-8.4-83.9-48.5-159.7-113.1-214.1-65.8-55.3-149.2-81.7-234.8-74.3-85.6 7.4-163.3 47.7-218.6 113.5-114.2 135.8-96.6 339.2 39.2 453.4 135.8 114.2 339.2 96.6 453.4-39.2 55.3-65.8 81.7-149.2 74.3-234.8q-0.2-2.3-0.4-4.5z"/>
								</g>
								<g id="&lt;Group&gt;">
									<path id="&lt;Path&gt;" class="s1" d="m3646.7 700.2l10.4-11.9c19.7 17.3 41.7 31.6 65.3 42.4l-6.6 14.4c-25-11.5-48.2-26.6-69.1-44.9z"/>
								</g>
								<g id="&lt;Group&gt;">
									<path id="&lt;Path&gt;" class="s1" d="m3781.6 764.1l2.6-15.6c93.8 16 190.1-19.3 251.3-92.1l12.1 10.2c-32.6 38.7-74.8 68.1-122.2 84.9-46 16.4-95.7 20.7-143.8 12.6z"/>
								</g>
								<g id="&lt;Group&gt;">
									<path id="&lt;Path&gt;" class="s1" d="m3379.2 190.9l93-110.6 94.8 79.7-10.2 12.1-82.7-69.6-72.7 86.5 81.3 68.3-10.2 12.1z"/>
								</g>
								<g id="&lt;Group&gt;">
									<path id="&lt;Compound Path&gt;" fill-rule="evenodd" class="s1" d="m2769.3-277.5l136.8-162.7 600 504.6-136.8 162.7zm138.8-140.5l-116.5 138.6 575.8 484.3 116.5-138.6z"/>
								</g>
							</g>
						</g>
					</g>
					<path id="&lt;Path&gt;" class="s2" d="m2520 696c-213.9 137.3-301.7 258-344.1 372.9-64 172.9-25.3 332.5-159.9 515.1-39.8 53.9-81.5 105.8-126.5 154.8-94.5 103-203.1 193-336.6 261.2h-1552.9v-2000h2923.1c50.3 245.6-54.9 472.5-403.1 696z"/>
					<path id="&lt;Path&gt;" class="s2" d="m3112 432c-80 352-424 480-720 568-71.8 21.4-146.1 43.2-216.1 68.9-218.5 79.8-396.5 196.6-335.9 451.1 19.5 82 36.7 154 49.5 218.8 20.2 101.1 30 184.6 22.3 261.2h-1911.8v-2000h3029.7c72.8 146.8 115 288.1 82.3 432z"/>
				</g>
				<g id="&lt;Group&gt;">
					<path id="&lt;Compound Path&gt;" fill-rule="evenodd" class="s1" d="m530.7 433.8h113.2q40.6 0 71.8 15.5 31.1 15.5 48.4 43.6 17.3 28.1 17.3 65.5 0 37.4-17.3 65.6-17.3 28.1-48.4 43.6-31.2 15.5-71.8 15.5h-113.2zm110.4 201.9q37.4 0 59.6-20.8 22.3-20.8 22.3-56.5 0-35.6-22.3-56.4-22.2-20.8-59.6-20.8h-52.7v154.5z"/>
					<path id="&lt;Compound Path&gt;" class="s1" d="m824.8 433.8h57.7v249.3h-57.7z"/>
					<path id="&lt;Compound Path&gt;" class="s1" d="m1110.1 554.5h52.7v101.2q-20.3 15.3-47 23.5-26.7 8.2-53.8 8.2-38.8 0-69.8-16.6-31-16.6-48.6-45.9-17.6-29.4-17.6-66.5 0-37 17.6-66.4 17.6-29.4 49-45.9 31.3-16.6 70.5-16.6 32.8 0 59.5 11.1 26.7 11 44.8 32l-37 34.2q-26.7-28.1-64.5-28.1-23.8 0-42.3 9.9-18.6 10-28.9 28.2-10.3 18.1-10.3 41.6 0 23.2 10.3 41.4 10.3 18.1 28.7 28.3 18.3 10.1 41.8 10.1 25 0 44.9-10.7z"/>
					<path id="&lt;Compound Path&gt;" class="s1" d="m1216.2 433.8h57.7v249.3h-57.7z"/>
					<path id="&lt;Compound Path&gt;" class="s1" d="m1384.7 480.8h-79.8v-47h217.3v47h-79.8v202.3h-57.7z"/>
					<path id="&lt;Compound Path&gt;" fill-rule="evenodd" class="s1" d="m1704.9 629.7h-115.8l-22 53.4h-59.2l111.1-249.3h57l111.5 249.3h-60.5zm-18.2-43.8l-39.5-95.5-39.6 95.5z"/>
					<path id="&lt;Compound Path&gt;" class="s1" d="m1813.5 433.8h57.7v202.3h125v47h-182.7z"/>
					<path id="&lt;Compound Path&gt;" class="s1" d="m581.1 958.8q-30.9-16.6-48.5-45.9-17.6-29.4-17.6-66.5 0-37 17.6-66.4 17.6-29.4 48.5-45.9 30.8-16.6 69.2-16.6 32.4 0 58.6 11.4 26.2 11.4 44 32.8l-37 34.2q-25.3-29.2-62.7-29.2-23.2 0-41.3 10.1-18.2 10.2-28.4 28.3-10.1 18.2-10.1 41.3 0 23.2 10.1 41.4 10.2 18.1 28.4 28.3 18.1 10.1 41.3 10.1 37.4 0 62.7-29.5l37 34.1q-17.8 21.8-44.2 33.2-26.3 11.4-58.7 11.4-38.1 0-68.9-16.6z"/>
					<path id="&lt;Compound Path&gt;" class="s1" d="m791.7 721.8h57.7v202.3h125v47h-182.7z"/>
					<path id="&lt;Compound Path&gt;" fill-rule="evenodd" class="s1" d="m1173.1 917.7h-115.7l-22.1 53.4h-59.1l111.1-249.3h57l111.5 249.3h-60.6zm-18.1-43.8l-39.6-95.5-39.5 95.5z"/>
					<path id="&lt;Compound Path&gt;" class="s1" d="m1306.5 967.4q-27.6-8.1-44.3-20.9l19.6-43.4q16 11.7 38.1 18.8 22.1 7.2 44.1 7.2 24.6 0 36.4-7.3 11.7-7.3 11.7-19.4 0-8.9-6.9-14.8-7-5.9-17.8-9.5-10.9-3.5-29.4-7.8-28.5-6.8-46.7-13.5-18.1-6.8-31.1-21.8-13-14.9-13-39.8 0-21.8 11.7-39.4 11.8-17.6 35.5-28 23.6-10.3 57.8-10.3 23.9 0 46.7 5.7 22.8 5.7 39.9 16.4l-17.8 43.8q-34.6-19.6-69.1-19.6-24.2 0-35.8 7.8-11.6 7.9-11.6 20.7 0 12.8 13.4 19.1 13.3 6.2 40.7 12.2 28.5 6.8 46.7 13.6 18.2 6.7 31.2 21.3 13 14.7 13 39.6 0 21.4-12 39-11.9 17.6-35.8 27.9-23.8 10.4-58 10.4-29.6 0-57.2-8z"/>
					<path id="&lt;Compound Path&gt;" class="s1" d="m1533.7 967.4q-27.6-8.1-44.3-20.9l19.6-43.4q16 11.7 38.1 18.8 22.1 7.2 44.2 7.2 24.5 0 36.3-7.3 11.7-7.3 11.7-19.4 0-8.9-6.9-14.8-6.9-5.9-17.8-9.5-10.9-3.5-29.4-7.8-28.5-6.8-46.6-13.5-18.2-6.8-31.2-21.8-13-14.9-13-39.8 0-21.8 11.7-39.4 11.8-17.6 35.5-28 23.7-10.3 57.9-10.3 23.8 0 46.6 5.7 22.8 5.7 39.9 16.4l-17.8 43.8q-34.6-19.6-69.1-19.6-24.2 0-35.8 7.8-11.6 7.9-11.6 20.7 0 12.8 13.4 19.1 13.3 6.2 40.8 12.2 28.5 6.8 46.6 13.6 18.2 6.7 31.2 21.3 13 14.7 13 39.6 0 21.4-11.9 39-12 17.6-35.8 27.9-23.9 10.4-58.1 10.4-29.6 0-57.2-8z"/>
					<path id="&lt;Compound Path&gt;" fill-rule="evenodd" class="s1" d="m1895.1 971.1l-48.1-69.5h-53.1v69.5h-57.7v-249.3h107.9q33.1 0 57.5 11 24.4 11.1 37.6 31.4 13.2 20.3 13.2 48 0 27.8-13.4 48-13.3 20.1-37.9 30.8l55.9 80.1zm-14.6-191.1q-13.5-11.2-39.5-11.2h-47v86.9h47q26 0 39.5-11.4 13.6-11.4 13.6-32.1 0-21-13.6-32.2z"/>
					<path id="&lt;Compound Path&gt;" fill-rule="evenodd" class="s1" d="m2048.7 958.6q-31.1-16.7-48.8-46.1-17.6-29.4-17.6-66.1 0-36.6 17.6-66 17.7-29.4 48.8-46.1 31.2-16.8 70-16.8 38.8 0 69.8 16.8 31 16.7 48.8 46.1 17.8 29.4 17.8 66 0 36.7-17.8 66.1-17.8 29.4-48.8 46.1-31 16.8-69.8 16.8-38.8 0-70-16.8zm109.9-42.5q17.8-10.2 28-28.3 10.1-18.2 10.1-41.4 0-23.1-10.1-41.3-10.2-18.1-28-28.3-17.8-10.1-39.9-10.1-22.1 0-39.9 10.1-17.8 10.2-27.9 28.3-10.2 18.2-10.2 41.3 0 23.2 10.2 41.4 10.1 18.1 27.9 28.3 17.8 10.1 39.9 10.1 22.1 0 39.9-10.1z"/>
					<path id="&lt;Compound Path&gt;" fill-rule="evenodd" class="s1" d="m2349.3 958.6q-31.1-16.7-48.8-46.1-17.6-29.4-17.6-66.1 0-36.6 17.6-66 17.7-29.4 48.8-46.1 31.2-16.8 70-16.8 38.8 0 69.8 16.8 31 16.7 48.8 46.1 17.8 29.4 17.8 66 0 36.7-17.8 66.1-17.8 29.4-48.8 46.1-31 16.8-69.8 16.8-38.8 0-70-16.8zm109.9-42.5q17.8-10.2 28-28.3 10.1-18.2 10.1-41.4 0-23.1-10.1-41.3-10.2-18.1-28-28.3-17.8-10.1-39.9-10.1-22.1 0-39.9 10.1-17.8 10.2-27.9 28.3-10.2 18.2-10.2 41.3 0 23.2 10.2 41.4 10.1 18.1 27.9 28.3 17.8 10.1 39.9 10.1 22.1 0 39.9-10.1z"/>
					<path id="&lt;Compound Path&gt;" class="s1" d="m2826 971.1l-0.3-149.6-73.4 123.2h-26l-73-120v146.4h-54.1v-249.3h47.7l93.3 154.9 91.9-154.9h47.4l0.7 249.3z"/>
				</g>
				<path id="&lt;Path&gt;" class="s2" d="m7064 1808c0 0 248-224 224-536-24-312-240-416-264-560-24-144-24-384-336-424-312-40-552 360-880 320-193.2-23.6-648 136-648 472 0 336 184 728 184 728z"/>
				<text id="Text layer 730" style="transform: matrix(1,0,0,1,1941,-4119)" >
				</text>
				<path id="&lt;Path&gt;" class="s2" d="m5192 1808c0 0-195.5-440 119-752 314.4-312-85.4-604.9 209.6-816 335.4-240 740.3 104 959.4 328 219.1 224 458.4 137.3 678.5 268.6 220.1 131.4 330.3 363.4 225.5 587.4-104.8 224-168 384-168 384z"/>
			</g>
			<g id="OBJECT 6 ">
				<g id="&lt;Group&gt;">
					<g id="&lt;Group&gt;">
						<g id="&lt;Group&gt;">
							<path id="&lt;Compound Path&gt;" fill-rule="evenodd" class="s3" d="m7095.1 965.9c-24.1 0-43.7-19.6-43.7-43.8 0-24.1 19.6-43.7 43.7-43.7 24.1 0 43.8 19.6 43.8 43.7 0 24.2-19.7 43.8-43.8 43.8zm0-76.9c-18.3 0-33.1 14.9-33.1 33.1 0 18.3 14.8 33.2 33.1 33.2 18.3 0 33.2-14.9 33.2-33.2 0-18.2-14.9-33.1-33.2-33.1z"/>
						</g>
					</g>
					<g id="&lt;Group&gt;">
						<g id="&lt;Group&gt;">
							<path id="&lt;Compound Path&gt;" fill-rule="evenodd" class="s3" d="m5801.4 467.5c-24.1 0-43.8-19.6-43.8-43.7 0-24.1 19.7-43.8 43.8-43.8 24.1 0 43.7 19.7 43.7 43.8 0 24.1-19.6 43.7-43.7 43.7zm0-76.9c-18.3 0-33.2 14.9-33.2 33.2 0 18.3 14.9 33.1 33.2 33.1 18.3 0 33.1-14.8 33.1-33.1 0-18.3-14.8-33.2-33.1-33.2z"/>
						</g>
					</g>
					<g id="&lt;Group&gt;">
						<g id="&lt;Group&gt;">
							<path id="&lt;Compound Path&gt;" fill-rule="evenodd" class="s3" d="m5338 1135.1c-24.1 0-43.8-19.6-43.8-43.8 0-24.1 19.7-43.7 43.8-43.7 24.1 0 43.7 19.6 43.7 43.7 0 24.2-19.6 43.8-43.7 43.8zm0-76.9c-18.3 0-33.2 14.9-33.2 33.1 0 18.3 14.9 33.2 33.2 33.2 18.3 0 33.1-14.9 33.1-33.2 0-18.2-14.8-33.1-33.1-33.1z"/>
						</g>
					</g>
					<g id="&lt;Group&gt;">
						<g id="&lt;Group&gt;">
							<path id="&lt;Path&gt;" class="s3" d="m5420.2 1820l-7-7.9c0.4-0.3 40.4-36.5 73.9-96.1 30.1-53.7 60.7-137.8 37.7-235.9-14.9 5.2-59.2 22.8-101.1 63.1-47.1 45.3-100.8 129.3-89.3 272.4l-10.6 0.9c-5.2-65.1 2.2-123.9 22-174.8 15.8-40.8 39.7-76.6 70.9-106.5 53.1-50.8 108.2-66.4 110.5-67l5.2-1.4 1.4 5.2c11.6 45.9 12.9 92.8 3.7 139.4-7.3 37.2-21.2 74.2-41.4 110.1-34.3 61-74.2 97-75.9 98.5z"/>
						</g>
						<g id="&lt;Group&gt;">
							<path id="&lt;Path&gt;" class="s3" d="m5381.3 1817.4l-10.3-2.7c0.1-0.4 12.1-46.4 33.4-105.5 19.7-54.6 51.7-132 92.3-190.2l8.7 6c-76.4 109.8-123.6 290.6-124.1 292.4z"/>
						</g>
						<g id="&lt;Group&gt;">
							<path id="&lt;Path&gt;" class="s3" d="m5382.2 1780.4l-25.8-57.2 9.7-4.3 25.8 57.2z"/>
						</g>
						<g id="&lt;Group&gt;">
							<path id="&lt;Path&gt;" class="s3" d="m5405.3 1734l-4.7-9.5 60.5-30.1 4.7 9.5z"/>
						</g>
						<g id="&lt;Group&gt;">
							<path id="&lt;Path&gt;" class="s3" d="m5417.8 1677.1l-19.9-59 10.1-3.4 19.9 59z"/>
						</g>
						<g id="&lt;Group&gt;">
							<path id="&lt;Path&gt;" class="s3" d="m5450.7 1621l-5.3-9.2 53-30.4 5.3 9.2z"/>
						</g>
						<g id="&lt;Group&gt;">
							<path id="&lt;Path&gt;" class="s3" d="m5458.4 1586.8l-15.3-45.3 10-3.4 15.4 45.3z"/>
						</g>
						<g id="&lt;Group&gt;">
							<path id="&lt;Path&gt;" class="s3" d="m5240 1820.5l-150.6-101.9 6-8.8 150.5 101.9z"/>
						</g>
						<g id="&lt;Group&gt;">
							<path id="&lt;Path&gt;" class="s3" d="m5238.3 1818.6c-0.3-0.6-29.2-54.8-49.5-137.5-11.9-48.6-18.6-97.4-19.9-145.1-1.7-59.7 5.2-117.8 20.3-172.6l1.8-6.5 5.8 3.2c1.4 0.8 34.5 19.1 73 58.5 22.5 23.2 42.2 48.8 58.6 76.3 20.3 34.3 35.4 71.5 44.8 110.6l-10.3 2.4c-20.6-85.9-66-146.2-100.5-181.6-28.1-28.9-53.7-46.4-64.8-53.4-31.2 119.4-16.6 231.6 1.5 305.3 19.9 81.5 48.2 134.8 48.5 135.4z"/>
						</g>
						<g id="&lt;Group&gt;">
							<path id="&lt;Path&gt;" class="s3" d="m5315.8 1816.4c0-0.5-3.1-51-16.9-124.8-12.8-68-37.6-170.3-83.3-271.4l9.7-4.4c46.1 102.1 71.2 205.4 84 274 14 74.4 17.1 125.5 17.1 126z"/>
						</g>
						<g id="&lt;Group&gt;">
							<path id="&lt;Path&gt;" class="s3" d="m5246.1 1493.5l-37.9-32.4 6.9-8.1 37.9 32.5z"/>
						</g>
						<g id="&lt;Group&gt;">
							<path id="&lt;Path&gt;" class="s3" d="m5266 1522.9l-10.4-1.8 9.9-56.4 10.5 1.9z"/>
						</g>
						<g id="&lt;Group&gt;">
							<path id="&lt;Path&gt;" class="s3" d="m5274.1 1578.3l-56.3-31.4 5.2-9.3 56.3 31.5z"/>
						</g>
						<g id="&lt;Group&gt;">
							<path id="&lt;Path&gt;" class="s3" d="m5290.8 1609l-10.1-3.1 22.2-74.1 10.2 3.1z"/>
						</g>
						<g id="&lt;Group&gt;">
							<path id="&lt;Path&gt;" class="s3" d="m5295.8 1665.6l-67.6-34.3 4.8-9.4 67.5 34.2z"/>
						</g>
						<g id="&lt;Group&gt;">
							<path id="&lt;Path&gt;" class="s3" d="m5309.2 1694.3l-9.7-4.2 32.9-75.2 9.7 4.3z"/>
						</g>
						<g id="&lt;Group&gt;">
							<path id="&lt;Path&gt;" class="s3" d="m5312.2 1760.1l-66.1-34.3 4.9-9.4 66.1 34.3z"/>
						</g>
						<g id="&lt;Group&gt;">
							<path id="&lt;Path&gt;" class="s3" d="m5322.3 1780.5l-9.6-4.5 10.5-22.8 9.6 4.4z"/>
						</g>
						<g id="&lt;Group&gt;">
							<path id="&lt;Path&gt;" class="s3" d="m5159.7 1820.9c-66.1-28.1-98.9-67.6-114.7-95.8-17.3-30.8-18.7-54.8-18.7-55.8l-0.3-5.5 5.5-0.1c64.1-1.1 110.4 18.2 138.1 34.6 30.1 17.8 44.8 35.8 45.5 36.6l-8.3 6.7 4.1-3.4-4.1 3.4c-0.1-0.2-14.4-17.6-43.1-34.5-25.5-15-67.8-32.7-126.1-32.8 1.4 8.5 5.5 25.8 17 46.2 15 26.5 46.2 63.8 109.2 90.7z"/>
						</g>
						<g id="&lt;Group&gt;">
							<path id="&lt;Path&gt;" class="s3" d="m5129.5 1745l-22.4-43.4 9.5-4.9 22.4 43.4z"/>
						</g>
						<g id="&lt;Group&gt;">
							<path id="&lt;Path&gt;" class="s3" d="m5162.4 1767.1l-50.9-3 0.7-10.6 50.8 3z"/>
						</g>
						<g id="&lt;Group&gt;">
							<path id="&lt;Path&gt;" class="s3" d="m5186.7 1783.3l-16.6-43.2 9.9-3.8 16.6 43.1z"/>
						</g>
						<g id="&lt;Group&gt;">
							<path id="&lt;Path&gt;" class="s3" d="m5176.3 1809.3l-2.6-10.2 36.6-9.4 2.6 10.3z"/>
						</g>
					</g>
					<g id="&lt;Group&gt;">
						<g id="&lt;Group&gt;">
							<path id="&lt;Compound Path&gt;" fill-rule="evenodd" class="s3" d="m6132.8 569.5c-24.1 0-43.8-19.6-43.8-43.7 0-24.1 19.7-43.8 43.8-43.8 24.1 0 43.7 19.7 43.7 43.8 0 24.1-19.6 43.7-43.7 43.7zm0-76.9c-18.3 0-33.1 14.9-33.1 33.2 0 18.3 14.8 33.1 33.1 33.1 18.3 0 33.1-14.8 33.1-33.1 0-18.3-14.8-33.2-33.1-33.2z"/>
						</g>
					</g>
					<g id="&lt;Group&gt;">
						<path id="&lt;Path&gt;" class="s3" d="m7388.1 1855.8h-2343.3v-46.7c0-3.6 3-6.6 6.7-6.6h2329.9c3.7 0 6.7 3 6.7 6.6z"/>
					</g>
					<g id="&lt;Group&gt;">
						<g id="&lt;Group&gt;">
							<g id="&lt;Group&gt;">
								<g id="&lt;Group&gt;">
									<path id="&lt;Compound Path&gt;" fill-rule="evenodd" class="s3" d="m5365.6 909.8q-1.2 0-2.4-0.2l-43-8.2c-4.9-0.9-8.8-4.7-10-9.5l-3.9-16 79.2 15.1-9.4 13.4c-2.5 3.4-6.4 5.4-10.5 5.4zm-43.4-18.8l43 8.2c0.8 0.1 1.7-0.2 2.2-0.8l-46.9-9c0.2 0.8 0.9 1.4 1.7 1.6z"/>
								</g>
							</g>
							<g id="&lt;Group&gt;">
								<g id="&lt;Group&gt;">
									<g id="&lt;Group&gt;">
										<path id="&lt;Compound Path&gt;" fill-rule="evenodd" class="s3" d="m5379.4 900.1q-2.7 0-5.5-0.5l-60-11.4c-8.4-1.6-15.7-6.8-20-14.3l-14-24.3c-3.5-6.1-4.7-13.3-3.4-20.2l12.5-65.6 153.8 29.3-12.4 65.6c-1.4 6.9-5.1 13.1-10.6 17.5l-22 17.5c-5.3 4.2-11.8 6.4-18.4 6.4zm-82-123.9l-10.5 55.2c-0.8 4.4 0 9 2.2 12.9l14 24.4c2.8 4.7 7.4 8 12.8 9.1l60 11.4c5.4 1 11-0.4 15.3-3.8l22-17.5c3.5-2.8 5.9-6.8 6.7-11.2l10.5-55.2z"/>
									</g>
								</g>
								<g id="&lt;Group&gt;">
									<g id="&lt;Group&gt;">
										<path id="&lt;Compound Path&gt;" fill-rule="evenodd" class="s3" d="m5436 802.2q-1.5 0-3.1-0.2c-46.9-2.4-93.5-11.3-138.5-26.4-9.2-2-15.7-10.8-14.6-20.2 4.4-41.5-4.5-57.5-17.9-81.6-6.6-11.8-14.1-25.3-21.7-44.3l-0.5-1.1q-0.6-1.5-1.1-3l-0.4-0.9q-0.5-1.4-1-2.8-0.2-0.6-0.4-1.2-0.5-1.5-1-3l-0.2-0.6q-0.6-1.8-1.1-3.6l-0.3-1.2q-0.4-1.4-0.8-2.8l-0.3-1q-0.5-1.8-0.9-3.7l-0.2-0.8q-0.4-1.5-0.7-3l-0.3-1.2q-0.3-1.7-0.6-3.4l-0.1-0.5q-0.4-1.8-0.7-3.8l-0.2-1.1q-0.2-1.5-0.4-3l-0.2-1q-0.3-1.9-0.5-3.8l-0.1-0.9q-0.1-1.5-0.3-3.1l-0.1-1.2q-0.1-1.8-0.3-3.6v-0.3q-0.1-2-0.2-4v-1.1q-0.1-1.6-0.1-3.1v-1q-0.1-2 0-4v-0.8q0-1.6 0.1-3.3v-1.1q0.1-2 0.2-3.9v-0.1q0.1-2.1 0.3-4.1l0.1-1.1q0.1-1.6 0.3-3.3l0.1-0.9q0.2-2 0.5-4l0.1-0.9q0.3-1.6 0.5-3.3l0.2-1.1q0.4-2.1 0.8-4.1 0.4-2.2 0.9-4.5 0.1-0.4 0.2-0.8l0.1-0.6c0.2-1 0.4-2 0.7-3q0.1-0.5 0.3-1.1l0.2-0.9q0.3-1.2 0.6-2.3 0.2-0.7 0.3-1.3l0.3-1q0.3-1 0.6-2.1 0.2-0.6 0.4-1.3l0.3-0.8q0.3-1.1 0.6-2.1 0.3-0.7 0.5-1.4l0.2-0.7q0.4-1.1 0.7-2.1 0.3-0.8 0.6-1.5l0.2-0.6q0.4-1 0.8-2.1 0.3-0.8 0.6-1.6l0.1-0.3q0.4-1.1 0.9-2.2 0.3-0.9 0.7-1.7l0.1-0.2q0.4-1.1 0.9-2.1 0.4-1 0.8-1.9 0.5-1.1 1-2.1 0.4-1 0.9-1.9 0.5-1 1-2.1 0.4-0.9 0.9-1.8 0.5-1 1-2 0.5-1 1-1.9 0.6-1 1.1-2 0.5-0.9 1-1.7 0.6-1 1.2-2 0.5-0.9 1-1.8 0.6-0.9 1.2-1.9 0.5-0.9 1.1-1.7 0.6-1 1.2-2 0.6-0.8 1.2-1.6 0.6-1 1.2-1.9l0.2-0.2q0.5-0.8 1-1.5 0.6-0.9 1.3-1.7l0.3-0.4q0.4-0.7 0.9-1.3 0.6-0.9 1.2-1.7l0.5-0.6q0.4-0.6 0.9-1.1 0.6-0.8 1.2-1.6l0.6-0.7q0.4-0.5 0.9-1.1 0.6-0.7 1.2-1.5l0.7-0.7q0.4-0.5 0.8-1 0.7-0.8 1.3-1.5l0.7-0.8q0.4-0.5 0.8-0.9 0.7-0.8 1.5-1.6l0.7-0.7q0.4-0.4 0.7-0.9 0.9-0.9 1.8-1.8l0.6-0.6q0.3-0.3 0.6-0.6 1.5-1.5 3-3 0.2-0.2 0.5-0.4l0.3-0.3q1.1-1.1 2.3-2.2 0.4-0.3 0.8-0.7l0.8-0.7q0.8-0.7 1.6-1.4 0.4-0.4 0.9-0.8l0.9-0.7q0.7-0.6 1.4-1.2 0.5-0.5 1.1-0.9l0.7-0.6q0.7-0.6 1.5-1.2 0.5-0.5 1.1-0.9l0.7-0.5q0.8-0.6 1.5-1.2 0.6-0.5 1.2-0.9l0.6-0.4q0.8-0.6 1.6-1.2 0.7-0.5 1.4-1l0.4-0.3q0.9-0.6 1.7-1.1 0.7-0.5 1.5-1l0.2-0.2c0.6-0.4 1.2-0.8 1.8-1.2q0.9-0.5 1.7-1.1 1-0.6 1.9-1.2 0.9-0.5 1.7-1 1-0.6 1.9-1.1 0.9-0.6 1.8-1.1 0.9-0.5 1.9-1 0.9-0.5 1.8-1 1-0.6 1.9-1.1 0.9-0.4 1.9-0.9 0.9-0.5 1.9-1 0.9-0.4 1.9-0.9 0.9-0.5 1.9-0.9 1-0.5 1.9-0.9 1-0.4 2-0.9 0.9-0.4 1.9-0.8 1-0.4 2-0.8 1-0.4 1.9-0.8 1-0.4 2.1-0.8l0.1-0.1q0.9-0.3 1.8-0.6 0.9-0.4 1.9-0.7l0.5-0.2q0.8-0.3 1.6-0.6 0.9-0.3 1.8-0.6l0.8-0.2q0.7-0.3 1.5-0.5 0.9-0.3 1.7-0.6l0.9-0.2q0.7-0.2 1.5-0.4 0.8-0.3 1.7-0.5l1-0.3q0.7-0.2 1.4-0.4 0.8-0.2 1.7-0.4l1.1-0.3q0.7-0.2 1.3-0.3 0.9-0.3 1.8-0.5l1.1-0.2q0.7-0.2 1.3-0.3 1.1-0.2 2.2-0.4l1-0.2q0.5-0.1 1-0.2 2.1-0.4 4.2-0.8 0.6-0.1 1.2-0.2l1.1-0.1q1-0.2 2-0.3 0.7-0.1 1.3-0.2l1.2-0.2q0.9-0.1 1.8-0.2 0.7-0.1 1.4-0.1l1.2-0.2q0.8 0 1.7-0.1 0.8-0.1 1.6-0.2h0.9q1-0.1 1.9-0.2 0.8 0 1.6-0.1h0.9q0.9-0.1 1.8-0.1 0.9 0 1.8-0.1h0.7q0.9 0 1.9 0 0.9 0 1.8 0l0.5-0.1q1.1 0 2.1 0 1 0.1 2 0.1h0.2q1.1 0 2.2 0 1.1 0.1 2.2 0.1 1.2 0.1 2.3 0.1 1.1 0.1 2.2 0.2 1.1 0.1 2.2 0.1 1.1 0.1 2.2 0.2 1.2 0.1 2.3 0.3 1.1 0.1 2.2 0.2l0.4 0.1q0.4 0 0.8 0 0.3 0.1 0.6 0.1l0.3 0.1q1.4 0.2 2.9 0.4 1 0.1 2 0.3 1.4 0.2 2.7 0.5h0.4q0.8 0.2 1.7 0.3l0.2 0.1q0.3 0 0.5 0 0.7 0.2 1.4 0.3l1.3 0.3q0.6 0.1 1.3 0.2 1.8 0.5 3.7 0.9l0.8 0.2c88.7 21.3 147.4 105.7 136.5 196.2l-0.1 0.9q-0.3 1.8-0.5 3.6-0.2 0.8-0.3 1.7-0.2 1.4-0.5 2.9-0.1 1-0.3 2l-0.1 0.5q-0.1 0.3-0.1 0.7-0.1 0.5-0.2 0.9l-0.1 0.6q-0.2 1.1-0.5 2.1-0.3 1.4-0.6 2.8l-0.1 0.4q-0.1 0.7-0.3 1.5-0.4 1.5-0.8 3l-0.1 0.5q-0.1 0.4-0.2 0.8l-0.4 1.5q-0.5 1.7-1 3.4l-0.1 0.5q-0.6 1.9-1.2 3.7l-0.3 1q-0.6 1.8-1.2 3.6l-0.3 0.8q-0.5 1.5-1.1 3.1l-0.3 0.8q-0.7 1.8-1.4 3.5l-0.4 0.9q-0.8 1.8-1.5 3.5l-0.2 0.5q-0.7 1.6-1.5 3.2l-0.4 0.9q-0.8 1.6-1.6 3.3l-0.4 0.8q-0.8 1.5-1.5 2.9l-0.4 0.7q-0.8 1.6-1.7 3.2l-0.6 1q-0.9 1.6-1.8 3.1l-0.4 0.7q-0.8 1.4-1.7 2.7l-0.5 0.9q-1 1.5-2 3l-0.6 0.9q-0.9 1.3-1.8 2.7l-0.5 0.6q-1 1.4-2 2.8l-0.6 0.9q-1.1 1.4-2.2 2.8l-0.6 0.8q-0.9 1.2-1.9 2.3l-0.6 0.8q-1.1 1.4-2.2 2.7l-0.8 0.9q-1.1 1.3-2.3 2.6l-0.7 0.8q-0.6 0.6-1.2 1.2l-1.3 1.4c-14.1 15.1-26.2 24.9-36.9 33.5-21.5 17.5-35.8 29-46.8 69-2.3 8.2-9.8 13.7-18 13.7zm-186.4-177.7l0.4 1c7.4 18.4 14.7 31.6 21.1 43.1 14 25 24 43 19.2 87.9-0.4 4.1 2.4 8 6.5 8.8h0.4l0.3 0.2c44.3 14.9 90.1 23.6 136.3 25.9h0.4l0.3 0.1c4.1 0.8 8.2-1.8 9.3-5.8 11.9-43.2 28-56.3 50.3-74.4 10.4-8.4 22.2-18 35.9-32.5l1.3-1.4q0.5-0.6 1-1.2l0.7-0.7q1.1-1.2 2.2-2.5l0.7-0.8q1.1-1.3 2.1-2.5l0.6-0.7q0.9-1.1 1.7-2.2l0.6-0.8q1-1.3 2-2.6l0.7-0.9q0.9-1.3 1.9-2.6l0.4-0.6q0.9-1.3 1.7-2.6l0.6-0.8q0.9-1.4 1.8-2.8l0.5-0.8q0.8-1.3 1.6-2.6l0.4-0.6q0.9-1.5 1.7-3l0.5-0.9q0.9-1.5 1.7-3l0.3-0.6q0.7-1.4 1.4-2.7l0.4-0.8q0.8-1.6 1.5-3.2l0.4-0.8q0.7-1.5 1.4-3l0.2-0.5q0.7-1.6 1.4-3.2l0.3-0.9q0.7-1.6 1.3-3.3l0.3-0.8q0.6-1.4 1.1-2.9l0.3-0.7q0.6-1.7 1.1-3.4l0.3-1q0.6-1.7 1.1-3.4l0.2-0.5q0.4-1.6 0.9-3.2l0.3-1.4q0.1-0.3 0.2-0.6l0.1-0.6q0.4-1.4 0.8-2.9 0.1-0.7 0.3-1.4l0.1-0.4q0.3-1.3 0.6-2.6 0.2-1 0.4-2l0.1-0.6q0.1-0.4 0.1-0.8 0.1-0.3 0.1-0.5l0.1-0.6q0.2-0.9 0.4-1.9 0.2-1.4 0.4-2.8 0.2-0.7 0.3-1.5 0.2-1.7 0.4-3.4l0.1-0.8c10.3-85.3-44.9-164.6-128.3-184.7l-0.8-0.2q-1.8-0.4-3.5-0.8-0.6-0.1-1.2-0.2l-1.3-0.3q-0.6-0.1-1.3-0.2l-0.7-0.2q-0.7-0.1-1.5-0.2l-0.4-0.1q-1.3-0.2-2.6-0.4-0.9-0.2-1.9-0.3-1.3-0.2-2.7-0.4l-0.9-0.1q-0.2-0.1-0.5-0.1h-0.6q-1-0.2-2-0.3-1.1-0.1-2.2-0.2-1-0.1-2-0.2-1.1-0.1-2.1-0.1-1.1-0.1-2.1-0.2-1.1 0-2.1-0.1-1.1 0-2.1-0.1-1 0-2.1 0h-0.2q-1 0-1.9 0-1-0.1-2 0h-0.4q-0.9 0-1.7 0-0.9 0-1.8 0h-0.7q-0.8 0.1-1.6 0.1-0.9 0-1.7 0.1h-1q-0.7 0.1-1.4 0.1-0.9 0.1-1.7 0.1l-1 0.1q-0.7 0.1-1.4 0.1-0.8 0.1-1.6 0.2l-1.2 0.1q-0.6 0.1-1.3 0.2-0.8 0-1.6 0.2l-1.3 0.1q-0.5 0.1-1.1 0.2-0.9 0.1-1.9 0.2l-1.2 0.2q-0.5 0.1-0.9 0.2-2 0.3-4 0.7-0.4 0.1-0.9 0.2l-1.1 0.2q-1 0.2-2 0.4-0.5 0.1-1.1 0.2l-1.2 0.3q-0.8 0.2-1.6 0.4-0.6 0.1-1.2 0.3l-1.1 0.3q-0.8 0.2-1.6 0.4-0.6 0.1-1.3 0.3l-1 0.3q-0.8 0.2-1.6 0.4-0.6 0.2-1.3 0.4l-0.9 0.3q-0.8 0.2-1.6 0.5-0.7 0.2-1.4 0.4l-0.7 0.3q-0.9 0.3-1.7 0.6-0.8 0.2-1.5 0.5l-0.6 0.2q-0.9 0.3-1.7 0.6-0.8 0.3-1.7 0.6l-0.1 0.1q-1 0.4-2 0.7-0.9 0.4-1.8 0.8-0.9 0.4-1.9 0.8-0.8 0.3-1.7 0.7-1 0.5-1.9 0.9-0.9 0.4-1.8 0.8-0.9 0.4-1.8 0.9-0.9 0.4-1.8 0.8-0.9 0.5-1.8 0.9-0.9 0.5-1.7 0.9-0.9 0.5-1.9 1-0.8 0.5-1.6 0.9-0.9 0.5-1.8 1-0.9 0.5-1.7 1-0.9 0.5-1.8 1.1-0.8 0.5-1.6 1-0.9 0.5-1.8 1.1-0.8 0.5-1.6 1-0.8 0.5-1.7 1.1l-0.3 0.2q-0.6 0.4-1.3 0.9-0.8 0.6-1.6 1.1l-0.4 0.3q-0.6 0.5-1.3 0.9-0.7 0.5-1.5 1.1l-0.6 0.4q-0.5 0.4-1.1 0.9-0.7 0.5-1.4 1l-0.7 0.6q-0.5 0.4-1 0.8-0.7 0.6-1.4 1.1l-0.8 0.6q-0.4 0.4-0.9 0.8-0.7 0.6-1.3 1.1l-0.9 0.8q-0.4 0.4-0.9 0.7-0.7 0.7-1.4 1.3l-0.8 0.7q-0.4 0.4-0.7 0.7-1.1 1-2.2 2l-0.7 0.7q-1.5 1.4-2.9 2.8-0.2 0.2-0.5 0.5l-0.6 0.6q-0.8 0.9-1.7 1.8-0.3 0.3-0.6 0.7l-0.8 0.8q-0.6 0.7-1.3 1.4-0.4 0.4-0.7 0.8l-0.7 0.8q-0.6 0.7-1.2 1.4-0.4 0.5-0.8 0.9l-0.7 0.8q-0.6 0.7-1.1 1.4-0.4 0.5-0.8 1l-0.6 0.7q-0.6 0.7-1.1 1.4-0.5 0.5-0.9 1.1l-0.4 0.6q-0.6 0.7-1.2 1.5-0.4 0.6-0.9 1.2l-0.3 0.4q-0.6 0.8-1.2 1.7-0.4 0.6-0.9 1.3l-0.1 0.2q-0.6 0.9-1.2 1.8-0.6 0.8-1.1 1.5-0.6 1-1.2 1.9-0.5 0.8-1 1.6-0.6 0.9-1.1 1.8-0.5 0.8-1 1.7-0.5 0.9-1.1 1.8-0.4 0.9-0.9 1.7-0.5 0.9-1.1 1.9-0.4 0.8-0.9 1.7-0.5 0.9-1 1.9-0.4 0.9-0.8 1.7-0.5 1-1 2-0.4 0.9-0.8 1.7-0.5 1-0.9 2-0.4 0.9-0.8 1.8-0.4 1-0.9 2v0.2q-0.4 0.8-0.7 1.6-0.4 1-0.8 2.1l-0.1 0.3q-0.3 0.7-0.6 1.5-0.4 0.9-0.7 1.9l-0.2 0.6q-0.3 0.7-0.5 1.4-0.4 1-0.7 2l-0.2 0.7q-0.3 0.6-0.5 1.2-0.3 1-0.6 2l-0.2 0.8q-0.2 0.6-0.4 1.3-0.3 0.9-0.6 1.9l-0.3 1q-0.1 0.6-0.3 1.1-0.3 1.1-0.5 2.2l-0.3 1q-0.1 0.4-0.2 0.9-0.3 1.4-0.7 2.8l-0.1 0.7q-0.1 0.3-0.2 0.7-0.4 2.1-0.8 4.2-0.4 1.9-0.7 3.8l-0.2 1.1q-0.2 1.5-0.4 3.1l-0.2 0.8q-0.2 1.9-0.4 3.8l-0.1 0.9q-0.2 1.5-0.3 3.1l-0.1 1q-0.2 1.9-0.3 3.8v0.1q-0.1 1.9-0.2 3.7v1.1q-0.1 1.5-0.1 3v0.8q-0.1 1.9 0 3.8v0.9q0 1.5 0.1 2.9v1.1q0.1 1.8 0.2 3.7v0.3q0.1 1.7 0.3 3.4l0.1 1.1q0.1 1.5 0.3 3l0.1 0.8q0.2 1.8 0.4 3.6l0.2 0.9q0.2 1.4 0.4 2.8l0.2 1.1q0.2 1.8 0.6 3.6l0.1 0.4q0.3 1.6 0.6 3.2l0.3 1.1q0.3 1.4 0.6 2.8l0.2 0.8q0.4 1.7 0.9 3.5l0.2 1q0.4 1.3 0.8 2.6l0.3 1.1q0.5 1.7 1 3.3l0.2 0.7q0.5 1.4 1 2.8l0.4 1.1q0.4 1.3 0.9 2.7l0.3 0.8q0.5 1.4 1.1 2.8z"/>
									</g>
								</g>
								<g id="&lt;Group&gt;">
									<g id="&lt;Group&gt;">
										<path id="&lt;Compound Path&gt;" fill-rule="evenodd" class="s3" d="m5393.2 793.8l-10.4-2c0-0.4 8.1-42.4 19.9-86.4 6.9-25.9 13.7-47.4 20.3-63.9q0.5-1.2 1-2.5c-11.9-0.8-26.4-3.6-44.2-9q-6.9-2.1-12.9-4.4 0.4 11-1 23.9c-12.4 112.9-17.1 135.2-17.3 136.1l-10.3-2.2c0-0.3 4.8-23.2 17.1-135 1.1-10.6 1.2-19.6 0.6-27.3-27.2-12.4-35.3-26.2-32.9-36.2 1.6-7 8.6-11.1 16.5-9.7 8.6 1.5 16.3 8.8 21.2 19.9q3.6 8.2 5.1 18.7c5 2 10.6 4.1 17 6 18.5 5.7 33.6 8.3 45.6 8.9 6.6-14.2 13-23.2 19.3-27.3 10.7-7 19.5-4.7 24.2-0.2 5.6 5.4 6.4 14.1 2 21.6-2.7 4.7-12.1 15.9-38.7 16.6-6.2 14.7-13.7 36.5-22.4 68.7-11.6 43.6-19.6 85.3-19.7 85.7zm67.8-186.2c-2.1 0-4.7 0.9-7.4 2.6-3 2-7.4 6.7-13.2 18.3 13.4-1.2 21.3-5.7 24.5-11.1 2.1-3.7 1.4-6.9-0.2-8.5-0.9-0.9-2.2-1.3-3.7-1.3zm-124.5-22.1c-1.4 0-2.8 0.5-3.1 1.9-0.9 3.6 3.9 12 20.6 20.8-3.6-14.6-10.5-21.5-16.3-22.6q-0.6-0.1-1.2-0.1z"/>
									</g>
								</g>
								<g id="&lt;Group&gt;">
									<g id="&lt;Group&gt;">
										<path id="&lt;Path&gt;" class="s3" d="m5428.6 835.9l-140-45.2 3.3-10.1 140 45.2z"/>
									</g>
								</g>
								<g id="&lt;Group&gt;">
									<g id="&lt;Group&gt;">
										<path id="&lt;Path&gt;" class="s3" d="m5425.8 850.7l-140-45.3 3.2-10.1 140.1 45.3z"/>
									</g>
								</g>
								<g id="&lt;Group&gt;">
									<g id="&lt;Group&gt;">
										<path id="&lt;Path&gt;" class="s3" d="m5423 865.5l-140-45.3 3.2-10.1 140.1 45.3z"/>
									</g>
								</g>
								<g id="&lt;Group&gt;">
									<g id="&lt;Group&gt;">
										<path id="&lt;Path&gt;" class="s3" d="m5413.6 878.1l-133.4-43.1 3.2-10.1 133.5 43.1z"/>
									</g>
								</g>
							</g>
						</g>
						<g id="&lt;Group&gt;">
							<g id="&lt;Group&gt;">
								<path id="&lt;Path&gt;" class="s3" d="m5662.7 616.4l-55.3-10.5 2-10.4 55.3 10.5z"/>
							</g>
						</g>
						<g id="&lt;Group&gt;">
							<g id="&lt;Group&gt;">
								<path id="&lt;Path&gt;" class="s3" d="m5602.3 499.9l-3.5-10 53.2-18.5 3.5 10z"/>
							</g>
						</g>
						<g id="&lt;Group&gt;">
							<g id="&lt;Group&gt;">
								<path id="&lt;Path&gt;" class="s3" d="m5544.9 410.6l-8-6.9 36.8-42.6 8 6.9z"/>
							</g>
						</g>
						<g id="&lt;Group&gt;">
							<g id="&lt;Group&gt;">
								<path id="&lt;Path&gt;" class="s3" d="m5450.6 362l-10.4-2 10.5-55.2 10.4 1.9z"/>
							</g>
						</g>
						<g id="&lt;Group&gt;">
							<g id="&lt;Group&gt;">
								<path id="&lt;Path&gt;" class="s3" d="m5334.6 370.6l-18.5-53.2 10-3.4 18.5 53.1z"/>
							</g>
						</g>
						<g id="&lt;Group&gt;">
							<g id="&lt;Group&gt;">
								<path id="&lt;Path&gt;" class="s3" d="m5248.4 432.5l-42.6-36.7 6.9-8.1 42.7 36.8z"/>
							</g>
						</g>
						<g id="&lt;Group&gt;">
							<g id="&lt;Group&gt;">
								<path id="&lt;Path&gt;" class="s3" d="m5204.8 529.2l-55.3-10.5 2-10.4 55.2 10.5z"/>
							</g>
						</g>
					</g>
					<g id="&lt;Group&gt;">
						<g id="&lt;Group&gt;">
							<g id="&lt;Group&gt;">
								<path id="&lt;Compound Path&gt;" fill-rule="evenodd" class="s3" d="m6641.5 697.4l-181.7 0.6-143.1-276.8 254.8-18.5zm-175.3-10.1l161.9-0.4-64.9-272.9-229.7 16.6z"/>
							</g>
						</g>
						<g id="&lt;Group&gt;">
							<g id="&lt;Group&gt;">
								<path id="&lt;Compound Path&gt;" fill-rule="evenodd" class="s3" d="m6662.6 692.3l-72.4-294.1 235-100-0.7 311.5zm-60-287.9l67.1 272.4 144.2-73.6 0.6-289z"/>
							</g>
						</g>
						<g id="&lt;Group&gt;">
							<g id="&lt;Group&gt;">
								<path id="&lt;Compound Path&gt;" fill-rule="evenodd" class="s3" d="m6632.1 698.3l-71.1-293.9 39.3-9.5 71.1 293.9zm-58.3-286.1l66.1 273.2 18.7-4.5-66.1-273.2z"/>
							</g>
						</g>
						<g id="&lt;Group&gt;">
							<g id="&lt;Group&gt;">
								<path id="&lt;Path&gt;" class="s3" d="m6576.7 406.1l-5.2-21.5 2-2.1c0.6-0.7 16-17.2 48.3-36.1 29.7-17.3 79.9-40 150.8-49.8l1.5-0.2 24.9 10.4-4.1 9.8-22.2-9.3c-68.2 9.6-116.5 31.4-145.1 48-24.8 14.4-39.4 27.6-44.4 32.4l3.9 15.9z"/>
							</g>
						</g>
						<g id="&lt;Group&gt;">
							<g id="&lt;Group&gt;">
								<path id="&lt;Path&gt;" class="s3" d="m6576.7 406.1l-3.8-15.9c-6.6-2-25.6-7-54.3-8.5-33-1.7-85.9 1-150.9 23.6l-15.6 18.5-8.1-6.9 17.4-20.6 1.4-0.5c67.5-23.7 122.6-26.5 156.9-24.7 37.4 2.1 58.6 9.7 59.5 10l2.7 1 5.2 21.5z"/>
							</g>
						</g>
						<g id="&lt;Group&gt;">
							<g id="&lt;Group&gt;">
								<path id="&lt;Path&gt;" class="s3" d="m6582.7 386.5l-10.6-0.8c0.1-2.1 4.8-52.9 97.8-82.6 87.5-28 109.8-49.7 110-49.9l13.1-13.1-4.1 18-10.4 45-10.3-2.4 7.1-31c-14.6 9.4-44.8 25.1-102.1 43.5-45 14.3-67.2 33.6-78 47.3-11.4 14.5-12.5 25.9-12.5 26z"/>
							</g>
						</g>
						<g id="&lt;Group&gt;">
							<g id="&lt;Group&gt;">
								<path id="&lt;Path&gt;" class="s3" d="m6575.7 444.4l-2.5-10.4 29.4-7.1 2.5 10.3z"/>
							</g>
						</g>
						<g id="&lt;Group&gt;">
							<g id="&lt;Group&gt;">
								<path id="&lt;Path&gt;" class="s3" d="m6581.5 468.4l-2.5-10.3 29.4-7.1 2.5 10.3z"/>
							</g>
						</g>
						<g id="&lt;Group&gt;">
							<g id="&lt;Group&gt;">
								<path id="&lt;Path&gt;" class="s3" d="m6627.9 661.8l-2.4-10.3 29.5-6.9 2.4 10.3z"/>
							</g>
						</g>
						<g id="&lt;Group&gt;">
							<g id="&lt;Group&gt;">
								<path id="&lt;Path&gt;" class="s3" d="m6622.2 637.7l-2.4-10.3 29.5-6.9 2.4 10.3z"/>
							</g>
						</g>
						<g id="&lt;Group&gt;">
							<path id="&lt;Path&gt;" class="s3" d="m6590.3 391.4c2.6-2.9 5.5-5.5 8.4-8.1q4.4-3.8 9.1-7.3c6.3-4.6 12.8-8.9 19.6-12.8l5.1-2.8c1.7-1 3.4-1.8 5.1-2.7q5.2-2.7 10.5-5.1c3.6-1.6 7.2-3 10.8-4.5 3.6-1.3 7.3-2.6 11-3.8-3.3 2-6.8 3.8-10.2 5.6l-5.1 2.8c-1.7 0.9-3.4 1.8-5.1 2.7q-2.5 1.4-5.1 2.8c-1.7 0.9-3.3 1.9-5 2.8-3.4 1.8-6.7 3.8-10 5.7-6.7 3.8-13.3 7.8-19.8 11.9-6.5 4.1-13 8.3-19.3 12.8z"/>
						</g>
						<g id="&lt;Group&gt;">
							<path id="&lt;Path&gt;" class="s3" d="m6651.3 364.9c8.4-6.5 17.5-11.9 26.8-16.9q14.1-7.6 28.7-13.7c2.5-1 4.9-2 7.4-3l3.7-1.4 3.7-1.4 7.5-2.6q3.8-1.3 7.6-2.5c5-1.6 10.1-2.9 15.2-4.3q2-0.6 3.9-1l3.9-0.9q3.8-0.9 7.7-1.6c-4.9 1.9-9.9 3.5-14.9 5.3l-7.4 2.7c-1.2 0.5-2.5 0.9-3.7 1.4l-3.7 1.4q-3.7 1.4-7.4 2.7l-7.3 2.9-3.7 1.5-3.6 1.5c-2.5 1-4.9 1.9-7.3 3-9.7 4-19.3 8.3-28.9 12.7-9.5 4.5-18.9 9.1-28.2 14.2z"/>
						</g>
						<g id="&lt;Group&gt;">
							<path id="&lt;Path&gt;" class="s3" d="m6575.4 392.4c-8.3-0.3-16.6-0.7-24.9-1.3l-24.7-1.5-24.7-1.5-24.9-1.2c8.3-1.2 16.6-1.7 24.9-1.9 8.3-0.1 16.6 0.1 24.9 0.6q12.5 0.8 24.8 2.5c8.3 1.1 16.5 2.4 24.6 4.3z"/>
						</g>
						<g id="&lt;Group&gt;">
							<path id="&lt;Path&gt;" class="s3" d="m6532.6 400c-11.6 0.5-23.2 0.8-34.8 1.1l-17.4 0.4-8.7 0.2-8.7 0.2c-5.8 0.2-11.6 0.3-17.4 0.6-2.9 0.1-5.8 0.1-8.7 0.2q-4.3 0.2-8.7 0.4c-11.6 0.5-23.2 1.1-34.8 1.8 11.4-2.4 23-3.8 34.6-4.9 5.8-0.6 11.6-1 17.4-1.3q4.4-0.3 8.7-0.4l8.8-0.3c5.8-0.1 11.6-0.3 17.4-0.3q4.4 0 8.8 0.1 4.3 0 8.7 0.2c11.6 0.3 23.2 0.8 34.8 2z"/>
						</g>
					</g>
					<g id="&lt;Group&gt;">
						<g id="&lt;Group&gt;">
							<g id="&lt;Group&gt;">
								<path id="&lt;Path&gt;" class="s3" d="m7026.2 784.4c-4.5-24.9-18.4-46.6-39.1-61.1-20.8-14.5-45.9-20-70.8-15.5l-1.9-10.5c27.7-4.9 55.7 1.2 78.7 17.3 23.1 16.1 38.6 40.2 43.5 67.9z"/>
							</g>
							<g id="&lt;Group&gt;">
								<path id="&lt;Path&gt;" class="s3" d="m6994.3 793c-3.1-17-12.5-31.8-26.7-41.7-14.2-9.9-31.4-13.7-48.4-10.6l-1.9-10.5c19.8-3.5 39.8 0.9 56.3 12.4 16.6 11.5 27.6 28.7 31.1 48.5z"/>
							</g>
							<g id="&lt;Group&gt;">
								<path id="&lt;Path&gt;" class="s3" d="m6962.4 801.6c-3.4-18.8-21.4-31.4-40.3-28l-1.8-10.5c24.6-4.4 48.1 12.1 52.5 36.7z"/>
							</g>
						</g>
						<g id="&lt;Group&gt;">
							<path id="&lt;Path&gt;" class="s3" d="m6943 809.5c-4.1 6-12.3 7.5-18.3 3.3-6-4.2-7.4-12.4-3.3-18.3 4.2-6 12.4-7.5 18.4-3.3 5.9 4.1 7.4 12.4 3.2 18.3z"/>
						</g>
					</g>
					<g id="&lt;Group&gt;">
						<g id="&lt;Group&gt;">
							<path id="&lt;Path&gt;" class="s3" d="m7078.3 1715.5l-7.8-7.2 46.4-49.4 7.7 7.2z"/>
						</g>
						<g id="&lt;Group&gt;">
							<path id="&lt;Path&gt;" class="s3" d="m7068 1770.6l-48.2-51.4 7.8-7.2 48.2 51.3z"/>
						</g>
						<g id="&lt;Group&gt;">
							<path id="&lt;Path&gt;" class="s3" d="m7084.4 1799l-7-8.1 32.6-28 6.9 8.1z"/>
						</g>
						<g id="&lt;Group&gt;">
							<path id="&lt;Path&gt;" class="s3" d="m6941.4 1692.3l-54.5-13.5 2.5-10.3 54.6 13.5z"/>
						</g>
						<g id="&lt;Group&gt;">
							<path id="&lt;Path&gt;" class="s3" d="m6965.2 1722.3l-10.6-1.4 8-59.1 10.5 1.4z"/>
						</g>
						<g id="&lt;Group&gt;">
							<path id="&lt;Path&gt;" class="s3" d="m6973.3 1760.6l-46.4-14.3 3.1-10.1 46.4 14.3z"/>
						</g>
						<g id="&lt;Group&gt;">
							<path id="&lt;Path&gt;" class="s3" d="m6989.9 1782.5l-10.2-3.1 9.3-30.6 10.2 3.1z"/>
						</g>
						<g id="&lt;Group&gt;">
							<path id="&lt;Path&gt;" class="s3" d="m7182.8 1678.7l-2.9-10.2 59.7-16.8 2.9 10.2z"/>
						</g>
						<g id="&lt;Group&gt;">
							<g id="&lt;Group&gt;">
								<path id="&lt;Path&gt;" class="s3" d="m6997.6 1796.4c-0.7-2.3-16.3-57.7-13.3-139 1.7-47.8 9.5-94.5 23.3-138.8 17.2-55.4 43.7-107.3 78.8-154.1l4.2-5.7 4.3 5.7c1.1 1.5 27.6 37.4 45.9 108.9 10.6 41.8 16.2 87.2 16.6 134.8 0.4 59.5-7.4 122.7-23.2 188l-10.3-2.5c35.3-145.8 23-253.2 6.6-317.7-13.6-53.1-32-86.3-40.1-99.1-74 101.9-92.9 208.4-95.5 280.4-3 79.8 12.8 135.6 12.9 136.2z"/>
							</g>
							<g id="&lt;Group&gt;">
								<path id="&lt;Path&gt;" class="s3" d="m7075.9 1795.2l-10.6-0.5 14.5-319.3 10.6 0.5z"/>
							</g>
							<g id="&lt;Group&gt;">
								<path id="&lt;Path&gt;" class="s3" d="m7076.6 1572.2l-31.5-43.1 8.5-6.2 31.6 43z"/>
							</g>
							<g id="&lt;Group&gt;">
								<path id="&lt;Path&gt;" class="s3" d="m7085 1612.8l-8.2-6.8 39.9-47.7 8.1 6.8z"/>
							</g>
							<g id="&lt;Group&gt;">
								<path id="&lt;Path&gt;" class="s3" d="m7072.2 1679l-44.1-46.5 7.7-7.3 44.1 46.5z"/>
							</g>
							<g id="&lt;Group&gt;">
								<path id="&lt;Path&gt;" class="s3" d="m6950.8 1799.1c-1.2-0.9-31-24.5-59.3-66.8-16.6-24.8-29.2-51-37.5-77.8-10.4-33.5-13.9-68.1-10.4-102.7l0.5-5.7 5.7 1c0.9 0.2 23.1 4.3 52 18.9 26.7 13.5 64.4 38.9 92.5 83.2l-9 5.7c-26.7-42.2-62.5-66.4-87.9-79.3-19.3-9.7-35.6-14.7-43.8-16.8-5.4 72.3 22.1 130.7 46.5 167.3 27.4 41 57 64.5 57.3 64.7z"/>
							</g>
							<g id="&lt;Group&gt;">
								<path id="&lt;Path&gt;" class="s3" d="m6984.8 1796.6c-0.5-1.2-42.6-126.6-106.9-193.9l7.7-7.3c34.5 36.1 62.4 88 79.7 125.2 18.7 40.2 29.4 72.4 29.5 72.7z"/>
							</g>
							<g id="&lt;Group&gt;">
								<path id="&lt;Path&gt;" class="s3" d="m6904.8 1633.9l-36.7-12.2 3.4-10 36.6 12.1z"/>
							</g>
							<g id="&lt;Group&gt;">
								<path id="&lt;Path&gt;" class="s3" d="m6917 1652.5l-3.6-46.4 10.6-0.8 3.6 46.4z"/>
							</g>
							<g id="&lt;Group&gt;">
								<path id="&lt;Path&gt;" class="s3" d="m7192.1 1799.6l-5.3-9.2c0.3-0.2 28-16.5 54-61.8 23.6-41.2 50.6-115.5 46.2-236.2-9 2.6-27.3 8.7-47.7 21.5-26.6 16.6-62.4 48.3-82.2 104.6l-10-3.6c20.9-59.4 58.8-92.7 87-110.3 30.5-19 55.9-23.9 57-24.1l6-1.1 0.3 6.1c2.5 56.3-1.4 107.7-11.6 152.9-8.1 36.3-20.4 68.7-36.3 96.3-27.4 47.5-56.2 64.2-57.4 64.9z"/>
							</g>
							<g id="&lt;Group&gt;">
								<path id="&lt;Path&gt;" class="s3" d="m7157.3 1795.6l-10.5-1.3c0-0.4 5-42 20.7-94.9 14.6-49 41.6-118 87.7-168.8l7.8 7.1c-44.7 49.3-71 116.7-85.3 164.5-15.4 52.1-20.3 93-20.4 93.4z"/>
							</g>
							<g id="&lt;Group&gt;">
								<path id="&lt;Path&gt;" class="s3" d="m7226.9 1585.7l-10.6-0.3 0.8-42.1 10.6 0.2z"/>
							</g>
							<g id="&lt;Group&gt;">
								<path id="&lt;Path&gt;" class="s3" d="m7210.1 1614.4l-3.3-10.1 50.7-16.5 3.2 10.1z"/>
							</g>
							<g id="&lt;Group&gt;">
								<path id="&lt;Path&gt;" class="s3" d="m7186.5 1646.7l-5.7-53.2 10.5-1.2 5.7 53.3z"/>
							</g>
							<g id="&lt;Group&gt;">
								<path id="&lt;Path&gt;" class="s3" d="m7167.6 1702.5l-16.8-48.7 10-3.5 16.9 48.7z"/>
							</g>
						</g>
						<g id="&lt;Group&gt;">
							<path id="&lt;Path&gt;" class="s3" d="m7165.9 1738.1l-3.3-10.1 65.1-21.2 3.3 10.1z"/>
						</g>
						<g id="&lt;Group&gt;">
							<path id="&lt;Path&gt;" class="s3" d="m7152.3 1768.3l-16-27.2 9.1-5.4 16 27.3z"/>
						</g>
					</g>
				</g>
				<g id="&lt;Group&gt;">
					<g id="&lt;Group&gt;">
						<path id="&lt;Path&gt;" class="s4" d="m6939.3 657.7h-44c63.2 0 114.5 51.3 114.5 114.5v772.4c0 63.2-51.3 114.5-114.5 114.5h44c63.2 0 114.4-51.3 114.4-114.5v-772.4c0-63.2-51.2-114.5-114.4-114.5z"/>
						<path id="&lt;Path&gt;" class="s5" d="m6009.7 1744.9c-15.4 0-28 12.6-28 28 0 7.7 3.1 14.7 8.2 19.8 5 5.1 12.1 8.2 19.8 8.2h545.1c15.5 0 28-12.6 28-28 0-7.7-3.1-14.7-8.2-19.8-5.1-5.1-12.1-8.2-19.8-8.2h-14.6-37.3-292.6z"/>
						<path id="&lt;Path&gt;" class="s4" d="m6601 1744.9h-46.2c7.7 0 14.7 3.1 19.8 8.2 5.1 5.1 8.2 12.1 8.2 19.8 0 15.4-12.5 28-28 28h46.2c7.7 0 14.7-3.1 19.7-8.2 5.1-5.1 8.3-12.1 8.3-19.8 0-15.4-12.6-28-28-28z"/>
						<path id="&lt;Path&gt;" class="s3" d="m6458 1659.1l44.9 85.8h37.3l-44.9-85.8z"/>
						<path id="&lt;Path&gt;" class="s4" d="m6165.5 1659.1l44.8 85.8h292.6l-44.9-85.8z"/>
						<path id="&lt;Compound Path&gt;" fill-rule="evenodd" class="s5" d="m5655.6 657.7h1239.7c63.2 0 114.5 51.3 114.5 114.5v772.4c0 63.2-51.3 114.5-114.5 114.5h-1239.7c-63.2 0-114.5-51.3-114.5-114.5v-772.4c0-63.2 51.3-114.5 114.5-114.5zm0 870.6h1239.7c44.1 0 79.8-35.9 79.8-79.9v-676.2c0-44-35.7-79.8-79.8-79.8h-1239.7c-44 0-79.8 35.8-79.8 79.8v676.2c0 44 35.8 79.9 79.8 79.9z"/>
						<path id="&lt;Path&gt;" class="s6" d="m6975.1 772.2v676.2c0 31.9-18.7 59.5-45.8 72.2-10.4 4.9-21.9 7.6-34 7.6h-1239.7c-44 0-79.9-35.8-79.9-79.8v-676.2c0-39.6 29.1-72.6 67-78.8q6.3-1.1 12.9-1.1h1239.7q6.6 0 12.9 1.1c37.9 6.2 66.9 39.2 66.9 78.8z"/>
						<g id="&lt;Clip Group&gt;" clip-path="url(#cp2)">
							<g id="&lt;Group&gt;">
								<path id="&lt;Path&gt;" class="s7" d="m6048.7 1634.2h-394.1v-30.3h394.1z"/>
								<path id="&lt;Path&gt;" class="s8" d="m5852.6 1562.8l-196 41.1h392.1z"/>
								<path id="&lt;Path&gt;" class="s7" d="m5892.5 1569h-79.7v-34.4h79.7z"/>
								<path id="&lt;Path&gt;" class="s7" d="m5892.5 1500.1h-79.6v-34.5h79.6z"/>
								<path id="&lt;Path&gt;" class="s8" d="m5876.1 1534.6h-46.9v-34.5h46.9z"/>
								<path id="&lt;Path&gt;" class="s9" d="m5785.9 1407.7l-24.8-10.9c-0.2-0.1-0.5 0-0.6 0.3l-27 61.3c-0.1 0.2 0 0.5 0.2 0.6l24.8 10.9c0.2 0.1 0.5 0 0.6-0.2l27-61.3c0.1-0.3 0-0.6-0.2-0.7z"/>
								<path id="&lt;Path&gt;" class="s9" d="m5984.8 955.7l-24.8-10.9c-0.2-0.1-0.3-0.4-0.2-0.7l27-61.3c0.1-0.2 0.4-0.3 0.6-0.2l24.8 10.9c0.2 0.1 0.3 0.4 0.2 0.6l-27 61.3c-0.1 0.3-0.3 0.4-0.6 0.3z"/>
								<g id="&lt;Group&gt;">
									<path id="&lt;Path&gt;" class="s7" d="m5846.4 1471c-41.9 0-83.7-8.8-123.2-26.1-4.8-2.1-6.9-7.6-4.8-12.3 2.1-4.8 7.6-6.9 12.3-4.8 70.3 30.9 148.4 32.6 220 4.8 71.6-27.8 128-81.9 159-152.2 63.8-145.1-2.3-315.1-147.4-379-4.7-2-6.8-7.6-4.8-12.3 2.1-4.7 7.6-6.8 12.3-4.7 154.6 68 225 249 157 403.5-33 74.9-93.1 132.5-169.3 162.1-36 14-73.6 21-111.1 21z"/>
								</g>
								<g id="&lt;Group&gt;">
									<path id="&lt;Path&gt;" class="s4" d="m5646.7 1310.3c0.8 15.4 0 42.6 0 42.6l-0.1 0.1c-51-49.1-82.6-117.9-82.6-194.2q0-11.1 0.9-21.9c0 1.5 0.4 12.4 10.3 21.9 10.8 10.2 15.4 14.1 23.1 18.3 7.6 4.2 30.7 18.1 30.7 18.1 0 0 4.6 1.5 17.7 18.4 13 16.9 25.3 23.1 28.4 32.3 3.1 9.2 9.2 17.6 9.2 17.6 0 0-23 31.5-27.6 34.6-4.6 3-10.8-3.1-10 12.2z"/>
									<path id="&lt;Compound Path&gt;" fill-rule="evenodd" class="s4" d="m5930.1 1391.8c2.9 15.9 9.9 14.2 10.8 13.9v0.1c-32.9 14.3-69.4 22.3-107.6 22.3 0 0 9.2-13.3 16.7-28.6 7.4-15.4-1.3-10.8-4.4-41.5-3.1-30.7 0 0 1.9-4.6 2-4.6 4.2-18.4 0-30.7-3.8-11.3-0.6-9.7 0-9.3-1.8-1.6-29.8-26.6-38.8-41.2-3.4-5.7-5.1-8.4-5.9-9.6 0.3-3 1.3-12.1 1.3-18.3 0-6.1-16.8-3-21.5-3-4.6 0-23 4.6-35.5 6.1-12.4 1.5-19.8 32.2-19.8 23 0-9.2-7.7-6.1-10.8-6.9-3-0.7-7.6-10-10.7-17.6-3.1-7.7-7.7-4.6-13.8-12.3-6.2-7.7-10.8-10.8-16.9-27.7-6.2-16.9-10.8-10.7-23-35.3-12.3-24.6 0 0 3-11.8 3.1-11.8 7.7-6.7 18.6-15.9 10.8-9.2 15.2-3.1 15.2-3.1 0 0 10.7 7.7 16.9 19 6.1 11.3 26.1 8.7 26.1 8.7 0 0 0 0-4.6-13.8-1.1-3.2-1.6-5-1.9-5.8l-0.3-0.8c-0.1-0.5-0.4-1.3-0.9-2.7-3.1-9.2-21.5-32.2-6.1-49.1 15.3-16.9 15.3-10.7 26.1-27.6 10.8-16.9 21.5-12.3 33.8-10.8 12.3 1.6 9.3 1.6 29.2 0 20-1.5 23-1.5 29.2-23 6.1-21.6 0 0-3.1-20-3.1-20 0-16.9 0-34 0-17.1-7.7-1.4-18.4 0-10.8 1.4-13.8 1.7-20 6.3-6.1 4.6-15.3 16.9-27.6 20-12.3 3-7.7 0-24.6-6.2-17-6.3 0-15.3 3-29.1 3.1-13.9 14.9 0 14.9 0 0 0 5.1-6.2 14.4-12.3 9.2-6.2 15.3-3.1 30.7-12.5 15.3-9.4 6.1 4.8 27.6 0 21.5-4.8 12.3-10.1 12.3-10.1v-9.9c0 0-15.4 1.8-29.2 0.2-13.8-1.5-38.4 3.1-59.9 13.1-21.5 10.1-13.8 6.9-20 2.5-6.1-4.5-41.5-1.7-62.8 0 44.7-33 99.9-52.4 159.6-52.4 73.4 0 140 29.3 188.6 77-3.5-3-36.5 9.1-39.6 18.2-3 9.2 1.6 12.3-9.2 23-10.7 10.8-10.7 10.8-35.3 20-24.6 9.2-21.5-4.6-35.4 16.9-13.8 21.5-16.9 26.1-13.8 36.9 3.1 10.7-1.5 29.2 20 23 21.5-6.1 13.8-26.1 36.9-18.4 23 7.7 44.1 9.2 44.1 9.2 0 0-8-23 0-27.6 8.1-4.6 22.8 3 32.3 10.7 9.6 7.7 9.6 6.2 15.7 15.4 6.2 9.2 12.3 13.2 16.9 11.9 4.6-1.2 21.6-25.7 21.6-25.7l9.9-14.7c8.7 23.5 14.2 48.5 16 74.5h-0.1c-16.6-10.7-19.7-9.2-45.8-9.2-26.2 0-29.3 6-52.3 0-23-6.1-21.5-10.7-49.1-9.2-27.7 1.5-23-3.4-40 9-16.9 12.5-26.1-0.3-30.7 28.4-4.6 28.7-12.3 24.1 0 48.7 12.3 24.5 12.3 19.9 24.6 44.5 12.3 24.6 21.5 4.6 16.9 39.9-4.6 35.4-4.6 41.5-4.6 47.7 0 6.1-3.1 24.6-3.1 32.3 0 7.6 9.1 2.7 12.3 19.9zm-1.5-382.6v-24.5c-9.2 0 4.6-10.8-9.2 0-13.9 10.7-18.5 23-21.6 27.6-3.1 4.6-10.3 7.7-10.3 7.7z"/>
									<path id="&lt;Path&gt;" class="s10" d="m5847.5 1353.4c-1.9 4.6-5-26.1-1.9 4.6 3.1 30.7 11.8 26.1 4.4 41.5-7.5 15.3-16.7 28.6-16.7 28.6-72.5 0-138.3-28.6-186.7-75.1l0.1-0.1c0 0 0.8-27.2 0-42.6-0.8-15.3 5.4-9.2 10-12.2 4.6-3.1 27.6-34.6 27.6-34.6 0 0-6.1-8.4-9.2-17.6-3.1-9.2-15.4-15.4-28.4-32.3-13.1-16.9-17.7-18.4-17.7-18.4 0 0-23.1-13.9-30.7-18.1-7.7-4.2-12.3-8.1-23.1-18.3-9.9-9.5-10.3-20.4-10.3-21.9 6.4-80 47.8-150.1 108.8-195 21.3-1.7 56.7-4.5 62.8 0 6.2 4.4-1.5 7.6 20-2.5 21.5-10 46.1-14.6 59.9-13.1 13.8 1.6 29.2-0.2 29.2-0.2v9.9c0 0 9.2 5.3-12.3 10.1-21.5 4.8-12.3-9.4-27.6 0-15.4 9.4-21.5 6.3-30.7 12.5-9.3 6.1-14.4 12.3-14.4 12.3 0 0-11.8-13.9-14.9 0-3 13.8-20 22.8-3 29.1 16.9 6.2 12.3 9.2 24.6 6.2 12.3-3.1 21.5-15.4 27.6-20 6.2-4.6 9.2-4.9 20-6.3 10.7-1.4 18.4-17.1 18.4 0 0 17.1-3.1 14 0 34 3.1 20 9.2-1.6 3.1 20-6.2 21.5-9.2 21.5-29.2 23-19.9 1.6-16.9 1.6-29.2 0-12.3-1.5-23-6.1-33.8 10.8-10.8 16.9-10.8 10.7-26.1 27.6-15.4 16.9 3 39.9 6.1 49.1 0.5 1.4 0.8 2.2 0.9 2.7l0.3 0.8c0.3 0.8 0.8 2.6 1.9 5.8 4.6 13.8 4.6 13.8 4.6 13.8 0 0-20 2.6-26.1-8.7-6.2-11.3-16.9-19-16.9-19 0 0-4.4-6.1-15.2 3.1-10.9 9.2-15.5 4.1-18.6 15.9-3 11.8-15.3-12.8-3 11.8 12.2 24.6 16.8 18.4 23 35.3 6.1 16.9 10.7 20 16.9 27.7 6.1 7.7 10.7 4.6 13.8 12.3 3.1 7.6 7.7 16.9 10.7 17.6 3.1 0.8 10.8-2.3 10.8 6.9 0 9.2 7.4-21.5 19.8-23 12.5-1.5 30.9-6.1 35.5-6.1 4.7 0 21.5-3.1 21.5 3 0 6.2-1 15.3-1.3 18.3-0.5-0.6-0.6-0.8-0.7-0.7 0 0.2 0.5 1.3 0.5 1.6 0-0.1 0.1-0.4 0.2-0.9 0.8 1.2 2.5 3.9 5.9 9.6 9 14.6 37 39.6 38.8 41.2-0.6-0.4-3.8-2 0 9.3 4.2 12.3 2 26.1 0 30.7z"/>
									<path id="&lt;Path&gt;" class="s10" d="m5940.9 1405.7c-0.9 0.3-7.9 2-10.8-13.9-3.2-17.2-12.3-12.3-12.3-19.9 0-7.7 3.1-26.2 3.1-32.3 0-6.2 0-12.3 4.6-47.7 4.6-35.3-4.6-15.3-16.9-39.9-12.3-24.6-12.3-20-24.6-44.5-12.3-24.6-4.6-20 0-48.7 4.6-28.7 13.8-15.9 30.7-28.4 17-12.4 12.3-7.5 40-9 27.6-1.5 26.1 3.1 49.1 9.2 23 6 26.1 0 52.3 0 26.1 0 29.2-1.5 45.8 9.2h0.1c0.4 6.3 0.7 12.6 0.7 19 0 110.5-66.6 205.5-161.8 247z"/>
									<path id="&lt;Path&gt;" class="s10" d="m5919.4 984.7c13.8-10.8 0 0 9.2 0v24.5l-41.1 10.8c0 0 7.2-3.1 10.3-7.7 3.1-4.6 7.7-16.9 21.6-27.6z"/>
									<path id="&lt;Path&gt;" class="s10" d="m6086 1065.2v0.1l-9.9 14.7c0 0-17 24.5-21.6 25.7-4.6 1.3-10.7-2.7-16.9-11.9-6.1-9.2-6.1-7.7-15.7-15.4-9.5-7.7-24.2-15.3-32.3-10.7-8 4.6 0 27.6 0 27.6 0 0-21.1-1.5-44.1-9.2-23.1-7.7-15.4 12.3-36.9 18.4-21.5 6.2-16.9-12.3-20-23-3.1-10.8 0-15.4 13.8-36.9 13.9-21.5 10.8-7.7 35.4-16.9 24.6-9.2 24.6-9.2 35.3-20 10.8-10.7 6.2-13.8 9.2-23 3.1-9.1 36.1-21.2 39.6-18.2 0 0 0 0 0 0 28.1 27.6 50.2 61.2 64.1 98.7z"/>
								</g>
							</g>
							<g id="&lt;Group&gt;">
								<g id="&lt;Group&gt;">
									<g id="&lt;Group&gt;">
										<path id="&lt;Path&gt;" class="s9" d="m6071.4 1228.7l69.4 62.6c1.9 1.7 4.9 1.6 6.6-0.3l50.6-56.1c1.7-1.9 1.6-4.9-0.4-6.7l-69.3-62.5c-1.9-1.7-4.9-1.6-6.6 0.3l-50.6 56.1c-1.8 1.9-1.6 4.9 0.3 6.6z"/>
										<path id="&lt;Path&gt;" class="s9" d="m6171.6 1221.3c8-1.3 15.1 13.9 13.8 6l-6.8-54c-1.4-8-9-13.4-16.9-12.1-8 1.3-13.4 8.9-12.1 16.9l5.2 31.1c1.3 8 8.9 13.4 16.8 12.1z"/>
										<path id="&lt;Path&gt;" class="s9" d="m6152.4 1207.2c5.4-6 4.9-15.3-1.1-20.8l-23.4-21.1c-6-5.4-15.3-4.9-20.8 1.1-5.4 6-4.9 15.3 1.1 20.7l23.4 21.1c6 5.5 15.4 5 20.8-1z"/>
										<path id="&lt;Path&gt;" class="s9" d="m6125.3 1207.4c5.4-6 5-15.3-1-20.7l-23.4-21.1c-6-5.5-15.4-5-20.8 1-5.4 6-4.9 15.3 1.1 20.8l23.4 21.1c6 5.4 15.3 4.9 20.7-1.1z"/>
										<path id="&lt;Path&gt;" class="s9" d="m6118.7 1226.1c5.4-6 4.9-15.4-1.1-20.8l-23.4-21.1c-6-5.4-15.4-4.9-20.8 1.1-5.4 6-4.9 15.3 1.1 20.7l23.4 21.1c6 5.4 15.3 5 20.8-1z"/>
										<path id="&lt;Path&gt;" class="s9" d="m6119.8 1251.7c5.4-6 4.9-15.3-1.1-20.7l-23.4-21.1c-6-5.4-15.3-5-20.7 1-5.4 6-5 15.4 1 20.8l23.4 21.1c6 5.4 15.4 4.9 20.8-1.1z"/>
									</g>
									<path id="&lt;Path&gt;" class="s11" d="m6382.6 1217.4c63.7-88.3 159.6-105.2 171.4-106.9-83.5 14.5-147.6 85.7-151 172.4q-0.2 3.7-0.2 7.5v109.2c-140.3 78.7-270.3-111.2-270.3-111.2l64.8-60.2c52.5 57.1 117.3 83.4 185.3-10.8z"/>
									<path id="&lt;Path&gt;" class="s10" d="m6914.1 1436c0 113.6-28.4 206.2-116.9 291.5-3-0.9-12-2.9-34.8-24.9-14.4-13.8-24.2-45.2-24.2-45.2 0 0 4.6-7.6 11.2-20.6l-32.1 0.1-198.7 0.1-113.1 0.2c-9.5 0-17-8-16.4-17.5l13.7-220.1v-109.2q0-3.7 0.2-7.5c3.4-86.7 67.5-157.9 151-172.4q0.6-0.1 1.1-0.2c9.9-1.6 20-2.5 30.3-2.5h64.7c10.2 0 20.4 0.9 30.2 2.5 13.4 2.2 26.4 5.9 38.7 11 105.5 37.4 195 168.8 195.1 314.7z"/>
									<path id="&lt;Path&gt;" class="s12" d="m6689.6 1637.2h-198.8v-0.2l33-491.8c0 0 23.5-37.4 33.8-37.4h64.7c10.3 0 20.4 0.9 30.2 2.5l2.5 35.9 34.5 490.7z"/>
									<path id="&lt;Path&gt;" class="s10" d="m6525.6 1116.6l-34.8 581.6-109.1-23.3 40.7-287.4c0 0 15-91.9 28.8-142.8 13.7-51 74.4-128.1 74.4-128.1z"/>
									<path id="&lt;Path&gt;" class="s10" d="m6652.5 1110.3l37.1 587.6 130.4-14.7c0 0 19.4-95 37.5-184.2 18.1-89.2 1.6-244.9-43.7-288.5-45.2-43.6-161.3-100.2-161.3-100.2z"/>
									<path id="&lt;Path&gt;" class="s11" d="m6708.9 1287.4c0 0 20.7 45.7 36.1 116.7 15.5 71-6.8 253.3-6.8 253.3l11.2-21.7c0 0 50.7-104.2 43.2-168.3-7.4-64-32.5-120.8-83.7-180z"/>
									<g id="&lt;Group&gt;">
										<path id="&lt;Path&gt;" class="s8" d="m6137.8 1204.2l2.1-2.1-33.7-33.8-2.2 2.1z"/>
									</g>
									<g id="&lt;Group&gt;">
										<path id="&lt;Path&gt;" class="s8" d="m6109.5 1216.3l2.2-2.2-33.1-33-2.2 2.1z"/>
									</g>
									<g id="&lt;Group&gt;">
										<path id="&lt;Path&gt;" class="s8" d="m6105.4 1238.7l2.2-2.1-28.5-28.4-2.1 2.1z"/>
									</g>
								</g>
								<g id="&lt;Group&gt;">
									<path id="&lt;Path&gt;" class="s9" d="m6655.2 1153.4c-15.8 7.7-39.7 11.4-65.4 11.4-26.8 0-50.8-5.2-66.6-13.4l2.1-32.1 0.2-2.7c0 0 0.1 0 0.1 0h-0.1c0 0 1.6-0.6 3.5-1.9 3.2-2.2 7.4-6.4 7-13.5-0.1-3.4-3.3-13.1-3.3-13.1l-3.6-13.6-0.1-0.2-12.8-49.5 128.9-11.3c0 0-11 59.2-9.3 81.2 1.2 14.5 17.1 13.1 17.1 13.1z"/>
									<path id="&lt;Path&gt;" class="s8" d="m6626.5 1051.8c0 0-9.7 52-81.8 64.8-4.6 0.8-13.5 2.1-19.4 2.7l0.2-2.7c0 0 0.1 0 0.1 0h-0.1c0 0 1.6-0.6 3.5-1.9 3.2-2.2 7.4-6.4 7-13.5-0.1-3.4-3.6-14.1-3.6-14.1 0 0 69.4 6.7 94.1-35.3z"/>
									<path id="&lt;Path&gt;" class="s9" d="m6669.8 973.1c-2.1 60-39.8 115.4-99.7 113.2-59.9-2.1-112.7 0-117.3-121-3.2-83.9 52.5-106.7 112.4-104.6 60 2.2 106.8 52.5 104.6 112.4z"/>
									<path id="&lt;Path&gt;" class="s13" d="m6468.2 926.6c4.8 3.5 12.1 6.4 23.2 7.6 39 4.1 109.9-27.8 109.9-27.8 0 0-7 21.1-4.6 59.2 0 0 12.5-24.2 30.4-1 16 20.8-6.8 45.4-20.5 40 0 0-6.3 47.2-29.9 51.4-23.5 4.3-28.1-17.7-63.3-26.6-35.3-8.9-47.2 9.3-47.2 9.3 30.5 72 132.6 45.6 132.6 45.6 0 0 12.7 12.8 39.9 10 27.2-2.8 32.6-61.5 32.6-61.5 18.4 6.6 39.3-29.6 42.5-84.8 3.2-55.1-47.9-56.8-47.9-56.8 0 0 6.1-38.6-53.8-60.2-58.2-21-79 1.6-80 2.8 0.5-1.8 11.8-39.5-18.8-40-31.3-0.6-27.4 31.5-27.4 31.5-34.9-31.7-84.8 11.4-75.8 47.6 9 36.3 50.5 32.4 50.5 32.4 0 0-4.2 12.6 7.6 21.3z"/>
									<path id="&lt;Path&gt;" class="s13" d="m6597.1 931c0 0-1.6 37.6 0.3 61.3 2 23.7 3.6 47.9-11.7 59.6 0 0 29.2-8.6 21.3-50.7-8-42.1-5.6-45-0.6-58.6 5-13.5-9.3-11.6-9.3-11.6z"/>
								</g>
								<path id="&lt;Compound Path&gt;" fill-rule="evenodd" class="s14" d="m6215.5 1245.2q0 0.2-0.1 0.3-0.1 0.1-0.2 0.2 0 0 0 0 0 0.1 0 0.1l-12.4 11.2q0 0 0 0 0 0 0 0l-6.2 5.7q0 0 0 0 0 0 0 0l-12.4 11.2q0 0 0 0 0 0 0 0l-6.2 5.7-31 28.1q0 0 0 0.1 0 0-0.1 0 0 0 0 0-0.4 0.3-0.9 0.3-0.3 0-0.6-0.1-0.1-0.1-0.2-0.2c-0.1 0-0.2-0.1-0.3-0.2q0 0 0-0.1-0.1 0-0.1 0l-13.6-18.2q0-0.1-0.1-0.2 0-0.1-0.1-0.3 0-0.1 0-0.2 0-0.2 0-0.3 0-0.2 0-0.3 0.1-0.1 0.1-0.3 0.1-0.1 0.2-0.2 0.1-0.1 0.1-0.2l29.9-27.1q0 0 0 0l6-5.4q0 0 0 0 0 0 0-0.1l11.9-10.8q0 0 0 0 0 0 0 0l5.9-5.4q0 0 0 0 0 0 0 0l12-10.8q0.1-0.1 0.2-0.2 0.1-0.1 0.3-0.1 0.1-0.1 0.2-0.1 0.2 0 0.3 0 0.2 0 0.3 0 0.2 0 0.3 0.1 0.1 0.1 0.3 0.2 0.1 0 0.2 0.1l16 15.9q0 0 0 0 0.1 0 0.1 0 0 0.1 0.1 0.2 0.1 0.2 0.2 0.3 0 0.2 0 0.3 0.1 0.1 0.1 0.3-0.1 0.1-0.1 0.3 0 0.1-0.1 0.2zm-3.6-0.6l-13.8-13.7-3.8 3.4 13.7 13.9zm-6.2 5.6l-13.6-13.9-3.8 3.4 13.5 14.1zm-6.2 5.6l-13.4-14.1-3.8 3.4 13.3 14.2zm-6.2 5.7l-13.3-14.3-3.7 3.4 13.1 14.4zm-6.2 5.6l-13.1-14.4-3.7 3.4 12.9 14.6zm-6.2 5.6l-12.9-14.6-3.7 3.4 12.7 14.8zm-6.2 5.6l-12.7-14.8-3.7 3.4 12.5 15zm-6.2 5.6l-12.5-15-3.7 3.4 12.3 15.2zm-6.2 5.6l-12.3-15.2-3.7 3.4 12.1 15.3zm-6.2 5.7l-12.1-15.4-3.7 3.4 11.9 15.5zm-6.2 5.6l-11.9-15.5-3.7 3.4 11.7 15.7z"/>
							</g>
							<g id="&lt;Group&gt;">
								<path id="&lt;Path&gt;" class="s15" d="m5963.1 863.5l31.1 134.8h378.7l70.7 57.5-79.7-192.3z"/>
								<g id="&lt;Group&gt;">
									<g id="&lt;Group&gt;">
										<path id="&lt;Path&gt;" class="s4" d="m6330.4 909.2h-265.5c-3.8 0-6.8-3.1-6.8-6.8 0-3.8 3-6.9 6.8-6.9h265.5c3.8 0 6.9 3.1 6.9 6.9 0 3.7-3.1 6.8-6.9 6.8z"/>
									</g>
									<g id="&lt;Group&gt;">
										<path id="&lt;Path&gt;" class="s4" d="m6322.5 934.7h-298.1c-3.8 0-6.8-3-6.8-6.8 0-3.8 3-6.8 6.8-6.8h298.1c3.7 0 6.8 3 6.8 6.8 0 3.8-3.1 6.8-6.8 6.8z"/>
									</g>
									<g id="&lt;Group&gt;">
										<path id="&lt;Path&gt;" class="s4" d="m6315 958.7h-298.1c-3.8 0-6.8-3.1-6.8-6.8 0-3.8 3-6.8 6.8-6.8h298.1c3.7 0 6.8 3 6.8 6.8 0 3.7-3.1 6.8-6.8 6.8z"/>
									</g>
								</g>
							</g>
						</g>
						<path id="&lt;Path&gt;" class="s4" d="m6975.1 772.2v16h-1399.4v-16c0-41 32.5-79.9 77.4-79.9h1245.5c33.8 0 76.5 30.4 76.5 79.9z"/>
						<path id="&lt;Path&gt;" class="s16" d="m5675.2 740.8c0 10-8.1 18.2-18.2 18.2-10 0-18.2-8.2-18.2-18.2 0-10 8.2-18.2 18.2-18.2 10.1 0 18.2 8.2 18.2 18.2z"/>
						<path id="&lt;Path&gt;" class="s16" d="m5769.2 740.8c0 10-8.2 18.2-18.2 18.2-10.1 0-18.2-8.2-18.2-18.2 0-10 8.1-18.2 18.2-18.2 10 0 18.2 8.2 18.2 18.2z"/>
						<path id="&lt;Path&gt;" class="s16" d="m5858.3 740.8c0 10-8.1 18.2-18.2 18.2-10 0-18.2-8.2-18.2-18.2 0-10 8.2-18.2 18.2-18.2 10.1 0 18.2 8.2 18.2 18.2z"/>
						<g id="&lt;Group&gt;" style="mix-blend-mode: soft-light">
							<path id="&lt;Path&gt;" class="s17" d="m6167.7 1528.2h-238.7l-269.2-835.9h238.7z"/>
							<path id="&lt;Path&gt;" class="s17" d="m6303.6 1528.2h-71.3l-269.2-835.9h71.2z"/>
							<path id="&lt;Path&gt;" class="s17" d="m6867.2 1528.2h-238.7l-269.3-835.9h238.7z"/>
							<path id="&lt;Path&gt;" class="s17" d="m6975.1 1441.9v6.5c0 31.9-18.7 59.5-45.8 72.2l-266.8-828.3h71.2z"/>
						</g>
					</g>
					<g id="&lt;Group&gt;">
						<g id="&lt;Group&gt;">
							<g id="&lt;Group&gt;">
								<path id="&lt;Path&gt;" class="s9" d="m5752.8 1738.8c0 0-8.2 26.5 0.3 59.1l28.3-2.4 80.5-6.1c0 0-2.4-12.9-2.4-28 0-13.8 2.4-27.9 2.4-27.9l-79.3 3.7z"/>
								<path id="&lt;Path&gt;" class="s18" d="m5744.3 1726.3c0 0-15.8 36.7 0 84.1l119.8-7.9c2.5-0.2 4.6-3.2 4.5-6.9-0.1-3.5-2.3-6.4-4.8-6.4q-0.1 0-0.2 0l-1.7 0.2-80.5 6.1-28.3 2.4c-8.5-32.6-0.3-59.1-0.3-59.1l29.8-1.6 79.3-3.7 2-0.1c2.5-0.2 4.5-3.1 4.5-6.7 0-3.6-2.1-6.6-4.7-6.6q-0.1 0-0.2 0z"/>
								<path id="&lt;Path&gt;" class="s19" d="m5387 1714.8h11.5l345.8 11.5 119.2-6.2-348-6.9z"/>
								<path id="&lt;Path&gt;" class="s19" d="m5387 1714.8c0 0-16.6 49.2-1.8 85.7h13.3l345.8 9.9c-15.8-47.4 0-84.1 0-84.1l-345.8-11.5z"/>
							</g>
							<path id="&lt;Path&gt;" class="s20" d="m5750.9 1755.6c12.5 0.6 24.9 0.2 37.3-0.5 12.4-0.7 24.8-1.7 37.2-3.6-12.5-0.6-24.9-0.2-37.3 0.4-12.4 0.8-24.8 1.7-37.2 3.7z"/>
							<path id="&lt;Path&gt;" class="s20" d="m5814.6 1775.5c6.9 0.6 13.8 0.3 20.6-0.3 6.8-0.7 13.6-1.7 20.3-3.6-6.9-0.6-13.8-0.2-20.6 0.4-6.8 0.7-13.6 1.6-20.3 3.5z"/>
							<path id="&lt;Path&gt;" class="s21" d="m5805.4 1785.9c5.1-8 4.2-26.2-1.8-33.6q-15.7 0.8-31.4 1.7c6 7.4 6.9 25.5 1.8 33.5 6.4-2.5 12.7-5.6 18.5-9.2 4.7 3 8.9 5.6 12.9 7.6z"/>
							<path id="&lt;Path&gt;" class="s21" d="m5715.1 1809.5c-14.8-36.5 1.8-84.1 1.8-84.1h-32.3c0 0-16.7 47.6-1.9 84.1z"/>
							<path id="&lt;Path&gt;" class="s21" d="m5443.4 1802.1c-14.8-36.5 1.9-84.1 1.9-84.1h-32.4c0 0-16.6 47.6-1.8 84.1z"/>
						</g>
						<g id="&lt;Group&gt;">
							<g id="&lt;Group&gt;">
								<path id="&lt;Path&gt;" class="s9" d="m5528.1 1653.9c0 0 11.5 26.6-0.4 59.2l-45-2.5-112.9-6.1v-0.1c0 0 3.5-12.8 3.5-27.9 0-13.8-3.5-27.9-3.5-27.9v-0.1l111.3 3.8z"/>
								<path id="&lt;Path&gt;" class="s10" d="m5367.5 1704.3l2.3 0.2 112.9 6.1 45 2.5c11.9-32.6 0.4-59.2 0.4-59.2l-47-1.6-111.3-3.8h-2.6c-3.6-0.2-6.4-3.1-6.4-6.7 0-3.6 2.9-6.6 6.5-6.6q0.2 0 0.3 0l167.1 6.2c0 0 22.1 36.7 0 84.1l-167.9-7.9c-3.6-0.2-6.4-3.2-6.3-6.9 0.2-3.6 3.1-6.4 6.7-6.4q0.1 0 0.3 0z"/>
								<path id="&lt;Path&gt;" class="s11" d="m5367.6 1635.2l458-5.8-2.6 0.1-288.3 11.9z"/>
								<path id="&lt;Path&gt;" class="s11" d="m5540.3 1641.2l282.7-11.7c14.1-0.5 25.9 10.7 25.9 24.8l0.2 35.3c0.1 13.4-10.5 24.5-23.9 25l-290.5 10.9c22.1-47.4 0-84.1 0-84.1z"/>
							</g>
							<path id="&lt;Path&gt;" class="s20" d="m5527.3 1676.7c-8.7 0.6-17.4 0.7-26.1 0.6-8.7-0.1-17.4-0.4-26.1-0.9-8.6-0.5-17.3-1.1-25.9-2-8.7-0.8-17.3-1.9-25.9-3.5 8.7-0.6 17.4-0.7 26.1-0.6 8.7 0.1 17.4 0.4 26 0.9 8.7 0.5 17.4 1.1 26 2 8.7 0.9 17.3 1.9 25.9 3.5z"/>
							<path id="&lt;Path&gt;" class="s20" d="m5435.1 1690.6c-9.7 0.6-19.3 0.3-28.9-0.3-9.5-0.7-19.1-1.7-28.6-3.6 9.7-0.6 19.3-0.3 28.9 0.3 9.5 0.7 19.1 1.7 28.6 3.6z"/>
							<path id="&lt;Path&gt;" class="s19" d="m5450.6 1728.6c-8.9-12.9-8-43.8 1.6-56.2 17.3 0.5 34 2.6 51.3 3.1-9.5 12.5-9.8 41.7-1 54.6-10.8-3.8-21.2-8.8-31-14.4-7.5 5.1-14.4 9.6-20.9 12.9z"/>
						</g>
						<g id="&lt;Group&gt;">
							<g id="&lt;Group&gt;">
								<path id="&lt;Path&gt;" class="s3" d="m5695.4 1555.8l-8.2 0.8c20.4 1.4 35.7 19.1 34.3 39.4l-0.8 11.3c-1.3 17-13.8 30.5-29.8 33.6l131.6-10.5c21.9-2.2 37.9-21.7 35.6-43.6l-0.6-6.1c-2.2-21.6-21.4-37.4-43-35.5z"/>
								<path id="&lt;Path&gt;" class="s3" d="m5378.7 1549.5l308.5 7.1 8.2-0.8 119.1-10.6 1.4-0.1z"/>
								<path id="&lt;Path&gt;" class="s4" d="m5387.5 1562l299.1 7.8c6.7 0.6 12.8 3.9 16.9 9.4 3.6 4.8 5.1 10.8 4.7 16.8l-0.8 10.4c-0.9 12.1-11.1 21.8-23.2 22-0.7 0-1.4 0-2.1-0.1h-0.3l-294.7-6.7-7.3-0.2c-3.4 0-6.3 2.8-6.2 6.2v1.1c0.1 3.3 2.7 5.9 5.9 6l301.6 6.8c3.4 0.3 6.7 0.1 9.8-0.6 16-3.1 28.5-16.6 29.8-33.6l0.8-11.3c1.4-20.3-13.9-38-34.3-39.4l-308.5-7.1c-3.5 0-6.3 2.8-6.2 6.2 0 3.3 2.6 5.9 5.9 6z"/>
								<path id="&lt;Path&gt;" class="s9" d="m5387.1 1621.6l294.7 6.7h0.3c0.7 0.1 1.4 0.1 2.1 0.1 12.1-0.2 22.3-9.9 23.2-22l0.8-10.4c0.4-6-1.1-12-4.7-16.8-4.1-5.5-10.2-8.8-16.9-9.4l-299.1-7.8c0.2 0.5 3.9 18.3 4.1 29.7 0.2 11.4-4.5 29.9-4.5 29.9z"/>
							</g>
							<path id="&lt;Path&gt;" class="s20" d="m5682.3 1587.1c-8.7-1.4-17.3-2.4-26-3.1-8.6-0.8-17.3-1.2-26-1.6-8.6-0.3-17.3-0.5-26-0.5-8.7 0.1-17.4 0.3-26.1 1.1 8.6 1.4 17.3 2.3 25.9 3.1 8.7 0.7 17.3 1.2 26 1.6 8.7 0.3 17.4 0.5 26.1 0.4 8.6 0 17.3-0.3 26.1-1z"/>
							<path id="&lt;Path&gt;" class="s20" d="m5610.9 1611.3c-8.6-1.4-17.3-2.3-25.9-3-8.7-0.8-17.3-1.3-26-1.7-8.7-0.3-17.4-0.5-26-0.4-8.7 0-17.4 0.3-26.1 1 8.6 1.5 17.2 2.4 25.9 3.1 8.7 0.8 17.3 1.2 26 1.6 8.7 0.3 17.3 0.6 26 0.5 8.7-0.1 17.4-0.3 26.1-1.1z"/>
							<path id="&lt;Path&gt;" class="s10" d="m5599.2 1656.4c-12-16.1-12.8-55.8-1.3-72.2 22.1-0.4 41.7 2 63.8 1.6-11.4 16.4-8.2 53.5 3.8 69.5-14-4.3-27.6-10-40.3-16.6-9.4 6.9-17.9 13-26 17.7z"/>
							<path id="&lt;Path&gt;" class="s20" d="m5534.5 1595.8c-11.9-1.4-23.7-2.3-35.6-3.1-11.9-0.7-23.8-1.2-35.8-1.6-11.9-0.3-23.8-0.5-35.7-0.4-11.9 0-23.8 0.3-35.8 1 11.9 1.5 23.8 2.4 35.7 3.1 11.9 0.8 23.8 1.2 35.7 1.6 11.9 0.3 23.8 0.5 35.7 0.5 12-0.1 23.9-0.3 35.8-1.1z"/>
						</g>
						<g id="&lt;Group&gt;">
							<g id="&lt;Group&gt;">
								<path id="&lt;Path&gt;" class="s9" d="m5805.1 1296.3h-387.3c0 0 6.8 28.1 6.8 58.5 0 29.6-6.8 58.5-6.8 58.5h387.3c13.8 0 24.9-11.1 24.9-24.8v-67.3c0-13.7-11.1-24.9-24.9-24.9z"/>
								<path id="&lt;Path&gt;" class="s22" d="m5412.6 1280.4c-4.4 0-8 3.6-8 8 0 2.2 0.9 4.2 2.4 5.6 1.4 1.5 3.4 2.3 5.6 2.3h5.2 387.3c13.8 0 24.9 11.2 24.9 24.9v67.3c0 13.7-11.1 24.8-24.9 24.8h-387.3-5.2c-4.4 0-8 3.6-8 8 0 2.2 0.9 4.2 2.4 5.6 1.4 1.4 3.4 2.3 5.6 2.3h392.5c22.6 0 40.8-18.2 40.8-40.7v-67.3c0-22.5-18.2-40.8-40.8-40.8z"/>
							</g>
							<path id="&lt;Path&gt;" class="s20" d="m5779.6 1319q-34.4-1.6-68.8-2.1c-23-0.4-45.9-0.5-68.8-0.6-23 0.1-45.9 0.2-68.8 0.6q-34.4 0.5-68.8 2.1 34.4 1.5 68.8 2c22.9 0.5 45.8 0.6 68.8 0.6 22.9 0 45.8-0.1 68.8-0.6q34.4-0.5 68.8-2z"/>
							<path id="&lt;Path&gt;" class="s20" d="m5793.9 1354.8c-8.7-1.1-17.3-1.6-26-2-8.7-0.5-17.3-0.6-26-0.6-8.6 0-17.3 0.1-26 0.6-8.6 0.4-17.3 0.9-26 2 8.7 1.1 17.4 1.7 26 2.1 8.7 0.4 17.4 0.5 26 0.6 8.7-0.1 17.3-0.2 26-0.6 8.7-0.4 17.3-1 26-2.1z"/>
							<path id="&lt;Path&gt;" class="s20" d="m5727.6 1391.6c-8.7-1.1-17.4-1.7-26-2.1-8.7-0.4-17.4-0.5-26-0.6-8.7 0.1-17.4 0.2-26 0.6-8.7 0.4-17.3 1-26 2.1 8.7 1.1 17.3 1.7 26 2.1 8.6 0.4 17.3 0.5 26 0.5 8.6 0 17.3-0.1 26-0.5 8.6-0.4 17.3-1 26-2.1z"/>
							<path id="&lt;Path&gt;" class="s20" d="m5672.9 1370.1q-30.1-1.6-60.1-2.1c-20-0.4-40.1-0.5-60.1-0.6-20 0.1-40 0.2-60.1 0.6q-30 0.5-60 2.1 30 1.5 60 2c20.1 0.5 40.1 0.6 60.1 0.6 20 0 40.1-0.1 60.1-0.6q30-0.5 60.1-2z"/>
							<path id="&lt;Path&gt;" class="s3" d="m5713.2 1425.7c11.8-22.2 11.8-48.7 0-70.9q33.2 0 66.4 0c11.7 22.2 11.7 48.7 0 70.9-7.9-6.1-16.6-12.4-26.2-18.9-12.5 6.5-25.9 12.8-40.2 18.9z"/>
						</g>
						<g id="&lt;Group&gt;">
							<g id="&lt;Group&gt;">
								<g id="&lt;Group&gt;">
									<path id="&lt;Path&gt;" class="s8" d="m5480 1429.3v117h24.6v-117z"/>
									<path id="&lt;Path&gt;" class="s12" d="m5438.9 1429.3v117h41.1v-117z"/>
									<path id="&lt;Path&gt;" class="s12" d="m5504.6 1429.3v117h284.9v-117z"/>
									<path id="&lt;Path&gt;" class="s8" d="m5789.5 1429.3v117h24.7v-117z"/>
									<path id="&lt;Path&gt;" class="s12" d="m5814.2 1429.3v117h41v-117z"/>
								</g>
							</g>
							<path id="&lt;Path&gt;" class="s3" d="m5855.5 1462.9c0 0 31.5 15.2 36.6 56.3l-13.5-11.3-4.8 11.3c0 0-3.1-34.9-18.3-48.4z"/>
							<path id="&lt;Path&gt;" class="s8" d="m5534.6 1487.8c0 14.6 50 26.5 111.7 26.5 61.8 0 111.8-11.9 111.8-26.5 0-14.6-50-26.4-111.8-26.4-61.7 0-111.7 11.8-111.7 26.4z"/>
						</g>
					</g>
					<g id="&lt;Group&gt;">
						<g id="&lt;Group&gt;">
							<path id="&lt;Path&gt;" class="s13" d="m5744.1 861.4c18.8 7.6 28.9 39 30.2 79.4 1.4 40.3 24.3 93.3-0.8 107-25.2 13.6-67.4-19.1-100 9.6-32.6 28.7-80.1 31.3-80.1 31.3 0 0-29.6-23.4-18-90.6 11.7-67.1 56.1-43.7 75.9-71.4 19.8-27.8 29.2-90.7 92.8-65.3z"/>
							<g id="&lt;Group&gt;">
								<path id="&lt;Path&gt;" class="s19" d="m5733.3 990.7c0 0-65.7-13.8-63.7 7.8 0.9 9.1 29.4 50.3 30 53.7 0.5 2.5 1.1 5 1.6 7.6 0.5 2.5 1.1 5 1.7 7.6 0.6 2.5 1.2 5 1.9 7.6l2.3 7.7q0.5 1.9 1.2 3.9l1.3 3.9 1.4 3.9 1.6 4 1.6 4c0.3 0.7 0.5 1.3 0.8 2l1 2.1 1.9 4.1 1 2 0.5 1.1 0.9 1.5c1.2 2.1 2.3 4.3 3.7 6.2q2.1 3 4.4 5.7 2.4 2.6 4.9 5c1.6 1.5 3.4 2.9 5.1 4.3 7 5.1 14 8.4 20.7 10.7 1.7 0.5 3.4 1.1 5 1.5l4.8 1.2c3.1 0.6 6.3 1.2 9.2 1.5 6.1 0.8 11.9 1 17.5 0.9 11.2-0.1 12.6-52.3 5.1-54.2-3.7-0.9-7.2-2.1-10.3-3.3-0.8-0.3-1.6-0.5-2.3-0.9q-1-0.5-2.1-1l-1.8-1c-0.7-0.3-1.1-0.7-1.6-1-2-1.4-3-6-3-6l-0.7-2.4-0.3-1.2c-0.1-0.4-0.2-0.9-0.3-1.4l-0.6-2.6-0.6-2.7-0.5-2.9c-0.4-1.9-0.8-3.7-1.1-5.7-0.7-4-2-17.7-3.8-35.9-1.8-19.4-15.9-34.4-38.4-39.3z"/>
								<g id="&lt;Group&gt;">
									<g id="&lt;Group&gt;">
										<path id="&lt;Path&gt;" class="s21" d="m5608.8 1147.1c-1.2-14.7-10.2-43.2-11-65.9-1.6-47.2-0.4-92.7 75.4-93.2q0.1 0 0.3 0c5-0.9 8.7-1.2 10.4-1.4q1.2-0.1 1.2-0.1c35.4-1 60.8 2.7 63.8 28.4 1.9 15.7 14.8 22.6 17.2 39.5 3.1 21.9-3.1 25.6-8.8 43.9-4.4 14.5 34.7 112.4 34.7 112.4l-188.2 3.6c0 0 7.7-32.3 5-67.2z"/>
										<path id="&lt;Path&gt;" class="s23" d="m5683.9 986.6c-1.7 0.2-5.4 0.5-10.4 1.4q5.1-1 10.4-1.4z"/>
									</g>
								</g>
								<g id="&lt;Group&gt;">
									<path id="&lt;Path&gt;" class="s9" d="m5675.1 945.4l48.8 8.4-6.4 18.5-0.1 0.1-1.8 5.1-1.7 4.9-0.3 1-5.9 0.7 3.9 3.8c0 0-1.9 7.6-17.3 7.6-15.4 0-20.8-7.5-20.8-7.5z"/>
									<g id="&lt;Group&gt;">
										<path id="&lt;Path&gt;" class="s9" d="m5673.5 930.5c-1 22.9 11.6 41.9 33.6 48.5 16.8 5 29.8-2.1 49.5-44.6 9.7-20.8-16.6-42.4-39.6-43.5-22.9-1.1-42.4 16.7-43.5 39.6z"/>
										<path id="&lt;Path&gt;" class="s24" d=""/>
										<path id="&lt;Path&gt;" class="s8" d="m5709.9 990.6c0 0 1.1-0.9 1.7-2.7 0.6-2 3.4-7.6 3.4-7.6 0 0-26.3-3.1-32.5-20.7 0 0-4.7 21.7 27.4 31z"/>
									</g>
								</g>
							</g>
							<path id="&lt;Path&gt;" class="s19" d="m5637.5 996.2c-55.6-0.7-38.1 132 2.8 149.6 50.5 21.8 80.9 14.4 80.9 14.4l0.4-30.4c-0.3-0.1-59.8-9.5-61.3-28.3-3.1-41.3 27.5-101.8-22.8-105.3z"/>
							<g id="&lt;Group&gt;">
								<path id="&lt;Path&gt;" class="s25" d="m5782.3 1172.6h-73.8c1.5 0 2.9 0.5 4 1.4 1 0.8 1.6 2 1.6 3.3 0 2.6-2.5 4.7-5.6 4.7l151.7 0.1c3.1 0 5.6-2.1 5.6-4.7 0-1.3-0.6-2.5-1.6-3.3-1-0.9-2.4-1.4-4-1.4z"/>
								<path id="&lt;Path&gt;" class="s26" d="m5625.7 1172.5c-2.6 0-4.7 2.1-4.7 4.7 0 1.3 0.5 2.5 1.4 3.4 0.9 0.8 2 1.4 3.3 1.4h83.7c2.6 0 4.8-2.1 4.8-4.7 0-1.3-0.6-2.5-1.4-3.3-0.9-0.9-2.1-1.4-3.4-1.4l-81.9-0.1z"/>
								<path id="&lt;Path&gt;" class="s25" d="m5704.4 1170.1c1.3 1.5 3.2 2.5 5.2 2.5h6c-2 0-3.9-1-5.2-2.5-1.3-1.6-1.8-3.6-1.3-5.6l19.8-94.7c0.7-3.1 3.5-5.4 6.6-5.4h-6c-3.1 0-5.9 2.3-6.5 5.3l-19.9 94.8c-0.5 2 0 4 1.3 5.6z"/>
								<path id="&lt;Path&gt;" class="s27" d="m5710.4 1170.1c1.3 1.5 3.2 2.5 5.2 2.5l144 0.1c3.1 0 5.9-2.3 6.6-5.4l19.8-94.7c0.5-2 0-4-1.3-5.6-1.3-1.6-3.2-2.5-5.2-2.5l-144-0.1c-3.1 0-5.9 2.3-6.6 5.4l-19.8 94.7c-0.5 2 0 4 1.3 5.6z"/>
								<path id="&lt;Path&gt;" class="s17" d="m5789.7 1118.5c0 4.3 3.5 7.8 7.8 7.9 4.4 0 7.9-3.5 7.9-7.9 0-4.3-3.5-7.8-7.8-7.8-4.4 0-7.9 3.5-7.9 7.8z"/>
							</g>
							<path id="&lt;Path&gt;" class="s13" d="m5672.9 920.7c0 0 51.8 17.3 79.6-10.5 0 0-17.7 20.1-29.9 17.9 0 0 17.3 5.4 29.9-14.3 0 0 3.4 18.1 12.5 21.8 0 0 8.2-50.5-35.3-56.8-43.6-6.3-54.7 22-56.8 41.9z"/>
							<g id="&lt;Group&gt;">
								<path id="&lt;Path&gt;" class="s9" d="m5975.3 1343.7c0 0 12.8 13.9 17.9 11.1l-52.3 34.4-11.2-15.4z"/>
								<path id="&lt;Path&gt;" class="s13" d="m6011.7 1348.3l-14.7 5.1c-3.1 1.1-6.4 0.9-9.4-0.4l-7-4.2-14.6 23.5-31.4 8.2 3.1 4.3 16.5-4.7-13.7 9c-2.2 1.5-2.9 4.6-1.4 6.8l4.2 6.3c1.6 2.5 4.8 3.1 7.3 1.5l15.6-10.3v-8.3l11.2 1 49.2-32.4c1-0.6 1-2 0.1-2.7-4.2-3.5-9.9-4.4-15-2.7z"/>
							</g>
							<g id="&lt;Group&gt;">
								<path id="&lt;Path&gt;" class="s9" d="m5870.9 1429.2c0 0 3 18.6 8.8 19h-62.6l-0.9-19z"/>
								<path id="&lt;Path&gt;" class="s13" d="m5898.7 1453.1l-15.1-3.9c-3.1-0.8-5.9-2.7-7.6-5.5l-3.6-7.4-25.1 11.7-30.7-10.5 0.2 5.3 16.4 5.2h-16.3c-2.8 0-5 2.2-5 4.9v7.6c0 2.9 2.4 5.2 5.3 5.2h18.7l4.6-6.9 8.8 6.9h58.9c1.1 0 2-1.1 1.6-2.2-1.6-5.2-5.8-9.1-11.1-10.4z"/>
							</g>
							<path id="&lt;Path&gt;" class="s3" d="m5844.7 1285.7l30.5 143.5h-61.9l-50.1-151.6c0 0 18-8.2 43.3-19 25.4-10.8 31.7 11.2 38.2 27.1z"/>
							<path id="&lt;Path&gt;" class="s4" d="m5605.1 1247.2c7.4 42.7 28.7 53.2 85 46.6 70.7-8.1 109.9-32.7 109.9-32.7l122.6 113.2 52.5-37.2c0 0-31.7-40.3-73.2-90.1-43.8-52.7-53.2-82.1-135.9-62.3-51 12.2-90.3 12.9-127.2 21.3-21.3 4.9-35 8.3-35 8.3-1 10.9-0.6 22.1 1.3 32.9z"/>
							<path id="&lt;Path&gt;" class="s28" d="m5605.1 1247.2c43.7 2.8 33.7-41.2 33.7-41.2-21.3 4.9-35 8.3-35 8.3-1 10.9-0.6 22.1 1.3 32.9z"/>
							<path id="&lt;Path&gt;" class="s28" d="m5971 1331.4l-54.3 39.1c-2.6 1.8-3.2 5.4-1.3 8 1.8 2.6 5.4 3.2 8 1.3l54.3-39.1c2.6-1.8 3.1-5.4 1.3-8-1.8-2.6-5.4-3.1-8-1.3z"/>
							<path id="&lt;Path&gt;" class="s28" d="m5876.7 1417.8h-67c-3.1 0-5.7 2.5-5.7 5.7 0 3.2 2.6 5.7 5.7 5.7h67c3.1 0 5.7-2.5 5.7-5.7 0-3.2-2.6-5.7-5.7-5.7z"/>
						</g>
					</g>
				</g>
			</g>
		</g>
	</g>
</svg>