<svg version="1.2" xmlns="http://www.w3.org/2000/svg" viewBox="0 0 7600 2000" width="1520" height="400">
	<title>892-ai</title>
	<defs>
		<linearGradient id="g1" x2="1" gradientUnits="userSpaceOnUse" gradientTransform="matrix(-9187.062,387.092,-116.88,-2773.982,8532.339,1811.693)">
			<stop offset=".321" stop-color="#63c6ff"/>
			<stop offset="1" stop-color="#1b77e3"/>
		</linearGradient>
		<clipPath clipPathUnits="userSpaceOnUse" id="cp1">
			<path d="m7600 0v2000h-7600v-2000z"/>
		</clipPath>
	</defs>
	<style>
		.s0 { fill: url(#g1) } 
		.s1 { fill: #000000 } 
		.s2 { mix-blend-mode: soft-light;fill: #e2e2e2 } 
		.s3 { fill: #1b77e3 } 
		.s4 { fill: #355389 } 
		.s5 { fill: #fae0b2 } 
		.s6 { fill: #13375b } 
		.s7 { fill: #fe875e } 
		.s8 { fill: #f47458 } 
		.s9 { fill: #f8c558 } 
		.s10 { fill: #587cf8 } 
		.s11 { fill: #466eb6 } 
		.s12 { fill: #86b1f2 } 
		.s13 { fill: #f7cc7f } 
		.s14 { fill: #e5bd83 } 
		.s15 { fill: #3c8f7c } 
		.s16 { fill: #50bfa5 } 
		.s17 { fill: #11442f } 
		.s18 { fill: #f8a492 } 
		.s19 { fill: #b75742 } 
		.s20 { fill: #fec65e } 
		.s21 { fill: #f7f07f } 
		.s22 { fill: #dddddd } 
		.s23 { fill: #efefef } 
		.s24 { fill: #ffdc9f } 
		.s25 { fill: #f48c7f } 
		.s26 { fill: #184655 } 
		.s27 { mix-blend-mode: multiply;fill: #fec65e } 
		.s28 { fill: #171c51 } 
	</style>
	<g id="_Artboards_">
	</g>
	<g id="Object">
		<g id="&lt;Group&gt;">
			<g id="&lt;Group&gt;">
				<g id="&lt;Group&gt;">
					<path id="&lt;Path&gt;" class="s0" d="m7600 0v2000h-7600v-2000z"/>
					<g id="&lt;Clip Group&gt;" clip-path="url(#cp1)">
						<g id="&lt;Group&gt;" style="mix-blend-mode: soft-light">
							<g id="&lt;Group&gt;">
								<g id="&lt;Group&gt;">
									<path id="&lt;Path&gt;" class="s1" d="m124.2 2136.6c0-1-2.5-98.1 15-231.9 16.1-123.7 53-305.2 137.2-467.5l19.3 9.9c-82.7 159.5-119.1 338.2-135 460-17.3 132.2-14.9 227.9-14.8 228.9z"/>
								</g>
								<g id="&lt;Group&gt;">
									<path id="&lt;Path&gt;" class="s1" d="m65.7 2143.6c-0.3-6.5-32.7-654.4-120-843.7l19.7-9.1c89.1 193.2 120.7 825 122 851.8z"/>
								</g>
								<g id="&lt;Group&gt;">
									<path id="&lt;Path&gt;" class="s1" d="m0 2152.6c-0.1-0.8-14.6-82.4-57.2-176-39-85.7-110.4-199.5-228.7-254.7l9.2-19.6c124.5 58.1 198.9 176.6 239.5 265.8 43.6 96.1 58 177.4 58.6 180.8z"/>
								</g>
								<g id="&lt;Group&gt;">
									<path id="&lt;Path&gt;" class="s1" d="m80 2141.8c-0.1-2.2-8.3-224.5-15.6-266.8-3.7-21.4 6.1-50.2 17.5-83.6 13.9-40.8 29.7-87.2 20.4-122.4-19.3-72.9-3-98.5 41.6-143.6 8.6-8.7 16.2-15.7 23-21.9 28.3-26 42.4-39 61.6-114.3 7.8-30.9 27.5-50.9 55.4-56.4 33-6.4 74.2 9.4 93.9 36.1 11.7 16 13.7 34 5.4 49.5-22.5 41.7-22.2 44.4-17.8 89.3 0.9 8.6 1.8 18.3 2.8 30.1 4 48-7.7 58.3-27.1 71.1-11.4 7.5-24.3 16.1-38.4 41.5-24.2 43.6-21 54.9-11.6 88.5 3.9 13.9 8.8 31.1 13 55 8.6 48.7-12.9 63.5-33.6 77.8-18.5 12.7-37.6 25.8-43.6 68-13.4 94.3-24.5 190.3-24.6 191.2l-21.6-2.5c0.1-0.9 11.2-97.2 24.7-191.7 7.3-51.6 32.5-69 52.8-82.9 19.2-13.2 30.7-21.1 24.6-56.2-4.1-22.7-8.8-39.4-12.5-52.8-10.8-38.1-14-55.5 13.4-104.9 16.7-30.1 33.4-41.1 45.5-49.1 14.5-9.6 20.5-13.6 17.4-51.2-1-11.6-1.9-21.2-2.8-29.7-4.8-48.9-4.5-55.8 20.3-101.8 4.4-8.1 3.1-17-3.8-26.4-12.9-17.5-44.2-33.1-72.2-27.6-19.8 3.9-32.8 17.5-38.6 40.4-20.7 81.6-38.5 97.9-67.9 125-6.6 6-14.1 12.9-22.3 21.2-43.1 43.5-52.3 61.3-36.1 122.7 11 41.6-5.9 91.2-20.8 135-10 29.3-19.4 57-16.6 72.9 7.6 43.8 15.6 260.5 15.9 269.7z"/>
								</g>
								<g id="&lt;Group&gt;">
									<path id="&lt;Path&gt;" class="s1" d="m-35.9 2158.1c-9.8-32.9-44.1-123-84-144.6-56.4-30.4-75.2-56-87.7-118.9-1.7-8.4-3-15.9-4.3-22.6-7.5-40.9-8.4-46.2-35.6-55.2-9.9-3.3-19.2-4.6-28.1-5.8-23.3-3.2-47.3-6.4-58.6-49.4-4.8-18.1-13.7-24.7-25-32.9-16.2-11.9-34.5-25.3-36.6-70.8-1.3-26.4 13.7-36.7 22.8-40.5 43.9-18.4 135.5 30 159.2 55.5 18.1 19.5 30.4 22.3 45.9 25.9 8.7 2 18.4 4.2 29.5 9.6q3.7 1.8 7.6 3.6c28 13.2 62.9 29.6 73.4 76.5l1.4 6.2c9.3 41.8 14.5 64.8 41.1 80.1 35 20.2 37.8 66.4 40.4 111.2q0.3 4.8 0.6 9.5c2.9 45.6 19.3 149.7 19.5 150.7l-21.4 3.4c-0.7-4.3-16.8-106.1-19.7-152.7q-0.3-4.8-0.6-9.6c-2.5-40.8-4.8-79.4-29.7-93.7-34.8-20-41.7-51.1-51.4-94.2l-1.3-6.1c-8.2-36.6-35.3-49.4-61.6-61.7q-3.9-1.9-7.8-3.7c-8.8-4.3-16.6-6.1-24.8-8-16.9-3.9-34.3-7.9-56.9-32.2-21.9-23.6-104.1-63.3-135-50.3-4.8 2-10.2 6.1-9.6 19.4 1.7 35.2 13.2 43.7 27.8 54.4 12.4 9.1 26.4 19.3 33.1 44.8 7.7 29 18 30.4 40.6 33.5 9.5 1.3 20.2 2.8 32.1 6.7 39.3 13.1 42.4 30.3 50.1 71.9 1.2 6.6 2.5 14 4.2 22.2 11.2 56.5 26.2 76.9 76.7 104.1 56 30.3 92.9 152.3 94.5 157.5z"/>
								</g>
								<g id="&lt;Group&gt;">
									<path id="&lt;Path&gt;" class="s1" d="m-3.1 1916c0-0.7-9-73.6-39.1-131.6-32.6-62.9-40.7-91.7-35.4-174.7 2.7-40.8-13.1-68.7-29.8-98.2-15.5-27.3-31.5-55.5-34.9-95.3-3.4-39.8 5.9-58.1 13.4-72.9 8-15.8 14.3-28.2 1.2-69.9-10.2-32.3 18.1-64.8 50.1-76.4 32.8-11.9 79.5-5.6 102.7 51.3 27.3 66.4 34.2 108.5 38.8 136.4 4.6 27.9 6.7 40.7 23 54.5 25.8 21.9 24.8 51.5 23.7 82.9-0.8 22.1-1.7 47.2 6.6 73.7l-20.7 6.5c-9.4-30-8.5-57.1-7.6-81 1-29.3 1.8-50.4-16.1-65.6-22.3-18.9-25.5-38.2-30.3-67.5-4.7-28.5-11.1-67.5-37.4-131.7-22-53.6-63.2-43.5-75.4-39.1-22.6 8.2-42.8 30.1-36.7 49.5 15.8 50.1 6.9 67.7-2.6 86.3-6.9 13.5-14 27.5-11.1 61.1 3 35.1 17.2 60.1 32.1 86.5 17.6 31 35.7 63 32.7 110.3-5.1 80 2.1 103.8 33 163.3 31.9 61.6 41 136 41.4 139.1z"/>
								</g>
							</g>
							<g id="&lt;Group&gt;">
								<g id="&lt;Group&gt;">
									<path id="&lt;Path&gt;" class="s1" d="m612.6 2134.6l-14.4-4.7c0.3-0.8 24.8-75.6 67.4-153.7 57.8-105.9 119.4-167.1 183.3-181.9l3.4 14.8c-142.8 32.9-238.7 322.5-239.7 325.5z"/>
								</g>
								<g id="&lt;Group&gt;">
									<path id="&lt;Path&gt;" class="s1" d="m567.8 2135l-14.6-4c0.3-0.9 24.7-91 41.7-213.5 15.6-112.8 27.9-277-2.3-418.4l14.8-3.2c30.7 143.7 18.3 309.8 2.5 423.9-17.1 123.4-41.8 214.3-42.1 215.2z"/>
								</g>
								<g id="&lt;Group&gt;">
									<path id="&lt;Path&gt;" class="s1" d="m526.6 2131.5l-14.5 4.5c-0.5-2-59.2-191.5-141.5-219.2-20.3-6.8-39.9-3.1-60.1 11.4l-8.8-12.2c24.1-17.4 48.9-21.9 73.7-13.5 89.6 30.2 148.7 220.9 151.2 229z"/>
								</g>
								<g id="&lt;Group&gt;">
									<path id="&lt;Path&gt;" class="s1" d="m545.5 2131.7l-14.8 3.4c-2.7-11.7-26.4-115.3-21.2-140.2 2-9.3 0-22.4-32.8-41.6-23.4-13.8-25.3-15.7-33.6-26.7-3.5-4.7-8.3-11.1-17.7-21.7-18.1-20.5-23.5-24.1-87.3-16.5-31 3.7-51.1 27.7-58.3 37.9-7 9.9-10.8 18.7-12.3 24.2 15.6-7.5 31.2-4.9 46.4-2.5 10.6 1.7 21.5 3.4 33.3 2.3 12.3-1.2 21.2 1.1 27.4 6.8 11.4 10.6 10.9 30.4 10.1 60.2l-0.1 3.8c-0.4 18.9 6.5 20.2 21.8 22.8 11.9 2.1 26.7 4.7 37.4 18.8 21 27.6 46.2 67.2 46.4 67.6l-12.8 8.1c-0.2-0.4-25-39.5-45.7-66.6-7.1-9.3-17.2-11.1-27.9-13-15.6-2.7-35.1-6.1-34.3-38.1l0.1-3.8c0.6-23.9 1.1-42.7-5.3-48.7-2.8-2.6-8-3.5-15.7-2.8-13.7 1.3-26.1-0.7-37.1-2.5-15.7-2.5-28.1-4.5-40.2 2.7-7.6 4.6-12.7 2.3-15 0.5-4.8-3.6-5.9-10.3-3.3-19.9 7.2-26.2 38.6-67.5 83.3-72.8 64.7-7.7 76.9-5.1 100.4 21.5 9.8 11.1 14.8 17.7 18.5 22.6 6.8 9.1 7.5 10 29.2 22.7 31.6 18.6 44.3 37 40 57.8-3.5 16.4 10.7 88.9 21.1 133.7z"/>
								</g>
								<g id="&lt;Group&gt;">
									<path id="&lt;Path&gt;" class="s1" d="m531.7 2069.8l-14.5-4.6c0.2-0.4 13-41 17.5-95.6 2-24.2-4.9-37.5-12.1-51.6-8.6-16.8-17.5-34.2-9.3-66.9 8.1-31.8 20.2-37.9 29-42.3 6.7-3.3 10.8-5.3 12.2-25.4 1.3-19.4-4.4-26-11.1-33.7-10.4-12-17.6-23.7-8.1-55.1 7.2-23.7 15.6-34.1 21.7-41.8 7.9-9.9 12.3-15.3 7.9-49.5-3.6-28.1-12.5-38.6-20.3-47.9-8.9-10.6-17.4-20.6-9.3-48.7 11.3-39.4 26.4-76.8 74.9-63.3 38.9 10.8 55.4 51.9 43 107.3-4 18.3 4.9 41.9 14.4 66.9 12.7 33.6 27.2 71.7 13.4 107.6-7.3 19-12.9 29.7-16.6 36.8-7.1 13.7-7.1 13.7-1 50.7 2.4 14.6 4.3 24.6 5.9 32.6 4.9 24.5 5.1 27.6-1.9 57l-14.7-3.5c6.4-27 6.3-27.9 1.8-50.5-1.6-7.8-3.7-18.4-6.1-33.1-6.4-38.9-6.9-42.1 2.6-60.3 3.8-7.1 8.9-16.9 15.9-35.1 11.7-30.5-1.1-64.2-13.5-96.8-10.3-27.2-20-52.9-14.9-75.6 3.9-17.7 13.4-76.7-32.4-89.4-29.5-8.2-42.1 3.6-56.3 52.9-5.8 20.3-1.7 25.1 6.4 34.8 8.2 9.7 19.5 23.2 23.7 55.6 5 38.7-0.7 48-11.1 61-5.9 7.4-12.7 15.8-19 36.7-7.8 25.9-2.4 32.1 5.1 40.8 7.3 8.5 16.4 19 14.7 44.7-1.8 26.6-9.7 32.5-20.6 37.9-7.2 3.6-14.7 7.3-21 32.4-6.9 27.2 0 40.7 8.1 56.3 7.5 14.7 16 31.3 13.7 59.8-4.7 56.4-17.6 97.2-18.1 98.9z"/>
								</g>
								<g id="&lt;Group&gt;">
									<path id="&lt;Path&gt;" class="s1" d="m640.9 2133.2l-14.9-2.9c13.5-68.2 35.7-89.9 53.6-107.3 9.9-9.6 18.5-18 24.3-33 3-7.7 5.4-14.3 7.6-20 10.9-29 14.6-38.8 30.7-59.7 10.7-13.9 20-15 29.9-16.2 9.5-1.1 21.3-2.5 41.6-18.7 20.2-16 19.5-26.2 19-34.4-0.5-7.2-1.2-18.2 16.7-22.3 8.3-1.9 18.8-2.4 29-2.7 12.5-0.5 31.5-1.3 34.7-6.3 1-1.5 0-4.7-0.7-6.4-2.8-7.2-8.6-12.2-17.2-15-17.3-5.6-43.2-1-61.6 10.8-16.2 10.4-28.9 6.4-39.2 3.1-11.5-3.6-20.5-6.5-37.1 7.1-14 11.5-19 25-23.5 36.9-6.3 16.7-12.7 34-42 33.1-17.6-0.6-21.3 10.8-27.5 34.4-4.4 17.2-9.5 36.7-24 53.1-29.9 33.7-55.3 166-55.5 167.3l-14.9-2.8c1-5.6 26.4-137.8 59.1-174.5 12.1-13.7 16.7-31.3 20.7-46.9 5.9-23 12.1-46.7 42.5-45.8 18.5 0.6 21.3-6.9 27.4-23.2 4.9-13 11-29.2 28.1-43.3 22.9-18.8 38.7-13.8 51.3-9.8 9.4 3 16.2 5.2 26.4-1.4 22.3-14.3 52.8-19.5 74.4-12.5 13 4.2 22.2 12.4 26.7 23.8 3.2 8 2.9 14.8-0.7 20.3-7.5 11.6-26.6 12.3-46.8 13.1-9.5 0.4-19.3 0.7-26.2 2.3-4.2 1-5.1 1.9-5.1 1.9-0.2 0.6 0 3 0.1 4.7 0.6 9.8 1.8 26.3-24.6 47.3-23.7 18.8-38.6 20.6-49.4 21.9-8.5 1-12.8 1.5-19.5 10.3-14.8 19.2-18 27.7-28.6 55.8-2.2 5.8-4.7 12.5-7.7 20.1-7 18.2-17.1 28-27.8 38.5-17.2 16.7-36.7 35.7-49.3 99.3z"/>
								</g>
							</g>
							<g id="&lt;Group&gt;">
								<path id="&lt;Compound Path&gt;" fill-rule="evenodd" class="s1" d="m2123 1664.3c-30 0-54.4-24.4-54.4-54.4 0-30.1 24.4-54.5 54.4-54.5 30 0 54.5 24.4 54.5 54.5 0 30-24.5 54.4-54.5 54.4zm0-90.4c-19.8 0-35.9 16.1-35.9 36 0 19.8 16.1 35.9 35.9 35.9 19.8 0 36-16.1 36-35.9 0-19.9-16.2-36-36-36z"/>
							</g>
							<g id="&lt;Group&gt;">
								<g id="&lt;Group&gt;">
									<g id="&lt;Group&gt;">
										<path id="&lt;Compound Path&gt;" fill-rule="evenodd" class="s1" d="m3318.4 2386.2c-5.7 0-11.3-2.2-15.5-6.2l-20.6-19.9 130.8-51.7-1.5 28.6c-0.4 8.7-5.9 16.4-14 19.6l-71 28.1c-2.7 1-5.5 1.5-8.2 1.5zm-2.6-19.5c1.1 1 2.6 1.3 3.9 0.8l71.1-28.1c1.3-0.6 2.2-1.8 2.4-3.2z"/>
									</g>
									<g id="&lt;Group&gt;">
										<g id="&lt;Group&gt;">
											<path id="&lt;Compound Path&gt;" fill-rule="evenodd" class="s1" d="m3286.1 2374.6c-8.3 0-16.5-1.9-23.9-5.9l-43.4-22.8c-10.9-5.7-19.4-15.1-23.9-26.5l-42.8-108.4 254-100.4 42.8 108.3c4.5 11.4 4.8 24.1 0.8 35.7l-16.1 46.3c-4.9 14.2-15.7 25.5-29.6 31l-99 39.1c-6.1 2.4-12.5 3.6-18.9 3.6zm-110-153.2l36 91.2c2.9 7.3 8.3 13.3 15.3 17l43.4 22.8c8.5 4.4 18.5 5 27.4 1.4l99-39.1c8.9-3.6 15.8-10.8 18.9-19.8l16.1-46.3c2.6-7.5 2.4-15.6-0.5-22.9l-36-91.1z"/>
										</g>
										<g id="&lt;Group&gt;">
											<path id="&lt;Compound Path&gt;" fill-rule="evenodd" class="s1" d="m3160 2225.4c-12.1 0-23.8-6.8-29.4-18.1l-0.2-0.6c-32.1-64.8-60-80-102.2-102.9-20.8-11.3-44.4-24.1-73.4-45l-1.6-1.2q-2.3-1.6-4.6-3.3l-1.2-1q-2.1-1.6-4.1-3.2l-1.8-1.4q-2.1-1.7-4.2-3.5l-1-0.8q-2.5-2.1-5-4.2l-1.5-1.4q-1.9-1.7-3.8-3.4l-1.4-1.3q-2.4-2.2-4.8-4.5l-1.1-1.1q-1.9-1.9-3.8-3.8l-1.5-1.5q-2-2.1-4.1-4.3l-0.6-0.6q-2.3-2.5-4.5-5l-1.3-1.5q-1.8-1.9-3.5-3.9l-1.1-1.4q-2.2-2.6-4.4-5.2l-0.9-1.1q-1.7-2.2-3.4-4.4l-1.2-1.6q-1.9-2.5-3.8-5.1l-0.4-0.5q-2-2.7-3.9-5.6l-1.1-1.6q-1.6-2.2-3.1-4.5l-0.9-1.4q-1.9-2.9-3.7-5.9l-0.8-1.2q-1.5-2.5-2.9-4.9l-1-1.7q-1.7-3-3.4-6c-1.2-2.2-2.3-4.3-3.4-6.4l-0.9-1.7q-1.3-2.6-2.6-5.1l-0.7-1.5q-1.5-3.2-3-6.4l-0.7-1.4q-1.1-2.6-2.3-5.3l-0.8-1.8q-1.4-3.4-2.7-6.7-1.5-3.8-2.8-7.5-0.3-0.7-0.6-1.4l-0.4-1.2q-0.9-2.4-1.7-4.8-0.3-1-0.6-2l-0.6-1.7q-0.6-1.9-1.2-3.8-0.3-1.1-0.7-2.2l-0.4-1.5q-0.6-1.9-1.1-3.8-0.4-1.1-0.7-2.3l-0.4-1.7q-0.5-1.7-1-3.5-0.3-1.4-0.7-2.7l-0.2-1.1q-0.5-1.9-0.9-3.7-0.3-1.4-0.6-2.9l-0.2-0.6q-0.4-2-0.9-4.1-0.2-1.4-0.5-2.7l-0.2-1.1q-0.4-1.9-0.7-3.7-0.3-1.8-0.6-3.5-0.4-2.1-0.7-4.1-0.3-1.7-0.5-3.5-0.3-2-0.6-4-0.2-1.8-0.4-3.6-0.2-2-0.5-4-0.1-1.8-0.3-3.5-0.2-2.1-0.4-4.1-0.1-1.7-0.2-3.5-0.2-2-0.3-4-0.1-1.8-0.2-3.6 0-2-0.1-4-0.1-1.7-0.1-3.5 0-2-0.1-4 0-1.8 0-3.5 0-2 0.1-4 0-1.8 0.1-3.5 0-2 0.1-4 0.1-1.8 0.1-3.5 0.2-2 0.3-4v-0.5q0.1-1.5 0.2-3 0.2-2 0.4-4v-0.9q0.1-1.3 0.3-2.5 0.2-2.1 0.4-4.1l0.1-0.8q0.1-1.2 0.3-2.5 0.2-1.9 0.5-3.7l0.2-1.3q0.1-1.2 0.3-2.4 0.3-1.7 0.5-3.5l0.3-1.7q0.2-1 0.4-2.1 0.3-1.8 0.6-3.5l0.3-1.9q0.2-1 0.4-1.9 0.5-2.3 1-4.5l0.2-1.2q0.2-0.8 0.3-1.6 0.8-3.6 1.7-7.2l0.5-1.7q0.6-2.7 1.4-5.4 0.2-0.9 0.5-1.9l0.5-1.7q0.5-1.8 1-3.6 0.3-1 0.7-2.1l0.3-1.2q0.6-1.9 1.2-3.7 0.3-1.1 0.7-2.2l0.6-1.9q0.5-1.5 1-2.9 0.5-1.3 0.9-2.5l0.4-1.1q0.6-1.7 1.2-3.4 0.6-1.4 1.1-2.7l0.4-1.2q0.6-1.4 1.2-2.9 0.5-1.3 1.1-2.6l0.2-0.7q0.8-1.8 1.5-3.6 0.6-1.3 1.3-2.7l0.2-0.5q0.7-1.7 1.5-3.5 0.7-1.4 1.3-2.7l0.2-0.5q0.8-1.7 1.7-3.5 0.8-1.6 1.6-3.2 0.8-1.7 1.7-3.4 0.8-1.6 1.6-3.1 0.9-1.7 1.8-3.4 0.9-1.6 1.8-3.1 0.9-1.7 1.9-3.4 0.9-1.5 1.8-3.1 0.9-1.6 1.9-3.2 1-1.6 1.9-3.1 1-1.6 2-3.2 1-1.5 2-3 1-1.6 2.1-3.2 1-1.5 2-3 1.1-1.5 2.2-3.1 1.1-1.5 2.1-2.9 1.1-1.5 2.2-2.9l0.3-0.5q1-1.3 2-2.6 0.9-1.3 2-2.6l0.8-1q0.8-1.1 1.7-2.2 1.1-1.3 2.1-2.6l1-1.2q0.8-1 1.7-2 1-1.2 2-2.4l1.1-1.3q0.9-1 1.7-1.9 1.1-1.2 2.1-2.4l1.2-1.3q0.9-1 1.7-1.9 1.1-1.1 2.2-2.3l1.3-1.3q0.8-0.9 1.7-1.8 1.1-1.1 2.2-2.2l1.5-1.5q0.8-0.8 1.5-1.6 1.4-1.3 2.8-2.6l1.3-1.3q0.7-0.6 1.4-1.3 2.7-2.5 5.5-5 0.7-0.6 1.4-1.3l1.5-1.3q1.4-1.2 2.7-2.3 0.9-0.8 1.7-1.5l1.7-1.3q1.2-1 2.5-2.1 0.9-0.8 1.9-1.5l1.5-1.2q1.3-1 2.5-2 1.1-0.7 2.1-1.5l1.4-1.1q1.3-1 2.6-1.9 1.1-0.8 2.2-1.6l1.3-0.9q1.4-1 2.7-1.9 1.2-0.9 2.5-1.7l1.1-0.8q1.4-0.9 2.7-1.8 1.4-0.9 2.8-1.8l0.6-0.4q1.6-1 3.1-1.9 1.5-1 3.1-1.9c1.3-0.8 2.4-1.5 3.5-2.1q1.7-1 3.3-2 1.7-0.9 3.4-1.9 1.7-0.9 3.4-1.8 1.7-1 3.5-1.9 1.7-0.9 3.4-1.8 1.8-0.8 3.5-1.7 1.8-0.9 3.5-1.7l3.4-1.6q2.3-1.1 4.6-2.1 1.6-0.7 3.2-1.4 2.3-1 4.5-1.9l0.6-0.3q1.4-0.5 2.8-1.1l1.2-0.5q1.2-0.4 2.4-0.9l2.1-0.8q1-0.4 2-0.8 3.2-1.1 6.3-2.2l1.4-0.5c150.6-51.4 315.8 18.2 384.2 161.8l0.7 1.4q1.3 2.8 2.6 5.8 0.6 1.3 1.2 2.6 1 2.4 2 4.8 0.7 1.6 1.4 3.3l0.8 1.9q0.3 0.8 0.6 1.6l0.3 0.9q0.7 1.7 1.3 3.5 0.9 2.3 1.7 4.6l0.2 0.5q0.5 1.4 1 2.8 0.9 2.6 1.7 5.2l1.5 4.7q0.9 3 1.7 5.9l0.3 0.9q0.9 3.3 1.8 6.5l0.4 1.8q0.8 3.2 1.6 6.4l0.3 1.4q0.6 2.9 1.2 5.7l0.3 1.6q0.7 3.1 1.2 6.4l0.3 1.7q0.6 3.3 1.1 6.5l0.1 0.9q0.5 3 0.9 6l0.2 1.8q0.4 3.2 0.7 6.4l0.2 1.6q0.2 2.9 0.5 5.7l0.1 1.3q0.2 3.2 0.4 6.4l0.1 1.9q0.1 3.2 0.2 6.4v1.3q0.1 2.8 0.1 5.6v1.7q0 3.1-0.1 6.3v1.8q-0.1 2.9-0.2 5.8l-0.1 1.3q-0.1 3-0.3 6l-0.2 1.9q-0.2 3.1-0.5 6.2l-0.2 1.7q-0.2 2.6-0.5 5.2l-0.2 1.7q-0.4 3.1-0.8 6.1l-0.3 2q-0.5 3-1 6l-0.3 1.9q-0.3 1.4-0.5 2.8l-0.7 3.3c-6.8 35.4-15.4 61.2-23.1 83.9-15.4 45.8-25.6 76.1-4.5 145.3 4.8 15.9-3.3 33.1-18.5 39.5-71.4 40.3-148.3 70.7-228.7 90.4-3.6 1.4-7.4 2-11.1 2zm-12.7-26.2c3.3 6.4 11 9.4 17.7 6.7l1.2-0.3c79.1-19.4 154.8-49.3 225-89l1.1-0.6c6.8-2.6 10.4-10.2 8.3-17.1-22.8-74.9-11.3-109.2 4.7-156.6 7.5-22.2 15.9-47.3 22.5-81.5l0.6-3.2q0.2-1.2 0.4-2.6l0.4-1.8q0.4-2.8 0.9-5.6l0.2-1.9q0.5-2.9 0.8-5.8l0.2-1.6q0.3-2.4 0.5-4.8l0.2-1.6q0.3-2.9 0.5-5.8l0.1-1.9q0.2-2.8 0.4-5.7v-1.2q0.1-2.7 0.2-5.3l0.1-1.8q0-3 0-5.9v-1.6q0-2.7-0.1-5.3v-1.2q-0.1-3-0.2-6l-0.1-1.8q-0.2-3-0.4-6l-0.1-1.2q-0.2-2.7-0.4-5.4l-0.2-1.6q-0.3-2.9-0.7-6l-0.2-1.6q-0.3-2.9-0.8-5.7l-0.1-0.9q-0.5-3-1-6l-0.3-1.7q-0.5-3-1.1-6l-0.3-1.4q-0.6-2.7-1.2-5.4l-0.3-1.3q-0.7-3-1.4-6.1l-0.5-1.6q-0.7-3.1-1.6-6.1l-0.3-0.9q-0.7-2.8-1.6-5.6l-1.4-4.4q-0.8-2.4-1.6-4.9-0.5-1.3-1-2.6l-0.1-0.5q-0.8-2.2-1.6-4.3-0.6-1.7-1.2-3.3l-1.7-4.2q-0.6-1.6-1.3-3.1-0.9-2.3-1.9-4.5-0.5-1.3-1.1-2.5-1.2-2.7-2.5-5.5l-0.6-1.3c-64.4-135.1-219.8-200.6-361.5-152.2l-1.3 0.5q-3 1-5.9 2.1-1 0.3-1.9 0.7l-2.2 0.8q-1.1 0.4-2.1 0.8l-1.2 0.5q-1.2 0.5-2.5 1l-0.6 0.3q-2.1 0.9-4.3 1.8-1.5 0.6-3 1.3-2.2 1-4.3 2l-3.2 1.5q-1.7 0.8-3.3 1.6-1.7 0.8-3.3 1.6-1.6 0.9-3.2 1.7-1.7 0.9-3.3 1.7-1.6 0.9-3.2 1.8-1.6 0.9-3.2 1.8-1.5 0.9-3.1 1.8-1.6 0.9-3.1 1.9c-1.2 0.7-2.1 1.3-3.1 1.9q-1.4 0.9-2.9 1.8l-0.6 0.4q-1.3 0.8-2.6 1.7-1.3 0.8-2.5 1.7l-1.2 0.7q-1.1 0.8-2.2 1.6-1.3 0.9-2.5 1.7l-1.4 1q-1 0.7-2 1.4-1.2 0.9-2.4 1.8l-1.4 1.1q-1 0.7-1.9 1.4-1.2 0.9-2.3 1.8l-1.6 1.2q-0.8 0.7-1.7 1.4-1.2 1-2.3 1.9l-1.7 1.4q-0.8 0.6-1.5 1.3-1.2 1-2.5 2.1l-1.6 1.4q-0.6 0.6-1.2 1.1-2.7 2.3-5.2 4.7-0.6 0.6-1.2 1.1l-1.4 1.4q-1.2 1.2-2.5 2.4-0.7 0.7-1.4 1.4l-1.5 1.6q-1.1 1-2.1 2-0.7 0.8-1.5 1.6l-1.3 1.4q-1 1-2 2.1-0.8 0.8-1.5 1.7l-1.3 1.3q-0.9 1.1-1.9 2.2-0.8 0.9-1.5 1.8l-1.2 1.3q-0.9 1.1-1.9 2.2-0.7 0.9-1.5 1.8l-1 1.3q-1 1.2-1.9 2.3-0.9 1.1-1.7 2.1l-0.8 1q-0.9 1.2-1.8 2.5-1 1.2-1.9 2.4l-0.2 0.3c-0.8 1-1.4 1.9-2.1 2.8q-1 1.4-2 2.8-1 1.5-2 3-1 1.3-1.9 2.8-1 1.4-2 2.9-1 1.5-1.9 2.9-0.9 1.5-1.9 3-0.9 1.4-1.8 2.9-0.9 1.5-1.8 3.1-0.9 1.4-1.7 2.9-0.9 1.5-1.8 3.1-0.8 1.5-1.6 3-0.9 1.5-1.7 3.1-0.8 1.5-1.6 3-0.8 1.6-1.6 3.2-0.7 1.5-1.5 3-0.8 1.6-1.5 3.3l-0.2 0.4q-0.7 1.3-1.2 2.6-0.8 1.6-1.5 3.3l-0.2 0.5q-0.6 1.2-1.2 2.5-0.7 1.7-1.4 3.4l-0.3 0.7q-0.4 1.2-0.9 2.4-0.6 1.3-1.1 2.7l-0.5 1.2q-0.5 1.3-0.9 2.5-0.6 1.6-1.2 3.1l-0.4 1.2q-0.4 1.2-0.8 2.3-0.5 1.3-0.9 2.7l-0.7 1.9q-0.3 1-0.6 2-0.6 1.7-1.1 3.4l-0.4 1.3q-0.3 1-0.6 1.9-0.5 1.6-0.9 3.3l-0.5 1.9q-0.3 0.7-0.5 1.5-0.7 2.6-1.3 5.1l-0.4 1.7q-0.9 3.3-1.6 6.7l-0.6 2.6q-0.4 2.1-0.8 4.2-0.2 0.9-0.3 1.7l-0.4 2q-0.3 1.6-0.6 3.2-0.2 1-0.3 1.9l-0.3 1.8q-0.3 1.6-0.5 3.2-0.2 1.1-0.3 2.2l-0.2 1.3q-0.2 1.7-0.4 3.5-0.2 1.1-0.3 2.3l-0.1 0.8q-0.2 1.9-0.4 3.8-0.1 1.2-0.2 2.3l-0.1 0.9q-0.2 1.9-0.3 3.8-0.1 1.4-0.2 2.8l-0.1 0.5q-0.1 1.9-0.2 3.7-0.1 1.6-0.1 3.3-0.1 1.9-0.2 3.8 0 1.6 0 3.3-0.1 1.9-0.1 3.7 0 1.7 0 3.4 0.1 1.8 0.1 3.7 0 1.7 0.1 3.3 0 1.9 0.1 3.8 0.1 1.7 0.2 3.3 0.1 1.9 0.2 3.8 0.1 1.7 0.3 3.3 0.1 1.9 0.3 3.8 0.2 1.7 0.3 3.3 0.2 1.9 0.5 3.8 0.2 1.7 0.4 3.4 0.2 1.9 0.5 3.8 0.2 1.6 0.5 3.3 0.3 1.9 0.6 3.8 0.3 1.7 0.6 3.3 0.3 1.7 0.6 3.5l0.3 1q0.2 1.3 0.5 2.6 0.4 1.9 0.8 3.8l0.1 0.7q0.3 1.3 0.6 2.6 0.4 1.7 0.9 3.5l0.2 1.1q0.3 1.2 0.6 2.5 0.5 1.6 0.9 3.2l0.5 1.8q0.3 1 0.6 2 0.5 1.8 1 3.5l0.5 1.6q0.3 1 0.6 2 0.5 1.8 1.1 3.5l0.6 1.9q0.3 0.8 0.5 1.6 0.8 2.3 1.6 4.5l0.9 2.5q1.3 3.5 2.7 7 1.2 3.2 2.6 6.4l0.7 1.7q1.1 2.5 2.2 5l0.6 1.3q1.4 3.1 2.9 6.1l0.6 1.3q1.2 2.4 2.4 4.8l0.9 1.6q1.5 3 3.1 5.9l0.2 0.3c0.9 1.8 2 3.6 3.1 5.5l0.9 1.6q1.4 2.3 2.8 4.6l0.7 1.1q1.7 2.9 3.5 5.6l0.8 1.3q1.5 2.1 2.9 4.3l1.1 1.5q1.8 2.6 3.7 5.3l0.3 0.4q1.8 2.4 3.6 4.8l1.2 1.5q1.6 2.1 3.2 4.1l0.8 1.1q2 2.5 4.1 4.9l1.1 1.2q1.6 1.9 3.2 3.8l1.3 1.4q2.1 2.4 4.2 4.7l0.6 0.5q1.9 2.1 3.9 4.1l1.4 1.4q1.7 1.8 3.5 3.6l1.1 1q2.2 2.1 4.5 4.2l1.3 1.3q1.8 1.6 3.5 3.1l1.5 1.3q2.3 2.1 4.7 4.1l0.9 0.7q2 1.7 4 3.3l1.6 1.3q2 1.5 3.9 3l1.2 0.9q2.1 1.6 4.3 3.2l1.5 1.1c28 20.2 51.1 32.7 71.4 43.7 43.8 23.8 75.5 41 110.2 111.6z"/>
										</g>
										<g id="&lt;Group&gt;">
											<path id="&lt;Compound Path&gt;" fill-rule="evenodd" class="s1" d="m3242.9 2193.9c-0.1-0.3-14.5-38.6-100.8-214.8-8.1-16.6-16.4-30.1-24.5-40.8-51.6 7.1-76.5-5.6-82.3-22.6-4-11.9 2.4-24.3 15.3-29.7 15.1-6.2 43.9-3.4 74.7 32.3 9.2-1.6 19.5-3.9 30.8-7 32.6-8.9 57.3-19.1 75.5-29.6-3.1-25.2-2.8-45.8 2.8-58.2 9.3-20.2 24.5-25 35.6-22.8 13.3 2.7 22.6 14.7 23.1 29.9 0.3 9.6-3.1 34.8-41.7 60.6 13.4 80.5 59.9 210.2 82.2 266.8l-17.2 6.8c-8.4-21.2-64.6-165.9-81.8-263.6-18.3 9.8-42.3 19.4-73.6 28q-12.2 3.3-23.1 5.6c7 10.1 14 22.1 20.9 36.2 87 177.9 100.9 215 101.5 216.5zm-177.6-292.2c-2.9 0-5.5 0.5-7.7 1.4-2.9 1.2-5.8 3.7-4.8 6.6 2.1 6.2 17 14 49.8 11.6-14.5-14.1-27.7-19.6-37.3-19.6zm199.5-83c-4.9 0-10 4.7-13.6 12.5-3.7 8.3-4.3 22-2.6 39.4 18.8-14.4 26.3-28.4 26-39.3-0.3-7.5-4.4-11.6-8.3-12.4q-0.7-0.2-1.5-0.2z"/>
										</g>
										<g id="&lt;Group&gt;">
											<path id="&lt;Path&gt;" class="s1" d="m3176.6 2251l-4.6-17.9 248.5-64 4.6 17.9z"/>
										</g>
										<g id="&lt;Group&gt;">
											<path id="&lt;Path&gt;" class="s1" d="m3186.3 2275.4l-4.7-17.9 248.5-64.1 4.7 18z"/>
										</g>
										<g id="&lt;Group&gt;">
											<path id="&lt;Path&gt;" class="s1" d="m3195.9 2299.8l-4.6-17.9 248.5-64.1 4.6 18z"/>
										</g>
										<g id="&lt;Group&gt;">
											<path id="&lt;Path&gt;" class="s1" d="m3205.5 2324.2l-4.6-17.9 236.8-61.1 4.7 17.9z"/>
										</g>
									</g>
								</g>
								<g id="&lt;Group&gt;">
									<path id="&lt;Path&gt;" class="s1" d="m3473.8 1681.3l-6.8-17.2 91.3-36.1 6.8 17.2z"/>
								</g>
								<g id="&lt;Group&gt;">
									<path id="&lt;Path&gt;" class="s1" d="m3367.4 1529.8l-14.5-11.5 61-76.9 14.5 11.5z"/>
								</g>
								<g id="&lt;Group&gt;">
									<path id="&lt;Path&gt;" class="s1" d="m3199.5 1451.9l-18.3-2.7 14.4-97.1 18.3 2.7z"/>
								</g>
								<g id="&lt;Group&gt;">
									<path id="&lt;Path&gt;" class="s1" d="m2998 1475.1l-36.1-91.3 17.2-6.8 36.1 91.3z"/>
								</g>
								<g id="&lt;Group&gt;">
									<path id="&lt;Path&gt;" class="s1" d="m2852.3 1589.2l-76.9-61 11.5-14.5 76.9 61z"/>
								</g>
								<g id="&lt;Group&gt;">
									<path id="&lt;Path&gt;" class="s1" d="m2783.1 1760.9l-97.1-14.4 2.7-18.3 97.1 14.4z"/>
								</g>
								<g id="&lt;Group&gt;">
									<path id="&lt;Path&gt;" class="s1" d="m2717.8 1980.2l-6.8-17.2 91.3-36.1 6.8 17.2z"/>
								</g>
							</g>
							<g id="&lt;Group&gt;">
								<g id="&lt;Group&gt;">
									<path id="&lt;Compound Path&gt;" fill-rule="evenodd" class="s1" d="m101.6 446.8l-284.2-140.1-8.7-543.4 412.2 168.9zm-265.9-151.8l253.2 124.9 110.5-476.6-371.7-152.2z"/>
								</g>
								<g id="&lt;Group&gt;">
									<path id="&lt;Compound Path&gt;" fill-rule="evenodd" class="s1" d="m138.5 455.2l115.1-515.6 444.7 26.2-242.9 486.1zm129.7-496.2l-106.6 477.4 282.3-3 225.3-450.9z"/>
								</g>
								<g id="&lt;Group&gt;">
									<path id="&lt;Compound Path&gt;" fill-rule="evenodd" class="s1" d="m155 456.5l-68.8-15.7 117-514.1 68.8 15.7zm-46.7-29.6l32.8 7.4 108.7-478-32.7-7.4z"/>
								</g>
								<g id="&lt;Group&gt;">
									<path id="&lt;Path&gt;" class="s1" d="m636.7-28.9l-27.6-31.8c-196.9-65.5-332.2-29.6-358.2-21.4l-6.3 27.7-18.1-4.1 8.6-37.6 4.6-1.7c1.5-0.6 38.3-14.5 103.5-18.9 59.8-4 155.9-0.5 274.2 39.3l2.4 0.8 30.9 35.6z"/>
								</g>
								<g id="&lt;Group&gt;">
									<path id="&lt;Path&gt;" class="s1" d="m244.6-54.4l-18.1-4.1 6.3-27.7c-19.9-18.6-126.3-109.6-332.3-135.7l-38.6 16.7-7.4-16.9 43.3-18.8 2.5 0.3c123.9 15.3 212.1 53.7 264.2 83.2 56.9 32.2 84.1 60.7 85.2 61.9l3.4 3.5z"/>
								</g>
								<g id="&lt;Group&gt;">
									<path id="&lt;Path&gt;" class="s1" d="m621.6-62.8l-14.3-11.7 35.2-42.9c-30.2 3.3-89.5 4.5-193.3-11.4-81.3-12.4-131 0.5-158.4 13.4-29.2 13.9-39.8 30.8-39.9 31l-15.9-9.5c1.9-3.2 48.6-78.9 217-53.2 160 24.4 210 7.7 210.5 7.5l31.3-11z"/>
								</g>
								<g id="&lt;Group&gt;">
									<path id="&lt;Path&gt;" class="s1" d="m246.6 12.2l-51.5-11.7 4.1-18.1 51.5 11.7z"/>
								</g>
								<g id="&lt;Group&gt;">
									<path id="&lt;Path&gt;" class="s1" d="m237 54.3l-51.4-11.7 4.1-18.1 51.4 11.8z"/>
								</g>
								<g id="&lt;Group&gt;">
									<path id="&lt;Path&gt;" class="s1" d="m159.3 392.7l-51.3-12.1 4.2-18 51.4 12.1z"/>
								</g>
								<g id="&lt;Group&gt;">
									<path id="&lt;Path&gt;" class="s1" d="m169.2 350.7l-51.4-12.1 4.3-18 51.4 12.1z"/>
								</g>
								<path id="&lt;Path&gt;" class="s1" d="m259-70.9c12.7-5 26-8 39.4-10.4 6.7-1.3 13.4-2.2 20.1-3 3.4-0.4 6.8-0.7 10.2-1 3.4-0.3 6.7-0.6 10.1-0.8 13.6-0.8 27.2-1 40.7-0.4 6.8 0.1 13.6 0.8 20.3 1.3 6.8 0.7 13.5 1.5 20.2 2.5-6.8 0.5-13.5 0.6-20.3 0.9l-10.1 0.3c-3.4 0.1-6.7 0.2-10.1 0.4q-5 0.2-10.1 0.3c-3.3 0.1-6.7 0.4-10 0.5-6.7 0.3-13.4 0.7-20.1 1.1-6.7 0.4-13.4 0.8-20.1 1.4-6.7 0.5-13.4 1.2-20.1 1.8-13.3 1.4-26.7 2.9-40.1 5.1z"/>
								<path id="&lt;Path&gt;" class="s1" d="m374.9-65c18.2-3.5 36.6-4.9 55.1-5.6 18.5-0.6 37-0.2 55.4 0.9 18.4 1.5 36.8 3.2 55 6.3 9.2 1.3 18.2 3.2 27.3 5 9 1.9 18 4.1 26.9 6.5-9.2-0.8-18.3-2.2-27.5-3.2l-13.7-1.5q-6.8-0.8-13.7-1.5-6.8-0.6-13.6-1.4l-13.7-1.1-6.9-0.7-6.8-0.5-13.7-1c-9.2-0.5-18.3-1.1-27.5-1.4-4.6-0.3-9.1-0.5-13.7-0.6-4.6-0.1-9.2-0.3-13.8-0.4-18.3-0.3-36.7-0.5-55.1 0.2z"/>
								<path id="&lt;Path&gt;" class="s1" d="m235-80.9c-12.8-6.9-25.3-14-37.8-21.3l-37.5-21.6q-9.3-5.4-18.7-10.8c-6.2-3.7-12.6-7-18.8-10.7l-37.8-21.2c13.8 4.5 27.2 10.2 40.3 16.4q5 2.3 9.8 4.8 4.9 2.4 9.7 5c6.4 3.4 12.7 7 19 10.5 6.2 3.7 12.5 7.4 18.6 11.2 6.1 3.9 12.3 7.8 18.3 11.9 12 8.1 23.7 16.6 34.9 25.8z"/>
								<path id="&lt;Path&gt;" class="s1" d="m162.4-102.2c-18.6-8.3-37-16.8-55.3-25.4l-55.1-25.6c-9.1-4.3-18.3-8.6-27.5-12.7-9.2-4.3-18.5-8.3-27.6-12.6-18.5-8.1-37.1-16.2-55.8-24.1 19.6 5.2 38.9 11.9 57.8 19.2 19 7.3 37.6 15.4 56.1 23.9 18.4 8.6 36.6 17.5 54.5 27.1 17.9 9.5 35.7 19.4 52.9 30.2z"/>
							</g>
							<g id="&lt;Group&gt;">
								<path id="&lt;Compound Path&gt;" fill-rule="evenodd" class="s1" d="m926.3 547.8c-31.2 0-56.6-25.4-56.6-56.7 0-31.2 25.4-56.6 56.6-56.6 31.3 0 56.7 25.4 56.7 56.6 0 31.3-25.4 56.7-56.7 56.7zm0-94.8c-21 0-38.1 17.1-38.1 38.1 0 21.1 17.1 38.2 38.1 38.2 21.1 0 38.2-17.1 38.2-38.2 0-21-17.1-38.1-38.2-38.1z"/>
							</g>
							<g id="&lt;Group&gt;">
								<path id="&lt;Compound Path&gt;" fill-rule="evenodd" class="s1" d="m2179 92.9c-46 0-83.4-37.4-83.4-83.4 0-46.1 37.4-83.5 83.4-83.5 46.1 0 83.5 37.4 83.5 83.5 0 46-37.4 83.4-83.5 83.4zm0-148.4c-35.8 0-64.9 29.1-64.9 65 0 35.8 29.1 64.9 64.9 64.9 35.9 0 65-29.1 65-64.9 0-35.9-29.1-65-65-65z"/>
							</g>
							<g id="&lt;Group&gt;">
								<g id="&lt;Group&gt;">
									<path id="&lt;Compound Path&gt;" fill-rule="evenodd" class="s1" d="m3408.8 525.5q-0.3-2.9-0.5-5.8c-9.8-112.6 24.9-222.2 97.6-308.6 72.7-86.5 174.7-139.4 287.3-149.1 112.5-9.8 222.1 24.9 308.6 97.6 86.4 72.7 139.4 174.7 149.1 287.3 9.7 112.5-25 222.1-97.7 308.6-72.7 86.4-174.7 139.4-287.2 149.1-112.5 9.7-222.1-25-308.6-97.7-84.9-71.4-137.6-171.1-148.6-281.4zm825.7-82.8c-10.2-101.9-58.5-200-142.9-271-83.2-70-188.7-103.4-297.1-94-108.3 9.3-206.5 60.3-276.5 143.5-144.5 171.9-122.2 429.2 49.6 573.7 171.8 144.4 429.1 122.2 573.6-49.6 73.5-87.4 103.9-197 93.3-302.6z"/>
								</g>
								<g id="&lt;Group&gt;">
									<path id="&lt;Compound Path&gt;" fill-rule="evenodd" class="s1" d="m3493.7 517q-0.2-2.3-0.4-4.7c-7.8-89.8 19.9-177.3 77.9-246.3 58.1-69 139.5-111.3 229.3-119 89.9-7.8 177.3 19.9 246.3 77.9 69.1 58.1 111.4 139.5 119.1 229.3 7.8 89.9-19.9 177.3-78 246.3-58 69-139.4 111.3-229.3 119.1-89.8 7.7-177.3-19.9-246.3-78-67.8-57-109.8-136.6-118.6-224.6zm656.1-65.9c-8.4-83.9-48.5-159.7-113.1-214.1-65.8-55.3-149.2-81.7-234.8-74.3-85.6 7.4-163.3 47.7-218.6 113.5-114.2 135.8-96.6 339.2 39.2 453.4 135.8 114.2 339.2 96.6 453.4-39.2 55.3-65.8 81.7-149.2 74.3-234.8q-0.2-2.3-0.4-4.5z"/>
								</g>
								<g id="&lt;Group&gt;">
									<path id="&lt;Path&gt;" class="s1" d="m3646.7 700.2l10.4-11.9c19.7 17.3 41.7 31.6 65.3 42.4l-6.6 14.4c-25-11.5-48.2-26.6-69.1-44.9z"/>
								</g>
								<g id="&lt;Group&gt;">
									<path id="&lt;Path&gt;" class="s1" d="m3781.6 764.1l2.6-15.6c93.8 16 190.1-19.3 251.3-92.1l12.1 10.2c-32.6 38.7-74.8 68.1-122.2 84.9-46 16.4-95.7 20.7-143.8 12.6z"/>
								</g>
								<g id="&lt;Group&gt;">
									<path id="&lt;Path&gt;" class="s1" d="m3379.2 190.9l93-110.6 94.8 79.7-10.2 12.1-82.7-69.6-72.7 86.5 81.3 68.3-10.2 12.1z"/>
								</g>
								<g id="&lt;Group&gt;">
									<path id="&lt;Compound Path&gt;" fill-rule="evenodd" class="s1" d="m2769.3-277.5l136.8-162.7 600 504.6-136.8 162.7zm138.8-140.5l-116.5 138.6 575.8 484.3 116.5-138.6z"/>
								</g>
							</g>
						</g>
					</g>
					<path id="&lt;Path&gt;" class="s2" d="m2520 696c-213.9 137.3-301.7 258-344.1 372.9-64 172.9-25.3 332.5-159.9 515.1-39.8 53.9-81.5 105.8-126.5 154.8-94.5 103-203.1 193-336.6 261.2h-1552.9v-2000h2923.1c50.3 245.6-54.9 472.5-403.1 696z"/>
					<path id="&lt;Path&gt;" class="s2" d="m3112 432c-80 352-424 480-720 568-71.8 21.4-146.1 43.2-216.1 68.9-218.5 79.8-396.5 196.6-335.9 451.1 19.5 82 36.7 154 49.5 218.8 20.2 101.1 30 184.6 22.3 261.2h-1911.8v-2000h3029.7c72.8 146.8 115 288.1 82.3 432z"/>
				</g>
				<g id="&lt;Group&gt;">
					<g id="&lt;Group&gt;">
						<path id="&lt;Compound Path&gt;" class="s1" d="m723.7 653.4v46.3h-193v-249.3h188.4v46.3h-131.1v54.1h115.7v44.9h-115.7v57.7z"/>
						<path id="&lt;Compound Path&gt;" fill-rule="evenodd" class="s1" d="m959.5 435.4v264.3h-53.1v-22.1q-20.7 25-59.8 25-27.1 0-49-12.1-21.9-12.2-34.4-34.6-12.4-22.4-12.4-52 0-29.6 12.4-52 12.5-22.4 34.4-34.5 21.9-12.1 49-12.1 36.6 0 57.3 23.1v-93zm-68.4 207.2q13.9-14.5 13.9-38.7 0-24.2-13.9-38.6-13.9-14.5-34.9-14.5-21.4 0-35.2 14.5-13.9 14.4-13.9 38.6 0 24.2 13.9 38.7 13.8 14.4 35.2 14.4 21 0 34.9-14.4z"/>
						<path id="&lt;Compound Path&gt;" class="s1" d="m1203.8 508.1v191.6h-52.7v-22.8q-11.1 12.5-26.4 19.1-15.3 6.6-33.1 6.6-37.8 0-59.8-21.8-22.1-21.7-22.1-64.4v-108.3h55.5v100.1q0 46.3 38.9 46.3 19.9 0 32-13 12.1-13 12.1-38.7v-94.7z"/>
						<path id="&lt;Compound Path&gt;" class="s1" d="m1293 689.9q-24.4-12.6-38.1-35.1-13.7-22.4-13.7-50.9 0-28.5 13.7-50.9 13.7-22.5 38.1-35.1 24.4-12.6 55-12.6 30.3 0 52.9 12.6 22.6 12.6 33 36.1l-43.1 23.2q-15-26.4-43.1-26.4-21.8 0-36 14.3-14.3 14.2-14.3 38.8 0 24.6 14.3 38.8 14.2 14.3 36 14.3 28.5 0 43.1-26.4l43.1 23.5q-10.4 22.8-33 35.6-22.6 12.9-52.9 12.9-30.6 0-55-12.7z"/>
						<path id="&lt;Compound Path&gt;" fill-rule="evenodd" class="s1" d="m1611.6 526.4q23.8 21.2 23.8 64v109.3h-52v-23.8q-15.6 26.7-58.4 26.7-22.1 0-38.3-7.5-16.2-7.5-24.7-20.7-8.6-13.1-8.6-29.9 0-26.7 20.2-42 20.1-15.3 62.1-15.3h44.2q0-18.2-11.1-28-11-9.8-33.1-9.8-15.3 0-30.1 4.8-14.8 4.8-25.1 13l-19.9-38.8q15.6-11 37.5-17.1 21.9-6 45.1-6 44.5 0 68.4 21.1zm-47.4 132.2q11-6.6 15.7-19.4v-19.6h-38.1q-34.2 0-34.2 22.4 0 10.7 8.3 16.9 8.4 6.3 23 6.3 14.3 0 25.3-6.6z"/>
						<path id="&lt;Compound Path&gt;" class="s1" d="m1809.2 690.5q-8.2 6-20.1 9-11.9 3.1-25.1 3.1-34.2 0-52.9-17.5-18.7-17.4-18.7-51.3v-78.7h-29.5v-42.7h29.5v-46.7h55.6v46.7h47.7v42.7h-47.7v78q0 12.1 6.2 18.7 6.2 6.6 17.6 6.6 13.2 0 22.5-7.1z"/>
						<path id="&lt;Compound Path&gt;" class="s1" d="m1843.4 472.5q-9.6-8.9-9.6-22.1 0-13.2 9.6-22.1 9.6-8.9 25-8.9 15.3 0 24.9 8.6 9.6 8.5 9.6 21.3 0 13.9-9.6 23-9.6 9.1-24.9 9.1-15.4 0-25-8.9zm-2.8 35.6h55.5v191.6h-55.5z"/>
						<path id="&lt;Compound Path&gt;" fill-rule="evenodd" class="s1" d="m1984.6 689.9q-24-12.6-37.5-35.1-13.6-22.4-13.6-50.9 0-28.5 13.6-50.9 13.5-22.5 37.5-35.1 24.1-12.6 54.3-12.6 30.3 0 54.2 12.6 23.8 12.6 37.4 35.1 13.5 22.4 13.5 50.9 0 28.5-13.5 50.9-13.6 22.5-37.4 35.1-23.9 12.7-54.2 12.7-30.2 0-54.3-12.7zm89.4-47.3q13.7-14.5 13.7-38.7 0-24.2-13.7-38.6-13.7-14.5-35.1-14.5-21.3 0-35.2 14.5-13.9 14.4-13.9 38.6 0 24.2 13.9 38.7 13.9 14.4 35.2 14.4 21.4 0 35.1-14.4z"/>
						<path id="&lt;Compound Path&gt;" class="s1" d="m2355 526.6q21.9 21.4 21.9 63.4v109.7h-55.5v-101.1q0-22.8-10-34-10-11.3-28.8-11.3-21.1 0-33.5 13-12.5 13-12.5 38.7v94.7h-55.5v-191.6h53v22.4q11.1-12.1 27.4-18.7 16.4-6.5 36-6.5 35.6 0 57.5 21.3z"/>
						<path id="&lt;Compound Path&gt;" class="s1" d="m621.5 969.8l-33.5 34.9v63h-57.3v-249.3h57.3v116.5l110.4-116.5h64.1l-103.3 111.1 109.4 138.2h-67.3z"/>
						<path id="&lt;Compound Path&gt;" class="s1" d="m960.7 894.6q21.9 21.4 21.9 63.4v109.7h-55.5v-101.1q-0.1-22.8-10-34-10-11.3-28.9-11.3-21 0-33.4 13-12.5 13-12.5 38.7v94.7h-55.6v-191.6h53.1v22.4q11-12.1 27.4-18.7 16.4-6.5 36-6.5 35.6 0 57.5 21.3z"/>
						<path id="&lt;Compound Path&gt;" fill-rule="evenodd" class="s1" d="m1071.8 1057.9q-24-12.6-37.5-35.1-13.6-22.4-13.6-50.9 0-28.5 13.6-50.9 13.5-22.5 37.5-35.1 24.1-12.6 54.3-12.6 30.3 0 54.2 12.6 23.8 12.6 37.4 35.1 13.5 22.4 13.5 50.9 0 28.5-13.5 50.9-13.6 22.5-37.4 35.1-23.9 12.7-54.2 12.7-30.2 0-54.3-12.7zm89.4-47.4q13.7-14.4 13.7-38.6 0-24.2-13.7-38.6-13.7-14.5-35.1-14.5-21.3 0-35.2 14.5-13.9 14.4-13.9 38.6 0 24.2 13.9 38.6 13.9 14.5 35.2 14.5 21.4 0 35.1-14.5z"/>
						<path id="&lt;Compound Path&gt;" class="s1" d="m1570.6 876.1l-69.4 191.6h-53.5l-43-118.9-44.6 118.9h-53.4l-69.1-191.6h52.4l45.2 129.6 47-129.6h47l45.6 129.6 46.7-129.6z"/>
						<path id="&lt;Compound Path&gt;" class="s1" d="m1596.6 803.4h55.6v264.3h-55.6z"/>
						<path id="&lt;Compound Path&gt;" fill-rule="evenodd" class="s1" d="m1890.4 987.6h-144.9q3.9 17.8 18.5 28.1 14.6 10.3 36.3 10.3 15 0 26.6-4.4 11.5-4.5 21.5-14.1l29.6 32.1q-27.1 31-79.1 31-32.4 0-57.3-12.7-25-12.6-38.5-35.1-13.5-22.4-13.5-50.9 0-28.1 13.3-50.7 13.4-22.7 36.7-35.3 23.3-12.6 52.2-12.6 28.1 0 50.9 12.1 22.8 12.1 35.8 34.7 13 22.6 13 52.5 0 1.1-1.1 15zm-130-61.6q-12.8 10.7-15.6 29.2h94.4q-2.9-18.2-15.7-29.1-12.8-10.8-31.4-10.8-18.8 0-31.7 10.7z"/>
						<path id="&lt;Compound Path&gt;" fill-rule="evenodd" class="s1" d="m2123.7 803.4v264.3h-53v-22.1q-20.7 25-59.9 25-27 0-49-12.1-21.9-12.2-34.3-34.6-12.5-22.4-12.5-52 0-29.6 12.5-52 12.4-22.4 34.3-34.5 22-12.1 49-12.1 36.7 0 57.4 23.1v-93zm-68.4 207.1q13.9-14.4 13.9-38.6 0-24.2-13.9-38.6-13.9-14.5-34.9-14.5-21.4 0-35.3 14.5-13.9 14.4-13.9 38.6 0 24.2 13.9 38.6 13.9 14.5 35.3 14.5 21 0 34.9-14.5z"/>
						<path id="&lt;Compound Path&gt;" fill-rule="evenodd" class="s1" d="m2372.7 876.1v159.6q0 52.7-27.5 78.3-27.4 25.7-80.1 25.7-27.8 0-52.7-6.8-24.9-6.8-41.3-19.6l22.1-39.9q12.1 10 30.6 15.9 18.5 5.8 37 5.8 28.9 0 42.6-13 13.7-13 13.7-39.3v-8.2q-21.7 23.9-60.5 23.9-26.4 0-48.3-11.6-21.9-11.6-34.7-32.6-12.8-21-12.8-48.4 0-27.5 12.8-48.5 12.8-21 34.7-32.6 21.9-11.5 48.3-11.5 41.6 0 63.4 27.4v-24.6zm-69 123.8q14.1-13 14.1-34 0-21.1-14.1-34.1-14-13-36.1-13-22.1 0-36.3 13-14.3 13-14.3 34.1 0 21 14.3 34 14.2 13 36.3 13 22.1 0 36.1-13z"/>
						<path id="&lt;Compound Path&gt;" fill-rule="evenodd" class="s1" d="m2610.9 987.6h-144.9q3.9 17.8 18.5 28.1 14.6 10.3 36.3 10.3 15 0 26.6-4.4 11.5-4.5 21.5-14.1l29.6 32.1q-27.1 31-79.1 31-32.4 0-57.3-12.7-25-12.6-38.5-35.1-13.5-22.4-13.5-50.9 0-28.1 13.3-50.7 13.4-22.7 36.7-35.3 23.3-12.6 52.2-12.6 28.1 0 50.9 12.1 22.8 12.1 35.8 34.7 13 22.6 13 52.5 0 1.1-1.1 15zm-130-61.6q-12.8 10.7-15.6 29.2h94.3q-2.8-18.2-15.6-29.1-12.8-10.8-31.4-10.8-18.8 0-31.7 10.7z"/>
					</g>
				</g>
				<path id="&lt;Path&gt;" class="s2" d="m7064 1808c0 0 248-224 224-536-24-312-240-416-264-560-24-144-24-384-336-424-312-40-552 360-880 320-193.2-23.6-648 136-648 472 0 336 184 728 184 728z"/>
				<path id="&lt;Path&gt;" class="s2" d="m5192 1808c0 0-195.5-440 119-752 314.4-312-85.4-604.9 209.6-816 335.4-240 740.3 104 959.4 328 219.1 224 458.4 137.3 678.5 268.6 220.1 131.4 330.3 363.4 225.5 587.4-104.8 224-168 384-168 384z"/>
			</g>
			<g id="OBJECT 14 ">
				<g id="&lt;Group&gt;">
					<g id="&lt;Group&gt;">
						<path id="&lt;Compound Path&gt;" fill-rule="evenodd" class="s3" d="m6703.3 734.8c-21.2 0-38.6-17.3-38.6-38.6 0-21.3 17.4-38.6 38.6-38.6 21.3 0 38.6 17.3 38.6 38.6 0 21.3-17.3 38.6-38.6 38.6zm0-67.8c-16.1 0-29.2 13.1-29.2 29.2 0 16.2 13.1 29.3 29.2 29.3 16.2 0 29.3-13.1 29.3-29.3 0-16.1-13.1-29.2-29.3-29.2z"/>
					</g>
					<g id="&lt;Group&gt;">
						<path id="&lt;Compound Path&gt;" fill-rule="evenodd" class="s3" d="m5572.6 604.5c-21.2 0-38.6-17.3-38.6-38.6 0-21.3 17.4-38.6 38.6-38.6 21.3 0 38.6 17.3 38.6 38.6 0 21.3-17.3 38.6-38.6 38.6zm0-67.9c-16.1 0-29.2 13.2-29.2 29.3 0 16.1 13.1 29.2 29.2 29.2 16.2 0 29.3-13.1 29.3-29.2 0-16.1-13.1-29.3-29.3-29.3z"/>
					</g>
					<g id="&lt;Group&gt;">
						<path id="&lt;Compound Path&gt;" fill-rule="evenodd" class="s3" d="m5217.8 1211.5c-21.3 0-38.6-17.3-38.6-38.6 0-21.3 17.3-38.6 38.6-38.6 21.2 0 38.6 17.3 38.6 38.6 0 21.3-17.4 38.6-38.6 38.6zm0-67.8c-16.2 0-29.3 13.1-29.3 29.2 0 16.1 13.1 29.2 29.3 29.2 16.1 0 29.2-13.1 29.2-29.2 0-16.1-13.1-29.2-29.2-29.2z"/>
					</g>
					<g id="&lt;Group&gt;">
						<path id="&lt;Compound Path&gt;" fill-rule="evenodd" class="s3" d="m6147.1 604.5c-21.3 0-38.6-17.3-38.6-38.6 0-21.3 17.3-38.6 38.6-38.6 21.2 0 38.6 17.3 38.6 38.6 0 21.3-17.4 38.6-38.6 38.6zm0-67.9c-16.2 0-29.3 13.2-29.3 29.3 0 16.1 13.1 29.2 29.3 29.2 16.1 0 29.2-13.1 29.2-29.2 0-16.1-13.1-29.3-29.2-29.3z"/>
					</g>
					<g id="&lt;Group&gt;">
						<g id="&lt;Group&gt;">
							<g id="&lt;Group&gt;">
								<path id="&lt;Path&gt;" class="s3" d="m7151.6 1673.3l-9.3-0.9c7.4-75.3 9.4-149.8 5.6-209.6-4.7-72.6-17.9-122.8-38.1-145.1-8.2-9.1-17.3-13.5-27.9-13.5-9.9 0-18.5 3.9-26.3 11.8-28.9 29.4-43.5 112.5-41.3 234.1l-9.4 0.1c-1-56.8 1.6-105.6 7.8-145.1 7.3-46.4 19.5-78.6 36.2-95.6 9.5-9.7 20.7-14.7 33-14.7 13.2 0 24.9 5.6 34.9 16.6 46.9 51.8 48.7 220.9 34.8 361.9z"/>
							</g>
							<g id="&lt;Group&gt;">
								<path id="&lt;Path&gt;" class="s3" d="m7086.6 1820h-9.4v-456.3h9.4z"/>
							</g>
							<g id="&lt;Group&gt;">
								<path id="&lt;Path&gt;" class="s3" d="m7078.2 1440.7l-35.4-35.4 6.6-6.7 35.4 35.4z"/>
							</g>
							<g id="&lt;Group&gt;">
								<path id="&lt;Path&gt;" class="s3" d="m7078.2 1513.9l-35.4-35.4 6.6-6.6 35.4 35.4z"/>
							</g>
							<g id="&lt;Group&gt;">
								<path id="&lt;Path&gt;" class="s3" d="m7078.2 1587.2l-35.4-35.4 6.6-6.6 35.4 35.4z"/>
							</g>
							<g id="&lt;Group&gt;">
								<path id="&lt;Path&gt;" class="s3" d="m7078.2 1660.4l-35.4-35.4 6.6-6.6 35.4 35.4z"/>
							</g>
							<g id="&lt;Group&gt;">
								<path id="&lt;Path&gt;" class="s3" d="m7078.2 1733.7l-21.4-21.4 6.6-6.6 21.4 21.4z"/>
							</g>
							<g id="&lt;Group&gt;">
								<path id="&lt;Path&gt;" class="s3" d="m7085.6 1473.8l-6.6-6.6 35.4-35.4 6.6 6.6z"/>
							</g>
							<g id="&lt;Group&gt;">
								<path id="&lt;Path&gt;" class="s3" d="m7085.6 1547l-6.6-6.6 35.4-35.4 6.6 6.7z"/>
							</g>
							<g id="&lt;Group&gt;">
								<path id="&lt;Path&gt;" class="s3" d="m7085.6 1620.3l-6.6-6.6 35.4-35.4 6.6 6.6z"/>
							</g>
							<g id="&lt;Group&gt;">
								<path id="&lt;Path&gt;" class="s3" d="m7085.6 1693.6l-6.6-6.7 35.4-35.3 6.6 6.6z"/>
							</g>
							<g id="&lt;Group&gt;">
								<path id="&lt;Path&gt;" class="s3" d="m7085.6 1766.8l-6.6-6.6 35.4-35.4 6.6 6.6z"/>
							</g>
						</g>
						<g id="&lt;Group&gt;">
							<g id="&lt;Group&gt;">
								<path id="&lt;Path&gt;" class="s3" d="m7214.4 1822.2l-8.3-4.4c26.8-50.1 48-97.3 61.3-136.6 15.5-46 20.1-81 13.2-101.4-3-9.2-8.2-15.3-15.9-18.8-7.8-3.6-16.2-3.5-25.4 0.5-51.7 22.1-112.7 153.9-149.3 260l-8.9-3c39-113.2 100.1-242.4 154.5-265.6 11.7-5 22.8-5.2 33.1-0.4 9.9 4.5 16.9 12.7 20.8 24.3 7.6 22.7 3.2 58.8-13.3 107.4-13.4 39.8-34.8 87.5-61.8 138z"/>
							</g>
							<g id="&lt;Group&gt;">
								<path id="&lt;Path&gt;" class="s3" d="m7149.9 1822l-8.5-4 98.5-214.2 8.5 3.9z"/>
							</g>
							<g id="&lt;Group&gt;">
								<path id="&lt;Path&gt;" class="s3" d="m7213.6 1663.5l-14.6-39.5 8.7-3.2 14.6 39.4z"/>
							</g>
							<g id="&lt;Group&gt;">
								<path id="&lt;Path&gt;" class="s3" d="m7187.8 1719.5l-14.6-39.5 8.8-3.3 14.6 39.5z"/>
							</g>
							<g id="&lt;Group&gt;">
								<path id="&lt;Path&gt;" class="s3" d="m7162.1 1775.4l-14.6-39.5 8.8-3.2 14.6 39.5z"/>
							</g>
							<g id="&lt;Group&gt;">
								<path id="&lt;Path&gt;" class="s3" d="m7132.7 1821.6l-10.9-29.7 8.7-3.2 11 29.7z"/>
							</g>
							<g id="&lt;Group&gt;">
								<path id="&lt;Path&gt;" class="s3" d="m7208.6 1691.9l-3.3-8.8 39.5-14.6 3.2 8.8z"/>
							</g>
							<g id="&lt;Group&gt;">
								<path id="&lt;Path&gt;" class="s3" d="m7182.8 1747.8l-3.2-8.8 39.4-14.6 3.3 8.8z"/>
							</g>
							<g id="&lt;Group&gt;">
								<path id="&lt;Path&gt;" class="s3" d="m7157.1 1803.8l-3.3-8.8 39.5-14.6 3.3 8.8z"/>
							</g>
						</g>
						<g id="&lt;Group&gt;">
							<g id="&lt;Group&gt;">
								<path id="&lt;Path&gt;" class="s3" d="m6976.6 1822c-29.3-61.4-55.7-130.4-72.5-189.3-21.6-75.6-26.1-128.8-13.5-158.1 5.4-12.4 13.8-20.5 25.1-24.1 11.5-3.7 23.3-1.8 35.1 5.6 36.7 23 67.3 96.9 86.4 154.8 25.4 76.6 42.1 157.9 49.3 208.4l-9.3 1.3c-7.1-50.1-23.7-130.7-48.8-206.7-26.8-81-55.4-132.8-82.5-149.9-9.5-5.9-18.5-7.4-27.4-4.5-8.7 2.7-15 8.9-19.3 18.8-11.6 26.9-6.8 79.4 13.9 151.9 16.4 57.5 43.3 127.7 72 187.8z"/>
							</g>
							<g id="&lt;Group&gt;">
								<path id="&lt;Path&gt;" class="s3" d="m7029.3 1821.4l-99.9-312.4 8.9-2.9 99.9 312.5z"/>
							</g>
							<g id="&lt;Group&gt;">
								<path id="&lt;Path&gt;" class="s3" d="m6950.7 1572.1l-38.2-19.7 4.2-8.3 38.3 19.7z"/>
							</g>
							<g id="&lt;Group&gt;">
								<path id="&lt;Path&gt;" class="s3" d="m6969.9 1632.1l-38.3-19.7 4.3-8.3 38.3 19.7z"/>
							</g>
							<g id="&lt;Group&gt;">
								<path id="&lt;Path&gt;" class="s3" d="m6989 1692l-38.2-19.7 4.3-8.3 38.2 19.7z"/>
							</g>
							<g id="&lt;Group&gt;">
								<path id="&lt;Path&gt;" class="s3" d="m7008.2 1752l-38.2-19.7 4.3-8.3 38.2 19.7z"/>
							</g>
							<g id="&lt;Group&gt;">
								<path id="&lt;Path&gt;" class="s3" d="m7027.4 1812l-38.2-19.7 4.2-8.3 38.3 19.7z"/>
							</g>
							<g id="&lt;Group&gt;">
								<path id="&lt;Path&gt;" class="s3" d="m6966.3 1597l-8.3-4.3 19.7-38.2 8.3 4.3z"/>
							</g>
							<g id="&lt;Group&gt;">
								<path id="&lt;Path&gt;" class="s3" d="m6985.5 1657l-8.3-4.3 19.7-38.3 8.3 4.3z"/>
							</g>
							<g id="&lt;Group&gt;">
								<path id="&lt;Path&gt;" class="s3" d="m7004.7 1716.9l-8.3-4.3 19.7-38.2 8.3 4.3z"/>
							</g>
							<g id="&lt;Group&gt;">
								<path id="&lt;Path&gt;" class="s3" d="m7023.9 1776.9l-8.4-4.3 19.7-38.2 8.4 4.3z"/>
							</g>
							<g id="&lt;Group&gt;">
								<path id="&lt;Path&gt;" class="s3" d="m7050.3 1822.8l-8.3-4.3 12.4-24.1 8.3 4.2z"/>
							</g>
						</g>
					</g>
					<g id="&lt;Group&gt;">
						<g id="&lt;Group&gt;">
							<g id="&lt;Group&gt;">
								<path id="&lt;Path&gt;" class="s3" d="m5237.3 1818.7l-9-2.7c9.4-31.8 20.7-108.6 23.1-188.1 2.7-90.7-6.6-155.2-26.3-181.5-6.5-8.8-14-13.1-22.7-13.1-8.7 0-16.2 4.3-22.7 13.1-19.7 26.3-29.1 90.8-26.3 181.5 2.4 79.5 13.6 156.3 23.1 188.1l-9 2.7c-9.8-33.2-21-109.3-23.5-190.5-1.3-42.4 0.1-79.4 4-110.1 4.6-36 12.7-62 24.2-77.3 8.3-11.2 18.5-16.8 30.2-16.8 11.7 0 21.9 5.6 30.2 16.8 11.5 15.3 19.6 41.3 24.2 77.3 3.9 30.7 5.2 67.7 4 110.1-2.5 81.2-13.7 157.3-23.5 190.5z"/>
							</g>
							<g id="&lt;Group&gt;">
								<path id="&lt;Path&gt;" class="s3" d="m5207.1 1817.4h-9.4v-340.8h9.4z"/>
							</g>
							<g id="&lt;Group&gt;">
								<path id="&lt;Path&gt;" class="s3" d="m5206 1534.9l-6.6-6.6 26.4-26.5 6.6 6.7z"/>
							</g>
							<g id="&lt;Group&gt;">
								<path id="&lt;Path&gt;" class="s3" d="m5206 1589.6l-6.6-6.6 26.4-26.4 6.6 6.6z"/>
							</g>
							<g id="&lt;Group&gt;">
								<path id="&lt;Path&gt;" class="s3" d="m5206 1644.3l-6.6-6.6 26.4-26.4 6.6 6.6z"/>
							</g>
							<g id="&lt;Group&gt;">
								<path id="&lt;Path&gt;" class="s3" d="m5206 1699l-6.6-6.6 26.4-26.4 6.6 6.6z"/>
							</g>
							<g id="&lt;Group&gt;">
								<path id="&lt;Path&gt;" class="s3" d="m5206 1753.7l-6.6-6.6 26.4-26.4 6.6 6.6z"/>
							</g>
							<g id="&lt;Group&gt;">
								<path id="&lt;Path&gt;" class="s3" d="m5206 1808.5l-6.6-6.7 26.4-26.4 6.6 6.6z"/>
							</g>
							<g id="&lt;Group&gt;">
								<path id="&lt;Path&gt;" class="s3" d="m5198.8 1559.6l-26.5-26.4 6.7-6.6 26.4 26.4z"/>
							</g>
							<g id="&lt;Group&gt;">
								<path id="&lt;Path&gt;" class="s3" d="m5198.8 1614.3l-26.5-26.4 6.7-6.6 26.4 26.4z"/>
							</g>
							<g id="&lt;Group&gt;">
								<path id="&lt;Path&gt;" class="s3" d="m5198.8 1669.1l-26.5-26.5 6.7-6.6 26.4 26.4z"/>
							</g>
							<g id="&lt;Group&gt;">
								<path id="&lt;Path&gt;" class="s3" d="m5198.8 1723.8l-26.5-26.5 6.7-6.6 26.4 26.5z"/>
							</g>
							<g id="&lt;Group&gt;">
								<path id="&lt;Path&gt;" class="s3" d="m5198.8 1778.5l-26.5-26.4 6.7-6.7 26.4 26.5z"/>
							</g>
						</g>
						<g id="&lt;Group&gt;">
							<g id="&lt;Group&gt;">
								<path id="&lt;Path&gt;" class="s3" d="m5307.3 1819.6l-8.4-4.1c18.2-37.8 46.7-108.6 66.7-183.9 20.8-78.4 25.4-136.5 12.9-163.7-4.2-9.3-10.3-14.8-18.5-17-7.2-1.9-14.2-0.7-21.4 3.6-27.7 16.5-55.3 77.3-77.9 171.2l-9.1-2.2c10.6-43.9 22.3-81 35-110.2 14.9-34.6 30.8-57.1 47.2-66.8 9.4-5.6 19-7.2 28.6-4.7 10.9 2.9 19.2 10.4 24.6 22.2 17.2 37.4 2.8 113.1-12.4 170-20.2 75.9-48.9 147.4-67.3 185.6z"/>
							</g>
							<g id="&lt;Group&gt;">
								<path id="&lt;Path&gt;" class="s3" d="m5279.8 1772.7l-9.1-2.4 73.3-277 9 2.4z"/>
							</g>
							<g id="&lt;Group&gt;">
								<path id="&lt;Path&gt;" class="s3" d="m5336.5 1553.9l-4.7-8.1 33.6-19.5 4.7 8.1z"/>
							</g>
							<g id="&lt;Group&gt;">
								<path id="&lt;Path&gt;" class="s3" d="m5322 1608.8l-4.7-8.1 33.6-19.5 4.7 8.1z"/>
							</g>
							<g id="&lt;Group&gt;">
								<path id="&lt;Path&gt;" class="s3" d="m5307.5 1663.8l-4.7-8.1 33.6-19.6 4.7 8.1z"/>
							</g>
							<g id="&lt;Group&gt;">
								<path id="&lt;Path&gt;" class="s3" d="m5293 1718.7l-4.7-8.1 33.5-19.5 4.7 8.1z"/>
							</g>
							<g id="&lt;Group&gt;">
								<path id="&lt;Path&gt;" class="s3" d="m5278.5 1773.6l-4.7-8.1 33.5-19.5 4.7 8.1z"/>
							</g>
							<g id="&lt;Group&gt;">
								<path id="&lt;Path&gt;" class="s3" d="m5323 1576.9l-19.6-33.6 8.1-4.7 19.6 33.6z"/>
							</g>
							<g id="&lt;Group&gt;">
								<path id="&lt;Path&gt;" class="s3" d="m5308.4 1631.8l-19.5-33.5 8.1-4.8 19.5 33.6z"/>
							</g>
							<g id="&lt;Group&gt;">
								<path id="&lt;Path&gt;" class="s3" d="m5293.9 1686.7l-19.5-33.5 8.1-4.7 19.5 33.5z"/>
							</g>
							<g id="&lt;Group&gt;">
								<path id="&lt;Path&gt;" class="s3" d="m5279.4 1741.7l-19.5-33.6 8.1-4.7 19.5 33.6z"/>
							</g>
						</g>
						<g id="&lt;Group&gt;">
							<g id="&lt;Group&gt;">
								<path id="&lt;Path&gt;" class="s3" d="m5144.1 1821c-58.6-48.2-112.7-99.7-152.2-144.8-49.7-56.6-75.7-101.9-77.3-134.3-0.7-14.8 3.7-27 12.9-36.3 8.7-8.7 19.8-13 33.2-13q0.1 0 0.2 0c53.4 0.1 133.4 69.8 191 128.2l-6.7 6.6c-79.7-80.8-145.1-125.4-184.3-125.5q-0.1 0-0.2 0c-10.9 0-19.6 3.4-26.5 10.3-7.5 7.4-10.8 17-10.2 29.2 1.4 29.9 27.3 74.4 74.9 128.7 39.3 44.7 92.9 95.7 151.2 143.6z"/>
							</g>
							<g id="&lt;Group&gt;">
								<path id="&lt;Path&gt;" class="s3" d="m5154.4 1739l-181.5-181.4 6.7-6.6 181.4 181.4z"/>
							</g>
							<g id="&lt;Group&gt;">
								<path id="&lt;Path&gt;" class="s3" d="m5033.3 1606.1h-9.4v-50.1h9.4z"/>
							</g>
							<g id="&lt;Group&gt;">
								<path id="&lt;Path&gt;" class="s3" d="m5085.1 1657.9h-9.4v-50.1h9.4z"/>
							</g>
							<g id="&lt;Group&gt;">
								<path id="&lt;Path&gt;" class="s3" d="m5136.9 1709.7h-9.4v-50.1h9.4z"/>
							</g>
							<g id="&lt;Group&gt;">
								<path id="&lt;Path&gt;" class="s3" d="m5051.5 1634.7h-50.1v-9.3h50.1z"/>
							</g>
							<g id="&lt;Group&gt;">
								<path id="&lt;Path&gt;" class="s3" d="m5103.3 1686.5h-50.1v-9.3h50.1z"/>
							</g>
							<g id="&lt;Group&gt;">
								<path id="&lt;Path&gt;" class="s3" d="m5155.1 1738.3h-50.1v-9.3h50.1z"/>
							</g>
						</g>
					</g>
				</g>
				<g id="&lt;Group&gt;">
					<path id="&lt;Path&gt;" class="s4" d="m7341.3 1842.4h-2445.5c0-21.3 17.3-38.6 38.6-38.6h2368.3c21.3 0 38.6 17.3 38.6 38.6z"/>
					<g id="&lt;Group&gt;">
						<g id="&lt;Group&gt;">
							<path id="&lt;Path&gt;" class="s5" d="m5613.2 679.1l-5 40.4-36.6-5.6-0.3-1.1-1.3-5-1.4-5.3-4.9-19.1z"/>
							<path id="&lt;Path&gt;" class="s5" d="m5616 664.3c-0.8 23-15.3 44.3-38.3 43.5-23-0.8-40.8-0.7-45.1-46.5-2.1-22.9 20.2-41 43.2-40.2 23 0.8 41 20.2 40.2 43.2z"/>
							<path id="&lt;Path&gt;" class="s6" d="m5574.3 639.2c-9.1 1.6-32.9 14.1-41.4 13.7-8.5-0.4-17-28.9-15.4-38.4 1.6-9.5 15-11.5 15-11.5-2-5.5 6.5-13.9 29.3-11.6 20 1.9 26.8 14.5 26.8 14.5 21.5-7.8 37.7 11.2 33.4 48.9-2.5 22.7-13.1 34.9-13.1 34.9l-5-20.9c0 0 7.5-1.2 5.8-9.2-1.7-8-7.5-3.4-7.5-3.4 0 0-0.6-10.7-3.8-14.4-3.4-4-11.7-4.8-24.1-2.6z"/>
							<path id="&lt;Path&gt;" class="s7" d="m5572.5 718.6l-2.5-10.8c0 0 23.2-3 36.1-14.7 0 0-0.2 22.7-33.6 25.5z"/>
							<path id="&lt;Path&gt;" class="s6" d="m5598.4 641.8c0 0 4.7 13.6 2.4 28.7-2.4 15-12.7 25.3-24.9 21.1-12.3-4.1-19.3-6.7-26.7-1.9-7.5 4.8-11.5-3.2-11.5-3.2 0 0 5.7 24 36.6 21.4 30.8-2.6 38.9-26 38.9-26l-5.3-9.7c0 0-4.4-4.7-4.4-19.3 0-14.7-5.1-11.1-5.1-11.1z"/>
						</g>
						<g id="&lt;Group&gt;">
							<path id="&lt;Path&gt;" class="s8" d="m5444.6 837.8c4.6 1.8 9.5 3.3 14.7 4.5 2.6 0.6 5.4 1.1 8.2 1.5l4.3 0.5c1.5 0.2 3.1 0.2 4.6 0.2 6.2 0.2 13-0.4 20.4-2.6 1.8-0.6 3.7-1.2 5.5-2q2.8-1.2 5.6-2.7 2.7-1.6 5.3-3.4c1.7-1.2 3.4-2.6 5-4l1.2-1 0.7-0.7 1.4-1.4 2.9-2.8 1.4-1.5c0.5-0.4 0.9-0.9 1.3-1.4l2.5-2.8 2.6-2.8 2.2-2.9 2.3-2.8q1.2-1.4 2.2-2.9l4.2-5.7c1.4-1.9 2.6-3.8 3.9-5.7 1.3-2 2.5-3.9 3.7-5.8 1.2-2 2.5-3.9 3.6-5.8 1.6-2.7 4.7-9.1 8.2-16.4 8.3-17.2-0.6-51-13.2-48.6-15.1 2.8-38.6 4.8-46 20.4-6.9 14.5-24.1 51.7-37.9 54.3-12.8 2.5-50.9 2.9-51.2 2.8l1.8 32.9c0 0 18.9 5.4 28.6 8.6z"/>
							<g id="&lt;Group&gt;">
								<g id="&lt;Group&gt;">
									<path id="&lt;Path&gt;" class="s9" d="m5665.5 852.4l2.9-51.9c2.3-41.6 0.1-85.1-66.8-85.1q-0.1 0-0.2 0c-4.5-0.8-7.7-1.1-9.3-1.2q-1-0.1-1-0.1c-86.2 0-83.8 32.1-86.4 77.3l-2.7 48.6-4.1 72.5 163.7 9.2z"/>
									<path id="&lt;Path&gt;" class="s10" d="m5592.1 714.2c1.6 0.1 4.8 0.4 9.3 1.2q-4.6-0.9-9.3-1.2z"/>
								</g>
							</g>
							<g id="&lt;Group&gt;">
								<path id="&lt;Path&gt;" class="s7" d="m5425.1 794.3c-1.6-2.7-5-3.6-7.7-2.1l-10.5 6.1c-2.7 1.5-3.6 5-2.1 7.7 1.6 2.7 5 3.6 7.7 2.1l10.5-6.1c2.7-1.6 3.6-5 2.1-7.7z"/>
								<g id="&lt;Group&gt;">
									<path id="&lt;Path&gt;" class="s11" d="m5454.4 770.2l9.4 98.7-10.9 1-8.6-98.8 5.1-0.4z"/>
									<path id="&lt;Path&gt;" class="s12" d="m5408.8 750.8l10.9 101.1 33.2 18-8.6-98.8z"/>
									<path id="&lt;Path&gt;" class="s12" d="m5543.5 760.1l-4 103.1-75.7 5.7-9.4-98.7z"/>
									<path id="&lt;Path&gt;" class="s13" d="m5424.8 746.2c0 0 17.2 7.3 24.6 20.8l-24.6-13.4z"/>
									<path id="&lt;Path&gt;" class="s5" d="m5412.7 753.1l6-2.3c0 0 18.6 3.3 30.7 16.2 0 0 12.5-7.7 44.1-11.1 31.7-3.3 40.6 0 40.6 0l5.7 4.7-80.8 9.9-14.7 0.6z"/>
								</g>
								<g id="&lt;Group&gt;">
									<path id="&lt;Path&gt;" class="s14" d="m5456.7 766.9c2.3-1.2 4.8-2.1 7.4-2.8 2.5-0.8 5.1-1.3 7.7-1.8 2.6-0.5 5.2-0.8 7.8-1.1 1.4-0.1 2.7-0.1 4-0.2q2-0.1 3.9 0l-7.8 1q-3.9 0.6-7.7 1.3-3.9 0.7-7.7 1.5-2 0.5-3.9 1-1.9 0.5-3.7 1.1z"/>
									<path id="&lt;Path&gt;" class="s14" d="m5480.4 763.9c3.4-1.1 6.8-1.9 10.3-2.6 3.5-0.6 7-1.1 10.6-1.4 3.5-0.3 7-0.5 10.6-0.5 1.7 0 3.5 0.1 5.3 0.1q2.6 0.2 5.3 0.4c-3.6 0.1-7.1 0.1-10.6 0.3-3.5 0.2-7.1 0.4-10.6 0.7-3.5 0.3-7 0.7-10.5 1.2q-2.6 0.4-5.2 0.8-2.6 0.4-5.2 1z"/>
									<path id="&lt;Path&gt;" class="s14" d="m5447.1 765.8l-8.3-4.8q-2-1.2-4.1-2.3-1.1-0.6-2.1-1.2c-0.7-0.4-1.4-0.7-2.2-1.1 1.6 0.5 3 1.2 4.5 1.9q2.1 1 4.2 2.2 2.1 1.2 4.1 2.5c1.4 0.9 2.7 1.8 3.9 2.8z"/>
									<path id="&lt;Path&gt;" class="s14" d="m5438.8 762.4l-4-1.9q-2-1-4-1.9-2.1-1-4.1-1.9-1-0.5-2-0.9c-0.7-0.3-1.4-0.6-2.1-0.9 1.5 0.4 2.9 0.9 4.2 1.5 1.4 0.6 2.8 1.2 4.1 1.8q2 1 4 2 2 1.1 3.9 2.2z"/>
								</g>
							</g>
							<g id="&lt;Group&gt;">
								<g id="&lt;Group&gt;">
									<path id="&lt;Path&gt;" class="s5" d="m5509.5 856.3l11.3 1.5c7.7 0.9 14.7-4.5 15.7-12.2l0.6-4.5c0.9-7.7-4.5-14.7-12.2-15.7l-11.3-1.4c-7.7-1-14.7 4.5-15.7 12.1l-0.6 4.5c-1 7.7 4.5 14.8 12.2 15.7z"/>
									<path id="&lt;Path&gt;" class="s5" d="m5527.3 830.5c2.3-2.2 7.8 1.1 5.7-1.2l-14-15.5c-2.2-2.2-5.8-2.3-8-0.1-2.2 2.1-2.3 5.7-0.1 8l8.5 8.6c2.1 2.3 5.7 2.3 7.9 0.2z"/>
									<path id="&lt;Path&gt;" class="s5" d="m5518.1 830.2c0.4-3-1.8-5.9-4.8-6.3l-12.1-1.5c-3-0.4-5.9 1.8-6.3 4.9-0.4 3 1.8 5.9 4.9 6.3l12 1.5c3.1 0.4 6-1.8 6.3-4.9z"/>
									<path id="&lt;Path&gt;" class="s5" d="m5509.7 836.2c0.4-3.1-1.8-5.9-4.9-6.3l-12-1.5c-3.1-0.4-5.9 1.8-6.3 4.9-0.4 3 1.8 5.9 4.8 6.3l12.1 1.5c3 0.4 5.9-1.8 6.3-4.9z"/>
									<path id="&lt;Path&gt;" class="s5" d="m5511.7 843.6c0.3-3.1-1.9-5.9-4.9-6.3l-12-1.6c-3.1-0.4-6 1.8-6.4 4.9-0.4 3.1 1.8 5.9 4.9 6.3l12 1.6c3.1 0.4 6-1.8 6.4-4.9z"/>
									<path id="&lt;Path&gt;" class="s5" d="m5517.6 851.4c0.4-3.1-1.8-5.9-4.9-6.3l-12-1.5c-3.1-0.4-5.9 1.8-6.3 4.9-0.4 3 1.8 5.9 4.9 6.3l12 1.5c3.1 0.4 5.9-1.8 6.3-4.9z"/>
								</g>
								<g id="&lt;Group&gt;">
									<path id="&lt;Path&gt;" class="s7" d="m5512.9 832.5l-18.1-3.3 0.2-1.1 18.1 3.2z"/>
								</g>
								<g id="&lt;Group&gt;">
									<path id="&lt;Path&gt;" class="s7" d="m5506.6 842.5l-17.7-3.2 0.2-1.1 17.7 3.1z"/>
								</g>
								<g id="&lt;Group&gt;">
									<path id="&lt;Path&gt;" class="s7" d="m5510.3 850.5l-15.3-2.8 0.3-1.1 15.2 2.7z"/>
								</g>
							</g>
							<path id="&lt;Path&gt;" class="s8" d="m5635 726c19.1 0.3 33.8 16.8 32.1 35.8-0.7 8.1-1.5 15.2-2 18.2-0.4 2.2-0.9 4.5-1.3 6.7-0.5 2.2-1 4.4-1.5 6.7-0.6 2.3-1.1 4.5-1.7 6.7l-1.9 6.9q-0.5 1.7-1.1 3.4l-1.2 3.5-1.1 3.4-1.4 3.6-1.4 3.5c-0.2 0.6-0.5 1.2-0.7 1.8l-0.9 1.8-1.7 3.6-0.8 1.8-0.5 0.9-0.7 1.4c-1 1.9-2.1 3.8-3.3 5.5q-1.8 2.6-3.8 5.1-2.1 2.3-4.3 4.4c-1.4 1.4-3 2.6-4.5 3.8-6.1 4.6-12.3 7.5-18.2 9.5-1.4 0.5-3 1-4.4 1.4l-4.2 1.1c-2.8 0.6-5.5 1.1-8.2 1.4-5.3 0.7-10.4 0.9-15.3 0.9-9.9-0.1-19.2-1.3-28.2-2.9-4.5-0.9-8.9-1.9-13.3-3.1-2.2-0.6-4.3-1.2-6.5-1.9l-3.3-1-3.4-1.2 5.7-31.8c0.3 0 0.8-0.1 1.3-0.1l1.4-0.1 2.9-0.2q2.8-0.2 5.7-0.4c3.9-0.4 7.7-0.7 11.5-1.2 7.5-0.9 14.8-2.2 21.3-3.9 3.3-0.9 6.4-1.9 9.1-3 0.7-0.3 1.4-0.5 2-0.8q0.9-0.5 1.9-0.9l1.6-0.9c0.5-0.3 0.9-0.6 1.4-0.9 1.7-1.2 2.6-5.3 2.6-5.3l0.6-2.1 0.3-1.1c0-0.4 0.1-0.8 0.2-1.2l0.5-2.3 0.6-2.4 0.4-2.5c0.3-1.7 0.6-3.3 0.9-5.1 0.6-3.5 2.1-20.6 3.6-36.6 1.5-17.2 16-30.2 33.2-29.9z"/>
							<g id="&lt;Group&gt;">
								<path id="&lt;Path&gt;" class="s5" d="m5426.8 802.4c-0.2-3.1-2.9-5.4-6-5.2l-12.1 0.9c-3.1 0.2-5.4 2.9-5.2 6 0.2 3.1 3 5.5 6 5.2l12.1-0.8c3.1-0.3 5.5-3 5.2-6.1z"/>
								<path id="&lt;Path&gt;" class="s5" d="m5431.6 811.8c-0.3-3.1-3-5.4-6.1-5.2l-15.5 1.1c-3.1 0.3-5.5 3-5.3 6.1 0.3 3.1 3 5.4 6.1 5.2l15.5-1.2c3.1-0.2 5.5-2.9 5.3-6z"/>
								<path id="&lt;Path&gt;" class="s5" d="m5429.2 820.7c-0.2-3.1-3-5.5-6-5.2l-12.1 0.9c-3.1 0.2-5.5 2.9-5.2 6 0.2 3.1 2.9 5.4 6 5.2l12.1-0.9c3.1-0.2 5.4-2.9 5.2-6z"/>
								<path id="&lt;Path&gt;" class="s5" d="m5427.3 829.3c-0.3-3.1-3-5.4-6.1-5.2l-5.3 0.4c-3.1 0.2-5.5 2.9-5.2 6 0.2 3.1 2.9 5.5 6 5.2l5.3-0.4c3.2-0.2 5.5-2.9 5.3-6z"/>
								<g id="&lt;Group&gt;">
									<path id="&lt;Path&gt;" class="s7" d="m5407 809.5l-0.1-1.2 18.5-2.3 0.2 1.2z"/>
								</g>
								<g id="&lt;Group&gt;">
									<path id="&lt;Path&gt;" class="s7" d="m5407.8 819.7l-0.1-1.1 20.1-1.7 0.1 1.2z"/>
								</g>
								<g id="&lt;Group&gt;">
									<path id="&lt;Path&gt;" class="s7" d="m5412 828.2l-0.2-1.2 14.2-1.4 0.1 1.2z"/>
								</g>
							</g>
						</g>
						<g id="&lt;Group&gt;">
							<path id="&lt;Path&gt;" class="s15" d="m5450.7 998.8l-26.9 126.6h69.4l35.5-119.3c0 0-22-21.7-44.3-31.2-22.4-9.5-28 9.8-33.7 23.9z"/>
							<path id="&lt;Path&gt;" class="s16" d="m5660.4 950.7c-6.5 37.7-33.2 70.4-82.9 64.6-62.4-7.2-111.8-35.6-111.8-35.6l-72.8 92.1-55.4-39.2c0 0 23.9-36.2 47.1-87.8 23.3-51.6 42.3-65.3 114.6-55.4 45.9 6.2 98.9 17.5 131.5 25 18.8 4.3 30.9 7.3 30.9 7.3 0.9 9.6 0.5 19.5-1.2 29z"/>
							<g id="&lt;Group&gt;">
								<g id="&lt;Group&gt;">
									<path id="&lt;Path&gt;" class="s17" d="m5342.3 1027.2l-1-0.6 0.7-1 0.9 0.7z"/>
								</g>
								<g id="&lt;Group&gt;">
									<path id="&lt;Compound Path&gt;" class="s17" d="m5395 1063.7l-1.9-1.3 0.7-1 1.9 1.3zm-3.8-2.6l-1.9-1.3 0.7-0.9 1.9 1.3zm-3.8-2.6l-1.9-1.3 0.7-1 1.9 1.3zm-3.8-2.6l-1.9-1.3 0.7-1 1.9 1.3zm-3.8-2.6l-1.9-1.3 0.7-0.9 1.9 1.3zm-3.8-2.6l-1.9-1.3 0.7-1 1.9 1.3zm-3.8-2.6l-1.9-1.3 0.7-1 1.9 1.3zm-3.8-2.6l-1.9-1.3 0.7-0.9 1.9 1.3zm-3.8-2.6l-1.9-1.3 0.7-1 1.9 1.3zm-3.8-2.6l-1.9-1.3 0.7-1 1.9 1.3zm-3.8-2.6l-1.9-1.3 0.7-0.9 1.9 1.3zm-3.8-2.6l-1.9-1.3 0.7-1 1.9 1.3zm-3.8-2.6l-1.9-1.3 0.7-1 1.9 1.3zm-3.8-2.6l-1.9-1.3 0.7-0.9 1.9 1.3z"/>
								</g>
								<g id="&lt;Group&gt;">
									<path id="&lt;Path&gt;" class="s17" d="m5397.8 1065.7l-0.9-0.7 0.6-1 1 0.7z"/>
								</g>
							</g>
							<g id="&lt;Group&gt;">
								<path id="&lt;Path&gt;" class="s18" d="m5397.4 1153.9c0 0 9.7 4.8 6.4 14.9l-21.4-0.1c0.5-4 2.8-7.6 6.3-9.6 3.4-2 6.2-3.7 8.7-5.2z"/>
								<path id="&lt;Path&gt;" class="s18" d="m5493.1 1140.5l-0.1 15.1c-19.6-0.3-17.4-17.7-17.4-17.7 7.9-0.5 12.6-1.1 13.4-1.2q0.2-0.1 0.2-0.1c2.2 0.1 3.9 1.8 3.9 3.9z"/>
								<path id="&lt;Path&gt;" class="s8" d="m5420.5 1139.6q2.4-1.5 5.2-3.3c0 0 1.9 0.3 5.2 0.6 5.6 0.6 15.1 1.4 26.7 1.4q1.4 0 2.8 0c6 0 11.1-0.2 15.3-0.4 0 0-2.2 17.4 17.4 17.7l-0.1 13.6-89.2-0.4c3.3-10.1-6.4-14.9-6.4-14.9 5.2-3.1 9.1-5.5 14.4-8.8 2.5-1.6 5.3-3.4 8.7-5.5z"/>
								<path id="&lt;Path&gt;" class="s19" d="m5493 1169.2v0.5c0 2.7-2.2 4.9-4.9 4.9l-102-0.5c-1 0-2-0.5-2.7-1.2-0.7-0.7-1.1-1.6-1.1-2.7q0-0.8 0.1-1.5l21.4 0.1z"/>
								<path id="&lt;Path&gt;" class="s5" d="m5489.3 1125.5l-0.1 11.1q0 0-0.1 0c-1.5 0.2-14.7 1.8-28.2 1.9-0.9 0-2.3-0.2-3.3-0.2-11.6 0-21.1-0.8-26.7-1.4-3.2-0.3-4.9-0.6-4.9-0.6v-11.1l58.5 0.3z"/>
								<g id="&lt;Group&gt;">
									<g id="&lt;Group&gt;">
										<path id="&lt;Path&gt;" class="s18" d="m5429.3 1149.2q-0.3 0-0.5-0.2l-8.7-9c-0.2-0.3-0.2-0.6 0-0.9 0.3-0.2 0.6-0.2 0.9 0.1l8.7 9c0.2 0.2 0.2 0.6 0 0.8q-0.2 0.2-0.4 0.2z"/>
									</g>
									<g id="&lt;Group&gt;">
										<path id="&lt;Path&gt;" class="s18" d="m5424.9 1152.1q-0.3 0-0.5-0.1l-8.7-9.1c-0.2-0.2-0.2-0.6 0-0.8 0.3-0.2 0.6-0.2 0.9 0l8.7 9c0.2 0.3 0.2 0.6 0 0.9q-0.2 0.1-0.4 0.1z"/>
									</g>
									<g id="&lt;Group&gt;">
										<path id="&lt;Path&gt;" class="s18" d="m5420.5 1154.6q-0.3 0-0.5-0.1l-8.6-9c-0.1 0-0.1-0.1-0.1-0.1-0.2-0.3-0.2-0.7 0.1-0.9 0.3-0.1 0.6-0.1 0.8 0.2l8.7 8.9c0.2 0.3 0.2 0.6 0 0.9q-0.2 0.1-0.4 0.1z"/>
									</g>
								</g>
							</g>
							<g id="&lt;Group&gt;">
								<path id="&lt;Path&gt;" class="s18" d="m5299.4 1041.1c0 0 5.3 9.5-3.2 15.8l-17.5-12.3c2.7-3 6.6-4.6 10.6-4.2 4 0.3 7.2 0.5 10.1 0.7z"/>
								<path id="&lt;Path&gt;" class="s18" d="m5385.7 1084.8l-8.7 12.4c-15.9-11.5-4.1-24.5-4.1-24.5 6.7 4.1 10.9 6.2 11.7 6.6q0.1 0.1 0.1 0.1h0.1c1.7 1.2 2.1 3.7 0.9 5.4z"/>
								<path id="&lt;Path&gt;" class="s8" d="m5326.6 1042.5q2.8 0.2 6.2 0.3c0 0 1.4 1.3 3.9 3.5 4.2 3.7 11.6 9.7 21 16.4q1.2 0.8 2.4 1.6c4.9 3.4 9.2 6.2 12.8 8.4 0 0-11.8 13 4.1 24.5l-7.8 11.1-73-51.4c8.5-6.3 3.2-15.8 3.2-15.8 6.1 0.4 10.7 0.6 16.9 0.9 3 0.2 6.3 0.3 10.3 0.5z"/>
								<path id="&lt;Path&gt;" class="s19" d="m5369.2 1108.3l-0.3 0.4c-1.6 2.2-4.6 2.7-6.8 1.2l-83.4-58.7c-0.9-0.6-1.4-1.5-1.6-2.5-0.2-1 0-2 0.6-2.9q0.5-0.6 1-1.2l17.5 12.3z"/>
								<path id="&lt;Path&gt;" class="s5" d="m5391.1 1070.3l-6.4 9.1q0 0-0.1-0.1c-1.4-0.7-13.4-7.4-24.5-15q-1.2-0.8-2.4-1.6c-9.4-6.7-16.8-12.7-21-16.4-2.4-2.1-3.8-3.3-3.8-3.3l6.4-9.1 47.8 33.6z"/>
								<g id="&lt;Group&gt;">
									<g id="&lt;Group&gt;">
										<path id="&lt;Path&gt;" class="s5" d="m5328.6 1055.5c-0.3 0-0.5-0.2-0.5-0.5l-2-12.4c-0.1-0.3 0.1-0.6 0.4-0.7 0.4 0 0.7 0.2 0.7 0.5l2 12.4c0.1 0.3-0.2 0.6-0.5 0.7q0 0-0.1 0z"/>
									</g>
									<g id="&lt;Group&gt;">
										<path id="&lt;Path&gt;" class="s5" d="m5323.3 1055.4c-0.2 0-0.5-0.2-0.5-0.5l-2-12.4c-0.1-0.3 0.1-0.6 0.4-0.6 0.3-0.1 0.7 0.1 0.7 0.4l2 12.4c0.1 0.4-0.2 0.7-0.5 0.7q0 0-0.1 0z"/>
									</g>
									<g id="&lt;Group&gt;">
										<path id="&lt;Path&gt;" class="s5" d="m5318.3 1055c-0.3 0-0.5-0.2-0.6-0.5l-2-12.4c0 0 0-0.1 0-0.1 0-0.3 0.3-0.6 0.6-0.6q0 0 0 0c0.3 0 0.6 0.2 0.6 0.6l2 12.3c0 0.3-0.2 0.6-0.5 0.6q-0.1 0.1-0.1 0.1z"/>
									</g>
								</g>
							</g>
							<path id="&lt;Path&gt;" class="s17" d="m5660.4 950.7c-38.6 2.5-29.7-36.3-29.7-36.3 18.8 4.3 30.9 7.3 30.9 7.3 0.9 9.6 0.5 19.5-1.2 29z"/>
							<g id="&lt;Group&gt;">
								<path id="&lt;Compound Path&gt;" class="s17" d="m5493.3 1118.2h-2.3v-1.2h2.3zm-4.7 0h-2.3v-1.2h2.3zm-4.7 0h-2.3v-1.1h2.3zm-4.6 0h-2.4v-1.2h2.4zm-4.7 0h-2.4v-1.2h2.4zm-4.7 0h-2.3v-1.2h2.3zm-4.7 0h-2.3v-1.1h2.3zm-4.7 0h-2.3v-1.2h2.3zm-4.6 0h-2.4v-1.2h2.4zm-4.7 0h-2.4v-1.1h2.4zm-4.7 0h-2.3v-1.2h2.3zm-4.7 0h-2.3v-1.2h2.3zm-4.7 0h-2.3v-1.1h2.3zm-4.6 0h-2.4v-1.2h2.4zm-4.7 0h-2.4v-1.2h2.4z"/>
							</g>
							<g id="&lt;Group&gt;">
								<path id="&lt;Compound Path&gt;" class="s17" d="m5349.4 1031.4l-1-0.6 1.1-2.1 1 0.6zm2.3-4.1l-1-0.6 1.2-2 1 0.6zm2.3-4.1l-1.1-0.6 1.2-2 1 0.5zm2.3-4.1l-1-0.5 1.1-2.1 1 0.6zm2.3-4.1l-1-0.6 1.1-2 1.1 0.6zm2.2-4.1l-1-0.6 1.1-2.1 1.1 0.6zm2.2-4.1l-1-0.6 1.1-2 1 0.6zm2.3-4.1l-1-0.6 1.1-2.1 1 0.6zm2.3-4.1l-1-0.6 1.1-2 1 0.5zm2.3-4.1l-1.1-0.5 1.2-2.1 1 0.6zm2.2-4.1l-1-0.6 1.1-2.1 1 0.6zm2.3-4.1l-1.1-0.6 1.2-2 1 0.5zm2.2-4.1l-1-0.6 1.1-2 1 0.5zm2.2-4.1l-1-0.5 1.1-2.1 1 0.5zm2.2-4.1l-1-0.5 1.1-2.1 1 0.6zm2.2-4.2l-1-0.5 1.1-2.1 1 0.5zm2.2-4.1l-1-0.5 1.1-2.1 1 0.5zm2.2-4.1l-1-0.6 1-2 1.1 0.5zm2.1-4.2l-1-0.5 1.1-2.1 1 0.6zm2.2-4.2l-1.1-0.5 1.1-2.1 1 0.5zm2.2-4.1l-1-0.5 1.1-2.1 1 0.5zm2.2-4.1l-1-0.5q0.5-1.1 1.1-2.1l1 0.6q-0.6 1-1.1 2zm2.2-4.1l-1-0.5q0.6-1.1 1.2-2.1l1 0.6q-0.6 1-1.2 2zm2.4-4l-1-0.6q0.6-1 1.2-2l1 0.6q-0.6 1-1.2 2zm2.4-4l-1-0.6q0.6-1 1.3-2l1 0.6q-0.7 1-1.3 2zm2.5-3.9l-0.9-0.7q0.6-1 1.3-1.9l1 0.6q-0.7 1-1.4 2zm2.7-3.9l-0.9-0.7q0.6-0.9 1.4-1.8l0.9 0.7q-0.7 0.9-1.4 1.8zm221.3-2.7l-0.9-0.2 0.2-1.2 1 0.3zm-3.3-0.8l-2.3-0.5 0.3-1.1 2.3 0.5zm-215.3-0.3l-0.9-0.7q0.7-0.9 1.5-1.8l0.9 0.7q-0.8 0.9-1.5 1.8zm210.7-0.7l-2.3-0.5 0.2-1.1 2.3 0.5zm-4.5-1l-2.3-0.5 0.2-1.2 2.3 0.5zm-4.6-1l-2.3-0.4 0.3-1.2 2.3 0.5zm-198.6-0.9l-0.8-0.8q0.7-0.8 1.5-1.7l0.9 0.8q-0.8 0.8-1.6 1.7zm194-0.1l-2.3-0.5 0.2-1.1 2.3 0.5zm-4.6-1l-2.3-0.5 0.3-1.1 2.3 0.5zm-4.6-1l-2.3-0.5 0.2-1.1 2.3 0.5zm-4.6-1l-2.3-0.4 0.3-1.2 2.3 0.5zm-177.1-0.5l-0.8-0.8q0.8-0.8 1.7-1.7l0.8 0.9q-0.8 0.8-1.7 1.6zm172.5-0.5l-2.3-0.4 0.2-1.2 2.3 0.5zm-4.6-0.9l-2.3-0.5 0.3-1.1 2.3 0.4zm-4.6-0.9l-2.3-0.5 0.2-1.1 2.3 0.5zm-159.9-1l-0.8-0.8q0.9-0.8 1.8-1.6l0.7 0.9q-0.9 0.8-1.7 1.5zm155.3 0l-2.3-0.4 0.2-1.2 2.3 0.5zm-4.6-0.9l-2.3-0.5 0.3-1.1 2.3 0.4zm-4.6-0.9l-2.3-0.4 0.2-1.1 2.3 0.4zm-4.6-0.9l-2.3-0.4 0.2-1.2 2.3 0.5zm-138-0.3l-0.7-1q0.9-0.7 1.8-1.4l0.7 0.9q-0.9 0.7-1.8 1.5zm133.4-0.6l-2.3-0.4 0.2-1.2 2.3 0.4zm-4.6-0.8l-2.3-0.5 0.2-1.1 2.3 0.4zm-4.6-0.8l-2.3-0.5 0.2-1.1 2.3 0.4zm-120.4-0.5l-0.7-0.9q1-0.7 2-1.3l0.6 1q-1 0.6-1.9 1.2zm115.8-0.3l-2.3-0.4 0.2-1.2 2.4 0.4zm-4.7-0.8l-2.3-0.4 0.2-1.2 2.4 0.4zm-4.7-0.8l-2.3-0.4 0.2-1.1 2.3 0.4zm-102.7-0.5l-0.6-1q1-0.6 2.1-1.1l0.5 1q-1 0.5-2 1.1zm98.1-0.3l-2.3-0.4 0.2-1.2 2.3 0.4zm-4.6-0.8l-2.3-0.4 0.2-1.1 2.3 0.4zm-4.6-0.8l-2.3-0.4 0.2-1.1 2.3 0.4zm-84.8-0.3l-0.6-1.1q1.1-0.5 2.2-1l0.5 1.1q-1.1 0.5-2.1 1zm80.2-0.5l-2.4-0.4 0.2-1.1 2.3 0.3zm-4.6-0.7l-2.3-0.3 0.2-1.2 2.3 0.4zm-71.3-0.7l-0.5-1.1q1.1-0.4 2.2-0.8l0.4 1.1q-1.1 0.4-2.1 0.8zm66.7-0.1l-2.3-0.3 0.1-1.2 2.4 0.4zm-4.7-0.7l-2.3-0.3 0.2-1.2 2.3 0.3zm-4.6-0.6l-2.4-0.4 0.2-1.1 2.3 0.3zm-53.1-0.1l-0.3-1.1q1.1-0.4 2.3-0.7l0.3 1.2q-1.2 0.3-2.3 0.6zm48.5-0.5l-2.3-0.3 0.1-1.2 2.3 0.3zm-4.6-0.6l-2.3-0.3 0.1-1.1 2.4 0.3zm-39.4-0.1l-0.2-1.2q1.1-0.2 2.3-0.5l0.2 1.2q-1.2 0.2-2.3 0.5zm34.7-0.5l-2.3-0.3 0.1-1.1 2.3 0.2zm-30.1-0.4l-0.2-1.1q1.2-0.2 2.3-0.4l0.2 1.2q-1.2 0.1-2.3 0.3zm25.5-0.1q-1.2-0.1-2.3-0.2l0.1-1.2q1.1 0.1 2.3 0.2zm-4.6-0.4q-1.2-0.1-2.4-0.2l0.1-1.2q1.2 0.1 2.4 0.2zm-16.3 0l-0.1-1.2q1.2-0.1 2.4-0.1v1.1q-1.1 0.1-2.3 0.2zm11.6-0.3q-1.1 0-2.3-0.1v-1.1q1.2 0 2.4 0zm-7 0v-1.1q1.1-0.1 2.3-0.1v1.2q-1.1 0-2.3 0z"/>
							</g>
						</g>
					</g>
					<g id="&lt;Group&gt;">
						<g id="&lt;Group&gt;">
							<path id="&lt;Path&gt;" class="s20" d="m6795.6 1211.4v155.3h-21.7v-155.3z"/>
							<path id="&lt;Path&gt;" class="s20" d="m6858.4 1211.4h2.5v155.3h-21.7v-155.3z"/>
							<path id="&lt;Path&gt;" class="s21" d="m6839.2 1211.4v155.3h-43.6v-155.3z"/>
							<path id="&lt;Path&gt;" class="s22" d="m6858.4 1193.6c4.4 0 8 3.6 8 7.9v1.9c0 4.4-3.6 8-8 8h-19.2l-22-0.1-41.2-0.1c-4.4-0.1-8-3.6-7.9-8v-1.9c0-4.2 3.4-7.8 7.7-7.9 0.2 0.1 0.4 0.1 0.6 0.1h40.8z"/>
							<path id="&lt;Path&gt;" class="s23" d="m6859.4 1176c4 0.1 7.4 3.6 7.4 7.8v2c0 4.3-3.6 7.9-7.9 7.8h-0.5l-41.2-0.1-41.2-0.1q-0.1 0-0.2 0c-4-0.2-7.3-3.7-7.3-7.9v-1.8c0-4.2 3.2-7.6 7.3-8 0.2 0.1 0.5 0.1 0.7 0.1l82.4 0.2q0.2 0 0.5 0z"/>
							<path id="&lt;Path&gt;" class="s22" d="m6866.9 1168.1c-0.1 4.2-3.5 7.6-7.5 7.9-0.2-0.1-0.3-0.1-0.5-0.1l-82.4-0.2c-0.2 0-0.5 0-0.7 0-4.1-0.2-7.3-3.7-7.3-7.9v-1.9c0-4.3 3.6-7.8 8-7.8l82.4 0.1h0.3c4.3 0.2 7.6 3.7 7.7 8z"/>
							<path id="&lt;Path&gt;" class="s8" d="m6861.6 1125v33.2h-2.4-0.3l-82.4-0.1-2.6-0.1v-33.2c0.1-11.7 9.6-21.1 21.2-21.1h45.5c11.6 0.1 21.1 9.5 21 21.3z"/>
						</g>
						<g id="&lt;Group&gt;">
							<path id="&lt;Path&gt;" class="s6" d="m7036.2 1218.3l-18.8 103.7c-0.5 3.1-3.5 5.1-6.6 4.5-2.9-0.5-4.9-3.1-4.6-6.1l9.3-88.6c1-9.8-3.5-19.4-11.8-24.9l-4-2.7 5.3-29.1 21.9 17.9c7.5 6.1 11 15.8 9.3 25.3z"/>
							<path id="&lt;Path&gt;" class="s12" d="m6911.9 1191.2l87.3 15.8-34.2 219.4-92.7-16.9z"/>
							<path id="&lt;Path&gt;" class="s4" d="m6999.7 1204.2l-0.5 2.8-87.3-15.8 6.4-34.7 87.2 15.9-0.5 2.7z"/>
							<path id="&lt;Path&gt;" class="s12" d="m6995.1 1110.6c11.5 4.8 18.5 17.1 16.1 30l-5.7 31.8-87.2-15.9 5.7-31.8c2.3-13 13.5-22 26.1-22.4z"/>
							<path id="&lt;Path&gt;" class="s4" d="m6950.1 1102.3l6.4-34.9c1.8-10.2 11.6-17 21.8-15.1l8 1.4c10.2 1.9 17 11.6 15.1 21.9l-6.3 35z"/>
						</g>
						<g id="&lt;Group&gt;">
							<path id="&lt;Path&gt;" class="s24" d="m6751.5 1392.7l-88.4 10.8-49-403.3 88.4-10.7z"/>
							<g id="&lt;Group&gt;">
								<g id="&lt;Group&gt;">
									<path id="&lt;Path&gt;" class="s6" d="m6616.4 1022.2l-0.6-5.3 49.5-6.1 0.7 5.4z"/>
								</g>
								<g id="&lt;Group&gt;">
									<path id="&lt;Path&gt;" class="s6" d="m6618.7 1041.3l-0.6-5.4 27.4-3.3 0.7 5.3z"/>
								</g>
								<g id="&lt;Group&gt;">
									<path id="&lt;Path&gt;" class="s6" d="m6620.9 1059.2l-0.6-5.3 27.4-3.4 0.7 5.4z"/>
								</g>
								<g id="&lt;Group&gt;">
									<path id="&lt;Path&gt;" class="s6" d="m6623.1 1077.2l-0.6-5.4 27.4-3.3 0.7 5.3z"/>
								</g>
								<g id="&lt;Group&gt;">
									<path id="&lt;Path&gt;" class="s6" d="m6625.3 1095.1l-0.7-5.4 27.5-3.3 0.7 5.4z"/>
								</g>
								<g id="&lt;Group&gt;">
									<path id="&lt;Path&gt;" class="s6" d="m6627.5 1113l-0.7-5.3 49.6-6.1 0.6 5.4z"/>
								</g>
								<g id="&lt;Group&gt;">
									<path id="&lt;Path&gt;" class="s6" d="m6629.6 1131l-0.6-5.4 27.5-3.3 0.6 5.3z"/>
								</g>
								<g id="&lt;Group&gt;">
									<path id="&lt;Path&gt;" class="s6" d="m6631.8 1148.9l-0.6-5.4 27.4-3.3 0.7 5.4z"/>
								</g>
								<g id="&lt;Group&gt;">
									<path id="&lt;Path&gt;" class="s6" d="m6634 1166.9l-0.6-5.4 27.4-3.4 0.7 5.4z"/>
								</g>
								<g id="&lt;Group&gt;">
									<path id="&lt;Path&gt;" class="s6" d="m6636.2 1184.8l-0.7-5.4 27.5-3.3 0.7 5.3z"/>
								</g>
								<g id="&lt;Group&gt;">
									<path id="&lt;Path&gt;" class="s6" d="m6638.4 1202.7l-0.7-5.4 49.6-6 0.6 5.4z"/>
								</g>
								<g id="&lt;Group&gt;">
									<path id="&lt;Path&gt;" class="s6" d="m6640.6 1220.7l-0.7-5.4 27.5-3.4 0.6 5.4z"/>
								</g>
								<g id="&lt;Group&gt;">
									<path id="&lt;Path&gt;" class="s6" d="m6642.7 1238.6l-0.6-5.4 27.5-3.3 0.6 5.4z"/>
								</g>
								<g id="&lt;Group&gt;">
									<path id="&lt;Path&gt;" class="s6" d="m6644.9 1256.5l-0.6-5.3 27.4-3.4 0.7 5.4z"/>
								</g>
								<g id="&lt;Group&gt;">
									<path id="&lt;Path&gt;" class="s6" d="m6647.1 1274.5l-0.6-5.4 27.4-3.3 0.7 5.3z"/>
								</g>
								<g id="&lt;Group&gt;">
									<path id="&lt;Path&gt;" class="s6" d="m6649.3 1292.4l-0.7-5.4 49.6-6 0.6 5.4z"/>
								</g>
								<g id="&lt;Group&gt;">
									<path id="&lt;Path&gt;" class="s6" d="m6651.5 1310.3l-0.7-5.3 27.5-3.4 0.6 5.4z"/>
								</g>
								<g id="&lt;Group&gt;">
									<path id="&lt;Path&gt;" class="s6" d="m6653.7 1328.3l-0.7-5.4 27.5-3.3 0.6 5.3z"/>
								</g>
								<g id="&lt;Group&gt;">
									<path id="&lt;Path&gt;" class="s6" d="m6655.8 1346.2l-0.6-5.3 27.4-3.4 0.7 5.4z"/>
								</g>
								<g id="&lt;Group&gt;">
									<path id="&lt;Path&gt;" class="s6" d="m6658 1364.2l-0.6-5.4 27.4-3.4 0.7 5.4z"/>
								</g>
								<g id="&lt;Group&gt;">
									<path id="&lt;Path&gt;" class="s6" d="m6660.2 1382.1l-0.7-5.4 49.6-6 0.7 5.4z"/>
								</g>
							</g>
						</g>
						<path id="&lt;Path&gt;" class="s18" d="m6989.8 1363.4v334.4c0 57.5-46.6 104.2-104.2 104.2h-145.1c-49.4 0-90.8-34.5-101.4-80.7-1.8-7.5-2.7-15.4-2.7-23.5v-334.4z"/>
						<path id="&lt;Path&gt;" class="s25" d="m6989.8 1363.4v334.4c0 57.5-46.6 104.2-104.2 104.2h-145.1c-49.4 0-90.8-34.5-101.4-80.7 149 66.5 296 17.6 324.3-124 23.7-118.2 26.2-207.6 26.4-233.9z"/>
					</g>
					<g id="&lt;Group&gt;">
						<g id="&lt;Group&gt;">
							<g id="&lt;Group&gt;">
								<path id="&lt;Path&gt;" class="s5" d="m6486.7 1047.8h-966.1c0 0 16.8 69.9 16.8 145.9 0 73.8-16.8 145.9-16.8 145.9h966.1c34.2 0 62-27.8 62-62v-167.7c0-34.4-27.8-62.1-62-62.1z"/>
								<path id="&lt;Path&gt;" class="s26" d="m5507.5 1008.1c-11 0-19.8 8.9-19.8 19.8 0 5.5 2.2 10.5 5.8 14 3.6 3.7 8.5 5.9 14 5.9h13.1 966.1c34.2 0 62 27.7 62 62.1v167.7c0 34.2-27.8 62-62 62h-966.1-13.1c-11 0-19.8 8.9-19.8 19.9 0 5.5 2.2 10.4 5.8 14 3.6 3.6 8.5 5.8 14 5.8h979.2c56.2 0 101.7-45.6 101.7-101.7v-167.8c0-56.2-45.5-101.7-101.7-101.7z"/>
							</g>
							<path id="&lt;Path&gt;" class="s14" d="m6423 1104.2q-85.9-3.8-171.7-5.1c-57.2-1.1-114.4-1.3-171.6-1.5-57.2 0.2-114.4 0.4-171.6 1.5q-85.8 1.3-171.7 5.1 85.9 3.9 171.7 5.2c57.2 1.1 114.4 1.3 171.6 1.5 57.2-0.2 114.4-0.5 171.6-1.5q85.8-1.3 171.7-5.2z"/>
							<path id="&lt;Path&gt;" class="s14" d="m6458.7 1193.7c-21.6-2.7-43.2-4.2-64.8-5.1-21.6-1.1-43.2-1.4-64.9-1.5-21.6 0.1-43.2 0.4-64.8 1.4-21.6 1-43.2 2.4-64.9 5.2 21.7 2.7 43.3 4.2 64.9 5.2 21.6 1 43.2 1.3 64.8 1.4 21.7-0.1 43.3-0.4 64.9-1.5 21.6-0.9 43.2-2.4 64.8-5.1z"/>
							<path id="&lt;Path&gt;" class="s14" d="m6293.3 1285.4c-21.7-2.8-43.3-4.2-64.9-5.2-21.6-1-43.2-1.3-64.8-1.4-21.7 0.1-43.3 0.4-64.9 1.4-21.6 1-43.2 2.4-64.8 5.2 21.6 2.7 43.2 4.2 64.8 5.1 21.6 1.1 43.2 1.4 64.9 1.5 21.6-0.1 43.2-0.4 64.8-1.5 21.6-0.9 43.2-2.4 64.9-5.1z"/>
							<path id="&lt;Path&gt;" class="s14" d="m6156.8 1231.7q-75-3.8-149.9-5.1c-49.9-1.1-99.9-1.4-149.8-1.5-50 0.1-100 0.4-149.9 1.4q-74.9 1.3-149.9 5.2 75 3.9 149.9 5.2c49.9 1 99.9 1.3 149.9 1.4 49.9-0.1 99.9-0.4 149.8-1.4q74.9-1.4 149.9-5.2z"/>
							<path id="&lt;Path&gt;" class="s16" d="m6257.5 1370.4c29.2-55.3 29.2-121.5 0-176.7q82.7 0 165.5 0c29.2 55.2 29.2 121.4 0 176.7-19.7-15.1-41.4-30.9-65.4-47.1-31.2 16.2-64.6 32-100.1 47.1z"/>
						</g>
						<g id="&lt;Group&gt;">
							<g id="&lt;Group&gt;">
								<path id="&lt;Path&gt;" class="s16" d="m6233.3 1606.1l-20.4 1.9c50.8 3.6 89 47.7 85.4 98.5l-2 28.1c-3 42.4-34.3 76-74.2 83.8l328.2-26.3c54.7-5.3 94.5-54.2 88.9-108.8l-1.6-15.1c-5.5-53.9-53.3-93.3-107.2-88.5h-0.1z"/>
								<path id="&lt;Path&gt;" class="s4" d="m5443.2 1590.5l769.7 17.5 20.4-1.9 297-26.4h0.1l3.5-0.3z"/>
								<path id="&lt;Path&gt;" class="s15" d="m5465.3 1621.5l745.9 19.5c16.9 1.4 32.1 9.8 42.4 23.4 8.9 11.9 12.6 27 11.5 41.9l-1.9 25.9c-2.1 30.3-27.5 54.5-57.8 54.9-1.8 0.1-3.5 0-5.3-0.1l-0.8-0.1-735-16.7-18.2-0.4c-8.6-0.2-15.7 6.9-15.5 15.5v2.7c0.1 8.1 6.7 14.7 14.8 14.9l752.3 17c8.4 0.6 16.6 0.1 24.4-1.5 39.9-7.8 71.2-41.4 74.2-83.8l2-28.1c3.6-50.8-34.6-94.9-85.4-98.5l-769.7-17.5c-8.6-0.2-15.6 6.8-15.5 15.4 0.1 8.2 6.6 14.8 14.7 15z"/>
								<path id="&lt;Path&gt;" class="s5" d="m5464.3 1770.2l735 16.7 0.8 0.1c1.8 0.1 3.5 0.2 5.3 0.1 30.3-0.4 55.7-24.6 57.8-54.9l1.9-25.9c1.1-14.9-2.6-30-11.5-41.9-10.3-13.6-25.5-22-42.4-23.4l-745.9-19.5c0.3 1.3 9.8 45.7 10.2 74.2 0.5 28.4-11.2 74.5-11.2 74.5z"/>
							</g>
							<path id="&lt;Path&gt;" class="s14" d="m6200.5 1684.1c-21.5-3.6-43.1-5.9-64.7-7.7-21.6-1.9-43.2-3-64.8-4-21.7-0.8-43.3-1.3-65-1.1-21.7 0.1-43.3 0.7-65.1 2.6 21.5 3.6 43.1 5.9 64.7 7.7 21.6 1.9 43.2 3 64.9 4 21.6 0.7 43.2 1.3 64.9 1.1 21.7-0.1 43.4-0.7 65.1-2.6z"/>
							<path id="&lt;Path&gt;" class="s14" d="m6022.6 1744.6c-21.5-3.6-43.1-5.9-64.7-7.7-21.6-1.9-43.2-3-64.9-4-21.6-0.8-43.2-1.3-64.9-1.1-21.7 0.1-43.4 0.7-65.1 2.5 21.5 3.7 43.1 5.9 64.7 7.8 21.6 1.9 43.2 3 64.8 4 21.7 0.7 43.3 1.3 65 1.1 21.7-0.1 43.3-0.7 65.1-2.6z"/>
							<path id="&lt;Path&gt;" class="s26" d="m5993.2 1856.9c-29.8-40-31.8-139-3.2-180 55.2-0.9 104.2 5 159.3 4.1-28.6 40.9-20.5 133.2 9.4 173.3-34.8-10.7-68.8-25.1-100.5-41.5-23.4 17.3-44.6 32.5-65 44.1z"/>
							<path id="&lt;Path&gt;" class="s14" d="m5832 1705.9c-29.6-3.6-59.3-5.9-89-7.7-29.7-1.9-59.4-3-89.1-4-29.7-0.8-59.4-1.3-89.1-1.1-29.8 0.1-59.5 0.7-89.3 2.6 29.6 3.6 59.3 5.9 89 7.7 29.7 1.9 59.4 3 89.1 4 29.7 0.7 59.4 1.3 89.1 1.1 29.8-0.1 59.5-0.7 89.3-2.6z"/>
						</g>
						<g id="&lt;Group&gt;">
							<g id="&lt;Group&gt;">
								<path id="&lt;Path&gt;" class="s5" d="m6263 1431.4c0 0-28.6 66.2 1 147.5l112.3-6.1 281.5-15.4c0 0-8.5-32.1-8.5-69.7 0-34.5 8.5-69.7 8.5-69.7v-0.1l-277.5 9.5z"/>
								<path id="&lt;Path&gt;" class="s12" d="m6663.7 1557.1l-5.9 0.3-281.5 15.4-112.3 6.1c-29.6-81.3-1-147.5-1-147.5l117.3-4 277.5-9.5 6.7-0.2c8.9-0.3 16-7.6 16-16.5 0-9.1-7.4-16.5-16.4-16.5-0.3 0-0.5 0-0.8 0l-416.8 15.4c0 0-55.1 91.4 0 209.8l418.8-19.7c9-0.5 16-8.1 15.8-17.2-0.4-8.9-7.8-15.9-16.6-15.9-0.3 0-0.5 0-0.8 0z"/>
								<path id="&lt;Path&gt;" class="s4" d="m6663.3 1384.7l-1142.3-14.4 6.3 0.2 719.2 29.6z"/>
								<path id="&lt;Path&gt;" class="s4" d="m6232.5 1399.5l-705.2-29c-35.1-1.4-64.4 26.7-64.6 61.9l-0.5 87.8c-0.2 33.7 26.3 61.3 59.8 62.6l724.5 27.1c-55.1-118.4 0-209.8 0-209.8z"/>
							</g>
							<path id="&lt;Path&gt;" class="s14" d="m6265 1488.1c21.8 1.6 43.5 1.8 65.2 1.6 21.7-0.2 43.3-1.1 64.9-2.2 21.6-1.3 43.2-2.8 64.8-5 21.5-2.2 43.1-4.8 64.5-8.8-21.7-1.5-43.4-1.8-65.1-1.5-21.7 0.1-43.3 1-64.9 2.1-21.6 1.4-43.2 2.8-64.8 5.1-21.5 2.2-43.1 4.8-64.6 8.7z"/>
							<path id="&lt;Path&gt;" class="s14" d="m6495.1 1522.8c24.1 1.6 48 0.7 71.9-0.8 23.9-1.7 47.7-4.1 71.4-8.9-24.1-1.6-48-0.7-71.9 0.8-23.9 1.8-47.7 4.1-71.4 8.9z"/>
							<path id="&lt;Path&gt;" class="s8" d="m6456.5 1617.7c22-32.4 19.7-109.3-4.1-140.3-43.2 1.2-84.8 6.6-128 7.8 23.8 31.1 24.4 103.9 2.4 136.3 26.9-9.6 53-22 77.3-36 18.9 12.7 36.1 23.9 52.4 32.2z"/>
						</g>
					</g>
					<g id="&lt;Group&gt;">
						<g id="&lt;Group&gt;">
							<path id="&lt;Path&gt;" class="s4" d="m6625.9 1028.2l-43.5 116.5c0 0-105.8-67.1-177.6-93.9-81-30.2-195.8-45.4-195.8-45.4l43.5-116.5 43.5-116.5c0 0 111.1-20 206.8 15.7 88.8 33.1 166.6 123.6 166.6 123.6z"/>
							<path id="&lt;Path&gt;" class="s6" d="m6850.9 1014.2l-221.9 15.2-3.1-1.2 43.5-116.5c0 0-77.8-90.5-166.6-123.6-95.7-35.7-206.8-15.7-206.8-15.7l-43.5 116.5-3.1-1.1-157.7-156.9 440.9-22.7z"/>
							<path id="&lt;Path&gt;" class="s4" d="m6527.8 676.4l-424.7 24-11.4 30.5 424.1-21.9c10.7-0.5 21.2 3.4 29 10.8l306.1 294.4 11.4-30.5-305.2-296.4c-7.8-7.6-18.4-11.6-29.3-10.9z"/>
						</g>
						<path id="&lt;Path&gt;" class="s20" d="m6120.8 935.6c0 0-21.9 23.4-25.4 46.8-3.4 23.3 0.4 46.7 0.4 46.7l5.2 1.9 3.7-25.8-1.2 35.6h9.6l7.2-49.6-1.2 43.1c0 0 10.3-1.5 11.4-4.6 1.2-3.1 2.4-42.1 2.4-42.1l0.4 46.7c0 0 4.9 5.3 20.8-37.1 15.8-42.4-17.5-66.3-17.5-66.3z"/>
						<g id="&lt;Group&gt;">
							<path id="&lt;Path&gt;" class="s20" d="m6363.1 685.7l-30.6 1.7c-4.5-2.3-10.1-4.8-16.5-7.2-28.9-10.8-74.4-18.6-113.6 14.6q-4.1 3.5-8.1 7.6c-7.7 7.8-14.1 15.9-19.4 24.2-26.6 40.8-28 86.5-29.5 134.5-0.9 26.1-1.7 53.1-6.9 79.4-1.1 5.3-6.2 8.7-11.5 7.6q-0.8-0.1-1.5-0.4c-4.4-1.6-7.1-6.2-6.2-11 4.9-24.7 5.8-50.9 6.6-76.2 1.4-44.7 2.9-90.5 25.6-132.7 5.8-10.7 12.9-21.2 21.8-31.3 2.2-2.6 4.6-5.1 7-7.7 74.3-76.2 174.6-11.2 175.7-10.5 2.6 1.8 4.9 4.5 7.1 7.4z"/>
						</g>
						<path id="&lt;Path&gt;" class="s21" d="m6149.4 924.7c5.1 10 1.1 22.2-8.9 27.3-10 5.1-22.2 1.1-27.3-8.9-5.1-10-1.1-22.2 8.9-27.3 10-5.1 22.2-1.1 27.3 8.9z"/>
					</g>
					<g id="&lt;Group&gt;">
						<path id="&lt;Path&gt;" class="s4" d="m5182.1 1176.7c72.7 27.4 160.9-34.2 160.9-34.2-3.3 16.5-43.7 55.5-43.7 55.5 11.3 7.9 45.3 8.9 45.3 8.9-60.3 30.9-147 0.2-147 0.2z"/>
						<path id="&lt;Path&gt;" class="s6" d="m5176.4 1170.3c0 0 0.8-89.7 52.2-133.8 0 0-12 31.9-8.9 45.3 0 0 51.5-22.7 67.9-19.4 0 0-90.3 58.3-92.5 136z"/>
						<g id="&lt;Group&gt;">
							<path id="&lt;Path&gt;" class="s13" d="m4925.7 984l-36.7 35.5c83.8 68.6 146.3 143.8 192.5 214.8l6.5-4.2z"/>
							<path id="&lt;Path&gt;" class="s5" d="m5062.5 886.9c0 0-114.5-31.1-150.1 76.9l13.3 20.2 162.3 246.1 175.9 266.8c-15.6-23.2-9.4-54.6 13.8-70.2 25.5-17.2 59.1-13.2 80 7.9-39.3-48.9-219.5-282.6-295.2-547.7z"/>
							<path id="&lt;Path&gt;" class="s14" d="m5320 1507.9l-42.3-81.2c-23.2 15.6-29.4 47-13.8 70.2 12.4 18.6 37.6 23.5 56.1 11z"/>
							<path id="&lt;Path&gt;" class="s13" d="m5263.9 1496.9l-175.9-266.8-6.5 4.2c101.8 156.4 125.3 292.4 125.3 292.4 30.4 45.3 91.8 57.3 137.1 27 36.2-24.4 45.8-73.5 21.5-109.7q0 0-0.2-0.2c-0.7-0.9-3.1-3.8-7.2-8.8q-0.1-0.2-0.3-0.4c-20.9-21.1-54.5-25.1-80-7.9l42.3 81.2c-18.5 12.5-43.7 7.6-56.1-11z"/>
						</g>
						<path id="&lt;Path&gt;" class="s6" d="m5086.9 1242.7c0 0 15.3-58.3 89-84.2l31.6 56c-73.7 26-88.1 83.3-88.1 83.3z"/>
					</g>
					<g id="&lt;Group&gt;">
						<path id="&lt;Path&gt;" class="s7" d="m6024.1 985.1l23.2 23.3-240.8-1.8 21.5-21.5z"/>
						<path id="&lt;Path&gt;" class="s13" d="m6024.1 818.2v166.9h-196.1v-166.9z"/>
						<path id="&lt;Path&gt;" class="s7" d="m6024.1 818.2h-196.1l37-18.7h122.1z"/>
						<path id="&lt;Path&gt;" class="s13" d="m5987.1 785.9v13.6h-122.1v-13.6z"/>
						<path id="&lt;Path&gt;" class="s7" d="m5975 767.1l12.1 18.3-122.1 0.5 12.6-18.8z"/>
						<path id="&lt;Path&gt;" class="s20" d="m5994.6 620.9c-6.5 4.3-19.6 15-19.6 33v113.2h-97.4v-113.2c0-18-13.1-28.7-19.6-33 20.2 11.1 43.5 17.5 68.3 17.5 24.8 0 48.1-6.4 68.3-17.5z"/>
						<path id="&lt;Compound Path&gt;" fill-rule="evenodd" class="s20" d="m5800.8 509.4h-14.4c-45.2 0-81.9-36.7-81.9-81.9v-50.5c0-10.1 4.1-19.3 10.7-25.9 6.7-6.6 15.8-10.8 26-10.8 32.9 0 59.6 26.8 59.6 59.7zm-16.4-16.5v-92.9c0-23.8-19.4-43.2-43.2-43.2-11.2 0-20.2 9.1-20.2 20.2v50.5c0 35.4 28.2 64.3 63.4 65.4z"/>
						<path id="&lt;Compound Path&gt;" fill-rule="evenodd" class="s20" d="m6148.1 377v50.5c0 45.2-36.7 81.9-81.9 81.9h-14.5v-109.4c0-32.9 26.7-59.7 59.7-59.7 10.1 0 19.3 4.2 25.9 10.8 6.6 6.6 10.8 15.8 10.8 25.9zm-16.5 50.5v-50.5c0-11.1-9.1-20.2-20.2-20.2-23.8 0-43.2 19.4-43.2 43.2v92.9c35.2-1.1 63.4-30 63.4-65.4z"/>
						<path id="&lt;Path&gt;" class="s20" d="m6068.2 315v181.5c0 52.1-28.1 97.6-70 122.3q0 0 0 0c-0.3 0.2-1.5 0.8-3.2 1.9-0.2 0.1-0.3 0.1-0.4 0.2-20.2 11.1-43.5 17.5-68.3 17.5-24.8 0-48.1-6.4-68.3-17.5-0.1-0.1-0.2-0.1-0.4-0.2-1.7-1.1-2.9-1.7-3.2-1.9q0 0 0 0c-41.9-24.7-70-70.2-70-122.3v-181.5z"/>
						<path id="&lt;Path&gt;" class="s27" d="m6068.2 484.7v11.8c0 52.1-28.1 97.6-70 122.3q0 0 0 0c-0.3 0.2-1.5 0.8-3.2 1.9-0.2 0.1-0.3 0.1-0.4 0.2-20.2 11.1-43.5 17.5-68.3 17.5-24.8 0-48.1-6.4-68.3-17.5-0.1-0.1-0.2-0.1-0.4-0.2-1.7-1.1-2.9-1.7-3.2-1.9q0 0 0 0c-41.9-24.7-70-70.2-70-122.3v-11.8c0 52.1 28.1 97.6 70 122.3q0 0 0 0c0.3 0.1 1.5 0.8 3.2 1.9 0.2 0.1 0.3 0.1 0.4 0.2 20.2 11.1 43.5 17.5 68.3 17.5 24.8 0 48.1-6.4 68.3-17.5 0.1-0.1 0.2-0.1 0.4-0.2 1.7-1.1 2.9-1.8 3.2-1.9q0 0 0 0c41.9-24.7 70-70.2 70-122.3z"/>
					</g>
					<path id="&lt;Compound Path&gt;" fill-rule="evenodd" class="s28" d="m5829.3 987.7c5.7-0.9 11 2.9 11.9 8.5l11.1 66.4h238.2l-10.5-63c-0.9-5.6 2.9-10.9 8.5-11.9 5.7-0.9 11 2.9 11.9 8.5l146.5 879c1 5.7-2.9 11-8.5 12q-0.9 0.1-1.7 0.1c-5 0-9.4-3.6-10.2-8.7l-8.6-51.3h-238.2l8 47.9c1 5.7-2.9 11-8.5 12q-0.9 0.1-1.7 0.1c-5 0-9.4-3.6-10.2-8.7l-146.5-879c-0.9-5.6 2.9-10.9 8.5-11.9zm64.3 322.9h238.2l-17.2-103.3h-238.2zm20.7 124h238.2l-17.2-103.3h-238.2zm20.6 124h238.2l-17.2-103.3h-238.2zm241.7 20.7h-238.2l17.2 103.3h238.2zm-320.9-496l17.2 103.3h238.2l-17.2-103.3zm358.8 723.3l-17.3-103.3h-238.2l17.3 103.3z"/>
					<g id="&lt;Group&gt;">
						<g id="&lt;Group&gt;">
							<path id="&lt;Path&gt;" class="s13" d="m6787.8 620.1l169.3 159.5c-10.1 10.4-18.2 22.5-23.9 35.7l-157.1-148z"/>
							<path id="&lt;Path&gt;" class="s7" d="m6983.8 759.1c-10 5.6-18.9 12.5-26.7 20.5l-169.3-159.5 2.8-11.1 6.4-26.2z"/>
							<path id="&lt;Path&gt;" class="s13" d="m7127.1 521.8l35.1 33.7-53.7 209.1c-11.9-8.2-25.2-14.1-39.3-17.5z"/>
							<path id="&lt;Path&gt;" class="s7" d="m7127.1 521.8l-57.9 225.3c-10.8-2.6-22.1-3.6-33.5-3.1l63.4-246.4 0.5-2.1 19.7 18.8z"/>
							<path id="&lt;Path&gt;" class="s7" d="m7065.4 462.7l-32 129.7-128.7 37.3-96.4-92.6z"/>
							<path id="&lt;Path&gt;" class="s13" d="m7099.6 495.5l-0.5 2.1-63.4 246.4c-8.9 0.5-17.9 2-26.8 4.6-9 2.6-17.4 6.1-25.1 10.5l-186.8-176.3 11.3-45.7 96.4 92.6 96.6 92.9 32.1-130.2 32-129.7z"/>
							<path id="&lt;Path&gt;" class="s20" d="m7108.5 764.6c-11.9-8.2-25.2-14.1-39.3-17.5-10.8-2.6-22.1-3.6-33.5-3.1-8.9 0.5-17.9 2-26.8 4.6-9 2.6-17.4 6.1-25.1 10.5-10 5.6-18.9 12.5-26.7 20.5-10.1 10.4-18.2 22.5-23.9 35.7-10.6 24.3-13 52.3-5.1 79.8 18.2 62.8 83.8 98.9 146.6 80.8 62.7-18.2 98.9-83.8 80.7-146.6-7.9-27.4-25-49.8-46.9-64.7z"/>
							<path id="&lt;Path&gt;" class="s21" d="m7102 774.1c-10.7-7.4-22.7-12.7-35.5-15.8-9.7-2.3-19.9-3.3-30.2-2.8-8.1 0.5-16.2 1.8-24.2 4.1-8.1 2.4-15.7 5.6-22.7 9.5-9 5.1-17.1 11.3-24.1 18.5-9.1 9.4-16.4 20.3-21.6 32.3-9.5 21.9-11.7 47.2-4.5 72 16.4 56.7 75.6 89.3 132.3 72.9 56.6-16.4 89.3-75.6 72.8-132.3-7.1-24.8-22.5-45-42.3-58.4z"/>
						</g>
						<g id="&lt;Group&gt;">
							<path id="&lt;Compound Path&gt;" class="s20" d="m7036.3 789.1l6.5-1.9q0.3 2.1 0.8 4.2 0.5 2.1 1.5 5.5l1.1 3.8 32 110.6 10.7-3.1 4 13.9-59 17.1-4.1-13.9 10.7-3.1-26.2-90.6-12.3 10-4.3-14.9q14.4-11.3 26-24.3 11.5-13 12.6-13.3z"/>
						</g>
					</g>
				</g>
			</g>
		</g>
	</g>
</svg>