<svg version="1.2" xmlns="http://www.w3.org/2000/svg" viewBox="0 0 820 312" width="1440" height="548">
	<title>6565859-ai</title>
	<style>
		tspan { white-space:pre } 
		.s0 { opacity: .5;fill: #000032 } 
		.s1 { fill: #fc4557 } 
		.s2 { fill: #fcc741 } 
		.s3 { fill: #1cb5a3 } 
		.s4 { fill: #ffffff } 
		.s5 { opacity: .5;fill: #ffffff } 
		.t6 { font-size: 25px;line-height: 33px;fill: #ffffff;font-weight: 700;font-family: "ReadexPro-Bold", "Readex Pro" } 
		.t7 { font-size: 25px;line-height: 33px;fill: #fcc741;font-weight: 700;font-family: "ReadexPro-Bold", "Readex Pro" } 
		.t8 { font-size: 7px;line-height: 13px;fill: #ffffff;font-weight: 500;font-family: "Montserrat-Medium", "Montserrat" } 
		.t9 { font-size: 8px;line-height: 14px;fill: #ffffff;font-weight: 400;font-family: "ReadexPro-Regular", "Readex Pro" } 
		.t10 { font-size: 13px;line-height: 21px;fill: #ffffff;font-weight: 700;font-family: "ReadexPro-Bold", "Readex Pro" } 
	</style>
	<g id="OBJECTS">
		<path id="&lt;Path&gt;" class="s0" d="m820 241h-820v-241h820z"/>
		<g id="&lt;Group&gt;">
			<g id="&lt;Group&gt;">
				<path id="&lt;Path&gt;" class="s1" d="m83.2 35.1l12.3 7.1v-14.2z"/>
			</g>
			<g id="&lt;Group&gt;">
				<path id="&lt;Path&gt;" class="s2" d="m70.9 35.1l12.3 7.1v-14.2z"/>
			</g>
			<g id="&lt;Group&gt;">
				<path id="&lt;Path&gt;" class="s3" d="m58.5 35.1l12.4 7.1v-14.2z"/>
			</g>
		</g>
		<g id="&lt;Group&gt;">
			<g id="&lt;Group&gt;">
				<path id="&lt;Path&gt;" class="s1" d="m294.2 161.2l12.3 7.2v-14.3z"/>
			</g>
			<g id="&lt;Group&gt;">
				<path id="&lt;Path&gt;" class="s2" d="m281.9 161.2l12.3 7.2v-14.3z"/>
			</g>
			<g id="&lt;Group&gt;">
				<path id="&lt;Path&gt;" class="s3" d="m269.6 161.2l12.3 7.2v-14.3z"/>
			</g>
		</g>
		<g id="&lt;Group&gt;">
		</g>
		<g id="&lt;Group&gt;">
			<g id="&lt;Group&gt;">
				<path id="&lt;Path&gt;" class="s1" d="m463.4 292h-102c-11 0-20-9.1-20-20.1v-217.5c0-11 9-20 20-20h102c11.1 0 20.1 9 20.1 20v217.5c0 11-9 20.1-20.1 20.1z"/>
			</g>
			<g id="&lt;Group&gt;">
				<path id="&lt;Path&gt;" class="s2" d="m621.7 292h-102c-11.1 0-20.1-9.1-20.1-20.1v-217.5c0-11 9-20 20.1-20h102c11 0 20 9 20 20v217.5c0 11-9 20.1-20 20.1z"/>
			</g>
			<g id="&lt;Group&gt;">
				<path id="&lt;Path&gt;" class="s3" d="m779.9 292h-102c-11 0-20-9.1-20-20.1v-217.5c0-11 9-20 20-20h102c11.1 0 20.1 9 20.1 20v217.5c0 11-9 20.1-20.1 20.1z"/>
			</g>
		</g>
		<g id="&lt;Group&gt;">
			<path id="&lt;Path&gt;" class="s4" d="m434.2 91.6q0 7.7 0 15.4c0 1.2-0.5 1.7-1.7 1.7q-2.9 0-5.9 0c-1.1 0-1.6-0.5-1.6-1.6q0-15.6 0-31.1c0-1.1 0.5-1.6 1.6-1.6q3 0 6 0c1.1 0 1.6 0.5 1.6 1.6q0 7.8 0 15.6z"/>
			<path id="&lt;Path&gt;" class="s4" d="m390 89c0-3.3 3.3-5.1 5.9-3.6 0.3 0.1 0.4 0.1 0.6 0q2.3-1.7 4.6-3.2c0.2-0.2 0.3-0.3 0.2-0.6-0.4-1.8 0.6-3.6 2.3-4.3 1.7-0.8 3.6-0.2 4.7 1.2 0.2 0.3 0.3 0.3 0.6 0.3q2.2-0.5 4.4-1c0.3 0 0.5-0.1 0.6-0.5 0.5-2.4 3-3.6 5.3-2.6 0.3 0.1 0.4 0 0.6-0.1q2.9-2.6 5.8-5.1c0.2-0.2 0.2-0.4 0.1-0.6-0.6-2.2 0.6-4.4 2.9-5 2-0.5 4.3 0.8 4.7 3 0.4 1.5-0.1 2.8-1.3 3.8-1.2 1-2.5 1.3-4 0.6-0.3-0.1-0.5-0.1-0.7 0.2q-2.9 2.5-5.7 5c-0.2 0.2-0.3 0.4-0.2 0.7 0.6 1.8-0.3 3.7-2.1 4.6-1.6 0.8-3.6 0.3-4.8-1.2-0.2-0.2-0.4-0.3-0.7-0.2q-2.1 0.5-4.3 0.9c-0.3 0.1-0.5 0.2-0.6 0.5-0.5 2.6-3.4 3.8-5.7 2.5-0.2-0.2-0.4-0.1-0.6 0q-2.3 1.6-4.5 3.2c-0.3 0.1-0.3 0.3-0.3 0.6 0.3 1.6-0.2 2.9-1.6 3.9-1.2 0.9-2.5 1-3.9 0.3-1.5-0.7-2.2-1.9-2.3-3.3z"/>
			<path id="&lt;Path&gt;" class="s4" d="m422.2 96.8q0 5.2 0 10.3c0 1.1-0.4 1.6-1.6 1.6q-3 0-6 0c-1.1 0-1.5-0.5-1.5-1.6q0-10.3 0-20.6c0-1.1 0.4-1.6 1.5-1.6q3 0 6.1 0c1.1 0 1.5 0.5 1.5 1.7q0 5.1 0 10.2z"/>
			<path id="&lt;Path&gt;" class="s4" d="m401.2 98.1q0-4.4 0-8.9c0-1.2 0.4-1.6 1.7-1.6q3 0 5.9 0c1.1 0 1.6 0.4 1.6 1.5q0 9 0 18c0 1.1-0.5 1.6-1.6 1.6q-3 0-5.9 0c-1.2 0-1.7-0.5-1.7-1.6q0-4.5 0-9z"/>
			<path id="&lt;Path&gt;" class="s4" d="m389.3 102q0-2.5 0-5c0-1.1 0.5-1.6 1.5-1.6q3.1 0 6.1 0c1.1 0 1.6 0.5 1.6 1.6q0 5.1 0 10.1c0 1.1-0.5 1.6-1.6 1.6q-3 0-6 0c-1.1 0-1.6-0.5-1.6-1.6q0-2.5 0-5.1z"/>
		</g>
		<g id="&lt;Group&gt;">
			<path id="&lt;Compound Path&gt;" fill-rule="evenodd" class="s4" d="m546.6 64.8c0.4-0.8 1-1 1.9-1 1.6 0 3.3 0 4.9 0q1.6 0 1.7 1.6 0 0.6 0 1.2 0.2 0 0.5 0 5.3 0 10.6 0c0.4 0 0.5-0.1 0.7-0.4 0.7-1.5 2-2.4 3.8-2.4 1.7 0 3 0.9 3.8 2.5 0.1 0.2 0.2 0.3 0.5 0.3q5.5 0 11 0 0.1 0 0.3 0 0-0.7 0-1.3c0-0.9 0.6-1.5 1.5-1.5q2.7 0 5.5 0c0.9 0 1.4 0.6 1.4 1.5q0.1 2.7 0 5.5c0 0.9-0.5 1.5-1.4 1.5q-2.8 0-5.5 0c-0.9 0-1.5-0.6-1.5-1.6q0-0.6 0-1.2c-1.9 0-3.8 0-5.7 0 0.7 0.6 1.5 1.2 2.3 1.8q5.3 4.9 6 12.1c0.1 0.3 0.2 0.5 0.5 0.7 1.6 0.7 2.6 2.5 2.4 4.2-0.2 1.9-1.6 3.4-3.4 3.7-1.8 0.4-3.6-0.5-4.5-2.1-1.2-2.2-0.3-4.8 1.9-5.8 0.3-0.2 0.3-0.3 0.3-0.6q-0.4-4-2.7-7.3-3.3-4.8-8.9-6.3c-0.9 1.5-2.1 2.4-3.8 2.3-1.7 0-3-0.8-3.8-2.3q-2.5 0.6-4.6 2.1-5.1 3.3-6.6 9.2c-0.2 0.8-0.3 1.6-0.5 2.3 0 0.3 0.1 0.4 0.3 0.6 1.6 0.7 2.4 2 2.5 3.7 0 1.7-0.8 3-2.3 3.8-2.1 1.2-4.7 0.3-5.8-2-1-2-0.1-4.6 2-5.5 0.4-0.2 0.5-0.4 0.5-0.7q0.7-7.2 6.1-12.1c0.7-0.7 1.5-1.2 2.3-1.8-1.9 0-3.8 0-5.7 0q0 0.5 0 1.1c0 1.1-0.6 1.7-1.8 1.7-1.6 0-3.2-0.1-4.8 0-0.9 0-1.5-0.3-1.9-1.1q0-3.2 0-6.4zm5.6 4.6q0-1.4 0-2.8-1.4 0-2.7 0 0 1.5 0 2.8c0.9 0 1.8 0 2.7 0zm39.7 0q0-1.4 0-2.8-1.4 0-2.8 0 0 1.5 0 2.8c1 0 1.9 0 2.8 0zm-21.2 0c0.7 0 1.4-0.6 1.4-1.4 0-0.7-0.6-1.4-1.4-1.4-0.8 0-1.4 0.6-1.4 1.4 0 0.8 0.6 1.4 1.4 1.4zm-15.5 18.5c-0.1-0.8-0.7-1.4-1.5-1.4-0.7 0-1.4 0.6-1.4 1.4 0 0.7 0.7 1.4 1.4 1.4 0.8 0 1.5-0.7 1.5-1.4zm32.4-1.4c-0.8 0-1.4 0.6-1.4 1.4 0 0.8 0.7 1.4 1.4 1.4 0.8 0 1.4-0.7 1.4-1.4 0-0.8-0.7-1.4-1.4-1.4z"/>
			<path id="&lt;Compound Path&gt;" fill-rule="evenodd" class="s4" d="m561.8 112c-1-0.7-1.2-1.2-0.9-2.8 0.3-1.5 1-2.9 2.2-3.9 0.3-0.3 0.4-0.5 0.3-0.8q-0.9-5.6-4.7-9.7c-0.9-0.9-0.9-1.4-0.3-2.4q5.5-8.2 10.9-16.3c0.8-1.2 1.9-1.2 2.7 0q5.5 8.1 10.9 16.2c0.7 1.1 0.7 1.6-0.2 2.5q-3.9 4.1-4.8 9.7c0 0.3 0 0.5 0.3 0.8 1.4 1.2 2.1 2.8 2.3 4.7 0.1 0.9-0.1 1.6-1 2q-8.8 0-17.7 0zm10.4-30.6q-0.1 0-0.1 0 0 3.8 0 7.6c0 0.4 0.1 0.6 0.4 0.7 2.3 1.1 3.1 4.1 1.6 6.2-1 1.5-2.8 2.2-4.5 1.7-1.8-0.5-3-1.9-3.1-3.8-0.2-1.7 0.8-3.4 2.4-4.1 0.3-0.1 0.4-0.3 0.4-0.5q0-3.8 0-7.5c0-0.1-0.1-0.2-0.1-0.4-2.7 4.1-5.4 8.1-8 12.1q3.9 4.4 4.9 10.1c3.1-0.2 6.1-0.2 9.1 0q1.1-5.7 5-10.1-4-6-8-12zm-8.3 27.7q6.8 0 13.6 0c-0.7-1.7-1.9-2.7-3.7-2.8-2.1-0.1-4.2-0.1-6.3 0-1.6 0-3.2 1.3-3.6 2.8zm8.2-15.6c0-0.7-0.7-1.4-1.4-1.4-0.8 0-1.4 0.6-1.4 1.4 0 0.8 0.6 1.4 1.4 1.4 0.7 0 1.4-0.6 1.4-1.4z"/>
		</g>
		<path id="&lt;Path&gt;" class="s4" d="m721.4 112.8q0-1.5 0-2.9c1-0.2 1.9-0.3 2.9-0.4 1-0.2 2-0.6 2.8-1.2 1.2-0.8 1.8-1.9 1.8-3.3q-0.1-3.3 0-6.6 0-0.2 0-0.5c-3 0-6 0-8.9 0q-0.1-0.2-0.1-0.4c-0.1-5 0.6-9.9 2.3-14.7q0.6-1.5 0-3.1c-0.6-2-1.3-3.9-1.8-6-0.3-1.4-0.3-3-0.5-4.5 0-0.2 0.2-0.4 0.3-0.5 1.5-1.6 3.2-2.6 5.3-3.2 0.3-0.1 0.4-0.2 0.4-0.6 0-1 0-1.9 0-3 3 0 5.9 0 8.9 0q0 1.5 0 3c0 0.4 0.1 0.5 0.4 0.6q3.1 0.9 5.3 3.1c0.1 0.2 0.3 0.5 0.3 0.7 0 2.6-0.5 5.1-1.3 7.5q-0.6 1.5-1 2.9-0.6 1.6 0 3.1c1.7 4.8 2.4 9.7 2.3 14.7q0 0.1 0 0.3c-3 0-5.9 0-9 0q0 0.4 0 0.6c0 2.1 0.1 4.2 0 6.3 0 2 0.9 3.3 2.7 4.1 1.4 0.7 2.8 0.9 4.3 1 0.1 0 0.3 0 0.5 0q0 1.5 0 3-0.7 0-1.3 0-0.3-0.1-0.5-0.1c-2.8-0.3-5.2-1.1-7.1-3.3q0 0-0.1 0c-1.4 1.7-3.3 2.6-5.4 3-0.7 0.2-1.5 0.3-2.2 0.4q-0.6 0-1.3 0z"/>
		<path id="&lt;Path&gt;" class="s5" d="m443.3 267.1h-62.2c-5.8 0-10.4-4.7-10.4-10.4 0-5.8 4.6-10.5 10.4-10.5h62.2c5.8 0 10.5 4.7 10.5 10.5 0 5.7-4.7 10.4-10.5 10.4z"/>
		<g id="&lt;Group&gt;">
			<path id="&lt;Path&gt;" class="s5" d="m447.1 256.4c0 2.1-1.8 3.8-3.9 3.8-2.1 0-3.8-1.7-3.8-3.8 0-2.1 1.7-3.9 3.8-3.9 2.1 0 3.9 1.8 3.9 3.9z"/>
			<g id="&lt;Group&gt;">
				<path id="&lt;Path&gt;" class="s4" d="m442.9 258.2q-0.1 0-0.1 0c-0.1-0.1-0.1-0.2 0-0.3l1.6-1.6-1.6-1.5c-0.1 0-0.1-0.1 0-0.2 0-0.1 0.1-0.1 0.2 0l1.8 1.5q0.1 0.1 0.1 0.2 0 0.1-0.1 0.1l-1.8 1.8q0 0-0.1 0z"/>
			</g>
		</g>
		<g id="&lt;Group&gt;">
			<g id="&lt;Group&gt;">
				<path id="&lt;Path&gt;" class="s5" d="m600.7 267.1h-62.3c-5.8 0-10.4-4.7-10.4-10.4 0-5.8 4.6-10.5 10.4-10.5h62.3c5.7 0 10.4 4.7 10.4 10.5 0 5.7-4.7 10.4-10.4 10.4z"/>
				<g id="&lt;Group&gt;">
					<path id="&lt;Path&gt;" class="s5" d="m604.4 256.4c0 2.1-1.7 3.8-3.9 3.8-2.1 0-3.8-1.7-3.8-3.8 0-2.1 1.7-3.9 3.8-3.9 2.2 0 3.9 1.8 3.9 3.9z"/>
					<g id="&lt;Group&gt;">
						<path id="&lt;Path&gt;" class="s4" d="m600.2 258.2q-0.1 0-0.1 0c-0.1-0.1-0.1-0.2 0-0.3l1.7-1.6-1.7-1.5c-0.1 0-0.1-0.1 0-0.2 0-0.1 0.2-0.1 0.2 0l1.8 1.5q0.1 0.1 0.1 0.2 0 0.1-0.1 0.1l-1.8 1.8q0 0-0.1 0z"/>
					</g>
				</g>
			</g>
		</g>
		<g id="&lt;Group&gt;">
			<g id="&lt;Group&gt;">
				<path id="&lt;Path&gt;" class="s5" d="m760 267.1h-62.3c-5.7 0-10.4-4.7-10.4-10.4 0-5.8 4.7-10.5 10.4-10.5h62.3c5.7 0 10.4 4.7 10.4 10.5 0 5.7-4.7 10.4-10.4 10.4z"/>
				<g id="&lt;Group&gt;">
					<path id="&lt;Path&gt;" class="s5" d="m763.7 256.4c0 2.1-1.7 3.8-3.8 3.8-2.1 0-3.9-1.7-3.9-3.8 0-2.1 1.8-3.9 3.9-3.9 2.1 0 3.8 1.8 3.8 3.9z"/>
					<g id="&lt;Group&gt;">
						<path id="&lt;Path&gt;" class="s4" d="m759.5 258.2q0 0-0.1 0c-0.1-0.1-0.1-0.2 0-0.3l1.7-1.6-1.7-1.5c-0.1 0-0.1-0.1 0-0.2 0.1-0.1 0.2-0.1 0.3 0l1.8 1.5q0 0.1 0 0.2 0 0.1 0 0.1l-1.8 1.8q-0.1 0-0.2 0z"/>
					</g>
				</g>
			</g>
		</g>
	</g>
	<g id="TEXTS">
		<g id="&lt;Group&gt;">
			<g id="&lt;Group&gt;">
				<path id="&lt;Path&gt;" class="s4" d="m118.8 143.7c0.8 0 0.8-1.3 0-1.3-0.8 0-0.8 1.3 0 1.3z"/>
			</g>
		</g>
		<g id="&lt;Group&gt;">
			<g id="&lt;Group&gt;">
				<g id="&lt;Group&gt;">
					<text id="We are provide
" style="transform: matrix(1,0,0,1,58.657,104.396)" >
						<tspan x="0" y="0" class="t6" dx="0 -1 -1 -1 -1 -1 -1 -1 -1 -1 -1 -1 -1 -1 -1" >We are provide
</tspan>
					</text>
					<text id="Your Kids.
" style="transform: matrix(1,0,0,1,58.657,165.051)" >
						<tspan x="0" y="0" class="t6" dx="0 -1 -1 -1 -1 -1 -1 -1 -1 -1 -1" >Your Kids.
</tspan>
					</text>
					<text id="Best Course For
" style="transform: matrix(1,0,0,1,58.657,132.857)" >
						<tspan x="0" y="0" class="t7" dx="0 -1 -1 -1 -1 -1 -1 -1 -1 -1 -1 -1 -1 -1 -1 -1" >Best Course For
</tspan>
					</text>
				</g>
				<g id="&lt;Group&gt;">
					<g id="&lt;Group&gt;">
						<g id="&lt;Group&gt;">
							<g id="&lt;Group&gt;">
								<g id="&lt;Group&gt;">
								</g>
							</g>
						</g>
					</g>
				</g>
			</g>
			<text id="Lorem ipsum dolor sit amet, consectetuer adipiscin" style="transform: matrix(1,0,0,1,58.128,185.127)" >
				<tspan x="0" y="5.2" class="t8">Lorem ipsum dolor sit amet, consectetuer adipiscing elit, </tspan>
				<tspan x="0" y="17.9" class="t8">sed diam nonummy nibh euismod tincidunt ut laoreet </tspan>
				<tspan x="0" y="30.6" class="t8">dolore magna aliquam erat volutpat. 
</tspan>
			</text>
		</g>
		<g id="&lt;Group&gt;">
			<g id="&lt;Group&gt;">
				<g id="&lt;Group&gt;">
					<g id="&lt;Group&gt;">
						<path id="&lt;Compound Path&gt;" fill-rule="evenodd" class="s4" d="m281 51.6c-1.1 0-1.9-0.8-1.9-1.9 0-1 0.8-1.9 1.9-1.9 1 0 1.9 0.9 1.9 1.9 0 1.1-0.9 1.9-1.9 1.9zm0-3c-0.7 0-1.2 0.5-1.2 1.1 0 0.7 0.5 1.2 1.2 1.2 0.6 0 1.2-0.5 1.2-1.2 0-0.6-0.6-1.1-1.2-1.1z"/>
					</g>
					<g id="&lt;Group&gt;">
						<path id="&lt;Compound Path&gt;" fill-rule="evenodd" class="s4" d="m289.2 51.6c-1 0-1.9-0.8-1.9-1.9 0-1 0.9-1.9 1.9-1.9 1.1 0 2 0.9 2 1.9 0 1.1-0.9 1.9-2 1.9zm0-3c-0.6 0-1.1 0.5-1.1 1.1 0 0.7 0.5 1.2 1.1 1.2 0.7 0 1.2-0.5 1.2-1.2 0-0.6-0.5-1.1-1.2-1.1z"/>
					</g>
					<g id="&lt;Group&gt;">
						<path id="&lt;Compound Path&gt;" fill-rule="evenodd" class="s4" d="m297.5 51.6c-1 0-1.9-0.8-1.9-1.9 0-1 0.9-1.9 1.9-1.9 1.1 0 1.9 0.9 1.9 1.9 0 1.1-0.8 1.9-1.9 1.9zm0-3c-0.6 0-1.2 0.5-1.2 1.1 0 0.7 0.6 1.2 1.2 1.2 0.7 0 1.2-0.5 1.2-1.2 0-0.6-0.5-1.1-1.2-1.1z"/>
					</g>
				</g>
				<g id="&lt;Group&gt;">
					<g id="&lt;Group&gt;">
						<path id="&lt;Compound Path&gt;" fill-rule="evenodd" class="s4" d="m281 59.9c-1.1 0-1.9-0.8-1.9-1.9 0-1.1 0.8-1.9 1.9-1.9 1 0 1.9 0.8 1.9 1.9 0 1.1-0.9 1.9-1.9 1.9zm0-3.1c-0.7 0-1.2 0.6-1.2 1.2 0 0.6 0.5 1.2 1.2 1.2 0.6 0 1.2-0.6 1.2-1.2 0-0.6-0.6-1.2-1.2-1.2z"/>
					</g>
					<g id="&lt;Group&gt;">
						<path id="&lt;Compound Path&gt;" fill-rule="evenodd" class="s4" d="m289.2 59.9c-1 0-1.9-0.8-1.9-1.9 0-1.1 0.9-1.9 1.9-1.9 1.1 0 2 0.8 2 1.9 0 1.1-0.9 1.9-2 1.9zm0-3.1c-0.6 0-1.1 0.6-1.1 1.2 0 0.6 0.5 1.2 1.1 1.2 0.7 0 1.2-0.6 1.2-1.2 0-0.6-0.5-1.2-1.2-1.2z"/>
					</g>
					<g id="&lt;Group&gt;">
						<path id="&lt;Compound Path&gt;" fill-rule="evenodd" class="s4" d="m297.5 59.9c-1 0-1.9-0.8-1.9-1.9 0-1.1 0.9-1.9 1.9-1.9 1.1 0 1.9 0.8 1.9 1.9 0 1.1-0.8 1.9-1.9 1.9zm0-3.1c-0.6 0-1.2 0.6-1.2 1.2 0 0.6 0.6 1.2 1.2 1.2 0.7 0 1.2-0.6 1.2-1.2 0-0.6-0.5-1.2-1.2-1.2z"/>
					</g>
				</g>
				<g id="&lt;Group&gt;">
					<g id="&lt;Group&gt;">
						<path id="&lt;Compound Path&gt;" fill-rule="evenodd" class="s4" d="m281 68.2c-1.1 0-1.9-0.9-1.9-1.9 0-1.1 0.8-1.9 1.9-1.9 1 0 1.9 0.8 1.9 1.9 0 1-0.9 1.9-1.9 1.9zm0-3.1c-0.7 0-1.2 0.5-1.2 1.2 0 0.6 0.5 1.1 1.2 1.1 0.6 0 1.2-0.5 1.2-1.1 0-0.7-0.6-1.2-1.2-1.2z"/>
					</g>
					<g id="&lt;Group&gt;">
						<path id="&lt;Compound Path&gt;" fill-rule="evenodd" class="s4" d="m289.2 68.2c-1 0-1.9-0.9-1.9-1.9 0-1.1 0.9-1.9 1.9-1.9 1.1 0 2 0.8 2 1.9 0 1-0.9 1.9-2 1.9zm0-3.1c-0.6 0-1.1 0.5-1.1 1.2 0 0.6 0.5 1.1 1.1 1.1 0.7 0 1.2-0.5 1.2-1.1 0-0.7-0.5-1.2-1.2-1.2z"/>
					</g>
					<g id="&lt;Group&gt;">
						<path id="&lt;Compound Path&gt;" fill-rule="evenodd" class="s4" d="m297.5 68.2c-1 0-1.9-0.9-1.9-1.9 0-1.1 0.9-1.9 1.9-1.9 1.1 0 1.9 0.8 1.9 1.9 0 1-0.8 1.9-1.9 1.9zm0-3.1c-0.6 0-1.2 0.5-1.2 1.2 0 0.6 0.6 1.1 1.2 1.1 0.7 0 1.2-0.5 1.2-1.1 0-0.7-0.5-1.2-1.2-1.2z"/>
					</g>
				</g>
				<g id="&lt;Group&gt;">
					<g id="&lt;Group&gt;">
						<path id="&lt;Compound Path&gt;" fill-rule="evenodd" class="s4" d="m297.5 43.4c-1 0-1.9-0.9-1.9-1.9 0-1.1 0.9-1.9 1.9-1.9 1.1 0 1.9 0.8 1.9 1.9 0 1-0.8 1.9-1.9 1.9zm0-3.1c-0.6 0-1.2 0.5-1.2 1.2 0 0.6 0.6 1.1 1.2 1.1 0.7 0 1.2-0.5 1.2-1.1 0-0.7-0.5-1.2-1.2-1.2z"/>
					</g>
					<g id="&lt;Group&gt;">
						<path id="&lt;Compound Path&gt;" fill-rule="evenodd" class="s4" d="m289.2 43.4c-1 0-1.9-0.9-1.9-1.9 0-1.1 0.9-1.9 1.9-1.9 1.1 0 2 0.8 2 1.9 0 1-0.9 1.9-2 1.9zm0-3.1c-0.6 0-1.1 0.5-1.1 1.2 0 0.6 0.5 1.1 1.1 1.1 0.7 0 1.2-0.5 1.2-1.1 0-0.7-0.5-1.2-1.2-1.2z"/>
					</g>
					<g id="&lt;Group&gt;">
						<path id="&lt;Compound Path&gt;" fill-rule="evenodd" class="s4" d="m281 43.4c-1.1 0-1.9-0.9-1.9-1.9 0-1.1 0.8-1.9 1.9-1.9 1 0 1.9 0.8 1.9 1.9 0 1-0.9 1.9-1.9 1.9zm0-3.1c-0.7 0-1.2 0.5-1.2 1.2 0 0.6 0.5 1.1 1.2 1.1 0.6 0 1.2-0.5 1.2-1.1 0-0.7-0.6-1.2-1.2-1.2z"/>
					</g>
				</g>
				<g id="&lt;Group&gt;">
					<g id="&lt;Group&gt;">
						<path id="&lt;Compound Path&gt;" fill-rule="evenodd" class="s4" d="m297.5 35.1c-1 0-1.9-0.8-1.9-1.9 0-1.1 0.9-1.9 1.9-1.9 1.1 0 1.9 0.8 1.9 1.9 0 1.1-0.8 1.9-1.9 1.9zm0-3.1c-0.6 0-1.2 0.6-1.2 1.2 0 0.6 0.6 1.2 1.2 1.2 0.7 0 1.2-0.6 1.2-1.2 0-0.6-0.5-1.2-1.2-1.2z"/>
					</g>
					<g id="&lt;Group&gt;">
						<path id="&lt;Compound Path&gt;" fill-rule="evenodd" class="s4" d="m289.2 35.1c-1 0-1.9-0.8-1.9-1.9 0-1.1 0.9-1.9 1.9-1.9 1.1 0 2 0.8 2 1.9 0 1.1-0.9 1.9-2 1.9zm0-3.1c-0.6 0-1.1 0.6-1.1 1.2 0 0.6 0.5 1.2 1.1 1.2 0.7 0 1.2-0.6 1.2-1.2 0-0.6-0.5-1.2-1.2-1.2z"/>
					</g>
					<g id="&lt;Group&gt;">
						<path id="&lt;Compound Path&gt;" fill-rule="evenodd" class="s4" d="m281 35.1c-1.1 0-1.9-0.8-1.9-1.9 0-1.1 0.8-1.9 1.9-1.9 1 0 1.9 0.8 1.9 1.9 0 1.1-0.9 1.9-1.9 1.9zm0-3.1c-0.7 0-1.2 0.6-1.2 1.2 0 0.6 0.5 1.2 1.2 1.2 0.6 0 1.2-0.6 1.2-1.2 0-0.6-0.6-1.2-1.2-1.2z"/>
					</g>
				</g>
			</g>
		</g>
		<g id="&lt;Group&gt;">
			<g id="&lt;Group&gt;">
				<g id="&lt;Group&gt;">
					<g id="&lt;Group&gt;">
						<g id="&lt;Group&gt;">
							<g id="&lt;Group&gt;">
								<g id="&lt;Group&gt;">
								</g>
							</g>
						</g>
					</g>
					<text id="Lorem ipsum dolor sit amet, consectetuer adipiscin" style="transform: matrix(1,0,0,1,354.004,155.1)" >
						<tspan x="4.1" y="6.1" class="t9">Lorem ipsum dolor sit amet, </tspan>
						<tspan x="3.9" y="19.8" class="t9">consectetuer adipiscing elit, </tspan>
						<tspan x="10.7" y="33.6" class="t9">sed diam nonummy nibh </tspan>
						<tspan x="2.4" y="47.3" class="t9">euismod tinciidunt ut laoreet </tspan>
						<tspan x="31.4" y="61.1" class="t9">dolore magna.
</tspan>
					</text>
				</g>
			</g>
		</g>
		<g id="&lt;Group&gt;">
			<g id="&lt;Group&gt;">
				<g id="&lt;Group&gt;">
					<g id="&lt;Group&gt;">
						<g id="&lt;Group&gt;">
							<g id="&lt;Group&gt;">
								<g id="&lt;Group&gt;">
								</g>
							</g>
						</g>
					</g>
					<text id="Lorem ipsum dolor sit amet, consectetuer adipiscin" style="transform: matrix(1,0,0,1,511.312,155.1)" >
						<tspan x="4.1" y="6.1" class="t9">Lorem ipsum dolor sit amet, </tspan>
						<tspan x="3.9" y="19.8" class="t9">consectetuer adipiscing elit, </tspan>
						<tspan x="10.7" y="33.6" class="t9">sed diam nonummy nibh </tspan>
						<tspan x="2.4" y="47.3" class="t9">euismod tinciidunt ut laoreet </tspan>
						<tspan x="31.4" y="61.1" class="t9">dolore magna.
</tspan>
					</text>
				</g>
			</g>
		</g>
		<g id="&lt;Group&gt;">
			<g id="&lt;Group&gt;">
				<g id="&lt;Group&gt;">
					<g id="&lt;Group&gt;">
						<g id="&lt;Group&gt;">
							<g id="&lt;Group&gt;">
								<text id="Graphic Design
" style="transform: matrix(1,0,0,1,570.837,141.71)" >
									<tspan x="-46.3" y="0" class="t10" dx="0 -1 -1 -1 -1 -1 -1 -1 -1 -1 -1 -1 -1 -1 -1" >Graphic Design
</tspan>
								</text>
							</g>
						</g>
					</g>
					<text id="Lorem ipsum dolor sit amet, cons" style="transform: matrix(1,0,0,1,670.64,155.1)" >
						<tspan x="4.1" y="6.1" class="t9">Lorem ipsum dolor sit amet, </tspan>
						<tspan x="3.9" y="19.8" class="t9">consectetuer adipiscing elit, </tspan>
						<tspan x="10.7" y="33.6" class="t9">sed diam nonummy nibh </tspan>
						<tspan x="2.4" y="47.3" class="t9">euismod tinciidunt ut laoreet </tspan>
						<tspan x="31.4" y="61.1" class="t9">dolore magna.
</tspan>
					</text>
				</g>
			</g>
		</g>
	</g>
</svg>