<svg width="39" height="39" viewBox="0 0 39 39" fill="none" xmlns="http://www.w3.org/2000/svg">
<path d="M8.73524 3.17639H26.9999C28.053 3.17639 29.0629 3.59472 29.8076 4.33935C30.5522 5.08398 30.9705 6.09391 30.9705 7.14698V17.9676C29.1607 17.3813 27.2241 17.3064 25.3744 17.7513C23.5247 18.1961 21.8339 19.1435 20.4887 20.4887C19.1435 21.8339 18.1962 23.5247 17.7513 25.3744C17.3064 27.2241 17.3813 29.1607 17.9676 30.9705H7.147C7.147 31.3917 7.31433 31.7957 7.61218 32.0936C7.91004 32.3914 8.31401 32.5587 8.73524 32.5587H18.6331C19.0878 33.4301 19.6643 34.2323 20.3452 34.9411H8.73524C7.68217 34.9411 6.67224 34.5228 5.92761 33.7781C5.18298 33.0335 4.76465 32.0236 4.76465 30.9705V7.14698C4.76465 6.09391 5.18298 5.08398 5.92761 4.33935C6.67224 3.59472 7.68217 3.17639 8.73524 3.17639ZM11.1176 7.9411C10.6964 7.9411 10.2924 8.10843 9.99454 8.40628C9.69669 8.70413 9.52935 9.10811 9.52935 9.52933V11.1176C9.52935 11.5388 9.69669 11.9428 9.99454 12.2406C10.2924 12.5385 10.6964 12.7058 11.1176 12.7058H23.8235C24.2447 12.7058 24.6487 12.5385 24.9465 12.2406C25.2444 11.9428 25.4117 11.5388 25.4117 11.1176V9.52933C25.4117 9.10811 25.2444 8.70413 24.9465 8.40628C24.6487 8.10843 24.2447 7.9411 23.8235 7.9411H11.1176ZM36.5294 27.794C36.5294 25.4773 35.609 23.2554 33.9708 21.6173C32.3327 19.9791 30.1108 19.0587 27.7941 19.0587C25.4773 19.0587 23.2555 19.9791 21.6173 21.6173C19.9791 23.2554 19.0588 25.4773 19.0588 27.794C19.0588 30.1108 19.9791 32.3326 21.6173 33.9708C23.2555 35.609 25.4773 36.5293 27.7941 36.5293C30.1108 36.5293 32.3327 35.609 33.9708 33.9708C35.609 32.3326 36.5294 30.1108 36.5294 27.794ZM26.8634 23.9775L31.3199 26.8999C31.458 26.9885 31.5713 27.1108 31.6491 27.2553C31.7269 27.3998 31.7667 27.5617 31.7646 27.7257C31.7648 27.8909 31.7256 28.0537 31.6503 28.2006C31.5792 28.3461 31.4707 28.47 31.3358 28.5596L26.8776 31.601C26.8001 31.6532 26.7156 31.6944 26.6267 31.7233C26.4203 31.7892 26.1967 31.7762 25.9994 31.6868C25.8856 31.6335 25.7819 31.561 25.6928 31.4724C25.6068 31.3787 25.537 31.2714 25.4864 31.1547C25.4367 31.0355 25.4114 30.9075 25.4117 30.7783V24.8097C25.4109 24.6186 25.4655 24.4314 25.569 24.2707C25.6724 24.11 25.8203 23.9828 25.9946 23.9044C26.1331 23.8396 26.2861 23.812 26.4385 23.8246C26.5909 23.8371 26.7374 23.8893 26.8634 23.9759" fill="#996CFE"/>
</svg>
